<svg width="16" height="17" viewBox="0 0 16 17" fill="none" xmlns="http://www.w3.org/2000/svg">
<path d="M7.99961 9.36668C7.91295 9.36668 7.82628 9.34668 7.74628 9.30002L1.85959 5.89335C1.61959 5.75335 1.53957 5.44666 1.67957 5.20666C1.81957 4.96666 2.11957 4.88665 2.36624 5.02665L7.99961 8.28668L13.5995 5.04667C13.8395 4.90667 14.1462 4.99335 14.2862 5.22668C14.4262 5.46668 14.3396 5.77333 14.1063 5.91333L8.25961 9.30002C8.17295 9.34002 8.08628 9.36668 7.99961 9.36668Z" fill="#292F37"/>
<path d="M8 15.4068C7.72667 15.4068 7.5 15.1801 7.5 14.9068V8.86011C7.5 8.58677 7.72667 8.36011 8 8.36011C8.27333 8.36011 8.5 8.58677 8.5 8.86011V14.9068C8.5 15.1801 8.27333 15.4068 8 15.4068Z" fill="#292F37"/>
<path d="M8.0004 15.6666C7.41374 15.6666 6.83374 15.5399 6.37374 15.2866L2.81374 13.3066C1.84708 12.7733 1.09375 11.4866 1.09375 10.3799V6.61324C1.09375 5.50657 1.84708 4.2266 2.81374 3.6866L6.37374 1.71325C7.28707 1.20659 8.71374 1.20659 9.62707 1.71325L13.1871 3.69323C14.1537 4.22657 14.9071 5.51325 14.9071 6.61991V10.3866C14.9071 11.4933 14.1537 12.7733 13.1871 13.3133L9.62707 15.2866C9.16707 15.5399 8.58707 15.6666 8.0004 15.6666ZM8.0004 2.33325C7.5804 2.33325 7.16707 2.41992 6.8604 2.58659L3.30042 4.56657C2.66042 4.92657 2.09375 5.87991 2.09375 6.61991V10.3866C2.09375 11.1199 2.66042 12.0799 3.30042 12.4399L6.8604 14.4199C7.46707 14.7599 8.53374 14.7599 9.1404 14.4199L12.7004 12.4399C13.3404 12.0799 13.9071 11.1266 13.9071 10.3866V6.61991C13.9071 5.88658 13.3404 4.92657 12.7004 4.56657L9.1404 2.58659C8.83374 2.41992 8.4204 2.33325 8.0004 2.33325Z" fill="#292F37"/>
<path d="M11.3341 9.82658C11.0608 9.82658 10.8341 9.59992 10.8341 9.32658V7.17998L4.75412 3.6733C4.51412 3.5333 4.4341 3.22662 4.5741 2.99328C4.7141 2.75328 5.01412 2.67327 5.25412 2.81327L11.5808 6.46663C11.7341 6.5533 11.8341 6.71994 11.8341 6.89994V9.33998C11.8341 9.59998 11.6075 9.82658 11.3341 9.82658Z" fill="#292F37"/>
</svg>
