<svg width="16" height="17" viewBox="0 0 16 17" fill="none" xmlns="http://www.w3.org/2000/svg">
<path d="M8.00001 15.6666C6.80667 15.6666 5.83334 14.6933 5.83334 13.4999V12.9999H3.00001C2.50667 12.9999 2.04667 12.8066 1.70001 12.4533C1.36001 12.1199 1.16667 11.6599 1.16667 11.1666C1.16667 10.2333 1.89334 9.43325 2.82667 9.33992C2.86001 9.33325 2.92667 9.33325 3.00001 9.33325H13C13.0733 9.33325 13.14 9.33325 13.2067 9.34659C13.6 9.37992 13.9933 9.56659 14.3 9.87992C14.68 10.2466 14.8733 10.7799 14.8267 11.3266C14.7467 12.2666 13.9133 12.9999 12.9267 12.9999H10.1667V13.4999C10.1667 14.6933 9.19334 15.6666 8.00001 15.6666ZM3.00001 10.3333C2.98667 10.3333 2.93334 10.3333 2.92001 10.3399C2.50001 10.3799 2.16667 10.7466 2.16667 11.1666C2.16667 11.3866 2.25334 11.5933 2.40667 11.7466C2.56667 11.9133 2.77334 11.9999 3.00001 11.9999H6.33334C6.60667 11.9999 6.83334 12.2266 6.83334 12.4999V13.4999C6.83334 14.1399 7.36001 14.6666 8.00001 14.6666C8.64001 14.6666 9.16667 14.1399 9.16667 13.4999V12.4999C9.16667 12.2266 9.39334 11.9999 9.66667 11.9999H12.9267C13.3867 11.9999 13.7933 11.6599 13.8333 11.2399C13.8533 10.9866 13.7667 10.7533 13.5933 10.5799C13.4467 10.4333 13.2733 10.3466 13.0867 10.3333L13 10.3266H3.00001V10.3333Z" fill="#292F37"/>
<path d="M13.1264 10.3399C13.0997 10.3399 13.0731 10.3399 13.0464 10.3333H2.99977C2.85977 10.3599 2.6931 10.3199 2.58644 10.2266C2.4731 10.1399 2.38644 10.0066 2.37977 9.86659L2.0531 4.05992C1.98644 3.37992 2.2131 2.67992 2.68644 2.15325C3.15977 1.63325 3.8331 1.33325 4.53977 1.33325H11.4598C12.1665 1.33325 12.8397 1.63325 13.3131 2.15992C13.7797 2.67992 14.0131 3.37992 13.9464 4.07325L13.6264 9.86659C13.6197 10.0066 13.5531 10.1399 13.4397 10.2266C13.3531 10.2999 13.2397 10.3399 13.1264 10.3399ZM3.34644 9.33325H12.6531L12.9464 4.00659C12.9464 3.99992 12.9464 3.99325 12.9464 3.97992C12.9864 3.55325 12.8531 3.13992 12.5665 2.82659C12.2798 2.51325 11.8798 2.33325 11.4531 2.33325H4.53977C4.11977 2.33325 3.7131 2.51325 3.42644 2.82659C3.13977 3.14659 3.00644 3.55325 3.0531 3.97992L3.34644 9.33325Z" fill="#292F37"/>
<path d="M5.32681 5.66658C5.05348 5.66658 4.82681 5.43992 4.82681 5.16658V1.83325C4.82681 1.55992 5.05348 1.33325 5.32681 1.33325C5.60015 1.33325 5.82681 1.55992 5.82681 1.83325V5.16658C5.82681 5.43992 5.60015 5.66658 5.32681 5.66658Z" fill="#292F37"/>
<path d="M8 3.66659C7.72667 3.66659 7.5 3.43992 7.5 3.16659V1.83325C7.5 1.55992 7.72667 1.33325 8 1.33325C8.27333 1.33325 8.5 1.55992 8.5 1.83325V3.16659C8.5 3.43992 8.27333 3.66659 8 3.66659Z" fill="#292F37"/>
</svg>
