<svg width="16" height="17" viewBox="0 0 16 17" fill="none" xmlns="http://www.w3.org/2000/svg">
<path d="M9.98048 15.6666H5.98048C2.36048 15.6666 0.813812 14.1199 0.813812 10.4999V6.49992C0.813812 2.87992 2.36048 1.33325 5.98048 1.33325H9.98048C13.6005 1.33325 15.1471 2.87992 15.1471 6.49992V10.4999C15.1471 14.1199 13.6071 15.6666 9.98048 15.6666ZM5.98048 2.33325C2.90715 2.33325 1.81381 3.42659 1.81381 6.49992V10.4999C1.81381 13.5733 2.90715 14.6666 5.98048 14.6666H9.98048C13.0538 14.6666 14.1471 13.5733 14.1471 10.4999V6.49992C14.1471 3.42659 13.0538 2.33325 9.98048 2.33325H5.98048Z" fill="#292F37"/>
<path d="M2.18061 14.1332C2.05395 14.1332 1.92728 14.0865 1.82728 13.9865C1.63395 13.7932 1.63395 13.4732 1.82728 13.2799L12.7939 2.31321C12.9873 2.11988 13.3073 2.11988 13.5006 2.31321C13.6939 2.50655 13.6939 2.82655 13.5006 3.01988L2.53395 13.9865C2.44061 14.0865 2.31395 14.1332 2.18061 14.1332Z" fill="#292F37"/>
<path d="M10.707 13.0001C10.4337 13.0001 10.207 12.7734 10.207 12.5001V9.16675C10.207 8.89341 10.4337 8.66675 10.707 8.66675C10.9803 8.66675 11.207 8.89341 11.207 9.16675V12.5001C11.207 12.7734 10.9803 13.0001 10.707 13.0001Z" fill="#292F37"/>
<path d="M12.3333 11.3333H9C8.72667 11.3333 8.5 11.1066 8.5 10.8333C8.5 10.5599 8.72667 10.3333 9 10.3333H12.3333C12.6067 10.3333 12.8333 10.5599 12.8333 10.8333C12.8333 11.1066 12.6067 11.3333 12.3333 11.3333Z" fill="#292F37"/>
<path d="M6.99999 6H3.66666C3.39332 6 3.16666 5.77333 3.16666 5.5C3.16666 5.22667 3.39332 5 3.66666 5H6.99999C7.27332 5 7.49999 5.22667 7.49999 5.5C7.49999 5.77333 7.27332 6 6.99999 6Z" fill="#292F37"/>
</svg>
