<svg width="16" height="17" viewBox="0 0 16 17" fill="none" xmlns="http://www.w3.org/2000/svg">
<path d="M10.5595 15.6666H5.4395C3.65284 15.6666 2.8395 14.9999 2.4795 14.4466C1.95284 13.6333 1.97284 12.5199 2.5395 11.2266L5.09284 5.42659C4.7395 5.33325 4.41284 5.14659 4.15284 4.88659C3.77284 4.49992 3.54617 3.96659 3.54617 3.41325C3.54617 2.26659 4.4795 1.33325 5.62617 1.33325H10.3662C10.9195 1.33325 11.4462 1.55325 11.8395 1.94659C12.3595 2.46659 12.5662 3.20659 12.3929 3.91992C12.2195 4.63325 11.6329 5.19992 10.9129 5.40659L13.4595 11.2333C14.0195 12.5199 14.0395 13.6333 13.5062 14.4466C13.1462 14.9999 12.3329 15.6666 10.5595 15.6666ZM5.62617 2.33325C5.03284 2.33325 4.54617 2.81992 4.54617 3.41325C4.54617 3.69992 4.66617 3.97992 4.8595 4.17992C5.0595 4.37992 5.3395 4.49325 5.62617 4.49325H5.82617C5.99284 4.49325 6.15284 4.57992 6.24617 4.71992C6.3395 4.85992 6.35284 5.03992 6.28617 5.19325L3.45284 11.6266C3.03284 12.5866 2.9795 13.3933 3.31284 13.8999C3.72617 14.5333 4.69284 14.6666 5.43284 14.6666H10.5529C11.2862 14.6666 12.2462 14.5333 12.6662 13.8999C12.9995 13.3866 12.9529 12.5866 12.5395 11.6333L9.73286 5.19325C9.6662 5.03992 9.67953 4.85992 9.77286 4.71992C9.8662 4.57992 10.0195 4.49325 10.1929 4.49325H10.2995C10.8329 4.49325 11.3129 4.15325 11.4262 3.67992C11.5195 3.29992 11.4129 2.92659 11.1395 2.65325C10.9329 2.44659 10.6595 2.33325 10.3729 2.33325H5.62617Z" fill="#292F37"/>
<path d="M9.22707 10.5267C8.78707 10.5267 8.31373 10.4667 7.8404 10.3067C5.94703 9.6734 3.9937 9.74007 3.9737 9.74007C3.70703 9.78007 3.46703 9.5334 3.4537 9.26007C3.44037 8.98674 3.66037 8.7534 3.9337 8.74007C4.02037 8.7334 6.0937 8.66674 8.15373 9.3534C9.88707 9.9334 11.5871 8.8334 11.6071 8.82007C11.8337 8.66674 12.1471 8.7334 12.3004 8.96007C12.4537 9.18674 12.3937 9.50007 12.1604 9.6534C12.1004 9.70007 10.8337 10.5267 9.22707 10.5267Z" fill="#292F37"/>
</svg>
