<svg width="16" height="17" viewBox="0 0 16 17" fill="none" xmlns="http://www.w3.org/2000/svg">
<path d="M8.00593 15.6667C7.58593 15.6667 7.16593 15.5267 6.83926 15.2467L5.78593 14.3401C5.67926 14.2467 5.4126 14.1534 5.2726 14.1534H4.11926C3.1326 14.1534 2.3326 13.3534 2.3326 12.3667V11.2267C2.3326 11.0867 2.23927 10.8267 2.14594 10.7201L1.24594 9.66008C0.699271 9.01341 0.699271 7.99342 1.24594 7.34675L2.14594 6.28678C2.23927 6.18011 2.3326 5.92011 2.3326 5.78011V4.64005C2.3326 3.65339 3.1326 2.85343 4.11926 2.85343H5.2726C5.4126 2.85343 5.67926 2.75341 5.78593 2.66675L6.83926 1.76009C7.4926 1.20009 8.5126 1.20009 9.16593 1.76009L10.2193 2.66675C10.3259 2.76008 10.5926 2.85343 10.7326 2.85343H11.8659C12.8526 2.85343 13.6526 3.65339 13.6526 4.64005V5.77343C13.6526 5.91343 13.7526 6.18011 13.8459 6.28678L14.7459 7.34008C15.3059 7.99341 15.3059 9.01341 14.7459 9.66675L13.8459 10.7201C13.7526 10.8267 13.6593 11.0934 13.6593 11.2334V12.3667C13.6593 13.3534 12.8593 14.1534 11.8726 14.1534H10.7393C10.5993 14.1534 10.3326 14.2534 10.2259 14.3401L9.1726 15.2467C8.83926 15.5267 8.41926 15.6667 8.00593 15.6667ZM4.11926 3.84675C3.68593 3.84675 3.3326 4.20005 3.3326 4.63338V5.77343C3.3326 6.15343 3.1526 6.64009 2.9126 6.92675L2.0126 7.98675C1.77926 8.26008 1.77926 8.73342 2.0126 9.00675L2.9126 10.0667C3.15927 10.3601 3.33928 10.8467 3.33928 11.2201V12.3601C3.33928 12.7934 3.6926 13.1467 4.12594 13.1467H5.27928C5.66594 13.1467 6.15261 13.3267 6.44594 13.5801L7.49926 14.4867C7.7726 14.7201 8.2526 14.7201 8.52593 14.4867L9.57926 13.5801C9.8726 13.3334 10.3593 13.1467 10.7459 13.1467H11.8793C12.3126 13.1467 12.6659 12.7934 12.6659 12.3601V11.2267C12.6659 10.8401 12.8459 10.3534 13.0993 10.0601L13.9993 9.00675C14.2326 8.73342 14.2326 8.25342 13.9993 7.98008L13.0993 6.92675C12.8526 6.63342 12.6659 6.14675 12.6659 5.76009V4.62671C12.6659 4.19337 12.3126 3.84008 11.8793 3.84008H10.7459C10.3659 3.84008 9.8726 3.66007 9.57926 3.40673L8.52593 2.50008C8.2526 2.26675 7.7726 2.26675 7.49926 2.50008L6.44594 3.40673C6.15261 3.6534 5.66594 3.84008 5.27928 3.84008H4.11926V3.84675Z" fill="#292F37"/>
<path d="M9.33321 11.8133H8.14654C7.86654 11.8133 7.44647 11.7266 7.19981 11.4799L6.27985 10.7733L6.89321 9.97995L7.85987 10.7266C7.92654 10.7733 8.04654 10.8066 8.14654 10.8066H9.33321C9.49321 10.8066 9.68647 10.6667 9.71981 10.5267L10.4799 8.21328C10.4999 8.15328 10.4998 8.11335 10.4931 8.10001C10.4798 8.08001 10.4331 8.05995 10.3665 8.05995H9.11981C8.87981 8.05995 8.65987 7.96001 8.49987 7.78001C8.34654 7.60001 8.27314 7.36001 8.30647 7.11335L8.46654 6.10667C8.47987 6.05334 8.43987 5.98663 8.39987 5.97329C8.35987 5.96663 8.29987 5.97999 8.27987 5.99999L7.00654 7.89328L6.17319 7.33335L7.45314 5.43333C7.71981 5.03333 8.27987 4.86001 8.73321 5.02668C9.23987 5.19335 9.56647 5.76669 9.45314 6.28669L9.33321 7.04661H10.3665C10.7598 7.04661 11.1065 7.21335 11.3132 7.50668C11.5132 7.79335 11.5598 8.16668 11.4331 8.52001L10.6865 10.7867C10.5465 11.36 9.95321 11.8133 9.33321 11.8133Z" fill="#292F37"/>
<path d="M5.93351 11.4734H5.62017C4.64017 11.4734 4.4935 10.7867 4.4935 10.3801V7.32673C4.4935 6.92007 4.64017 6.2334 5.62017 6.2334H5.93351C6.91348 6.2334 7.06015 6.92007 7.06015 7.32673V10.3801C7.06015 10.7867 6.91348 11.4734 5.93351 11.4734ZM5.50685 10.4667C5.53351 10.4734 5.57351 10.4734 5.62685 10.4734H5.94018C5.99351 10.4734 6.03351 10.4734 6.06017 10.4667C6.06017 10.4467 6.06685 10.4201 6.06685 10.3801V7.32673C6.06685 7.28673 6.06684 7.26007 6.06017 7.24007C6.03351 7.2334 5.99351 7.2334 5.94018 7.2334H5.62685C5.57351 7.2334 5.53351 7.2334 5.50685 7.24007C5.50685 7.26007 5.50017 7.28673 5.50017 7.32673V10.3801C5.50017 10.4201 5.50018 10.4467 5.50685 10.4667Z" fill="#292F37"/>
</svg>
