<svg width="16" height="17" viewBox="0 0 16 17" fill="none" xmlns="http://www.w3.org/2000/svg">
<path d="M12.3333 9.00008C12.06 9.00008 11.8333 8.77341 11.8333 8.50008C11.8333 6.38675 10.1133 4.66675 8 4.66675C5.88667 4.66675 4.16667 6.38675 4.16667 8.50008C4.16667 8.77341 3.94001 9.00008 3.66667 9.00008C3.39334 9.00008 3.16667 8.77341 3.16667 8.50008C3.16667 5.83341 5.33334 3.66675 8 3.66675C10.6667 3.66675 12.8333 5.83341 12.8333 8.50008C12.8333 8.77341 12.6067 9.00008 12.3333 9.00008Z" fill="#292F37"/>
<path d="M14.6667 9.16675H14.6133C14.2467 9.16675 13.9467 8.86675 13.9467 8.50008C13.9467 8.13341 14.2467 7.83342 14.6133 7.83342C14.98 7.83342 15.3067 8.13341 15.3067 8.50008C15.3067 8.86675 15.0333 9.16675 14.6667 9.16675ZM1.38669 9.16675H1.33334C0.966672 9.16675 0.666672 8.86675 0.666672 8.50008C0.666672 8.13341 0.966672 7.83342 1.33334 7.83342C1.70001 7.83342 2.02666 8.13341 2.02666 8.50008C2.02666 8.86675 1.75335 9.16675 1.38669 9.16675ZM12.6733 4.49341C12.5 4.49341 12.3333 4.42675 12.2 4.30009C11.94 4.04009 11.94 3.62009 12.2 3.36009L12.2867 3.27341C12.5467 3.01341 12.9667 3.01341 13.2267 3.27341C13.4867 3.53341 13.4867 3.95342 13.2267 4.21342L13.14 4.30009C13.0133 4.42675 12.8467 4.49341 12.6733 4.49341ZM3.32667 4.49341C3.15333 4.49341 2.98669 4.42675 2.85336 4.30009L2.76669 4.21342C2.50669 3.95342 2.50669 3.53341 2.76669 3.27341C3.02669 3.01341 3.44667 3.01341 3.70667 3.27341L3.79334 3.36009C4.05334 3.62009 4.05334 4.04009 3.79334 4.30009C3.66667 4.42675 3.49333 4.49341 3.32667 4.49341ZM8.00001 2.52675C7.63334 2.52675 7.33334 2.25341 7.33334 1.88674V1.83341C7.33334 1.46675 7.63334 1.16675 8.00001 1.16675C8.36667 1.16675 8.66667 1.46675 8.66667 1.83341C8.66667 2.20008 8.36667 2.52675 8.00001 2.52675Z" fill="#292F37"/>
<path d="M13.3333 11H2.66667C2.39334 11 2.16667 10.7733 2.16667 10.5C2.16667 10.2267 2.39334 10 2.66667 10H13.3333C13.6067 10 13.8333 10.2267 13.8333 10.5C13.8333 10.7733 13.6067 11 13.3333 11Z" fill="#292F37"/>
<path d="M12 13H4C3.72667 13 3.5 12.7733 3.5 12.5C3.5 12.2267 3.72667 12 4 12H12C12.2733 12 12.5 12.2267 12.5 12.5C12.5 12.7733 12.2733 13 12 13Z" fill="#292F37"/>
<path d="M10 15H6C5.72667 15 5.5 14.7733 5.5 14.5C5.5 14.2267 5.72667 14 6 14H10C10.2733 14 10.5 14.2267 10.5 14.5C10.5 14.7733 10.2733 15 10 15Z" fill="#292F37"/>
</svg>
