<?xml version="1.0" encoding="UTF-8"?>
<svg xmlns="http://www.w3.org/2000/svg" xmlns:xlink="http://www.w3.org/1999/xlink" width="32px" height="32px" viewBox="0 0 32 32" version="1.1">
<g id="surface1">
<path style=" stroke:none;fill-rule:nonzero;fill:rgb(0%,0%,0%);fill-opacity:1;" d="M 28.136719 25.464844 C 28.042969 25.40625 27.335938 24.910156 26.625 23.410156 C 25.324219 20.652344 25.050781 16.773438 25.050781 14 C 25.050781 13.988281 25.050781 13.976562 25.050781 13.964844 C 25.035156 10.304688 22.84375 7.148438 19.707031 5.730469 L 19.707031 3.566406 C 19.707031 1.597656 18.109375 0 16.148438 0 L 15.851562 0 C 13.890625 0 12.292969 1.597656 12.292969 3.566406 L 12.292969 5.730469 C 9.144531 7.152344 6.949219 10.324219 6.949219 14 C 6.949219 16.773438 6.675781 20.652344 5.375 23.410156 C 4.664062 24.910156 3.957031 25.40625 3.863281 25.464844 C 3.464844 25.648438 3.269531 26.074219 3.363281 26.503906 C 3.453125 26.9375 3.859375 27.234375 4.300781 27.234375 L 11.171875 27.234375 C 11.210938 29.867188 13.363281 32 16 32 C 18.636719 32 20.789062 29.867188 20.828125 27.234375 L 27.699219 27.234375 C 28.140625 27.234375 28.546875 26.9375 28.636719 26.503906 C 28.730469 26.074219 28.535156 25.648438 28.136719 25.464844 Z M 14.167969 3.566406 C 14.167969 2.632812 14.925781 1.878906 15.851562 1.878906 L 16.148438 1.878906 C 17.074219 1.878906 17.832031 2.632812 17.832031 3.566406 L 17.832031 5.121094 C 17.238281 5 16.628906 4.933594 16 4.933594 C 15.371094 4.933594 14.761719 5 14.167969 5.121094 Z M 16 30.121094 C 14.394531 30.121094 13.085938 28.832031 13.046875 27.234375 L 18.953125 27.234375 C 18.914062 28.832031 17.605469 30.121094 16 30.121094 Z M 19.773438 25.355469 C 19.773438 25.355469 6.4375 25.355469 6.4375 25.355469 C 6.601562 25.105469 6.765625 24.816406 6.929688 24.496094 C 8.1875 22.015625 8.824219 18.488281 8.824219 14 C 8.824219 10.039062 12.042969 6.8125 16 6.8125 C 19.957031 6.8125 23.175781 10.039062 23.175781 14.003906 C 23.175781 14.015625 23.175781 14.027344 23.175781 14.039062 C 23.179688 18.507812 23.816406 22.023438 25.070312 24.496094 C 25.234375 24.816406 25.398438 25.105469 25.5625 25.355469 Z M 19.773438 25.355469 "/>
</g>
</svg>
