<svg width="16" height="16" viewBox="0 0 16 16" fill="none" xmlns="http://www.w3.org/2000/svg">
<g id="briefcase" clip-path="url(#clip0_689_8968)">
<path id="Vector" d="M10.6668 15.1668H5.33347C2.25347 15.1668 1.68014 13.7335 1.53347 12.3402L1.03347 7.00016C0.960141 6.30017 0.940141 5.26684 1.63347 4.4935C2.23347 3.82684 3.22681 3.50684 4.66681 3.50684H11.3335C12.7801 3.50684 13.7735 3.8335 14.3668 4.4935C15.0601 5.26684 15.0401 6.30017 14.9668 7.00683L14.4668 12.3335C14.3201 13.7335 13.7468 15.1668 10.6668 15.1668ZM4.66681 4.50017C3.54014 4.50017 2.76681 4.72017 2.37347 5.16017C2.04681 5.52017 1.94014 6.0735 2.02681 6.90016L2.52681 12.2402C2.64014 13.2935 2.92681 14.1668 5.33347 14.1668H10.6668C13.0668 14.1668 13.3601 13.2935 13.4735 12.2335L13.9735 6.90683C14.0601 6.0735 13.9535 5.52017 13.6268 5.16017C13.2335 4.72017 12.4601 4.50017 11.3335 4.50017H4.66681Z" fill="#63637E"/>
<path id="Vector_2" d="M10.6667 4.50016C10.3933 4.50016 10.1667 4.2735 10.1667 4.00016V3.46683C10.1667 2.28016 10.1667 1.8335 8.53334 1.8335H7.46668C5.83334 1.8335 5.83334 2.28016 5.83334 3.46683V4.00016C5.83334 4.2735 5.60668 4.50016 5.33334 4.50016C5.06001 4.50016 4.83334 4.2735 4.83334 4.00016V3.46683C4.83334 2.2935 4.83334 0.833496 7.46668 0.833496H8.53334C11.1667 0.833496 11.1667 2.2935 11.1667 3.46683V4.00016C11.1667 4.2735 10.94 4.50016 10.6667 4.50016Z" fill="#63637E"/>
<path id="Vector_3" d="M7.99999 11.1667C6.16666 11.1667 6.16666 10.0333 6.16666 9.35333V8.66667C6.16666 7.72667 6.39332 7.5 7.33332 7.5H8.66666C9.60666 7.5 9.83332 7.72667 9.83332 8.66667V9.33333C9.83332 10.0267 9.83332 11.1667 7.99999 11.1667ZM7.16666 8.5C7.16666 8.55333 7.16666 8.61333 7.16666 8.66667V9.35333C7.16666 10.04 7.16666 10.1667 7.99999 10.1667C8.83332 10.1667 8.83332 10.06 8.83332 9.34667V8.66667C8.83332 8.61333 8.83332 8.55333 8.83332 8.5C8.77999 8.5 8.71999 8.5 8.66666 8.5H7.33332C7.27999 8.5 7.21999 8.5 7.16666 8.5Z" fill="#63637E"/>
<path id="Vector_4" d="M9.33301 9.8465C9.08634 9.8465 8.86634 9.65983 8.83967 9.4065C8.80634 9.13317 8.99967 8.87983 9.27301 8.8465C11.033 8.6265 12.7197 7.95983 14.1397 6.9265C14.3597 6.75983 14.673 6.81317 14.8397 7.03983C14.9997 7.25983 14.953 7.57317 14.7263 7.73983C13.1663 8.87317 11.3263 9.59983 9.39301 9.8465C9.37301 9.8465 9.35301 9.8465 9.33301 9.8465Z" fill="#63637E"/>
<path id="Vector_5" d="M6.66714 9.85343C6.64715 9.85343 6.62715 9.85343 6.60715 9.85343C4.78048 9.64676 3.00048 8.9801 1.46048 7.92676C1.23382 7.77343 1.17382 7.4601 1.32715 7.23343C1.48048 7.00676 1.79382 6.94676 2.02048 7.1001C3.42715 8.0601 5.04715 8.66676 6.7138 8.8601C6.98714 8.89343 7.18714 9.1401 7.1538 9.41343C7.1338 9.66676 6.92047 9.85343 6.66714 9.85343Z" fill="#63637E"/>
</g>
<defs>
<clipPath id="clip0_689_8968">
<rect width="16" height="16" fill="white"/>
</clipPath>
</defs>
</svg>
