<svg width="21" height="22" viewBox="0 0 21 22" fill="none" xmlns="http://www.w3.org/2000/svg">
<g id="buildings-2">
<path id="Vector" d="M5.96066 16.7814H3.77664C2.20071 16.7814 1.29282 15.8735 1.29282 14.2976V4.27678C1.29282 2.70086 2.20071 1.79297 3.77664 1.79297H7.4595C9.03542 1.79297 9.94329 2.70086 9.94329 4.27678V5.86126C9.94329 6.21241 9.65208 6.50362 9.30093 6.50362C8.94977 6.50362 8.65855 6.21241 8.65855 5.86126V4.27678C8.65855 3.40317 8.33311 3.07769 7.4595 3.07769H3.77664C2.90303 3.07769 2.57755 3.40317 2.57755 4.27678V14.2976C2.57755 15.1712 2.90303 15.4967 3.77664 15.4967H5.96066C6.31181 15.4967 6.60302 15.7879 6.60302 16.139C6.60302 16.4902 6.31181 16.7814 5.96066 16.7814Z" fill="#14141C"/>
<path id="Vector_2" d="M13.0354 20.2072H8.03349C6.31196 20.2072 5.31846 19.2137 5.31846 17.4921V7.93378C5.31846 6.21225 6.31196 5.21875 8.03349 5.21875H13.0354C14.7569 5.21875 15.7418 6.21225 15.7418 7.93378V17.4921C15.7418 19.2137 14.7569 20.2072 13.0354 20.2072ZM8.03349 6.50347C7.00571 6.50347 6.60318 6.906 6.60318 7.93378V17.4921C6.60318 18.5199 7.00571 18.9225 8.03349 18.9225H13.0354C14.0546 18.9225 14.4571 18.5199 14.4571 17.4921V7.93378C14.4571 6.906 14.0546 6.50347 13.0354 6.50347H8.03349Z" fill="#14141C"/>
<path id="Vector_3" d="M17.2236 16.7814H15.0996C14.7485 16.7814 14.4573 16.4902 14.4573 16.139C14.4573 15.7879 14.7485 15.4967 15.0996 15.4967H17.2236C18.0972 15.4967 18.4228 15.1712 18.4228 14.2976V4.27678C18.4228 3.40317 18.0972 3.07769 17.2236 3.07769H13.5409C12.6672 3.07769 12.3418 3.40317 12.3418 4.27678V5.86126C12.3418 6.21241 12.0506 6.50362 11.6994 6.50362C11.3483 6.50362 11.0571 6.21241 11.0571 5.86126V4.27678C11.0571 2.70086 11.9649 1.79297 13.5409 1.79297H17.2236C18.7996 1.79297 19.7075 2.70086 19.7075 4.27678V14.2976C19.7075 15.8735 18.7996 16.7814 17.2236 16.7814Z" fill="#14141C"/>
<path id="Vector_4" d="M12.213 10.7857H8.78704C8.43588 10.7857 8.14468 10.4945 8.14468 10.1433C8.14468 9.79218 8.43588 9.50098 8.78704 9.50098H12.213C12.5641 9.50098 12.8553 9.79218 12.8553 10.1433C12.8553 10.4945 12.5641 10.7857 12.213 10.7857Z" fill="#14141C"/>
<path id="Vector_5" d="M12.213 13.355H8.78704C8.43588 13.355 8.14468 13.0638 8.14468 12.7127C8.14468 12.3615 8.43588 12.0703 8.78704 12.0703H12.213C12.5641 12.0703 12.8553 12.3615 12.8553 12.7127C12.8553 13.0638 12.5641 13.355 12.213 13.355Z" fill="#14141C"/>
<path id="Vector_6" d="M10.5 20.2072C10.1488 20.2072 9.85764 19.916 9.85764 19.5648V16.9954C9.85764 16.6442 10.1488 16.353 10.5 16.353C10.8512 16.353 11.1424 16.6442 11.1424 16.9954V19.5648C11.1424 19.916 10.8512 20.2072 10.5 20.2072Z" fill="#14141C"/>
</g>
</svg>
