<svg width="17" height="17" viewBox="0 0 17 17" fill="none" xmlns="http://www.w3.org/2000/svg">
<path d="M15.7999 1.56943C15.5999 1.36943 15.2666 1.36943 15.0666 1.56943L14.9999 1.6361L14.3999 2.2361L14.1999 2.4361L13.6666 2.96943L12.0666 4.56943L11.4666 5.16943V5.2361L10.5999 6.10277L9.26657 7.4361L8.26657 8.4361L5.7999 10.9028L5.5999 11.1028L4.9999 11.7028L4.7999 11.9028L4.5999 12.1028L3.5999 13.1028L1.7999 14.9028C1.5999 15.1028 1.5999 15.4361 1.7999 15.6361C1.86657 15.7694 1.9999 15.7694 2.13324 15.7694C2.26657 15.7694 2.3999 15.7028 2.46657 15.6361L4.7999 13.3028L5.06657 13.0361L5.7999 12.3028L5.86657 12.2361L6.13324 11.9694L7.13324 10.9694L7.7999 10.3028L8.7999 9.30277L9.7999 8.30277L10.5999 7.50277L11.9999 6.10277L12.1332 5.96943L12.7332 5.36943L12.8666 5.2361L14.3332 3.76943L15.0666 3.0361L15.1332 2.96943L15.8666 2.2361L15.9332 2.16943C15.9999 2.0361 15.9999 1.76943 15.7999 1.56943Z" fill="#14141C"/>
<path d="M7.46644 7.36938C7.19977 7.36938 6.93311 7.56938 6.93311 7.90272C6.93311 8.03605 6.99977 8.10272 6.99977 8.16938C7.06644 8.30272 7.26644 8.36938 7.39977 8.36938H8.19977L9.19977 7.36938H7.79977H7.46644Z" fill="#14141C"/>
<path d="M15.9331 4.16934V4.10267C15.9331 3.836 15.7331 3.56934 15.3998 3.56934C15.0664 3.56934 14.8664 3.76934 14.8664 4.10267V6.10267V11.1027C14.8664 11.7693 14.5998 12.036 13.9331 12.036H12.7998V9.10267V7.236V7.10267C12.7998 6.836 12.5998 6.56934 12.2664 6.56934C11.9331 6.56934 11.7331 6.76934 11.7331 7.10267V7.56934V9.10267V13.5693C11.7331 14.3693 11.3998 14.7027 10.5998 14.7027H9.13311V13.236C9.13311 12.9693 8.93311 12.7027 8.59977 12.7027C8.33311 12.7027 8.06644 12.9027 8.06644 13.236V14.7027H6.86644C6.13311 14.7027 5.79977 14.436 5.73311 13.7027L4.93311 14.5693C5.19977 15.3027 5.86644 15.7693 6.86644 15.7693H8.79977H10.7998C12.1331 15.7693 12.9331 14.9693 12.9331 13.636V13.1027H14.0664C15.2664 13.1027 15.9998 12.3693 15.9998 11.1693L15.9331 4.16934Z" fill="#14141C"/>
<path d="M10.5998 9.90272C10.5998 9.63605 10.3998 9.36938 10.0664 9.36938H9.99976L8.99976 10.3694H10.1331C10.3998 10.4361 10.5998 10.1694 10.5998 9.90272Z" fill="#14141C"/>
<path d="M6.86652 4.03603C5.53319 4.03603 4.79985 4.83603 4.79985 6.16937V10.5027V11.9027L4.99985 11.7027L5.59985 11.1027L5.79985 10.9027V9.5027V6.16937C5.79985 5.36937 6.13319 5.03603 6.93319 5.03603H7.93319H9.79985H10.2665H10.7999C11.0665 5.03603 11.3332 5.1027 11.4665 5.16937L11.5999 5.03603L12.1999 4.43603C11.9332 4.23603 11.5999 4.1027 11.1999 4.03603C11.0665 4.03603 10.9332 4.03603 10.7999 4.03603H10.2665V3.36937C10.2665 2.7027 10.5332 2.43604 11.1999 2.43604H12.8665H14.0665C14.1332 2.43604 14.1999 2.43604 14.2665 2.43604L14.4665 2.23604L15.0665 1.63604C14.7999 1.5027 14.4665 1.43604 14.0665 1.43604H13.8665H11.1999C9.99985 1.43604 9.26652 2.16937 9.26652 3.36937V4.1027H8.39985V3.36937C8.39985 2.16937 7.66652 1.43604 6.46652 1.43604H3.53319C2.33319 1.43604 1.59985 2.16937 1.59985 3.36937V11.1694C1.59985 11.9694 1.86652 12.5027 2.39985 12.836C2.66652 13.036 3.06652 13.1027 3.53319 13.1027L4.53319 12.1027H3.53319C3.39985 12.1027 3.26652 12.1027 3.19985 12.036C2.79985 11.9694 2.59985 11.7027 2.59985 11.1694V3.36937C2.59985 2.7027 2.86652 2.43604 3.53319 2.43604H6.39985C7.06652 2.43604 7.33319 2.7027 7.33319 3.36937V4.1027H6.86652V4.03603Z" fill="#14141C"/>
</svg>
