<svg width="16" height="16" viewBox="0 0 16 16" fill="none" xmlns="http://www.w3.org/2000/svg">
<g clip-path="url(#clip0_8931_105365)">
<path d="M8.00004 15.1654C4.04671 15.1654 0.833374 11.952 0.833374 7.9987C0.833374 4.04536 4.04671 0.832031 8.00004 0.832031C11.9534 0.832031 15.1667 4.04536 15.1667 7.9987C15.1667 11.952 11.9534 15.1654 8.00004 15.1654ZM8.00004 1.83203C4.60004 1.83203 1.83337 4.5987 1.83337 7.9987C1.83337 11.3987 4.60004 14.1654 8.00004 14.1654C11.4 14.1654 14.1667 11.3987 14.1667 7.9987C14.1667 4.5987 11.4 1.83203 8.00004 1.83203Z" fill="#292F37"/>
<mask id="path-2-inside-1_8931_105365" fill="white">
<path d="M10.4731 10.6211C10.3864 10.6211 10.2998 10.6011 10.2198 10.5478L8.1531 9.31447C7.63977 9.00781 7.25977 8.33447 7.25977 7.74114V5.00781C7.25977 4.73448 7.48643 4.50781 7.75977 4.50781C8.0331 4.50781 8.25977 4.73448 8.25977 5.00781V7.74114C8.25977 7.98114 8.45977 8.33447 8.66643 8.45447L10.7331 9.68781C10.9731 9.82781 11.0464 10.1345 10.9064 10.3745C10.8064 10.5345 10.6398 10.6211 10.4731 10.6211Z"/>
</mask>
<path d="M10.4731 10.6211C10.3864 10.6211 10.2998 10.6011 10.2198 10.5478L8.1531 9.31447C7.63977 9.00781 7.25977 8.33447 7.25977 7.74114V5.00781C7.25977 4.73448 7.48643 4.50781 7.75977 4.50781C8.0331 4.50781 8.25977 4.73448 8.25977 5.00781V7.74114C8.25977 7.98114 8.45977 8.33447 8.66643 8.45447L10.7331 9.68781C10.9731 9.82781 11.0464 10.1345 10.9064 10.3745C10.8064 10.5345 10.6398 10.6211 10.4731 10.6211Z" fill="#292F37"/>
<path d="M10.2198 10.5478L11.3292 8.8837L11.2876 8.85599L11.2447 8.83038L10.2198 10.5478ZM8.1531 9.31447L7.12739 11.0314L7.12818 11.0319L8.1531 9.31447ZM8.66643 8.45447L9.69135 6.73705L9.68106 6.73091L9.6707 6.72489L8.66643 8.45447ZM10.7331 9.68781L9.70818 11.4052L9.71675 11.4103L9.72536 11.4154L10.7331 9.68781ZM10.9064 10.3745L12.6024 11.4345L12.6186 11.4086L12.634 11.3822L10.9064 10.3745ZM10.4731 8.62114C10.7055 8.62114 11.0228 8.67944 11.3292 8.8837L9.11037 12.2119C9.57677 12.5228 10.0674 12.6211 10.4731 12.6211V8.62114ZM11.2447 8.83038L9.17801 7.59705L7.12818 11.0319L9.19485 12.2652L11.2447 8.83038ZM9.17881 7.59752C9.23142 7.62895 9.25531 7.65405 9.25911 7.65811C9.26356 7.66288 9.25985 7.65965 9.2539 7.64915C9.24795 7.63865 9.24705 7.63375 9.24886 7.64C9.25037 7.64524 9.25977 7.67897 9.25977 7.74114H5.25977C5.25977 9.03676 6.00841 10.3629 7.12739 11.0314L9.17881 7.59752ZM9.25977 7.74114V5.00781H5.25977V7.74114H9.25977ZM9.25977 5.00781C9.25977 5.83905 8.591 6.50781 7.75977 6.50781V2.50781C6.38186 2.50781 5.25977 3.62991 5.25977 5.00781H9.25977ZM7.75977 6.50781C6.92853 6.50781 6.25977 5.83905 6.25977 5.00781H10.2598C10.2598 3.62991 9.13767 2.50781 7.75977 2.50781V6.50781ZM6.25977 5.00781V7.74114H10.2598V5.00781H6.25977ZM6.25977 7.74114C6.25977 8.33458 6.47589 8.83052 6.64711 9.13157C6.8169 9.4301 7.13698 9.87911 7.66216 10.1841L9.6707 6.72489C9.85266 6.83055 9.96123 6.942 10.01 6.99687C10.0651 7.05873 10.1004 7.11243 10.1241 7.15404C10.1478 7.19578 10.175 7.2521 10.1993 7.32794C10.2208 7.39523 10.2598 7.53902 10.2598 7.74114H6.25977ZM7.64152 10.1719L9.70818 11.4052L11.758 7.97038L9.69135 6.73705L7.64152 10.1719ZM9.72536 11.4154C8.96621 10.9725 8.78896 10.0352 9.17888 9.36673L12.634 11.3822C13.3039 10.2338 12.98 8.68308 11.7408 7.96025L9.72536 11.4154ZM9.21044 9.31447C9.4743 8.8923 9.94714 8.62114 10.4731 8.62114V12.6211C11.3324 12.6211 12.1386 12.1766 12.6024 11.4345L9.21044 9.31447Z" fill="#292F37" mask="url(#path-2-inside-1_8931_105365)"/>
</g>
<defs>
<clipPath id="clip0_8931_105365">
<rect width="16" height="16" fill="white"/>
</clipPath>
</defs>
</svg>
