<svg width="21" height="20" viewBox="0 0 21 20" fill="none" xmlns="http://www.w3.org/2000/svg">
<path d="M10.5 18.9587C5.55829 18.9587 1.54163 14.942 1.54163 10.0003C1.54163 5.05866 5.55829 1.04199 10.5 1.04199C15.4416 1.04199 19.4583 5.05866 19.4583 10.0003C19.4583 14.942 15.4416 18.9587 10.5 18.9587ZM10.5 2.29199C6.24996 2.29199 2.79163 5.75033 2.79163 10.0003C2.79163 14.2503 6.24996 17.7087 10.5 17.7087C14.75 17.7087 18.2083 14.2503 18.2083 10.0003C18.2083 5.75033 14.75 2.29199 10.5 2.29199Z" fill="white"/>
<path d="M8.1411 12.9831C7.98276 12.9831 7.82444 12.9248 7.69944 12.7998C7.45777 12.5581 7.45777 12.1581 7.69944 11.9165L12.4161 7.1998C12.6578 6.95814 13.0578 6.95814 13.2995 7.1998C13.5411 7.44147 13.5411 7.84147 13.2995 8.08314L8.58276 12.7998C8.4661 12.9248 8.29943 12.9831 8.1411 12.9831Z" fill="white"/>
<path d="M12.8578 12.9831C12.6995 12.9831 12.5411 12.9248 12.4161 12.7998L7.69944 8.08314C7.45777 7.84147 7.45777 7.44147 7.69944 7.1998C7.9411 6.95814 8.3411 6.95814 8.58276 7.1998L13.2995 11.9165C13.5411 12.1581 13.5411 12.5581 13.2995 12.7998C13.1745 12.9248 13.0161 12.9831 12.8578 12.9831Z" fill="white"/>
</svg>
