<svg width="20" height="21" viewBox="0 0 20 21" fill="none" xmlns="http://www.w3.org/2000/svg">
<path d="M10.0003 2.20866C5.40866 2.20866 1.66699 5.95032 1.66699 10.542C1.66699 15.1337 5.40866 18.8753 10.0003 18.8753C14.592 18.8753 18.3337 15.1337 18.3337 10.542C18.3337 5.95032 14.592 2.20866 10.0003 2.20866ZM12.8003 12.4587C13.042 12.7003 13.042 13.1003 12.8003 13.342C12.6753 13.467 12.517 13.5253 12.3587 13.5253C12.2003 13.5253 12.042 13.467 11.917 13.342L10.0003 11.4253L8.08366 13.342C7.95866 13.467 7.80033 13.5253 7.64199 13.5253C7.48366 13.5253 7.32533 13.467 7.20033 13.342C6.95866 13.1003 6.95866 12.7003 7.20033 12.4587L9.11699 10.542L7.20033 8.62532C6.95866 8.38366 6.95866 7.98366 7.20033 7.74199C7.44199 7.50032 7.84199 7.50032 8.08366 7.74199L10.0003 9.65866L11.917 7.74199C12.1587 7.50032 12.5587 7.50032 12.8003 7.74199C13.042 7.98366 13.042 8.38366 12.8003 8.62532L10.8837 10.542L12.8003 12.4587Z" fill="#E10000"/>
</svg>
