<svg width="19" height="19" viewBox="0 0 19 19" fill="none" xmlns="http://www.w3.org/2000/svg">
<path d="M8.63 10.755H7.505C6.6425 10.755 5.945 10.035 5.945 9.1425C5.945 8.835 6.2 8.58 6.5075 8.58C6.815 8.58 7.07 8.835 7.07 9.1425C7.07 9.4125 7.265 9.63 7.505 9.63H8.63C8.8025 9.63 8.9375 9.4725 8.9375 9.2775C8.9375 9.015 8.8925 9 8.72 8.94L6.9125 8.31C6.26 8.085 5.9375 7.6275 5.9375 6.915C5.9375 6.105 6.5825 5.4375 7.37 5.4375H8.495C9.3575 5.4375 10.055 6.1575 10.055 7.05C10.055 7.3575 9.8 7.6125 9.4925 7.6125C9.185 7.6125 8.93 7.3575 8.93 7.05C8.93 6.78 8.735 6.5625 8.495 6.5625H7.37C7.1975 6.5625 7.0625 6.72 7.0625 6.915C7.0625 7.1775 7.1075 7.1925 7.28 7.2525L9.0875 7.8825C9.74 8.115 10.055 8.5725 10.055 9.2775C10.0625 10.095 9.4175 10.755 8.63 10.755Z" fill="#0A0C0E"/>
<path d="M8 11.3538C7.6925 11.3538 7.4375 11.0988 7.4375 10.7913V10.2363C7.4375 9.92883 7.6925 9.67383 8 9.67383C8.3075 9.67383 8.5625 9.92883 8.5625 10.2363V10.7913C8.5625 11.1063 8.3075 11.3538 8 11.3538Z" fill="#0A0C0E"/>
<path d="M8 6.5557C7.6925 6.5557 7.4375 6.3007 7.4375 5.9932V5.4082C7.4375 5.1007 7.6925 4.8457 8 4.8457C8.3075 4.8457 8.5625 5.1007 8.5625 5.4082V5.9932C8.5625 6.3007 8.3075 6.5557 8 6.5557Z" fill="#0A0C0E"/>
<path d="M7.9925 14.6393C4.3775 14.6393 1.4375 11.6993 1.4375 8.0843C1.4375 4.4693 4.3775 1.5293 7.9925 1.5293C11.6075 1.5293 14.5475 4.4693 14.5475 8.0843C14.5475 11.6993 11.6 14.6393 7.9925 14.6393ZM7.9925 2.6618C5 2.6618 2.5625 5.0993 2.5625 8.0918C2.5625 11.0843 5 13.5143 7.9925 13.5143C10.985 13.5143 13.4225 11.0768 13.4225 8.0843C13.4225 5.0918 10.985 2.6618 7.9925 2.6618Z" fill="#0A0C0E"/>
<path d="M13.2643 17.6403C11.8768 17.6403 10.5718 16.9653 9.76929 15.8253C9.58929 15.5703 9.64928 15.2178 9.90428 15.0378C10.1593 14.8578 10.5118 14.9178 10.6918 15.1728C11.2843 16.0128 12.2443 16.5078 13.2643 16.5078C15.0043 16.5078 16.4143 15.0978 16.4143 13.3578C16.4143 12.3453 15.9193 11.3853 15.0943 10.7928C14.8393 10.6128 14.7868 10.2603 14.9668 10.0053C15.1468 9.75031 15.4993 9.69781 15.7543 9.87781C16.8718 10.6803 17.5393 11.9778 17.5393 13.3578C17.5393 15.7278 15.6268 17.6403 13.2643 17.6403Z" fill="#0A0C0E"/>
</svg>
