<svg width="16" height="16" viewBox="0 0 16 16" fill="none" xmlns="http://www.w3.org/2000/svg">
<g id="current-location" clip-path="url(#clip0_9516_59520)">
<g id="Vector">
<path d="M9.46647 7.99996C9.46647 7.61098 9.31184 7.23855 9.03678 6.9635C8.76173 6.68845 8.38931 6.53381 8.00033 6.53381C7.61134 6.53381 7.23892 6.68845 6.96387 6.9635C6.68881 7.23855 6.53418 7.61098 6.53418 7.99996C6.53418 8.38894 6.68881 8.76136 6.96387 9.03642C7.23892 9.31147 7.61134 9.46611 8.00033 9.46611C8.38931 9.46611 8.76173 9.31147 9.03678 9.03642C9.31184 8.76136 9.46647 8.38894 9.46647 7.99996ZM10.5342 7.99996C10.5342 8.67184 10.2671 9.31653 9.79199 9.79163C9.3169 10.2667 8.67221 10.5338 8.00033 10.5338C7.32844 10.5338 6.68375 10.2667 6.20866 9.79163C5.73357 9.31653 5.46647 8.67184 5.46647 7.99996C5.46647 7.32808 5.73357 6.68339 6.20866 6.20829C6.68375 5.7332 7.32844 5.46611 8.00033 5.46611C8.67221 5.46611 9.3169 5.7332 9.79199 6.20829C10.2671 6.68339 10.5342 7.32808 10.5342 7.99996Z" fill="#667688"/>
<path d="M12.7946 7.76168C12.7357 6.57539 12.2387 5.44928 11.3949 4.60543C10.4947 3.70525 9.27337 3.20048 8.00033 3.20048C6.72729 3.20048 5.50597 3.70525 4.60579 4.60543C3.70562 5.5056 3.20085 6.72692 3.20085 7.99996L3.20605 8.23824C3.26497 9.42453 3.76194 10.5506 4.60579 11.3945C5.50597 12.2947 6.72729 12.7994 8.00033 12.7994L8.23861 12.7942C9.42489 12.7353 10.551 12.2383 11.3949 11.3945C12.295 10.4943 12.7998 9.273 12.7998 7.99996L12.7946 7.76168ZM13.8597 8.29032C13.7879 9.74054 13.1803 11.1168 12.1488 12.1484C11.1172 13.18 9.74091 13.7875 8.29069 13.8593L8.00033 13.8671C6.44439 13.8671 4.9521 13.2486 3.85189 12.1484C2.82031 11.1168 2.21276 9.74054 2.14095 8.29032L2.13314 7.99996C2.13314 6.44402 2.75167 4.95174 3.85189 3.85152C4.9521 2.75131 6.44439 2.13277 8.00033 2.13277L8.29069 2.14058C9.74091 2.21239 11.1172 2.81994 12.1488 3.85152C13.249 4.95174 13.8675 6.44402 13.8675 7.99996L13.8597 8.29032Z" fill="#667688"/>
<path d="M7.46647 2.66663V1.33329C7.46647 1.03874 7.70577 0.799438 8.00033 0.799438C8.29488 0.799438 8.53418 1.03874 8.53418 1.33329V2.66663C8.53418 2.96118 8.29488 3.20048 8.00033 3.20048C7.70577 3.20048 7.46647 2.96118 7.46647 2.66663Z" fill="#667688"/>
<path d="M7.46647 14.6666V13.3333C7.46647 13.0387 7.70577 12.7994 8.00033 12.7994C8.29488 12.7994 8.53418 13.0387 8.53418 13.3333V14.6666C8.53418 14.9612 8.29488 15.2005 8.00033 15.2005C7.70577 15.2005 7.46647 14.9612 7.46647 14.6666Z" fill="#667688"/>
<path d="M14.667 7.46611L14.7751 7.47782C15.0178 7.5278 15.2008 7.74245 15.2008 7.99996C15.2008 8.25747 15.0178 8.47212 14.7751 8.52209L14.667 8.53381H13.3337C13.0391 8.53381 12.7998 8.29451 12.7998 7.99996C12.7998 7.70541 13.0391 7.46611 13.3337 7.46611H14.667Z" fill="#667688"/>
<path d="M2.66699 7.46611L2.77507 7.47782C3.01778 7.5278 3.20085 7.74245 3.20085 7.99996C3.20085 8.25747 3.01778 8.47212 2.77507 8.52209L2.66699 8.53381H1.33366C1.03911 8.53381 0.799805 8.29451 0.799805 7.99996C0.799805 7.70541 1.03911 7.46611 1.33366 7.46611H2.66699Z" fill="#667688"/>
</g>
</g>
<defs>
<clipPath id="clip0_9516_59520">
<rect width="16" height="16" fill="white"/>
</clipPath>
</defs>
</svg>
