<svg width="16" height="16" viewBox="0 0 16 16" fill="none" xmlns="http://www.w3.org/2000/svg">
<g clip-path="url(#clip0_12328_2852)">
<path d="M8.93345 11.6131H7.26011C6.16675 11.6131 5.28009 10.6931 5.28009 9.55974C5.28009 9.28641 5.50675 9.05974 5.78009 9.05974C6.05342 9.05974 6.28009 9.28641 6.28009 9.55974C6.28009 10.1397 6.72011 10.6131 7.26011 10.6131H8.93345C9.36678 10.6131 9.72678 10.2264 9.72678 9.75974C9.72678 9.17974 9.52011 9.06641 9.18011 8.94641L6.49342 7.99974C5.97342 7.81974 5.27342 7.43307 5.27342 6.23973C5.27342 5.21306 6.08009 4.38639 7.06678 4.38639H8.74011C9.83345 4.38639 10.7201 5.30639 10.7201 6.43973C10.7201 6.71307 10.4934 6.93974 10.2201 6.93974C9.94678 6.93974 9.72011 6.71307 9.72011 6.43973C9.72011 5.85973 9.28011 5.38639 8.74011 5.38639H7.06678C6.63342 5.38639 6.27342 5.77306 6.27342 6.23973C6.27342 6.81974 6.48009 6.93307 6.82011 7.05307L9.50678 7.99974C10.0268 8.17974 10.7268 8.56641 10.7268 9.75974C10.7201 10.7797 9.92011 11.6131 8.93345 11.6131Z" fill="#001B38"/>
<path d="M7.99998 12.4997C7.72665 12.4997 7.49998 12.273 7.49998 11.9997V3.99967C7.49998 3.72634 7.72665 3.49967 7.99998 3.49967C8.27331 3.49967 8.49998 3.72634 8.49998 3.99967V11.9997C8.49998 12.273 8.27331 12.4997 7.99998 12.4997Z" fill="#001B38"/>
<path d="M7.99998 15.1663C4.04665 15.1663 0.833313 11.953 0.833313 7.99967C0.833313 4.04634 4.04665 0.833008 7.99998 0.833008C11.9533 0.833008 15.1666 4.04634 15.1666 7.99967C15.1666 11.953 11.9533 15.1663 7.99998 15.1663ZM7.99998 1.83301C4.59998 1.83301 1.83331 4.59967 1.83331 7.99967C1.83331 11.3997 4.59998 14.1663 7.99998 14.1663C11.4 14.1663 14.1666 11.3997 14.1666 7.99967C14.1666 4.59967 11.4 1.83301 7.99998 1.83301Z" fill="#001B38"/>
</g>
<defs>
<clipPath id="clip0_12328_2852">
<rect width="16" height="16" fill="white"/>
</clipPath>
</defs>
</svg>
