<svg width="18" height="18" viewBox="0 0 18 18" fill="none" xmlns="http://www.w3.org/2000/svg">
<g clip-path="url(#clip0_3345_6653)">
<path d="M13.7706 17.0621H4.19313C3.05313 17.0621 2.01063 16.4846 1.41063 15.5096C0.810632 14.5346 0.758132 13.3496 1.26813 12.3221L2.55813 9.73456C2.97813 8.89456 3.65313 8.36956 4.41063 8.28706C5.16813 8.20456 5.94063 8.57956 6.52563 9.30706L6.69063 9.51706C7.02063 9.92206 7.40313 10.1396 7.7781 10.1021C8.1531 10.0721 8.4981 9.80206 8.7531 9.34456L10.1706 6.78708C10.7556 5.72958 11.5356 5.18208 12.3831 5.21958C13.2231 5.26458 13.9431 5.89458 14.4231 7.00458L16.7706 12.4871C17.2056 13.4996 17.1006 14.6546 16.4931 15.5771C15.8931 16.5146 14.8731 17.0621 13.7706 17.0621ZM4.62063 9.41206C4.59063 9.41206 4.56063 9.41206 4.53063 9.41956C4.15563 9.45706 3.81063 9.75706 3.56313 10.2446L2.27313 12.8321C1.93563 13.4996 1.97313 14.2871 2.36313 14.9246C2.75313 15.5621 3.44313 15.9446 4.19313 15.9446H13.7631C14.4981 15.9446 15.1506 15.5921 15.5556 14.9771C15.9606 14.3621 16.0281 13.6271 15.7356 12.9521L13.3881 7.46958C13.1031 6.79458 12.7056 6.38208 12.3231 6.36708C11.9706 6.34458 11.5131 6.71958 11.1531 7.35708L9.7356 9.91456C9.3006 10.6946 8.6181 11.1821 7.8756 11.2496C7.13313 11.3096 6.37563 10.9496 5.81313 10.2446L5.64813 10.0346C5.33313 9.62206 4.97313 9.41206 4.62063 9.41206Z" fill="white"/>
<path d="M5.22803 6.5625C3.68303 6.5625 2.41553 5.3025 2.41553 3.75C2.41553 2.1975 3.67553 0.9375 5.22803 0.9375C6.78053 0.9375 8.04053 2.1975 8.04053 3.75C8.04053 5.3025 6.78053 6.5625 5.22803 6.5625ZM5.22803 2.0625C4.29803 2.0625 3.54053 2.82 3.54053 3.75C3.54053 4.68 4.29803 5.4375 5.22803 5.4375C6.15803 5.4375 6.91553 4.68 6.91553 3.75C6.91553 2.82 6.15803 2.0625 5.22803 2.0625Z" fill="white"/>
</g>
<defs>
<clipPath id="clip0_3345_6653">
<rect width="18" height="18" fill="white"/>
</clipPath>
</defs>
</svg>
