<svg width="20" height="21" viewBox="0 0 20 21" fill="none" xmlns="http://www.w3.org/2000/svg">
<path d="M9.99967 18.8753C14.5913 18.8753 18.333 15.1337 18.333 10.542C18.333 5.95033 14.5913 2.20866 9.99968 2.20866C5.40801 2.20866 1.66634 5.95033 1.66634 10.542C1.66634 15.1337 5.40801 18.8753 9.99967 18.8753ZM10.6247 13.8753C10.6247 14.217 10.3413 14.5003 9.99967 14.5003C9.65801 14.5003 9.37467 14.217 9.37467 13.8753L9.37467 9.70866C9.37467 9.36699 9.65801 9.08366 9.99967 9.08366C10.3413 9.08366 10.6247 9.36699 10.6247 9.70866L10.6247 13.8753ZM9.23301 6.89199C9.27468 6.78366 9.33301 6.70033 9.40801 6.61699C9.49134 6.54199 9.58301 6.48366 9.68301 6.44199C9.78301 6.40033 9.89134 6.37533 9.99967 6.37533C10.108 6.37533 10.2163 6.40033 10.3163 6.44199C10.4163 6.48366 10.508 6.54199 10.5913 6.61699C10.6663 6.70033 10.7247 6.78366 10.7663 6.89199C10.808 6.99199 10.833 7.10033 10.833 7.20866C10.833 7.31699 10.808 7.42533 10.7663 7.52533C10.7247 7.62533 10.6663 7.71699 10.5913 7.80033C10.508 7.87533 10.4163 7.93366 10.3163 7.97533C10.1163 8.05866 9.88301 8.05866 9.68301 7.97533C9.58301 7.93366 9.49134 7.87533 9.40801 7.80033C9.33301 7.71699 9.27468 7.62533 9.23301 7.52533C9.19134 7.42533 9.16634 7.31699 9.16634 7.20866C9.16634 7.10033 9.19134 6.99199 9.23301 6.89199Z" fill="#0085DE"/>
</svg>
