<svg width="21" height="21" viewBox="0 0 21 21" fill="none" xmlns="http://www.w3.org/2000/svg">
<g id="link-21">
<path id="Vector" d="M14.3542 15.8535H13.0609C12.7098 15.8535 12.4186 15.5623 12.4186 15.2111C12.4186 14.86 12.7098 14.5688 13.0609 14.5688H14.3542C16.5982 14.5688 18.4225 12.7445 18.4225 10.5005C18.4225 8.25649 16.5982 6.43218 14.3542 6.43218H13.0695C12.7183 6.43218 12.4271 6.14098 12.4271 5.78982C12.4271 5.43866 12.7098 5.14746 13.0695 5.14746H14.3542C17.3091 5.14746 19.7072 7.54561 19.7072 10.5005C19.7072 13.4553 17.3091 15.8535 14.3542 15.8535Z" fill="#14141C"/>
<path id="Vector_2" d="M7.93046 15.8535H6.64573C3.69087 15.8535 1.29272 13.4553 1.29272 10.5005C1.29272 7.54561 3.69087 5.14746 6.64573 5.14746H7.93046C8.28161 5.14746 8.57282 5.43866 8.57282 5.78982C8.57282 6.14098 8.28161 6.43218 7.93046 6.43218H6.64573C4.40175 6.43218 2.57745 8.25649 2.57745 10.5005C2.57745 12.7445 4.40175 14.5688 6.64573 14.5688H7.93046C8.28161 14.5688 8.57282 14.86 8.57282 15.2111C8.57282 15.5623 8.28161 15.8535 7.93046 15.8535Z" fill="#14141C"/>
<path id="Vector_3" d="M13.9259 11.1431H7.074C6.72284 11.1431 6.43164 10.8519 6.43164 10.5008C6.43164 10.1496 6.72284 9.8584 7.074 9.8584H13.9259C14.277 9.8584 14.5682 10.1496 14.5682 10.5008C14.5682 10.8519 14.277 11.1431 13.9259 11.1431Z" fill="#14141C"/>
</g>
</svg>
