<svg width="16" height="16" viewBox="0 0 16 16" fill="none" xmlns="http://www.w3.org/2000/svg">
    <path
        d="M8.73969 6.72275C9.0086 6.45383 9.14306 6.18492 9.41198 6.05046C10.0843 5.37817 10.891 5.10925 11.8322 5.10925C12.3701 5.10925 12.9079 5.10925 13.4457 5.24371C14.6558 5.64708 15.3281 6.31937 15.597 7.5295C15.866 8.33624 15.866 9.27745 15.866 10.0842C15.866 11.9666 15.866 13.849 15.866 15.597C15.866 15.7314 15.866 15.8659 15.597 15.8659C14.6558 15.8659 13.7146 15.8659 12.7734 15.8659C12.639 15.8659 12.5045 15.8659 12.5045 15.597C12.5045 13.849 12.5045 12.1011 12.5045 10.3531C12.5045 9.94974 12.5045 9.41191 12.3701 9.00854C12.1011 8.20179 11.5633 7.79841 10.7566 7.79841C9.68089 7.79841 9.0086 8.4707 8.87415 9.54637C8.87415 9.81528 8.87415 10.0842 8.87415 10.3531C8.87415 12.1011 8.87415 13.849 8.87415 15.4625C8.87415 15.597 8.87415 15.7314 8.60523 15.7314C7.66402 15.7314 6.72282 15.7314 5.64715 15.7314C5.5127 15.7314 5.5127 15.7314 5.5127 15.597C5.5127 12.2355 5.5127 8.73962 5.5127 5.37817C5.64715 5.24371 5.64715 5.24371 5.78161 5.24371C6.72282 5.24371 7.66402 5.24371 8.47077 5.24371C8.60523 5.24371 8.73969 5.24371 8.73969 5.51263C8.73969 5.916 8.73969 6.31938 8.73969 6.72275Z"
        fill="#2967B0" />
    <path
        d="M3.49555 10.6217C3.49555 12.3697 3.49555 13.9832 3.49555 15.7311C3.49555 15.8656 3.49555 16.0001 3.22663 16.0001C2.28542 16.0001 1.34422 16.0001 0.403013 16.0001C0.268555 16.0001 0.268555 16.0001 0.268555 15.8656C0.268555 12.5041 0.268555 9.00824 0.268555 5.64679C0.268555 5.51233 0.268555 5.51233 0.403013 5.51233C1.34422 5.51233 2.28542 5.51233 3.36109 5.51233C3.49555 5.51233 3.63 5.64679 3.63 5.78124C3.49555 7.12583 3.49555 8.87378 3.49555 10.6217Z"
        fill="#2967B0" />
    <path
        d="M3.76482 1.88241C3.76482 2.95808 2.95808 3.76482 1.88241 3.76482C0.806748 3.76482 0 2.95808 0 1.88241C0 0.806748 0.806748 0 1.88241 0C2.95808 0 3.76482 0.806748 3.76482 1.88241Z"
        fill="#2967B0" />
</svg>