<svg width="37" height="37" viewBox="0 0 37 37" fill="none" xmlns="http://www.w3.org/2000/svg">
<circle cx="18.5" cy="18.5" r="18" fill="#E9E9F6"/>
<path d="M19.2397 17.2226C19.5086 16.9537 19.6431 16.6848 19.912 16.5503C20.5843 15.878 21.391 15.6091 22.3322 15.6091C22.8701 15.6091 23.4079 15.6091 23.9457 15.7436C25.1558 16.147 25.8281 16.8193 26.097 18.0294C26.366 18.8361 26.366 19.7773 26.366 20.5841C26.366 22.4665 26.366 24.3489 26.366 26.0969C26.366 26.2313 26.366 26.3658 26.097 26.3658C25.1558 26.3658 24.2146 26.3658 23.2734 26.3658C23.139 26.3658 23.0045 26.3658 23.0045 26.0969C23.0045 24.3489 23.0045 22.6009 23.0045 20.853C23.0045 20.4496 23.0045 19.9118 22.8701 19.5084C22.6011 18.7017 22.0633 18.2983 21.2566 18.2983C20.1809 18.2983 19.5086 18.9706 19.3741 20.0462C19.3741 20.3152 19.3741 20.5841 19.3741 20.853C19.3741 22.6009 19.3741 24.3489 19.3741 25.9624C19.3741 26.0969 19.3741 26.2313 19.1052 26.2313C18.164 26.2313 17.2228 26.2313 16.1472 26.2313C16.0127 26.2313 16.0127 26.2313 16.0127 26.0969C16.0127 22.7354 16.0127 19.2395 16.0127 15.878C16.1472 15.7436 16.1472 15.7436 16.2816 15.7436C17.2228 15.7436 18.164 15.7436 18.9708 15.7436C19.1052 15.7436 19.2397 15.7436 19.2397 16.0125C19.2397 16.4159 19.2397 16.8193 19.2397 17.2226Z" fill="#2967B0"/>
<path d="M13.9955 21.1219C13.9955 22.8698 13.9955 24.4833 13.9955 26.2313C13.9955 26.3657 13.9955 26.5002 13.7266 26.5002C12.7854 26.5002 11.8442 26.5002 10.903 26.5002C10.7686 26.5002 10.7686 26.5002 10.7686 26.3657C10.7686 23.0043 10.7686 19.5084 10.7686 16.1469C10.7686 16.0125 10.7686 16.0125 10.903 16.0125C11.8442 16.0125 12.7854 16.0125 13.8611 16.0125C13.9955 16.0125 14.13 16.1469 14.13 16.2814C13.9955 17.6259 13.9955 19.3739 13.9955 21.1219Z" fill="#2967B0"/>
<path d="M14.2648 12.3824C14.2648 13.4581 13.4581 14.2648 12.3824 14.2648C11.3067 14.2648 10.5 13.4581 10.5 12.3824C10.5 11.3067 11.3067 10.5 12.3824 10.5C13.4581 10.5 14.2648 11.3067 14.2648 12.3824Z" fill="#2967B0"/>
</svg>
