<svg width="37" height="37" viewBox="0 0 37 37" fill="none" xmlns="http://www.w3.org/2000/svg">
<circle cx="18.5" cy="18.5" r="18" fill="#E9E9F6"/>
<path d="M25.4656 19.1096C25.1573 19.1096 24.8989 18.8762 24.8656 18.5679C24.6656 16.7346 23.6823 15.0846 22.1656 14.0346C21.8906 13.8429 21.8239 13.4679 22.0156 13.1929C22.2073 12.9179 22.5823 12.8513 22.8573 13.0429C24.6656 14.3013 25.8323 16.2679 26.0739 18.4429C26.1073 18.7762 25.8656 19.0762 25.5323 19.1096C25.5073 19.1096 25.4906 19.1096 25.4656 19.1096Z" fill="#090467"/>
<path d="M11.6158 19.1509C11.5991 19.1509 11.5741 19.1509 11.5574 19.1509C11.2241 19.1176 10.9824 18.8176 11.0158 18.4843C11.2408 16.3092 12.3908 14.3426 14.1824 13.0759C14.4491 12.8842 14.8324 12.9509 15.0241 13.2176C15.2158 13.4926 15.1491 13.8676 14.8824 14.0592C13.3824 15.1259 12.4074 16.7759 12.2241 18.6009C12.1908 18.9176 11.9241 19.1509 11.6158 19.1509Z" fill="#090467"/>
<path d="M21.8258 26.0837C20.8008 26.5754 19.7008 26.8254 18.5508 26.8254C17.3508 26.8254 16.2091 26.5587 15.1425 26.017C14.8425 25.8754 14.7258 25.5087 14.8758 25.2087C15.0175 24.9087 15.3841 24.792 15.6841 24.9337C16.2091 25.2004 16.7675 25.3837 17.3342 25.492C18.1008 25.642 18.8842 25.6504 19.6508 25.517C20.2175 25.417 20.7758 25.242 21.2925 24.992C21.6008 24.8504 21.9675 24.967 22.1008 25.2754C22.2508 25.5754 22.1342 25.942 21.8258 26.0837Z" fill="#090467"/>
<path d="M18.5424 10.1765C17.2507 10.1765 16.1924 11.2265 16.1924 12.5265C16.1924 13.8265 17.2424 14.8765 18.5424 14.8765C19.8424 14.8765 20.8924 13.8265 20.8924 12.5265C20.8924 11.2265 19.8424 10.1765 18.5424 10.1765Z" fill="#090467"/>
<path d="M12.7084 20.0593C11.4167 20.0593 10.3584 21.1093 10.3584 22.4093C10.3584 23.7093 11.4084 24.7593 12.7084 24.7593C14.0084 24.7593 15.0584 23.7093 15.0584 22.4093C15.0584 21.1093 14.0001 20.0593 12.7084 20.0593Z" fill="#090467"/>
<path d="M24.2924 20.0593C23.0007 20.0593 21.9424 21.1093 21.9424 22.4093C21.9424 23.7093 22.9924 24.7593 24.2924 24.7593C25.5924 24.7593 26.6424 23.7093 26.6424 22.4093C26.6424 21.1093 25.5924 20.0593 24.2924 20.0593Z" fill="#090467"/>
</svg>
