<svg width="116" height="30" viewBox="0 0 116 30" fill="none" xmlns="http://www.w3.org/2000/svg">
<path d="M47.5457 30.0006C47.0568 29.859 46.5679 29.7289 46.0903 29.5759C44.6183 29.0991 43.3822 28.0727 42.6348 26.7066C41.8874 25.3405 41.685 23.7378 42.0691 22.2261C42.2093 21.6636 42.4746 21.3843 43.0773 21.4915C43.7898 21.6292 44.4985 21.7784 45.2072 21.8434C45.916 21.9085 45.9652 22.2261 45.897 22.8229C45.7227 24.7665 46.3859 25.8531 47.8678 26.1707C48.5642 26.3176 49.2896 26.2047 49.9099 25.8529C50.5301 25.5012 51.003 24.9344 51.2409 24.2577C51.5096 23.5019 51.5115 22.6756 51.2463 21.9185C50.9812 21.1614 50.4652 20.5199 49.7856 20.1026C49.5013 19.9961 49.1966 19.9568 48.8949 19.9878C46.204 20.0223 43.8163 19.3106 42.4102 16.7969C41.686 15.5662 41.3007 14.1626 41.294 12.7312C41.2874 11.2998 41.6596 9.89256 42.3723 8.65508C43.1269 7.44846 44.2267 6.50167 45.5262 5.94005C46.8256 5.37844 48.2634 5.22849 49.6491 5.51007C50.3541 5.62868 51.0439 5.83146 51.8246 6.01511C52.4196 5.35321 53.0829 4.65304 53.7196 3.91844C53.8378 3.71104 54.0327 3.55949 54.2616 3.49708C54.4904 3.43467 54.7344 3.4665 54.94 3.58557C55.0344 3.63955 55.118 3.71093 55.1863 3.79601C57.2936 5.5292 56.816 5.11216 55.5274 6.85684C55.175 7.32744 54.796 7.77126 54.4321 8.22274C56.3878 12.703 56.0239 15.5687 53.0526 18.7405C53.8669 19.4314 54.4881 20.3252 54.8544 21.3333C55.2207 22.3414 55.3195 23.4287 55.1409 24.4872C54.9682 25.7841 54.3958 26.9933 53.5048 27.9436C52.6138 28.8939 51.4492 29.5373 50.1759 29.7825C49.9144 29.8399 49.6567 29.9279 49.4179 30.0006H47.5457ZM51.6844 12.6877C51.7235 12.2747 51.6816 11.8578 51.5611 11.4611C51.4405 11.0644 51.2437 10.6956 50.9818 10.3758C50.7199 10.0559 50.3981 9.79138 50.0348 9.59723C49.6715 9.40308 49.2738 9.28314 48.8646 9.24429C48.7195 9.23283 48.5738 9.23283 48.4287 9.24429C47.5947 9.23817 46.7924 9.56625 46.1977 10.1566C45.603 10.7469 45.2645 11.5512 45.2565 12.3931C45.2507 12.4951 45.2507 12.5973 45.2565 12.6992C45.2141 13.1153 45.2534 13.5358 45.3722 13.9366C45.491 14.3374 45.6871 14.7105 45.949 15.0347C46.211 15.3588 46.5337 15.6276 46.8987 15.8256C47.2638 16.0236 47.6639 16.147 48.0763 16.1886C48.2025 16.1974 48.3291 16.1974 48.4553 16.1886C50.3844 16.1886 51.6578 14.8035 51.654 12.6801" fill="white"/>
<path d="M115.8 12.933C115.698 13.5375 115.641 14.1459 115.493 14.7465C114.64 18.4157 111.324 20.5315 107.432 19.9347C103.043 19.2574 100.814 15.8561 101.572 11.0123C102.171 7.22072 105.741 4.84474 109.793 5.51813C111.365 5.66291 112.83 6.38538 113.909 7.5484C114.989 8.71143 115.608 10.2341 115.648 11.8273C115.679 12.053 115.747 12.2826 115.792 12.5121L115.8 12.933ZM111.824 12.7149C111.886 11.858 111.608 11.0116 111.051 10.3615C110.495 9.71153 109.705 9.31118 108.857 9.24852C108.753 9.24273 108.649 9.24273 108.546 9.24852C108.128 9.24448 107.712 9.32374 107.324 9.48177C106.936 9.63981 106.583 9.8735 106.285 10.1695C105.986 10.4655 105.748 10.818 105.585 11.2068C105.421 11.5957 105.335 12.0132 105.332 12.4356C105.332 12.5198 105.332 12.6001 105.332 12.6805C105.254 13.5316 105.513 14.3792 106.053 15.0376C106.593 15.6959 107.37 16.1114 108.212 16.1928C108.326 16.1928 108.44 16.1928 108.553 16.1928C108.976 16.2019 109.396 16.1267 109.79 15.9716C110.184 15.8164 110.543 15.5842 110.848 15.2885C111.152 14.9927 111.396 14.6392 111.565 14.2481C111.734 13.857 111.824 13.4361 111.832 13.0095C111.838 12.9063 111.838 12.8028 111.832 12.6996" fill="white"/>
<path d="M35.5311 17.7412C34.9638 18.5356 34.197 19.1631 33.3098 19.5592C32.4225 19.9552 31.4467 20.1056 30.4828 19.9947C29.3267 19.9341 28.2173 19.5146 27.3063 18.7935C26.3952 18.0724 25.727 17.0849 25.3929 15.9659C24.1876 12.6755 24.9798 8.92979 27.3864 7.05503C28.5144 6.13422 29.8826 5.5632 31.3255 5.41109C32.7683 5.25899 34.2238 5.53232 35.516 6.198C38.169 7.39555 39.1392 9.74091 39.1999 12.5224C39.2491 14.5005 39.1999 16.4786 39.2226 18.4452C39.2416 19.2945 38.9421 19.6886 38.0856 19.593C37.88 19.5777 37.6735 19.5777 37.4678 19.593C35.3682 19.593 35.8268 19.6733 35.5273 17.7412M28.7053 12.7979C28.7053 14.9902 29.8954 16.2681 31.9155 16.272C32.8123 16.272 33.6731 15.9156 34.3115 15.2797C34.9499 14.6438 35.3145 13.7797 35.3265 12.8744C35.3265 12.8056 35.3265 12.7329 35.3265 12.664C35.3667 11.7926 35.0628 10.9407 34.4816 10.2952C33.9004 9.64966 33.0893 9.26319 32.2262 9.22057H32.0064C31.5671 9.22407 31.1328 9.31496 30.7283 9.48803C30.3238 9.6611 29.9571 9.91296 29.6491 10.2292C29.3411 10.5455 29.0979 10.9199 28.9333 11.3311C28.7688 11.7423 28.6862 12.1823 28.6902 12.6257C28.6902 12.6908 28.6902 12.7558 28.6902 12.8209" fill="white"/>
<path d="M77.5437 13.3459C77.718 15.8672 80.1095 17.0418 82.4707 15.9285C82.8876 15.7372 83.4409 15.4119 83.7631 15.5459C84.5972 15.9411 85.3854 16.4288 86.1129 16.9998C86.2038 17.0686 86.1129 17.6157 85.9499 17.7879C85.0032 18.779 83.8022 19.4849 82.4811 19.8268C81.1599 20.1686 79.7707 20.133 78.4684 19.7239C77.2244 19.4759 76.0905 18.836 75.2296 17.8962C74.3688 16.9563 73.8255 15.765 73.6778 14.4937C73.4616 13.1985 73.4848 11.874 73.7461 10.5873C74.6102 6.58144 78.7413 4.48859 83.0013 5.77414C84.4349 6.17853 85.6885 7.06581 86.5537 8.28864C87.4189 9.51147 87.8438 10.9963 87.7577 12.4965C87.7312 13.2311 87.3787 13.3497 86.7723 13.3421C84.0966 13.3421 81.417 13.3421 78.7413 13.3421H77.5437M83.4674 11.0962C83.2113 10.4929 82.7698 9.98873 82.2082 9.65805C81.6466 9.32738 80.9945 9.18771 80.3483 9.25967C79.7899 9.2379 79.2406 9.40754 78.7899 9.741C78.3391 10.0744 78.0134 10.5521 77.8658 11.0962H83.4674Z" fill="white"/>
<path d="M71.2259 15.1131C71.2259 16.2609 71.1993 17.4088 71.2259 18.5566C71.2448 19.295 71.0023 19.6317 70.2177 19.6126C66.784 19.5399 67.3259 20.0793 67.2843 16.7468C67.2615 15.2164 67.2843 13.686 67.2843 12.1556C67.3564 11.4595 67.1518 10.763 66.7154 10.2192C66.2791 9.6754 65.6466 9.32874 64.9572 9.25546C64.8411 9.24774 64.7246 9.24774 64.6085 9.25546C63.9285 9.17803 63.2459 9.37635 62.7108 9.80682C62.1756 10.2373 61.8317 10.8647 61.7546 11.5511C61.7376 11.7254 61.7376 11.9009 61.7546 12.0752C61.694 14.2255 61.7091 16.3795 61.7546 18.5298C61.7546 19.3486 61.4628 19.6317 60.6631 19.6164C57.2824 19.5399 57.8699 20.0908 57.8206 16.7851C57.8016 15.2547 57.8206 13.7243 57.8206 12.1939C57.8812 7.6753 61.1369 4.86698 65.5712 5.49063C67.1504 5.60932 68.6227 6.34131 69.6785 7.53279C70.7344 8.72428 71.2917 10.2825 71.2334 11.8801C71.2638 12.9591 71.2334 14.0304 71.2334 15.1093L71.2259 15.1131Z" fill="white"/>
<path d="M96.7893 9.68789V18.0019C96.7893 19.5935 96.7893 19.6012 95.1748 19.5859C92.59 19.5859 92.8629 19.9685 92.8515 17.2902C92.8515 14.8033 92.8515 12.3164 92.8515 9.69172C91.7979 9.69172 90.8087 9.66876 89.8195 9.69172C89.035 9.7185 88.728 9.40859 88.7469 8.58982C88.8189 5.38742 88.3338 5.91159 91.3658 5.85037C91.8092 5.85037 92.2565 5.85037 92.8477 5.85037C92.8477 4.27787 92.8932 2.76658 92.8288 1.25912C92.7909 0.321742 93.0827 -0.0302538 94.0529 -0.00347154C97.2138 0.0921795 96.7438 -0.43964 96.7817 2.75128C96.7817 3.7537 96.7817 4.74465 96.7817 5.85037C97.8581 5.85037 98.8435 5.88098 99.8137 5.85037C100.572 5.81977 100.867 6.16028 100.86 6.89488C100.814 10.1738 101.239 9.64581 98.1727 9.69555C97.733 9.69555 97.2934 9.69555 96.7666 9.69555" fill="white"/>
<path d="M13.1475 12.4044C13.1475 12.1901 13.1741 11.9759 13.1741 11.7616C13.1786 9.99803 12.489 8.30485 11.2568 7.05456C10.0247 5.80428 8.35109 5.09932 6.60409 5.09475C4.8571 5.09018 3.17987 5.78639 1.94136 7.03022C0.702851 8.27404 0.00452328 9.96359 0 11.7272H0L0.0492701 19.3793C0.0502612 19.4933 0.073497 19.6061 0.117651 19.7111C0.161805 19.8161 0.226012 19.9112 0.306606 19.9912C0.3872 20.0711 0.482602 20.1342 0.587366 20.177C0.692129 20.2197 0.804201 20.2411 0.917183 20.2401L3.36174 20.2134C3.48881 20.2124 3.61442 20.186 3.73133 20.1357C3.84825 20.0855 3.95416 20.0124 4.04295 19.9206C4.13173 19.8288 4.20165 19.7202 4.24865 19.6011C4.29566 19.4819 4.31883 19.3545 4.31682 19.2262L4.27892 15.3045V12.4809C4.27745 11.8941 4.49498 11.3283 4.88819 10.8962C5.2814 10.464 5.82143 10.1973 6.40072 10.149C6.98 10.1008 7.55604 10.2746 8.01409 10.6358C8.47215 10.9971 8.7786 11.5192 8.87242 12.0983L8.94822 19.3678C8.94921 19.4819 8.97244 19.5946 9.0166 19.6996C9.06075 19.8046 9.12496 19.8998 9.20555 19.9797C9.28615 20.0596 9.38155 20.1228 9.48631 20.1655C9.59107 20.2082 9.70315 20.2297 9.81613 20.2287L12.2607 20.2019C12.3878 20.2009 12.5134 20.1745 12.6303 20.1243C12.7472 20.074 12.8531 20.0009 12.9419 19.9091C13.0307 19.8174 13.1006 19.7088 13.1476 19.5896C13.1946 19.4704 13.2178 19.343 13.2158 19.2148L13.1475 12.4044Z" fill="#66C1EA"/>
<path d="M22.0428 12.4047C22.0618 12.1905 22.0731 11.9762 22.0731 11.762C22.0964 10.8757 21.9438 9.99366 21.6244 9.16779C21.305 8.34191 20.8252 7.58885 20.2133 6.9529C19.6013 6.31695 18.8696 5.81096 18.0611 5.46469C17.2526 5.11841 16.3837 4.93884 15.5055 4.93655C14.6272 4.93425 13.7574 5.10927 12.9472 5.45131C12.1369 5.79336 11.4026 6.29552 10.7874 6.92826C10.1722 7.56099 9.68857 8.31154 9.36493 9.13573C9.04129 9.95993 8.88419 10.8411 8.90286 11.7275L8.95213 19.3796C8.95312 19.4937 8.97635 19.6064 9.02051 19.7114C9.06466 19.8164 9.12887 19.9116 9.20946 19.9915C9.29006 20.0715 9.38546 20.1346 9.49022 20.1773C9.59498 20.22 9.70706 20.2415 9.82004 20.2405L12.2646 20.2137C12.3917 20.2127 12.5173 20.1863 12.6342 20.1361C12.7511 20.0858 12.857 20.0127 12.9458 19.921C13.0346 19.8292 13.1045 19.7206 13.1515 19.6014C13.1985 19.4822 13.2217 19.3548 13.2197 19.2266L13.1742 15.3049V12.4813C13.1784 11.8974 13.3988 11.3363 13.7921 10.9082C14.1854 10.4802 14.7232 10.2162 15.2996 10.1683C15.876 10.1203 16.4493 10.2918 16.9067 10.649C17.3642 11.0063 17.6727 11.5234 17.7715 12.0987L17.8435 19.3681C17.8475 19.5985 17.9412 19.818 18.1043 19.9792C18.2675 20.1403 18.487 20.23 18.7152 20.229L21.1598 20.2022C21.2868 20.2012 21.4124 20.1748 21.5293 20.1246C21.6463 20.0744 21.7522 20.0012 21.841 19.9095C21.9297 19.8177 21.9997 19.7091 22.0467 19.5899C22.0937 19.4707 22.1168 19.3434 22.1148 19.2151L22.0428 12.4047Z" fill="#00A7E1"/>
</svg>
