<svg width="17" height="17" viewBox="0 0 17 17" fill="none" xmlns="http://www.w3.org/2000/svg">
<g clip-path="url(#clip0_3345_5322)">
<path d="M9.47318 15.9606C9.07318 15.9606 8.45318 15.7673 7.85984 14.7939L6.68649 12.8939C6.57316 12.7073 6.22648 12.5273 6.01315 12.5406L3.78647 12.6539C2.45314 12.7206 1.9865 12.1673 1.81983 11.8339C1.65316 11.5006 1.50647 10.7873 2.37314 9.77395L3.69316 8.24061C3.8265 8.08061 3.89981 7.73395 3.83981 7.53396L3.16647 5.38064C2.82647 4.30064 3.20648 3.72064 3.45981 3.46731C3.71314 3.21397 4.29981 2.8473 5.37981 3.2073L7.34648 3.85397C7.52651 3.91397 7.85984 3.86063 8.01318 3.75397L10.0665 2.27397C11.0065 1.59397 11.6864 1.77397 11.9998 1.94063C12.3131 2.1073 12.8464 2.56065 12.8264 3.72065L12.7798 6.24729C12.7731 6.43396 12.9264 6.74063 13.0731 6.85397L14.7265 8.10728C15.6265 8.79395 15.6598 9.48061 15.5998 9.83395C15.5398 10.1873 15.2732 10.8273 14.1932 11.1606L12.0398 11.8339C11.8398 11.8939 11.5931 12.1539 11.5398 12.3539L11.0265 14.3139C10.6865 15.6006 10.0198 15.8873 9.64651 15.9406C9.59984 15.9539 9.53984 15.9606 9.47318 15.9606ZM6.03313 11.5406C6.60646 11.5406 7.2398 11.8873 7.53311 12.3673L8.70644 14.2673C9.03978 14.8139 9.33978 14.9806 9.49978 14.9539C9.65311 14.9339 9.89318 14.6806 10.0598 14.0673L10.5731 12.1073C10.7131 11.5739 11.2131 11.0473 11.7398 10.8873L13.8932 10.2139C14.3065 10.0873 14.5731 9.88061 14.6131 9.66728C14.6531 9.45395 14.4664 9.17395 14.1198 8.90728L12.4665 7.65395C12.0598 7.34731 11.7665 6.73396 11.7732 6.22729L11.8198 3.70063C11.8265 3.25396 11.7198 2.92064 11.5265 2.82064C11.3332 2.72064 11.0065 2.82063 10.6398 3.08063L8.58644 4.56063C8.17978 4.85396 7.50651 4.96064 7.01982 4.80064L5.05315 4.15397C4.63982 4.02064 4.3065 4.02729 4.15316 4.18063C3.99983 4.33396 3.98646 4.66729 4.11313 5.08063L4.78647 7.23397C4.95314 7.76061 4.80646 8.47395 4.44646 8.88728L3.12648 10.4206C2.70648 10.9073 2.63981 11.2473 2.71314 11.3873C2.77981 11.5273 3.09983 11.6806 3.73316 11.6473L5.95981 11.5339C5.98648 11.5406 6.01313 11.5406 6.03313 11.5406Z" fill="#0A0C0E"/>
<mask id="path-2-inside-1_3345_5322" fill="white">
<path d="M15.4065 16.1277C15.2799 16.1277 15.1532 16.081 15.0532 15.981L13.0332 13.961C12.8399 13.7677 12.8399 13.4477 13.0332 13.2544C13.2265 13.061 13.5465 13.061 13.7399 13.2544L15.7599 15.2744C15.9532 15.4677 15.9532 15.7877 15.7599 15.981C15.6599 16.081 15.5332 16.1277 15.4065 16.1277Z"/>
</mask>
<path d="M15.0532 15.981L15.7603 15.2739H15.7603L15.0532 15.981ZM13.0332 13.961L12.3261 14.6681L12.3261 14.6681L13.0332 13.961ZM13.7399 13.2544L13.0327 13.9615L13.0327 13.9615L13.7399 13.2544ZM15.7599 15.2744L16.467 14.5673L16.467 14.5673L15.7599 15.2744ZM15.4065 15.1277C15.5308 15.1277 15.6629 15.1765 15.7603 15.2739L14.3461 16.6881C14.6435 16.9856 15.0289 17.1277 15.4065 17.1277V15.1277ZM15.7603 15.2739L13.7403 13.2539L12.3261 14.6681L14.3461 16.6881L15.7603 15.2739ZM13.7403 13.2539C13.9375 13.4511 13.9375 13.7643 13.7403 13.9615L12.3261 12.5473C11.7422 13.1311 11.7422 14.0843 12.3261 14.6681L13.7403 13.2539ZM13.7403 13.9615C13.5431 14.1587 13.2299 14.1587 13.0327 13.9615L14.447 12.5473C13.8631 11.9634 12.9099 11.9634 12.3261 12.5473L13.7403 13.9615ZM13.0327 13.9615L15.0527 15.9815L16.467 14.5673L14.447 12.5473L13.0327 13.9615ZM15.0527 15.9815C14.8556 15.7843 14.8556 15.4711 15.0527 15.2739L16.467 16.6881C17.0508 16.1043 17.0508 15.1511 16.467 14.5673L15.0527 15.9815ZM15.0527 15.2739C15.1502 15.1765 15.2823 15.1277 15.4065 15.1277V17.1277C15.7841 17.1277 16.1695 16.9856 16.467 16.6881L15.0527 15.2739Z" fill="#0A0C0E" mask="url(#path-2-inside-1_3345_5322)"/>
</g>
<defs>
<clipPath id="clip0_3345_5322">
<rect width="16" height="16" fill="white" transform="translate(0.799805 0.960938)"/>
</clipPath>
</defs>
</svg>
