<svg width="16" height="16" viewBox="0 0 16 16" fill="none" xmlns="http://www.w3.org/2000/svg">
    <path
        d="M9.51732 7.71467C9.52799 7.576 9.53599 7.43467 9.53599 7.29334C9.53599 4.87467 7.58132 2.912 5.16799 2.912C2.76265 2.912 0.813321 4.86134 0.802654 7.272L0.799988 7.28L0.831988 12.2987C0.834654 12.616 1.09332 12.8693 1.40799 12.8667L3.02932 12.8507C3.38399 12.848 3.66665 12.5573 3.66399 12.2L3.63732 9.61067V7.76534C3.63732 6.91467 4.32532 6.22667 5.17065 6.22667C5.93332 6.22667 6.56265 6.784 6.68265 7.51467L6.73332 12.2987C6.73599 12.616 6.99465 12.8693 7.30932 12.8667L8.93065 12.8507C9.28532 12.848 9.56799 12.5573 9.56532 12.2L9.51732 7.71467Z"
        fill="#3DC971" />
    <path
        d="M15.4187 7.71467C15.4294 7.576 15.4374 7.43467 15.4374 7.29334C15.4374 4.87467 13.4827 2.912 11.0694 2.912C8.66402 2.912 6.71469 4.86134 6.70402 7.272L6.70135 7.28L6.73336 12.2987C6.73602 12.616 6.99469 12.8693 7.30936 12.8667L8.93069 12.8507C9.28536 12.848 9.56802 12.5573 9.56536 12.2L9.53869 9.61067V7.76534C9.53869 6.91467 10.2267 6.22667 11.072 6.22667C11.8347 6.22667 12.464 6.784 12.584 7.51467L12.6347 12.2987C12.6374 12.616 12.896 12.8693 13.2107 12.8667L14.832 12.8507C15.1867 12.848 15.4694 12.5573 15.4667 12.2L15.4187 7.71467Z"
        fill="#0CBB4E" />
</svg>