<svg width="21" height="21" viewBox="0 0 21 21" fill="none" xmlns="http://www.w3.org/2000/svg">
<g id="more 1">
<g id="Group">
<path id="Vector" d="M10.722 12.213C11.668 12.213 12.435 11.4461 12.435 10.5001C12.435 9.55403 11.668 8.78711 10.722 8.78711C9.77595 8.78711 9.00903 9.55403 9.00903 10.5001C9.00903 11.4461 9.77595 12.213 10.722 12.213Z" fill="#14141C"/>
<path id="Vector_2" d="M10.722 18.2082C11.668 18.2082 12.435 17.4412 12.435 16.4952C12.435 15.5491 11.668 14.7822 10.722 14.7822C9.77595 14.7822 9.00903 15.5491 9.00903 16.4952C9.00903 17.4412 9.77595 18.2082 10.722 18.2082Z" fill="#14141C"/>
<path id="Vector_3" d="M10.722 6.21743C11.668 6.21743 12.435 5.45051 12.435 4.50447C12.435 3.55842 11.668 2.7915 10.722 2.7915C9.77595 2.7915 9.00903 3.55842 9.00903 4.50447C9.00903 5.45051 9.77595 6.21743 10.722 6.21743Z" fill="#14141C"/>
</g>
</g>
</svg>
