<svg width="16" height="16" viewBox="0 0 16 16" fill="none" xmlns="http://www.w3.org/2000/svg">
<g clip-path="url(#clip0_1089_13565)">
<path d="M10.9128 15.1801C10.9062 15.1801 10.9062 15.1801 10.8995 15.1801C10.2262 15.1734 9.66616 14.7601 9.46616 14.1134L8.23282 10.1468C8.06616 9.60009 8.20616 9.01342 8.61282 8.62009C9.01282 8.22676 9.59282 8.08009 10.1262 8.24675L14.0995 9.48009C14.7395 9.68009 15.1595 10.2401 15.1662 10.9134C15.1728 11.5801 14.7662 12.1468 14.1262 12.3601L13.0395 12.7268C12.8862 12.7801 12.7662 12.8934 12.7195 13.0468L12.3462 14.1401C12.1395 14.7734 11.5795 15.1801 10.9128 15.1801ZM9.67282 9.18009C9.49282 9.18009 9.37282 9.28009 9.31949 9.32675C9.17949 9.46675 9.13282 9.66009 9.19282 9.85342L10.4262 13.8201C10.5328 14.1601 10.8262 14.1734 10.9195 14.1801C11.0128 14.1801 11.2995 14.1534 11.4062 13.8268L11.7795 12.7334C11.9262 12.2868 12.2862 11.9334 12.7328 11.7801L13.8195 11.4134C14.1528 11.3068 14.1728 11.0134 14.1728 10.9268C14.1728 10.8401 14.1462 10.5468 13.8128 10.4401L9.83949 9.20676C9.77282 9.18676 9.71949 9.18009 9.67282 9.18009Z" fill="#14141C"/>
<path d="M7.99992 15.1666C4.04659 15.1666 0.833252 11.9533 0.833252 7.99992C0.833252 4.04659 4.04659 0.833252 7.99992 0.833252C11.9533 0.833252 15.1666 4.04659 15.1666 7.99992C15.1666 8.27325 14.9399 8.49992 14.6666 8.49992C14.3933 8.49992 14.1666 8.27325 14.1666 7.99992C14.1666 4.59992 11.3999 1.83325 7.99992 1.83325C4.59992 1.83325 1.83325 4.59992 1.83325 7.99992C1.83325 11.3999 4.59992 14.1666 7.99992 14.1666C8.27325 14.1666 8.49992 14.3933 8.49992 14.6666C8.49992 14.9399 8.27325 15.1666 7.99992 15.1666Z" fill="#14141C"/>
</g>
<defs>
<clipPath id="clip0_1089_13565">
<rect width="16" height="16" fill="white"/>
</clipPath>
</defs>
</svg>
