<svg width="20" height="20" viewBox="0 0 20 20" fill="none" xmlns="http://www.w3.org/2000/svg">
<path d="M10.0167 17.1086C8.07505 17.1086 6.13339 16.8002 4.29172 16.1836C3.59172 15.9419 3.05839 15.4502 2.82505 14.8086C2.58339 14.1669 2.66672 13.4586 3.05005 12.8252L4.00839 11.2336C4.20839 10.9002 4.39172 10.2336 4.39172 9.84191V7.43359C4.39172 4.33359 6.91672 1.80859 10.0167 1.80859C13.1167 1.80859 15.6417 4.33359 15.6417 7.43359V9.84191C15.6417 10.2252 15.8251 10.9002 16.0251 11.2419L16.9751 12.8252C17.3334 13.4252 17.4001 14.1502 17.1584 14.8086C16.9167 15.4669 16.3917 15.9669 15.7334 16.1836C13.9001 16.8002 11.9584 17.1086 10.0167 17.1086ZM10.0167 3.05859C7.60839 3.05859 5.64172 5.01693 5.64172 7.43359V9.84191C5.64172 10.4502 5.39172 11.3502 5.08339 11.8752L4.12505 13.4669C3.94172 13.7752 3.89172 14.1002 4.00005 14.3752C4.10005 14.6586 4.35005 14.8752 4.69172 14.9919C8.17505 16.1586 11.8667 16.1586 15.3501 14.9919C15.6501 14.8919 15.8834 14.6669 15.9917 14.3669C16.1001 14.0669 16.0751 13.7419 15.9084 13.4669L14.9501 11.8752C14.6334 11.3336 14.3917 10.4419 14.3917 9.83358V7.43359C14.3917 5.01693 12.4334 3.05859 10.0167 3.05859Z" fill="white"/>
<path d="M11.5663 3.2834C11.508 3.2834 11.4497 3.27507 11.3913 3.2584C11.1497 3.19173 10.9163 3.14173 10.6913 3.1084C9.983 3.01673 9.29966 3.06673 8.658 3.2584C8.42466 3.3334 8.17469 3.2584 8.01635 3.0834C7.85802 2.9084 7.80802 2.6584 7.89969 2.4334C8.24135 1.5584 9.07466 0.983398 10.0247 0.983398C10.9747 0.983398 11.808 1.55007 12.1497 2.4334C12.233 2.6584 12.1913 2.9084 12.033 3.0834C11.908 3.21673 11.733 3.2834 11.5663 3.2834Z" fill="white"/>
<path d="M10.0161 19.0088C9.19109 19.0088 8.39109 18.6755 7.80778 18.0921C7.22445 17.5088 6.89111 16.7088 6.89111 15.8838H8.14111C8.14111 16.3755 8.34109 16.8588 8.69109 17.2088C9.04109 17.5588 9.52442 17.7588 10.0161 17.7588C11.0494 17.7588 11.8911 16.9171 11.8911 15.8838H13.1411C13.1411 17.6088 11.7411 19.0088 10.0161 19.0088Z" fill="white"/>
</svg>
