<svg width="15" height="16" viewBox="0 0 15 16" fill="none" xmlns="http://www.w3.org/2000/svg">
<g clip-path="url(#clip0_837_2645)">
<path fill-rule="evenodd" clip-rule="evenodd" d="M3.625 3.625C3.625 3.21079 3.96079 2.875 4.375 2.875C4.78921 2.875 5.125 3.21079 5.125 3.625C5.125 4.03921 4.78921 4.375 4.375 4.375C3.96079 4.375 3.625 4.03921 3.625 3.625ZM4.375 1.875C3.4085 1.875 2.625 2.6585 2.625 3.625C2.625 4.5915 3.4085 5.375 4.375 5.375C5.3415 5.375 6.125 4.5915 6.125 3.625C6.125 2.6585 5.3415 1.875 4.375 1.875ZM3 8C3 7.92612 3.02244 7.90341 3.02543 7.90043C3.02841 7.89744 3.05112 7.875 3.125 7.875H5.625C5.69888 7.875 5.72159 7.89744 5.72457 7.90043C5.72756 7.90341 5.75 7.92612 5.75 8V10.2929L5.27145 10.7714C5.17768 10.8652 5.125 10.9924 5.125 11.125V14.25C5.125 14.5261 5.34886 14.75 5.625 14.75C5.90114 14.75 6.125 14.5261 6.125 14.25V11.3321L6.60355 10.8536C6.69732 10.7598 6.75 10.6326 6.75 10.5V8C6.75 7.69888 6.64744 7.40909 6.43168 7.19332C6.21591 6.97756 5.92612 6.875 5.625 6.875H3.125C2.82388 6.875 2.53409 6.97756 2.31832 7.19332C2.10256 7.40909 2 7.69888 2 8V10.5C2 10.6326 2.05268 10.7598 2.14645 10.8536L2.625 11.3321V14.25C2.625 14.5261 2.84886 14.75 3.125 14.75C3.40114 14.75 3.625 14.5261 3.625 14.25V11.125C3.625 10.9924 3.57232 10.8652 3.47855 10.7714L3 10.2929V8ZM10.625 2.875C10.2108 2.875 9.875 3.21079 9.875 3.625C9.875 4.03921 10.2108 4.375 10.625 4.375C11.0392 4.375 11.375 4.03921 11.375 3.625C11.375 3.21079 11.0392 2.875 10.625 2.875ZM8.875 3.625C8.875 2.6585 9.6585 1.875 10.625 1.875C11.5915 1.875 12.375 2.6585 12.375 3.625C12.375 4.5915 11.5915 5.375 10.625 5.375C9.6585 5.375 8.875 4.5915 8.875 3.625ZM9.875 8C9.875 7.92612 9.89744 7.90341 9.90043 7.90043C9.90341 7.89744 9.92612 7.875 10 7.875H11.25C11.3239 7.875 11.3466 7.89744 11.3496 7.90043C11.3526 7.90341 11.375 7.92612 11.375 8C11.375 8.05374 11.3837 8.10713 11.4007 8.15811L12.4313 11.25H11.875C11.5989 11.25 11.375 11.4739 11.375 11.75V14.25C11.375 14.5261 11.5989 14.75 11.875 14.75C12.1511 14.75 12.375 14.5261 12.375 14.25V12.25H13.125C13.2857 12.25 13.4366 12.1727 13.5306 12.0424C13.6246 11.912 13.6502 11.7444 13.5993 11.5919L12.3719 7.90948C12.3532 7.64129 12.2507 7.38737 12.0567 7.19332C11.8409 6.97756 11.5511 6.875 11.25 6.875H10C9.69888 6.875 9.40909 6.97756 9.19332 7.19332C8.99928 7.38737 8.89679 7.64129 8.87813 7.90948L7.65066 11.5919C7.59983 11.7444 7.6254 11.912 7.71938 12.0424C7.81335 12.1727 7.96428 12.25 8.125 12.25H8.875V14.25C8.875 14.5261 9.09886 14.75 9.375 14.75C9.65114 14.75 9.875 14.5261 9.875 14.25V11.75C9.875 11.4739 9.65114 11.25 9.375 11.25H8.81871L9.84934 8.15811C9.86634 8.10713 9.875 8.05374 9.875 8Z" fill="white"/>
</g>
<defs>
<clipPath id="clip0_837_2645">
<rect width="15" height="15" fill="white" transform="translate(0 0.5)"/>
</clipPath>
</defs>
</svg>
