<svg width="16" height="16" viewBox="0 0 16 16" fill="none" xmlns="http://www.w3.org/2000/svg">
<g id="people" clip-path="url(#clip0_689_8959)">
<path id="Vector" d="M12.0002 5.27318C11.9802 5.27318 11.9669 5.27318 11.9469 5.27318H11.9135C10.6535 5.23318 9.71353 4.25984 9.71353 3.05984C9.71353 1.83318 10.7135 0.839844 11.9335 0.839844C13.1535 0.839844 14.1535 1.83984 14.1535 3.05984C14.1469 4.26651 13.2069 5.23984 12.0069 5.27984C12.0069 5.27318 12.0069 5.27318 12.0002 5.27318ZM11.9335 1.83318C11.2602 1.83318 10.7135 2.37985 10.7135 3.05318C10.7135 3.71318 11.2269 4.24652 11.8869 4.27318C11.8935 4.26652 11.9469 4.26652 12.0069 4.27318C12.6535 4.23985 13.1535 3.70652 13.1602 3.05318C13.1602 2.37985 12.6135 1.83318 11.9335 1.83318Z" fill="#63637E"/>
<path id="Vector_2" d="M12.007 10.1866C11.747 10.1866 11.487 10.1666 11.227 10.1199C10.9537 10.0732 10.7737 9.81324 10.8203 9.5399C10.867 9.26657 11.127 9.08657 11.4003 9.13324C12.2203 9.27324 13.087 9.11997 13.667 8.7333C13.9803 8.52664 14.147 8.26657 14.147 8.00657C14.147 7.74657 13.9737 7.49324 13.667 7.28657C13.087 6.8999 12.207 6.74657 11.3803 6.89324C11.107 6.94657 10.847 6.7599 10.8003 6.4866C10.7537 6.21327 10.9337 5.95327 11.207 5.9066C12.2937 5.71327 13.4203 5.91993 14.2203 6.45326C14.807 6.84657 15.147 7.40657 15.147 8.00657C15.147 8.5999 14.8137 9.16664 14.2203 9.56664C13.6137 9.96664 12.827 10.1866 12.007 10.1866Z" fill="#63637E"/>
<path id="Vector_3" d="M3.98031 5.2735C3.97365 5.2735 3.96698 5.2735 3.96698 5.2735C2.76698 5.2335 1.82698 4.26016 1.82031 3.06016C1.82031 1.8335 2.82031 0.833496 4.04031 0.833496C5.26031 0.833496 6.26031 1.8335 6.26031 3.0535C6.26031 4.26016 5.32031 5.2335 4.12031 5.2735L3.98031 4.7735L4.02698 5.2735C4.01365 5.2735 3.99365 5.2735 3.98031 5.2735ZM4.04698 4.2735C4.08698 4.2735 4.12031 4.2735 4.16031 4.28016C4.75365 4.2535 5.27365 3.72016 5.27365 3.06016C5.27365 2.38683 4.72698 1.84016 4.05365 1.84016C3.38031 1.84016 2.83365 2.38683 2.83365 3.06016C2.83365 3.7135 3.34031 4.24016 3.98698 4.28016C3.99365 4.2735 4.02031 4.2735 4.04698 4.2735Z" fill="#63637E"/>
<path id="Vector_4" d="M3.97334 10.1866C3.15334 10.1866 2.36668 9.96664 1.76001 9.56664C1.17334 9.1733 0.833344 8.60657 0.833344 8.00657C0.833344 7.41324 1.17334 6.84657 1.76001 6.45326C2.56001 5.91993 3.68668 5.71327 4.77334 5.9066C5.04668 5.95327 5.22668 6.21327 5.18001 6.4866C5.13334 6.7599 4.87334 6.94657 4.60001 6.89324C3.77334 6.74657 2.90001 6.8999 2.31334 7.28657C2.00001 7.49324 1.83334 7.74657 1.83334 8.00657C1.83334 8.26657 2.00668 8.52664 2.31334 8.7333C2.89334 9.11997 3.76001 9.27324 4.58001 9.13324C4.85334 9.08657 5.11334 9.27324 5.16001 9.5399C5.20668 9.81324 5.02668 10.0732 4.75334 10.1199C4.49334 10.1666 4.23334 10.1866 3.97334 10.1866Z" fill="#63637E"/>
<path id="Vector_5" d="M8.00019 10.2532C7.98019 10.2532 7.96686 10.2532 7.94686 10.2532H7.91353C6.65353 10.2132 5.71353 9.23984 5.71353 8.03984C5.71353 6.81317 6.71352 5.81982 7.93352 5.81982C9.15352 5.81982 10.1535 6.81984 10.1535 8.03984C10.1469 9.2465 9.20686 10.2198 8.00686 10.2598C8.00686 10.2532 8.00686 10.2532 8.00019 10.2532ZM7.93352 6.81317C7.26019 6.81317 6.71353 7.35984 6.71353 8.03317C6.71353 8.69317 7.22686 9.2265 7.88686 9.25317C7.89353 9.2465 7.94686 9.2465 8.00686 9.25317C8.65352 9.21984 9.15352 8.6865 9.16019 8.03317C9.16019 7.3665 8.61352 6.81317 7.93352 6.81317Z" fill="#63637E"/>
<path id="Vector_6" d="M7.99954 15.1735C7.19954 15.1735 6.39954 14.9668 5.77954 14.5468C5.19287 14.1535 4.85287 13.5935 4.85287 12.9935C4.85287 12.4001 5.18621 11.8268 5.77954 11.4335C7.02621 10.6068 8.97954 10.6068 10.2195 11.4335C10.8062 11.8268 11.1462 12.3868 11.1462 12.9868C11.1462 13.5801 10.8129 14.1535 10.2195 14.5468C9.59954 14.9601 8.79954 15.1735 7.99954 15.1735ZM6.33287 12.2735C6.01954 12.4801 5.85287 12.7401 5.85287 13.0001C5.85287 13.2601 6.02621 13.5135 6.33287 13.7201C7.23287 14.3268 8.75954 14.3268 9.65954 13.7201C9.97287 13.5135 10.1395 13.2535 10.1395 12.9935C10.1395 12.7335 9.96621 12.4801 9.65954 12.2735C8.76621 11.6668 7.23954 11.6735 6.33287 12.2735Z" fill="#63637E"/>
</g>
<defs>
<clipPath id="clip0_689_8959">
<rect width="16" height="16" fill="white"/>
</clipPath>
</defs>
</svg>
