<svg width="14" height="14" viewBox="0 0 14 14" fill="none" xmlns="http://www.w3.org/2000/svg">
<path d="M9.84027 11.1185H5.17362C3.32446 11.1185 1.81946 9.61351 1.81946 7.76435C1.81946 5.91518 3.32446 4.41016 5.17362 4.41016H11.5903C11.8294 4.41016 12.0278 4.60849 12.0278 4.84766C12.0278 5.08682 11.8294 5.28516 11.5903 5.28516H5.17362C3.80862 5.28516 2.69446 6.39935 2.69446 7.76435C2.69446 9.12935 3.80862 10.2435 5.17362 10.2435H9.84027C10.0794 10.2435 10.2778 10.4418 10.2778 10.681C10.2778 10.9202 10.0853 11.1185 9.84027 11.1185Z" fill="#1A324C"/>
<path d="M10.249 6.74328C10.1382 6.74328 10.0274 6.70244 9.93986 6.61494C9.7707 6.44578 9.7707 6.16578 9.93986 5.99661L11.124 4.81243L9.93986 3.62826C9.7707 3.4591 9.7707 3.1791 9.93986 3.00993C10.109 2.84076 10.389 2.84076 10.5582 3.00993L12.0515 4.50326C12.2207 4.67243 12.2207 4.95243 12.0515 5.1216L10.5582 6.61494C10.4707 6.70244 10.3599 6.74328 10.249 6.74328Z" fill="#1A324C"/>
</svg>
