<svg width="16" height="17" viewBox="0 0 16 17" fill="none" xmlns="http://www.w3.org/2000/svg">
<path d="M5.60026 8.43294C5.60026 9.76628 4.53359 10.7663 3.26693 10.7663C2.00026 10.7663 0.933594 9.69961 0.933594 8.43294C0.933594 7.16628 2.00026 6.09961 3.26693 6.09961C4.53359 6.09961 5.60026 7.16628 5.60026 8.43294ZM1.93359 8.43294C1.93359 9.16628 2.53359 9.76628 3.26693 9.76628C4.00026 9.76628 4.60026 9.16628 4.60026 8.43294C4.60026 7.69961 4.00026 7.09961 3.26693 7.09961C2.53359 7.09961 1.93359 7.69961 1.93359 8.43294Z" fill="#292F37"/>
<path d="M13.8005 13.3001C13.8005 14.6335 12.7338 15.6335 11.4671 15.6335C10.2005 15.6335 9.13379 14.5668 9.13379 13.3001C9.13379 12.0335 10.2005 10.9668 11.4671 10.9668C12.7338 10.9668 13.8005 12.0335 13.8005 13.3001ZM10.0671 13.3001C10.0671 14.0335 10.6671 14.6335 11.4005 14.6335C12.1338 14.6335 12.7338 14.0335 12.7338 13.3001C12.7338 12.5668 12.1338 11.9668 11.4005 11.9668C10.6671 11.9668 10.0671 12.5668 10.0671 13.3001Z" fill="#292F37"/>
<path d="M13.8005 3.69954C13.8005 5.03288 12.7338 6.03288 11.4671 6.03288C10.2005 6.03288 9.13379 4.96621 9.13379 3.69954C9.13379 2.43288 10.2005 1.36621 11.4671 1.36621C12.7338 1.36621 13.8005 2.43288 13.8005 3.69954ZM10.0671 3.69954C10.0671 4.43288 10.6671 5.03288 11.4005 5.03288C12.1338 5.03288 12.7338 4.43288 12.7338 3.69954C12.7338 2.96621 12.1338 2.36621 11.4005 2.36621C10.6671 2.36621 10.0671 2.96621 10.0671 3.69954Z" fill="#292F37"/>
<path d="M9.8668 12.7669C9.73346 13.0336 9.40013 13.1002 9.20013 12.9669L4.73346 10.3002C4.4668 10.1669 4.40013 9.83355 4.53346 9.63355C4.6668 9.43355 5.00013 9.30022 5.20013 9.43355L9.6668 12.1002C9.93346 12.2336 10.0001 12.5669 9.8668 12.7669Z" fill="#292F37"/>
<path d="M9.86676 4.29957C10.0001 4.56624 9.86676 4.8329 9.66676 4.96624L5.13342 7.49957C4.86676 7.6329 4.60009 7.49957 4.46676 7.29957C4.33342 7.09957 4.46676 6.76624 4.66676 6.6329L9.20009 4.09957C9.46676 3.96624 9.73342 4.09957 9.86676 4.29957Z" fill="#292F37"/>
</svg>
