<svg width="16" height="16" viewBox="0 0 16 16" fill="none" xmlns="http://www.w3.org/2000/svg">
<path d="M5.60026 7.93294C5.60026 9.26628 4.53359 10.2663 3.26693 10.2663C2.00026 10.2663 0.933594 9.19961 0.933594 7.93294C0.933594 6.66628 2.00026 5.59961 3.26693 5.59961C4.53359 5.59961 5.60026 6.66628 5.60026 7.93294Z" fill="#292F37"/>
<path d="M13.8005 12.8001C13.8005 14.1335 12.7338 15.1335 11.4671 15.1335C10.2005 15.1335 9.13379 14.0668 9.13379 12.8001C9.13379 11.5335 10.2005 10.4668 11.4671 10.4668C12.7338 10.4668 13.8005 11.5335 13.8005 12.8001Z" fill="#292F37"/>
<path d="M13.8005 3.19954C13.8005 4.53288 12.7338 5.53288 11.4671 5.53288C10.2005 5.53288 9.13379 4.46621 9.13379 3.19954C9.13379 1.93288 10.2005 0.866211 11.4671 0.866211C12.7338 0.866211 13.8005 1.93288 13.8005 3.19954Z" fill="#292F37"/>
<path d="M9.8668 12.2669C9.73346 12.5336 9.40013 12.6002 9.20013 12.4669L4.73346 9.80022C4.4668 9.66689 4.40013 9.33355 4.53346 9.13355C4.6668 8.93355 5.00013 8.80022 5.20013 8.93355L9.6668 11.6002C9.93346 11.7336 10.0001 12.0669 9.8668 12.2669Z" fill="#292F37"/>
<path d="M9.86676 3.79957C10.0001 4.06624 9.86676 4.3329 9.66676 4.46624L5.13342 6.99957C4.86676 7.1329 4.60009 6.99957 4.46676 6.79957C4.33342 6.59957 4.46676 6.26624 4.66676 6.1329L9.20009 3.59957C9.46676 3.46624 9.73342 3.59957 9.86676 3.79957Z" fill="#292F37"/>
</svg>
