<svg width="16" height="17" viewBox="0 0 16 17" fill="none" xmlns="http://www.w3.org/2000/svg">
<g id="close 1">
<path id="Vector" d="M8.85013 8.5L11.8256 5.52456C12.0581 5.29198 12.0581 4.90702 11.8256 4.67444C11.593 4.44185 11.208 4.44185 10.9754 4.67444L8 7.64987L5.02456 4.67444C4.79198 4.44185 4.40702 4.44185 4.17444 4.67444C3.94185 4.90702 3.94185 5.29198 4.17444 5.52456L7.14987 8.5L4.17444 11.4754C3.94185 11.708 3.94185 12.093 4.17444 12.3256C4.40702 12.5581 4.79198 12.5581 5.02456 12.3256L8 9.35013L10.9754 12.3256C11.208 12.5581 11.593 12.5581 11.8256 12.3256C12.0581 12.093 12.0581 11.708 11.8256 11.4754L8.85013 8.5Z" fill="#14141C"/>
</g>
</svg>