<svg width="18" height="18" viewBox="0 0 18 18" fill="none" xmlns="http://www.w3.org/2000/svg">
<g clip-path="url(#clip0_3345_6620)">
<path d="M13.2144 6.71484H9.27686C9.26379 6.71484 9.24814 6.70964 9.23385 6.69535C9.21956 6.68106 9.21436 6.66541 9.21436 6.65234C9.21436 6.63928 9.21956 6.62362 9.23385 6.60933C9.24814 6.59504 9.26379 6.58984 9.27686 6.58984H13.2144C13.2274 6.58984 13.2431 6.59504 13.2574 6.60933C13.2717 6.62362 13.2769 6.63928 13.2769 6.65234C13.2769 6.68806 13.2489 6.71484 13.2144 6.71484Z" stroke="white"/>
<path d="M5.34041 7.78522C5.19791 7.78522 5.05541 7.73272 4.94291 7.62022L4.38041 7.05773C4.16291 6.84023 4.16291 6.48023 4.38041 6.26273C4.59791 6.04523 4.95791 6.04523 5.17541 6.26273L5.34041 6.42773L6.63041 5.13773C6.84791 4.92023 7.20791 4.92023 7.42541 5.13773C7.64287 5.35523 7.64287 5.71523 7.42541 5.93273L5.73791 7.62022C5.63291 7.72522 5.49041 7.78522 5.34041 7.78522Z" fill="white"/>
<path d="M13.2144 12.4648H9.27686C8.96936 12.4648 8.71436 12.2098 8.71436 11.9023C8.71436 11.5948 8.96936 11.3398 9.27686 11.3398H13.2144C13.5219 11.3398 13.7769 11.5948 13.7769 11.9023C13.7769 12.2098 13.5294 12.4648 13.2144 12.4648Z" fill="white"/>
<path d="M5.34041 13.0352C5.19791 13.0352 5.05541 12.9827 4.94291 12.8702L4.38041 12.3077C4.16291 12.0902 4.16291 11.7302 4.38041 11.5127C4.59791 11.2952 4.95791 11.2952 5.17541 11.5127L5.34041 11.6777L6.63041 10.3877C6.84791 10.1702 7.20791 10.1702 7.42541 10.3877C7.64287 10.6052 7.64287 10.9652 7.42541 11.1827L5.73791 12.8702C5.63291 12.9752 5.49041 13.0352 5.34041 13.0352Z" fill="white"/>
<path d="M11.25 17.0625H6.75C2.6775 17.0625 0.9375 15.3225 0.9375 11.25V6.75C0.9375 2.6775 2.6775 0.9375 6.75 0.9375H11.25C15.3225 0.9375 17.0625 2.6775 17.0625 6.75V11.25C17.0625 15.3225 15.3225 17.0625 11.25 17.0625ZM6.75 2.0625C3.2925 2.0625 2.0625 3.2925 2.0625 6.75V11.25C2.0625 14.7075 3.2925 15.9375 6.75 15.9375H11.25C14.7075 15.9375 15.9375 14.7075 15.9375 11.25V6.75C15.9375 3.2925 14.7075 2.0625 11.25 2.0625H6.75Z" fill="white"/>
</g>
<defs>
<clipPath id="clip0_3345_6620">
<rect width="18" height="18" fill="white"/>
</clipPath>
</defs>
</svg>
