<svg width="20" height="20" viewBox="0 0 20 20" fill="none" xmlns="http://www.w3.org/2000/svg">
<path d="M15.9758 7.16531C15.9758 7.10554 15.9758 7.10404 15.9095 7.10404C15.7539 7.10286 15.5987 7.09037 15.4452 7.06669C14.8877 6.986 13.0764 6.08949 12.7716 4.62071C12.7351 4.43957 12.7108 4.25641 12.699 4.07234C12.699 4.00211 12.699 4.00212 12.6247 4.00062H10.4518C10.3081 4.00062 10.3286 3.98419 10.3286 4.12016V12.8342C10.331 12.9423 10.3231 13.0503 10.3049 13.157C10.2615 13.4077 10.165 13.6475 10.0211 13.862C9.87724 14.0765 9.68901 14.2613 9.46773 14.4052C9.24646 14.5491 8.99671 14.6492 8.7335 14.6994C8.4703 14.7496 8.19908 14.749 7.93615 14.6975C7.77635 14.6613 7.62041 14.6113 7.47028 14.5481L7.43239 14.5167C7.3818 14.4773 7.32909 14.4404 7.27447 14.4061C6.61911 13.9773 6.30801 13.3811 6.40276 12.6355C6.49751 11.8899 6.95863 11.3655 7.71506 11.101C7.94061 11.0223 8.18098 10.9887 8.42096 11.0024C8.5768 11.0076 8.73151 11.0297 8.88208 11.0681C8.93419 11.0831 8.96262 11.0681 8.96577 11.0128C8.96577 10.9949 8.96577 10.977 8.96577 10.9575C8.96577 10.4361 8.94524 9.29751 8.94209 9.29452C8.94209 9.1451 8.94209 8.99568 8.94209 8.84626C8.94209 8.80293 8.91998 8.79546 8.8805 8.79098C8.29367 8.72113 7.69795 8.76551 7.12991 8.92141C6.56187 9.07731 6.03351 9.34143 5.57727 9.69755C5.12103 10.0537 4.74654 10.4943 4.47681 10.9923C4.20707 11.4903 4.04778 12.0353 4.00871 12.5937C3.99451 12.8068 3.99768 13.0206 4.01819 13.2332C4.06909 13.7942 4.24228 14.3392 4.52685 14.8337C4.81142 15.3282 5.20119 15.7616 5.67159 16.1065C5.73973 16.1653 5.81564 16.2156 5.89742 16.2559L6.0048 16.3456C6.11875 16.4263 6.24034 16.4968 6.36802 16.5563C7.24469 16.9742 8.24416 17.102 9.20664 16.9192C10.1691 16.7363 11.039 16.2534 11.6772 15.5477C12.3614 14.8021 12.7338 13.8455 12.7242 12.8581C12.7321 11.4118 12.7242 9.96541 12.7242 8.52501C12.7242 8.49065 12.7021 8.44134 12.7432 8.42341C12.7842 8.40548 12.8064 8.4503 12.8348 8.46823C13.3982 8.82025 14.0241 9.07333 14.6824 9.21533C15.0675 9.30187 15.4616 9.34698 15.8573 9.3498C15.9837 9.3498 15.9995 9.3498 15.9995 9.22579C16.0042 8.70581 15.9758 7.30128 15.9758 7.16531Z" fill="#0A0C0E"/>
</svg>
