<svg width="37" height="37" viewBox="0 0 37 37" fill="none" xmlns="http://www.w3.org/2000/svg">
<circle cx="18.5" cy="18.7227" r="18" fill="#E9E9F6"/>
<path d="M26.239 14.6183C26.239 14.5447 26.239 14.5429 26.1573 14.5429C25.9659 14.5414 25.7749 14.5261 25.5859 14.4969C24.8999 14.3976 22.6706 13.2943 22.2955 11.4866C22.2505 11.2636 22.2207 11.0382 22.2061 10.8117C22.2061 10.7253 22.2061 10.7253 22.1147 10.7234H19.4404C19.2636 10.7234 19.2888 10.7032 19.2888 10.8705V21.5952C19.2918 21.7282 19.282 21.8611 19.2597 21.9924C19.2063 22.301 19.0874 22.5962 18.9104 22.8602C18.7333 23.1242 18.5016 23.3515 18.2293 23.5286C17.957 23.7058 17.6496 23.8289 17.3257 23.8907C17.0017 23.9526 16.6679 23.9518 16.3443 23.8884C16.1477 23.8438 15.9558 23.7823 15.771 23.7045L15.7243 23.6659C15.6621 23.6174 15.5972 23.572 15.53 23.5298C14.7234 23.002 14.3405 22.2683 14.4572 21.3507C14.5738 20.433 15.1413 19.7876 16.0722 19.4621C16.3498 19.3652 16.6457 19.3238 16.941 19.3407C17.1328 19.3472 17.3232 19.3743 17.5085 19.4216C17.5727 19.44 17.6076 19.4216 17.6115 19.3536C17.6115 19.3315 17.6115 19.3094 17.6115 19.2855C17.6115 18.6437 17.5863 17.2425 17.5824 17.2388C17.5824 17.0549 17.5824 16.871 17.5824 16.6871C17.5824 16.6338 17.5552 16.6246 17.5066 16.6191C16.7844 16.5331 16.0512 16.5877 15.3521 16.7796C14.653 16.9715 14.0027 17.2965 13.4412 17.7348C12.8797 18.1731 12.4188 18.7154 12.0868 19.3283C11.7548 19.9413 11.5588 20.6119 11.5107 21.2992C11.4932 21.5614 11.4971 21.8245 11.5224 22.0862C11.585 22.7767 11.7982 23.4474 12.1484 24.056C12.4986 24.6646 12.9783 25.198 13.5573 25.6225C13.6411 25.6949 13.7346 25.7567 13.8352 25.8064L13.9674 25.9167C14.1076 26.016 14.2573 26.1028 14.4144 26.176C15.4933 26.6904 16.7234 26.8477 17.908 26.6227C19.0925 26.3976 20.1631 25.8033 20.9486 24.9348C21.7906 24.0171 22.2489 22.8398 22.2372 21.6247C22.2469 19.8446 22.2372 18.0645 22.2372 16.2917C22.2372 16.2494 22.21 16.1887 22.2605 16.1667C22.311 16.1446 22.3383 16.1998 22.3732 16.2219C23.0667 16.6551 23.837 16.9666 24.6472 17.1413C25.1211 17.2478 25.6062 17.3033 26.0932 17.3068C26.2487 17.3068 26.2681 17.3068 26.2681 17.1542C26.274 16.5142 26.239 14.7856 26.239 14.6183Z" fill="#14141C"/>
</svg>
