<svg width="16" height="17" viewBox="0 0 16 17" fill="none" xmlns="http://www.w3.org/2000/svg">
<path d="M13.9997 4.98633C13.9864 4.98633 13.9664 4.98633 13.9464 4.98633C10.4197 4.63299 6.89972 4.49966 3.41303 4.85299L2.05303 4.98633C1.77303 5.01299 1.52637 4.81299 1.4997 4.53299C1.47303 4.25299 1.67303 4.01299 1.94637 3.98633L3.30637 3.85299C6.85305 3.49299 10.4464 3.63299 14.0464 3.98633C14.3197 4.01299 14.5197 4.25966 14.4931 4.53299C14.4731 4.79299 14.2531 4.98633 13.9997 4.98633Z" fill="#14141C"/>
<path d="M5.66724 4.31301C5.64058 4.31301 5.61391 4.31301 5.58058 4.30634C5.31391 4.25967 5.12724 3.99967 5.17391 3.73301L5.32058 2.85967C5.42724 2.21967 5.57391 1.33301 7.12722 1.33301H8.87388C10.4339 1.33301 10.5805 2.25301 10.6805 2.86634L10.8272 3.73301C10.8739 4.00634 10.6872 4.26634 10.4205 4.30634C10.1472 4.35301 9.88722 4.16634 9.84722 3.89967L9.70055 3.03301C9.60722 2.45301 9.58722 2.33967 8.88055 2.33967H7.13388C6.42724 2.33967 6.41391 2.43301 6.31391 3.02634L6.16058 3.89301C6.12058 4.13967 5.90724 4.31301 5.66724 4.31301Z" fill="#14141C"/>
<path d="M10.1403 15.6667H5.86034C3.53367 15.6667 3.44034 14.3801 3.36701 13.3401L2.93367 6.62671C2.91367 6.35338 3.12701 6.11338 3.40034 6.09338C3.68034 6.08005 3.91367 6.28672 3.93367 6.56005L4.36701 13.2734C4.44034 14.2867 4.46701 14.6667 5.86034 14.6667H10.1403C11.5403 14.6667 11.567 14.2867 11.6337 13.2734L12.067 6.56005C12.087 6.28672 12.327 6.08005 12.6003 6.09338C12.8737 6.11338 13.087 6.34671 13.067 6.62671L12.6337 13.3401C12.5603 14.3801 12.467 15.6667 10.1403 15.6667Z" fill="#14141C"/>
<path d="M9.10673 12H6.88673C6.61339 12 6.38672 11.7733 6.38672 11.5C6.38672 11.2267 6.61339 11 6.88673 11H9.10673C9.38007 11 9.60673 11.2267 9.60673 11.5C9.60673 11.7733 9.38007 12 9.10673 12Z" fill="#14141C"/>
<path d="M9.66659 9.33301H6.33325C6.05992 9.33301 5.83325 9.10634 5.83325 8.83301C5.83325 8.55967 6.05992 8.33301 6.33325 8.33301H9.66659C9.93992 8.33301 10.1666 8.55967 10.1666 8.83301C10.1666 9.10634 9.93992 9.33301 9.66659 9.33301Z" fill="#14141C"/>
</svg>
