<svg width="21" height="21" viewBox="0 0 21 21" fill="none" xmlns="http://www.w3.org/2000/svg">
<g id="Component 1/brand-twitter 1" clip-path="url(#clip0_1803_4262)">
<path id="Vector" d="M19.0648 3.64895C18.2083 4.07719 17.3518 4.24849 16.4954 4.50543C15.5532 3.39201 14.0972 3.39201 12.7268 3.9059C11.3565 4.41978 10.5 5.61886 10.5 7.07488V7.93136C7.75926 8.01701 5.27546 6.73228 3.64814 4.50543C3.64814 4.50543 0.0509214 10.8434 7.07407 13.9267C5.44676 14.9545 3.90509 15.7253 1.93518 15.6397C4.76157 17.1814 7.8449 17.6952 10.5 16.9244C13.5833 16.0679 16.0671 13.7554 17.0949 10.3295C17.3518 9.30173 17.5231 8.1883 17.5231 7.07488C17.5231 6.90358 18.8079 4.67673 19.0648 3.64895Z" stroke="#14141C" stroke-miterlimit="7.3333" stroke-linecap="round" stroke-linejoin="round"/>
</g>
<defs>
<clipPath id="clip0_1803_4262">
<rect width="20.5556" height="20.5556" fill="white" transform="translate(0.222168 0.222656)"/>
</clipPath>
</defs>
</svg>
