<svg width="32" height="33" viewBox="0 0 32 33" fill="none" xmlns="http://www.w3.org/2000/svg">
<path d="M16.1607 18.54C16.134 18.54 16.094 18.54 16.0673 18.54C16.0273 18.54 15.974 18.54 15.934 18.54C12.9073 18.4467 10.6406 16.0867 10.6406 13.18C10.6406 10.22 13.054 7.80664 16.014 7.80664C18.974 7.80664 21.3873 10.22 21.3873 13.18C21.374 16.1 19.094 18.4467 16.2007 18.54C16.174 18.54 16.174 18.54 16.1607 18.54ZM16.0007 9.79331C14.134 9.79331 12.6273 11.3133 12.6273 13.1666C12.6273 14.9933 14.054 16.4733 15.8673 16.54C15.9073 16.5267 16.0407 16.5267 16.174 16.54C17.9607 16.4467 19.3607 14.98 19.374 13.1666C19.374 11.3133 17.8673 9.79331 16.0007 9.79331Z" fill="#A3A3B5"/>
<path d="M16.0009 30.8337C12.4143 30.8337 8.98759 29.5004 6.33425 27.0738C6.09425 26.8604 5.98759 26.5404 6.01425 26.2338C6.18759 24.6471 7.17425 23.1671 8.81425 22.0738C12.7876 19.4337 19.2276 19.4337 23.1876 22.0738C24.8276 23.1804 25.8142 24.6471 25.9876 26.2338C26.0276 26.5538 25.9076 26.8604 25.6676 27.0738C23.0142 29.5004 19.5876 30.8337 16.0009 30.8337ZM8.10759 25.9671C10.3209 27.8204 13.1076 28.8337 16.0009 28.8337C18.8942 28.8337 21.6809 27.8204 23.8942 25.9671C23.6542 25.1538 23.0142 24.3671 22.0676 23.7271C18.7876 21.5404 13.2276 21.5404 9.92092 23.7271C8.97425 24.3671 8.34759 25.1538 8.10759 25.9671Z" fill="#A3A3B5"/>
<path d="M15.9998 30.8337C8.09317 30.8337 1.6665 24.407 1.6665 16.5003C1.6665 8.59366 8.09317 2.16699 15.9998 2.16699C23.9065 2.16699 30.3332 8.59366 30.3332 16.5003C30.3332 24.407 23.9065 30.8337 15.9998 30.8337ZM15.9998 4.16699C9.19984 4.16699 3.6665 9.70033 3.6665 16.5003C3.6665 23.3003 9.19984 28.8337 15.9998 28.8337C22.7998 28.8337 28.3332 23.3003 28.3332 16.5003C28.3332 9.70033 22.7998 4.16699 15.9998 4.16699Z" fill="#A3A3B5"/>
</svg>
