<svg width="16" height="16" viewBox="0 0 16 16" fill="none" xmlns="http://www.w3.org/2000/svg">
<path d="M7.99996 8.4987C5.88663 8.4987 4.16663 6.7787 4.16663 4.66536C4.16663 2.55203 5.88663 0.832031 7.99996 0.832031C10.1133 0.832031 11.8333 2.55203 11.8333 4.66536C11.8333 6.7787 10.1133 8.4987 7.99996 8.4987ZM7.99996 1.83203C6.43996 1.83203 5.16663 3.10536 5.16663 4.66536C5.16663 6.22536 6.43996 7.4987 7.99996 7.4987C9.55996 7.4987 10.8333 6.22536 10.8333 4.66536C10.8333 3.10536 9.55996 1.83203 7.99996 1.83203Z" fill="#000000"/>
<mask id="path-2-inside-1_8931_92647" fill="white">
<path d="M2.27344 15.1667C2.0001 15.1667 1.77344 14.94 1.77344 14.6667C1.77344 11.82 4.56676 9.5 8.00013 9.5C8.67346 9.5 9.3334 9.58667 9.9734 9.76667C10.2401 9.84 10.3935 10.1133 10.3201 10.38C10.2468 10.6467 9.9734 10.8 9.7068 10.7267C9.16013 10.5733 8.5868 10.5 8.00013 10.5C5.1201 10.5 2.77344 12.3667 2.77344 14.6667C2.77344 14.94 2.54677 15.1667 2.27344 15.1667Z"/>
</mask>
<path d="M2.27344 15.1667C2.0001 15.1667 1.77344 14.94 1.77344 14.6667C1.77344 11.82 4.56676 9.5 8.00013 9.5C8.67346 9.5 9.3334 9.58667 9.9734 9.76667C10.2401 9.84 10.3935 10.1133 10.3201 10.38C10.2468 10.6467 9.9734 10.8 9.7068 10.7267C9.16013 10.5733 8.5868 10.5 8.00013 10.5C5.1201 10.5 2.77344 12.3667 2.77344 14.6667C2.77344 14.94 2.54677 15.1667 2.27344 15.1667Z" fill="#000000"/>
<path d="M9.9734 9.76667L9.4319 11.692L9.44308 11.6951L9.9734 9.76667ZM9.7068 10.7267L9.16666 12.6524L9.17636 12.655L9.7068 10.7267ZM2.27344 13.1667C3.10467 13.1667 3.77344 13.8354 3.77344 14.6667H-0.226562C-0.226562 16.0446 0.895535 17.1667 2.27344 17.1667V13.1667ZM3.77344 14.6667C3.77344 13.2572 5.30635 11.5 8.00013 11.5V7.5C3.82718 7.5 -0.226562 10.3828 -0.226562 14.6667H3.77344ZM8.00013 11.5C8.50048 11.5 8.97758 11.5642 9.43191 11.692L10.5149 7.84136C9.68921 7.60914 8.84644 7.5 8.00013 7.5V11.5ZM9.44308 11.6951C8.63216 11.4721 8.17563 10.6355 8.39172 9.84969L12.2485 10.9103C12.6113 9.59121 11.848 8.20793 10.5037 7.83826L9.44308 11.6951ZM8.39172 9.84969C8.61485 9.03831 9.45178 8.58224 10.2372 8.79829L9.17636 12.655C10.495 13.0178 11.8787 12.255 12.2485 10.9103L8.39172 9.84969ZM10.2469 8.80098C9.50948 8.59414 8.75316 8.5 8.00013 8.5V12.5C8.42044 12.5 8.81078 12.5525 9.16667 12.6524L10.2469 8.80098ZM8.00013 8.5C4.46358 8.5 0.773438 10.8619 0.773438 14.6667H4.77344C4.77344 13.8714 5.77662 12.5 8.00013 12.5V8.5ZM0.773438 14.6667C0.773438 13.8354 1.4422 13.1667 2.27344 13.1667V17.1667C3.65134 17.1667 4.77344 16.0446 4.77344 14.6667H0.773438Z" fill="#000000" mask="url(#path-2-inside-1_8931_92647)"/>
<path d="M12 15.1654C11.2134 15.1654 10.4667 14.872 9.88671 14.3454C9.65337 14.1454 9.44671 13.8987 9.28671 13.6254C8.99337 13.1454 8.83337 12.5787 8.83337 11.9987C8.83337 11.1654 9.15337 10.3854 9.72671 9.79203C10.3267 9.17203 11.1334 8.83203 12 8.83203C12.9067 8.83203 13.7667 9.2187 14.3534 9.88536C14.8734 10.4654 15.1667 11.212 15.1667 11.9987C15.1667 12.252 15.1334 12.5054 15.0667 12.7454C15 13.0454 14.8734 13.3587 14.7 13.632C14.1467 14.5787 13.1067 15.1654 12 15.1654ZM12 9.83203C11.4067 9.83203 10.86 10.0654 10.4467 10.4854C10.0534 10.892 9.83337 11.4254 9.83337 11.9987C9.83337 12.392 9.94004 12.7787 10.1467 13.112C10.2534 13.2987 10.3934 13.4654 10.5534 13.6054C10.9534 13.972 11.4667 14.172 12 14.172C12.7534 14.172 13.4667 13.772 13.8534 13.1254C13.9667 12.9387 14.0534 12.7254 14.1 12.5187C14.1467 12.3454 14.1667 12.1787 14.1667 12.0054C14.1667 11.472 13.9667 10.9587 13.6067 10.5587C13.2067 10.092 12.62 9.83203 12 9.83203Z" fill="#000000"/>
<path d="M11.2796 13.2019C11.1529 13.2019 11.0263 13.1552 10.9263 13.0552C10.7329 12.8619 10.7329 12.5419 10.9263 12.3485L12.3329 10.9419C12.5262 10.7485 12.8463 10.7485 13.0396 10.9419C13.2329 11.1352 13.2329 11.4552 13.0396 11.6485L11.6329 13.0552C11.5329 13.1552 11.4062 13.2019 11.2796 13.2019Z" fill="#000000"/>
<path d="M12.7071 13.2136C12.5805 13.2136 12.4538 13.1669 12.3538 13.0669L10.9471 11.6603C10.7538 11.4669 10.7538 11.1469 10.9471 10.9536C11.1405 10.7603 11.4605 10.7603 11.6538 10.9536L13.0605 12.3603C13.2538 12.5536 13.2538 12.8736 13.0605 13.0669C12.9605 13.1669 12.8338 13.2136 12.7071 13.2136Z" fill="#000000"/>
</svg>
