<svg width="18" height="18" viewBox="0 0 18 18" fill="none" xmlns="http://www.w3.org/2000/svg">
<path d="M9 9.5625C6.6225 9.5625 4.6875 7.6275 4.6875 5.25C4.6875 2.8725 6.6225 0.9375 9 0.9375C11.3775 0.9375 13.3125 2.8725 13.3125 5.25C13.3125 7.6275 11.3775 9.5625 9 9.5625ZM9 2.0625C7.245 2.0625 5.8125 3.495 5.8125 5.25C5.8125 7.005 7.245 8.4375 9 8.4375C10.755 8.4375 12.1875 7.005 12.1875 5.25C12.1875 3.495 10.755 2.0625 9 2.0625Z" fill="white"/>
<path d="M2.55762 17.0625C2.25012 17.0625 1.99512 16.8075 1.99512 16.5C1.99512 13.2975 5.13763 10.6875 9.00015 10.6875C9.30765 10.6875 9.56265 10.9425 9.56265 11.25C9.56265 11.5575 9.30765 11.8125 9.00015 11.8125C5.76013 11.8125 3.12012 13.9125 3.12012 16.5C3.12012 16.8075 2.86512 17.0625 2.55762 17.0625Z" fill="white"/>
<path d="M13.65 16.6125C12.015 16.6125 10.6875 15.285 10.6875 13.65C10.6875 12.015 12.015 10.6875 13.65 10.6875C15.285 10.6875 16.6125 12.015 16.6125 13.65C16.6125 15.285 15.285 16.6125 13.65 16.6125ZM13.65 11.8125C12.6375 11.8125 11.8125 12.6375 11.8125 13.65C11.8125 14.6625 12.6375 15.4875 13.65 15.4875C14.6625 15.4875 15.4875 14.6625 15.4875 13.65C15.4875 12.6375 14.6625 11.8125 13.65 11.8125Z" fill="white"/>
<path d="M16.4996 17.0627C16.3571 17.0627 16.2146 17.0102 16.1021 16.8977L15.3521 16.1477C15.1346 15.9302 15.1346 15.5701 15.3521 15.3526C15.5696 15.1351 15.9296 15.1351 16.1471 15.3526L16.8971 16.1026C17.1146 16.3201 17.1146 16.6802 16.8971 16.8977C16.7846 17.0102 16.6421 17.0627 16.4996 17.0627Z" fill="white"/>
</svg>
