<svg width="20" height="20" viewBox="0 0 20 20" fill="none" xmlns="http://www.w3.org/2000/svg">
<path d="M10.1004 11.2748C10.0837 11.2748 10.0587 11.2748 10.0421 11.2748C10.0171 11.2748 9.98375 11.2748 9.95875 11.2748C8.06706 11.2164 6.65039 9.74142 6.65039 7.92474C6.65039 6.07474 8.15872 4.56641 10.0087 4.56641C11.8587 4.56641 13.3671 6.07474 13.3671 7.92474C13.3587 9.74976 11.9337 11.2164 10.1254 11.2748C10.1087 11.2748 10.1087 11.2748 10.1004 11.2748ZM10.0004 5.80807C8.83375 5.80807 7.89206 6.75807 7.89206 7.91641C7.89206 9.05809 8.78375 9.98309 9.91708 10.0248C9.94208 10.0164 10.0254 10.0164 10.1087 10.0248C11.2254 9.96642 12.1004 9.04976 12.1087 7.91641C12.1087 6.75807 11.1671 5.80807 10.0004 5.80807Z" fill="
#66C1EA"/>
<path d="M10.0005 18.9586C7.75885 18.9586 5.61718 18.1253 3.95885 16.6086C3.80885 16.4753 3.74218 16.2753 3.75885 16.0836C3.86718 15.0919 4.48385 14.1669 5.50885 13.4836C7.99218 11.8336 12.0172 11.8336 14.4922 13.4836C15.5172 14.1753 16.1338 15.0919 16.2422 16.0836C16.2672 16.2836 16.1922 16.4753 16.0422 16.6086C14.3838 18.1253 12.2422 18.9586 10.0005 18.9586ZM5.06718 15.9169C6.45051 17.0753 8.19218 17.7086 10.0005 17.7086C11.8088 17.7086 13.5505 17.0753 14.9338 15.9169C14.7838 15.4086 14.3838 14.9169 13.7922 14.5169C11.7422 13.1503 8.26718 13.1503 6.20051 14.5169C5.60885 14.9169 5.21718 15.4086 5.06718 15.9169Z" fill="#66C1EA"/>
<path d="M9.99984 18.9587C5.05817 18.9587 1.0415 14.942 1.0415 10.0003C1.0415 5.05866 5.05817 1.04199 9.99984 1.04199C14.9415 1.04199 18.9582 5.05866 18.9582 10.0003C18.9582 14.942 14.9415 18.9587 9.99984 18.9587ZM9.99984 2.29199C5.74984 2.29199 2.2915 5.75033 2.2915 10.0003C2.2915 14.2503 5.74984 17.7087 9.99984 17.7087C14.2498 17.7087 17.7082 14.2503 17.7082 10.0003C17.7082 5.75033 14.2498 2.29199 9.99984 2.29199Z" fill="
#66C1EA"/>
</svg>
