<svg width="20" height="21" viewBox="0 0 20 21" fill="none" xmlns="http://www.w3.org/2000/svg">
<path d="M18.1341 13.8087L12.8007 4.20866C12.0841 2.91699 11.0924 2.20866 10.0007 2.20866C8.90907 2.20866 7.91738 2.91699 7.20071 4.20866L1.86738 13.8087C1.19238 15.0337 1.11738 16.2087 1.65905 17.1337C2.20071 18.0587 3.26738 18.567 4.66738 18.567H15.3341C16.7341 18.567 17.8007 18.0587 18.3424 17.1337C18.8841 16.2087 18.8091 15.0253 18.1341 13.8087ZM9.37574 8.04199C9.37574 7.70033 9.65907 7.41699 10.0007 7.41699C10.3424 7.41699 10.6257 7.70033 10.6257 8.04199V12.2087C10.6257 12.5503 10.3424 12.8337 10.0007 12.8337C9.65907 12.8337 9.37574 12.5503 9.37574 12.2087V8.04199ZM10.5924 15.3003C10.5507 15.3337 10.5091 15.367 10.4674 15.4003C10.4174 15.4337 10.3674 15.4587 10.3174 15.4753C10.2674 15.5003 10.2174 15.517 10.1591 15.5253C10.1091 15.5337 10.0507 15.542 10.0007 15.542C9.95074 15.542 9.89241 15.5337 9.83407 15.5253C9.78407 15.517 9.73407 15.5003 9.68407 15.4753C9.63407 15.4587 9.58407 15.4337 9.53407 15.4003C9.49241 15.367 9.45074 15.3337 9.40907 15.3003C9.25907 15.142 9.16741 14.9253 9.16741 14.7087C9.16741 14.492 9.25907 14.2753 9.40907 14.117C9.45074 14.0837 9.49241 14.0503 9.53407 14.017C9.58407 13.9837 9.63407 13.9587 9.68407 13.942C9.73407 13.917 9.78407 13.9003 9.83407 13.892C9.94241 13.867 10.0591 13.867 10.1591 13.892C10.2174 13.9003 10.2674 13.917 10.3174 13.942C10.3674 13.9587 10.4174 13.9837 10.4674 14.017C10.5091 14.0503 10.5507 14.0837 10.5924 14.117C10.7424 14.2753 10.8341 14.492 10.8341 14.7087C10.8341 14.9253 10.7424 15.142 10.5924 15.3003Z" fill="#FAAD14"/>
</svg>
