<svg width="20" height="20" viewBox="0 0 20 20" fill="none" xmlns="http://www.w3.org/2000/svg">
<path d="M15.7313 7.34309C15.5522 6.80577 15.194 6.44756 14.6567 6.26846C13.7612 5.9998 10 5.9998 10 5.9998C10 5.9998 6.23881 5.9998 5.34328 6.26846C4.80597 6.44756 4.44776 6.80577 4.26866 7.34309C4 8.23861 4 10.2088 4 10.2088C4 10.2088 4 12.1789 4.26866 13.0744C4.44776 13.6117 4.80597 13.97 5.34328 14.1491C6.23881 14.4177 10 14.4177 10 14.4177C10 14.4177 13.7612 14.4177 14.6567 14.1491C15.194 13.97 15.5522 13.6117 15.7313 13.0744C16 12.1789 16 10.2088 16 10.2088C16 10.2088 16 8.23861 15.7313 7.34309ZM8.83582 11.9998V8.41771L11.9701 10.2088L8.83582 11.9998Z" fill="#FD0000"/>
</svg>
