<svg width="37" height="37" viewBox="0 0 37 37" fill="none" xmlns="http://www.w3.org/2000/svg">
<circle cx="18.5" cy="18" r="18" fill="#E9E9F6"/>
<path d="M28.0106 13.2338C27.7128 12.3402 27.117 11.7444 26.2234 11.4466C24.734 10.9998 18.4787 10.9998 18.4787 10.9998C18.4787 10.9998 12.2234 10.9998 10.734 11.4466C9.84043 11.7444 9.24468 12.3402 8.94681 13.2338C8.5 14.7232 8.5 17.9998 8.5 17.9998C8.5 17.9998 8.5 21.2764 8.94681 22.7657C9.24468 23.6593 9.84043 24.2551 10.734 24.5529C12.2234 24.9998 18.4787 24.9998 18.4787 24.9998C18.4787 24.9998 24.734 24.9998 26.2234 24.5529C27.117 24.2551 27.7128 23.6593 28.0106 22.7657C28.4574 21.2764 28.4574 17.9998 28.4574 17.9998C28.4574 17.9998 28.4574 14.7232 28.0106 13.2338ZM16.5426 20.9785V15.021L21.7553 17.9998L16.5426 20.9785Z" fill="#FD0000"/>
</svg>
