<svg width="16" height="17" viewBox="0 0 16 17" fill="none" xmlns="http://www.w3.org/2000/svg">
<path d="M8 15.2201C7.79999 15.2201 7.59999 15.1734 7.43333 15.0801C6.18666 14.4001 3.99333 13.6801 2.61999 13.5001L2.42666 13.4734C1.55333 13.3667 0.833328 12.5467 0.833328 11.6601V3.60675C0.833328 3.08009 1.03999 2.60009 1.42 2.25342C1.8 1.90675 2.29333 1.74009 2.81333 1.78675C4.27999 1.90009 6.49333 2.63342 7.74666 3.42009L7.90666 3.51342C7.95333 3.54009 8.05333 3.54009 8.09333 3.52009L8.2 3.45342C9.45333 2.66675 11.6667 1.92009 13.14 1.79342C13.1533 1.79342 13.2067 1.79342 13.22 1.79342C13.7067 1.74675 14.2067 1.92009 14.58 2.26675C14.96 2.61342 15.1667 3.09342 15.1667 3.62009V11.6667C15.1667 12.5601 14.4467 13.3734 13.5667 13.4801L13.3467 13.5067C11.9733 13.6867 9.77333 14.4134 8.55333 15.0867C8.39333 15.1801 8.2 15.2201 8 15.2201ZM2.65333 2.78009C2.43999 2.78009 2.24666 2.85342 2.09333 2.99342C1.92666 3.14675 1.83333 3.36675 1.83333 3.60675V11.6601C1.83333 12.0534 2.17333 12.4334 2.55333 12.4867L2.75333 12.5134C4.25333 12.7134 6.55333 13.4667 7.88666 14.1934C7.94666 14.2201 8.03333 14.2267 8.06666 14.2134C9.4 13.4734 11.7133 12.7134 13.22 12.5134L13.4467 12.4867C13.8267 12.4401 14.1667 12.0534 14.1667 11.6601V3.61342C14.1667 3.36675 14.0733 3.15342 13.9067 2.99342C13.7333 2.84009 13.5133 2.76675 13.2667 2.78009C13.2533 2.78009 13.2 2.78009 13.1867 2.78009C11.9133 2.89342 9.85999 3.58009 8.74 4.28009L8.63333 4.35342C8.26666 4.58009 7.74666 4.58009 7.39333 4.36009L7.23333 4.26675C6.09333 3.56675 4.03999 2.88675 2.73333 2.78009C2.70666 2.78009 2.67999 2.78009 2.65333 2.78009Z" fill="#292F37"/>
<path d="M8 14.6599C7.72667 14.6599 7.5 14.4333 7.5 14.1599V4.15991C7.5 3.88658 7.72667 3.65991 8 3.65991C8.27333 3.65991 8.5 3.88658 8.5 4.15991V14.1599C8.5 14.4399 8.27333 14.6599 8 14.6599Z" fill="#292F37"/>
<path d="M5.16667 6.65991H3.66667C3.39334 6.65991 3.16667 6.43325 3.16667 6.15991C3.16667 5.88658 3.39334 5.65991 3.66667 5.65991H5.16667C5.44001 5.65991 5.66667 5.88658 5.66667 6.15991C5.66667 6.43325 5.44001 6.65991 5.16667 6.65991Z" fill="#292F37"/>
<path d="M5.66667 8.65991H3.66667C3.39334 8.65991 3.16667 8.43325 3.16667 8.15991C3.16667 7.88658 3.39334 7.65991 3.66667 7.65991H5.66667C5.94 7.65991 6.16667 7.88658 6.16667 8.15991C6.16667 8.43325 5.94 8.65991 5.66667 8.65991Z" fill="#292F37"/>
</svg>
