<svg width="16" height="17" viewBox="0 0 16 17" fill="none" xmlns="http://www.w3.org/2000/svg">
<path d="M4.29983 6.16664C4.25984 6.16664 4.21984 6.15996 4.17984 6.15329C4.05318 6.11996 3.93983 6.03999 3.87317 5.92665L2.83318 4.21999C2.57984 3.80665 2.49983 3.31331 2.61983 2.83331C2.73317 2.35997 3.0265 1.9533 3.4465 1.69997C3.85983 1.44663 4.35318 1.36663 4.83317 1.48663C5.31317 1.59996 5.71317 1.89329 5.9665 2.31329L7.00652 4.01999C7.15319 4.25333 7.07319 4.55997 6.83985 4.70664L4.55983 6.09332C4.47983 6.13999 4.39317 6.16664 4.29983 6.16664ZM4.39317 2.43333C4.23983 2.43333 4.09317 2.47332 3.9665 2.55332C3.77983 2.66665 3.64651 2.85329 3.59317 3.06663C3.53983 3.28663 3.57317 3.50663 3.6865 3.69329L4.4665 4.97332L5.89317 4.10662L5.11317 2.82663C4.99983 2.63997 4.81317 2.50663 4.59983 2.4533C4.5265 2.43997 4.45983 2.43333 4.39317 2.43333Z" fill="#292F37"/>
<path d="M7.61292 15.5734C7.41292 15.5734 7.21292 15.5467 7.01959 15.4867C6.43289 15.3134 5.95956 14.9135 5.68623 14.3468L4.31956 11.5601C3.59289 10.0801 4.10623 8.32015 5.5129 7.46015L7.61959 6.18013C9.02625 5.32013 10.8329 5.67345 11.8129 7.00012L13.6596 9.49341C14.0329 10.0001 14.1729 10.6067 14.0596 11.2001C13.9463 11.7934 13.5863 12.3068 13.0463 12.6335L8.75959 15.2401C8.39959 15.4601 8.00625 15.5734 7.61292 15.5734ZM9.26625 6.71345C8.87959 6.71345 8.49292 6.82011 8.13292 7.03344L6.02622 8.31341C5.05955 8.90008 4.71289 10.1067 5.20623 11.1201L6.57289 13.9067C6.72625 14.2134 6.97959 14.4334 7.29292 14.5267C7.60625 14.6201 7.93959 14.5668 8.22625 14.3935L12.5129 11.7867C12.8063 11.6067 12.9996 11.3335 13.0663 11.0135C13.1263 10.6935 13.0529 10.3668 12.8463 10.0935L10.9996 7.60015C10.5796 7.02013 9.93292 6.71345 9.26625 6.71345Z" fill="#292F37"/>
<path d="M5.12026 8.78652C5.08026 8.78652 5.04027 8.77985 5.00027 8.77319C4.8736 8.73985 4.76026 8.65985 4.69359 8.54652L3.30694 6.26655C3.16027 6.03322 3.24027 5.72654 3.47361 5.57987L6.88692 3.49987C7.12025 3.35987 7.43359 3.43321 7.57359 3.66654L8.96025 5.94653C9.02692 6.05986 9.05359 6.1932 9.02025 6.32653C8.98692 6.4532 8.90692 6.56655 8.79359 6.63321L5.38027 8.71319C5.30027 8.76652 5.20693 8.78652 5.12026 8.78652ZM4.42027 6.17989L5.28693 7.60652L7.84692 6.04655L6.98025 4.61987L4.42027 6.17989Z" fill="#292F37"/>
<path d="M10.6396 14.0132C10.4729 14.0132 10.3063 13.9265 10.2129 13.7732L9.11294 11.9666C8.96627 11.7332 9.04627 11.4266 9.27961 11.2799C9.51294 11.1399 9.82627 11.2132 9.96627 11.4466L11.0663 13.2532C11.2129 13.4866 11.1329 13.7932 10.8996 13.9398C10.8196 13.9865 10.7263 14.0132 10.6396 14.0132Z" fill="#292F37"/>
<path d="M8.93386 15.0533C8.76719 15.0533 8.60053 14.9666 8.50719 14.8133L7.40719 13.0066C7.26052 12.7733 7.34052 12.4666 7.57386 12.3199C7.80719 12.1799 8.12053 12.2533 8.26053 12.4866L9.36052 14.2933C9.50719 14.5266 9.42719 14.8333 9.19386 14.9799C9.11386 15.0266 9.02052 15.0533 8.93386 15.0533Z" fill="#292F37"/>
<path d="M12.3467 12.9735C12.18 12.9735 12.0133 12.8868 11.92 12.7334L10.82 10.9268C10.6733 10.6935 10.7533 10.3868 10.9867 10.2401C11.22 10.1001 11.5333 10.1734 11.6733 10.4068L12.7733 12.2135C12.92 12.4468 12.84 12.7534 12.6067 12.9001C12.5267 12.9468 12.44 12.9735 12.3467 12.9735Z" fill="#292F37"/>
</svg>
