<svg width="16" height="17" viewBox="0 0 16 17" fill="none" xmlns="http://www.w3.org/2000/svg">
<path d="M11.3397 9.48667C10.673 9.48667 10.1263 8.94 10.1263 8.27333C10.1263 7.60667 10.673 7.06006 11.3397 7.06006C12.0063 7.06006 12.5529 7.60667 12.5529 8.27333C12.5529 8.94 12.0063 9.48667 11.3397 9.48667ZM11.3397 8.06007C11.2197 8.06007 11.1263 8.15333 11.1263 8.27333C11.1263 8.39333 11.2197 8.48667 11.3397 8.48667C11.4597 8.48667 11.5529 8.39333 11.5529 8.27333C11.5529 8.15333 11.4597 8.06007 11.3397 8.06007Z" fill="#292F37"/>
<path d="M8.01334 11.4666H4.00001C1.60001 11.4666 0.833344 10.6999 0.833344 8.29992V4.49992C0.833344 2.09992 1.60001 1.33325 4.00001 1.33325H10.6667C13.0667 1.33325 13.8333 2.09992 13.8333 4.49992V5.69324C13.8333 5.83324 13.7733 5.97324 13.6667 6.06657C13.56 6.15991 13.42 6.20661 13.2733 6.18661C13.1267 6.16661 12.9533 6.15991 12.7667 6.15991H9.91334C8.76001 6.15991 8.51334 6.40661 8.51334 7.55992V10.9666C8.51334 11.2399 8.28668 11.4666 8.01334 11.4666ZM4.00001 2.33325C2.14001 2.33325 1.83334 2.63992 1.83334 4.49992V8.29992C1.83334 10.1599 2.14001 10.4666 4.00001 10.4666H7.51334V7.55992C7.51334 5.85327 8.20668 5.15991 9.91334 5.15991H12.7667C12.7867 5.15991 12.8133 5.15991 12.8333 5.15991V4.49992C12.8333 2.63992 12.5267 2.33325 10.6667 2.33325H4.00001Z" fill="#292F37"/>
<path d="M6 14.3332C5.72667 14.3332 5.5 14.1065 5.5 13.8332V10.9666C5.5 10.6932 5.72667 10.4666 6 10.4666C6.27333 10.4666 6.5 10.6932 6.5 10.9666V13.8332C6.5 14.1065 6.27333 14.3332 6 14.3332Z" fill="#292F37"/>
<path d="M8.00001 8.93335H1.33334C1.06001 8.93335 0.833344 8.70668 0.833344 8.43335C0.833344 8.16002 1.06001 7.93335 1.33334 7.93335H8.00001C8.27334 7.93335 8.50001 8.16002 8.50001 8.43335C8.50001 8.70668 8.27334 8.93335 8.00001 8.93335Z" fill="#292F37"/>
<path d="M8.00013 14.3333H3.9668C3.69346 14.3333 3.4668 14.1066 3.4668 13.8333C3.4668 13.5599 3.69346 13.3333 3.9668 13.3333H8.00013C8.27346 13.3333 8.50013 13.5599 8.50013 13.8333C8.50013 14.1066 8.27346 14.3333 8.00013 14.3333Z" fill="#292F37"/>
<path d="M11.3397 9.48667C10.673 9.48667 10.1263 8.94 10.1263 8.27333C10.1263 7.60667 10.673 7.06006 11.3397 7.06006C12.0063 7.06006 12.5529 7.60667 12.5529 8.27333C12.5529 8.94 12.0063 9.48667 11.3397 9.48667ZM11.3397 8.06007C11.2197 8.06007 11.1263 8.15333 11.1263 8.27333C11.1263 8.39333 11.2197 8.48667 11.3397 8.48667C11.4597 8.48667 11.5529 8.39333 11.5529 8.27333C11.5529 8.15333 11.4597 8.06007 11.3397 8.06007Z" fill="#292F37"/>
<path d="M13.333 5.69324C13.1663 5.67324 12.973 5.65991 12.7663 5.65991H9.913C8.48633 5.65991 8.013 6.13327 8.013 7.55992V13.2666C8.013 14.6933 8.48633 15.1666 9.913 15.1666H12.7663C14.193 15.1666 14.6663 14.6933 14.6663 13.2666V7.55992C14.6663 6.33994 14.3197 5.81991 13.333 5.69324ZM11.3397 7.55992C11.7331 7.55992 12.053 7.87992 12.053 8.27325C12.053 8.66659 11.7331 8.98659 11.3397 8.98659C10.9464 8.98659 10.6263 8.66659 10.6263 8.27325C10.6263 7.87992 10.9464 7.55992 11.3397 7.55992ZM11.3397 13.2666C10.5531 13.2666 9.913 12.6266 9.913 11.8399C9.913 11.5133 10.0263 11.2066 10.213 10.9666C10.473 10.6333 10.8797 10.4133 11.3397 10.4133C11.6997 10.4133 12.0263 10.5466 12.273 10.7599C12.573 11.0266 12.7663 11.4133 12.7663 11.8399C12.7663 12.6266 12.1264 13.2666 11.3397 13.2666Z" stroke="#292F37" stroke-miterlimit="10" stroke-linecap="round" stroke-linejoin="round"/>
<path d="M11.3401 13.7667C10.2801 13.7667 9.41339 12.9 9.41339 11.84C9.41339 11.4133 9.56006 10.9933 9.82006 10.66C10.1867 10.1867 10.7467 9.91333 11.3401 9.91333C11.8001 9.91333 12.2534 10.08 12.6001 10.38C13.0267 10.76 13.2667 11.2867 13.2667 11.84C13.2667 12.9 12.4001 13.7667 11.3401 13.7667ZM11.3401 10.9133C11.0534 10.9133 10.7867 11.0467 10.6067 11.2733C10.4801 11.4333 10.4134 11.6333 10.4134 11.84C10.4134 12.3533 10.8267 12.7667 11.3401 12.7667C11.8534 12.7667 12.2667 12.3533 12.2667 11.84C12.2667 11.5733 12.1467 11.32 11.9401 11.1333C11.7801 10.9933 11.5601 10.9133 11.3401 10.9133Z" fill="#292F37"/>
<path d="M11.3397 9.48667C10.673 9.48667 10.1263 8.94 10.1263 8.27333C10.1263 7.60667 10.673 7.06006 11.3397 7.06006C12.0063 7.06006 12.5529 7.60667 12.5529 8.27333C12.5529 8.94 12.0063 9.48667 11.3397 9.48667ZM11.3397 8.06007C11.2197 8.06007 11.1263 8.15333 11.1263 8.27333C11.1263 8.39333 11.2197 8.48667 11.3397 8.48667C11.4597 8.48667 11.5529 8.39333 11.5529 8.27333C11.5529 8.15333 11.4597 8.06007 11.3397 8.06007Z" fill="#292F37"/>
</svg>
