<svg width="16" height="17" viewBox="0 0 16 17" fill="none" xmlns="http://www.w3.org/2000/svg">
<path d="M10.3333 13.2667H4.33334C2.10668 13.2667 0.833344 11.9934 0.833344 9.76675V6.16675C0.833344 3.94008 2.10668 2.66675 4.33334 2.66675H6.13334C6.29334 2.66675 6.44668 2.74679 6.54001 2.87345C6.63334 3.00012 6.66001 3.17341 6.60668 3.32674C6.53334 3.53341 6.50001 3.76008 6.50001 4.00008V6.60009C6.50001 7.10676 6.65334 7.52675 6.94668 7.82008C7.24001 8.11341 7.66001 8.26675 8.16668 8.26675C8.44001 8.26675 8.66668 8.49341 8.66668 8.76675V9.56675L10.4867 8.34675C10.5667 8.29341 10.6667 8.26008 10.7667 8.26008H12.5C12.74 8.26008 12.9667 8.22675 13.1733 8.15341C13.3267 8.10008 13.4933 8.12675 13.6267 8.22008C13.76 8.31341 13.8333 8.46668 13.8333 8.62668V9.76008C13.8333 11.9934 12.56 13.2667 10.3333 13.2667ZM4.33334 3.66675C2.65334 3.66675 1.83334 4.48675 1.83334 6.16675V9.76675C1.83334 11.4467 2.65334 12.2667 4.33334 12.2667H10.3333C12.0133 12.2667 12.8333 11.4467 12.8333 9.76675V9.24675C12.7267 9.26008 12.6133 9.26675 12.5 9.26675H10.92L9.12001 10.4667C8.82668 10.6534 8.46001 10.6734 8.16001 10.5067C7.86001 10.3467 7.67334 10.0334 7.67334 9.69341V9.22675C7.11334 9.14008 6.62001 8.89341 6.24668 8.52675C5.77334 8.05341 5.50668 7.36675 5.50668 6.60009V4.00008C5.50668 3.88675 5.51334 3.77341 5.52001 3.66675H4.33334Z" fill="#292F37"/>
<path d="M8.6 10.62C8.44667 10.62 8.29333 10.5799 8.15333 10.5066C7.85333 10.3466 7.66667 10.0333 7.66667 9.69325V9.22659C7.10667 9.13992 6.61333 8.89325 6.24 8.52659C5.76667 8.05325 5.5 7.36659 5.5 6.59993V3.99992C5.5 3.64659 5.55333 3.31326 5.66 3.00659C6.03333 1.95993 6.96667 1.33325 8.16667 1.33325H12.5C14.0667 1.33325 15.1667 2.42659 15.1667 3.99992V6.59993C15.1667 7.79992 14.5467 8.73325 13.5 9.10659C13.18 9.21325 12.8467 9.26659 12.5 9.26659H10.92L9.12 10.4666C8.96 10.5733 8.78 10.62 8.6 10.62ZM8.16667 2.33325C7.4 2.33325 6.83333 2.69992 6.60667 3.33325C6.54 3.53325 6.5 3.75992 6.5 3.99992V6.59993C6.5 7.1066 6.65333 7.52659 6.94667 7.81992C7.24 8.11325 7.66 8.26659 8.16667 8.26659C8.44 8.26659 8.66667 8.49325 8.66667 8.76659V9.56659L10.4867 8.34659C10.5667 8.29325 10.6667 8.25992 10.7667 8.25992H12.5C12.74 8.25992 12.9667 8.22659 13.1733 8.15325C13.8067 7.92659 14.1667 7.35992 14.1667 6.59326V3.99325C14.1667 2.96658 13.5267 2.32658 12.5 2.32658H8.16667V2.33325Z" fill="#292F37"/>
<path d="M9.7336 15.6667H4.93359C4.66026 15.6667 4.43359 15.4401 4.43359 15.1667C4.43359 14.8934 4.66026 14.6667 4.93359 14.6667H9.7336C10.0069 14.6667 10.2336 14.8934 10.2336 15.1667C10.2336 15.4401 10.0069 15.6667 9.7336 15.6667Z" fill="#292F37"/>
<path d="M7.33334 15.6666C7.06001 15.6666 6.83334 15.4399 6.83334 15.1666V12.7666C6.83334 12.4933 7.06001 12.2666 7.33334 12.2666C7.60668 12.2666 7.83334 12.4933 7.83334 12.7666V15.1666C7.83334 15.4399 7.60668 15.6666 7.33334 15.6666Z" fill="#292F37"/>
<path d="M10.293 5.83325C10.013 5.83325 9.793 5.60659 9.793 5.33325C9.793 5.05992 10.0197 4.83325 10.293 4.83325C10.5663 4.83325 10.793 5.05992 10.793 5.33325C10.793 5.60659 10.5663 5.83325 10.293 5.83325Z" fill="#292F37"/>
<path d="M12.1667 5.83325C11.8867 5.83325 11.6667 5.60659 11.6667 5.33325C11.6667 5.05992 11.8933 4.83325 12.1667 4.83325C12.44 4.83325 12.6667 5.05992 12.6667 5.33325C12.6667 5.60659 12.44 5.83325 12.1667 5.83325Z" fill="#292F37"/>
<path d="M8.41406 5.83325C8.13406 5.83325 7.91406 5.60659 7.91406 5.33325C7.91406 5.05992 8.14073 4.83325 8.41406 4.83325C8.6874 4.83325 8.91406 5.05992 8.91406 5.33325C8.91406 5.60659 8.69406 5.83325 8.41406 5.83325Z" fill="#292F37"/>
</svg>
