<svg width="16" height="17" viewBox="0 0 16 17" fill="none" xmlns="http://www.w3.org/2000/svg">
<path d="M14.6667 15.6667H1.33334C1.06001 15.6667 0.833344 15.4401 0.833344 15.1667C0.833344 14.8934 1.06001 14.6667 1.33334 14.6667H14.6667C14.94 14.6667 15.1667 14.8934 15.1667 15.1667C15.1667 15.4401 14.94 15.6667 14.6667 15.6667Z" fill="#292F37"/>
<path d="M14 15.6666H2C1.72667 15.6666 1.5 15.4399 1.5 15.1666V4.49992C1.5 2.48659 2.65333 1.33325 4.66667 1.33325H11.3333C13.3467 1.33325 14.5 2.48659 14.5 4.49992V15.1666C14.5 15.4399 14.2733 15.6666 14 15.6666ZM2.5 14.6666H13.5V4.49992C13.5 3.01992 12.8133 2.33325 11.3333 2.33325H4.66667C3.18667 2.33325 2.5 3.01992 2.5 4.49992V14.6666Z" fill="#292F37"/>
<path d="M10 15.6667H6C5.72667 15.6667 5.5 15.44 5.5 15.1667V11.1267C5.5 10.5067 6.00667 10 6.62667 10H9.38C10 10 10.5067 10.5067 10.5067 11.1267V15.1667C10.5 15.44 10.2733 15.6667 10 15.6667ZM6.5 14.6667H9.5V11.1267C9.5 11.06 9.44667 11 9.37333 11H6.61999C6.55333 11 6.49334 11.0533 6.49334 11.1267V14.6667H6.5Z" fill="#292F37"/>
<path d="M8 8.33333C7.72667 8.33333 7.5 8.10667 7.5 7.83333V4.5C7.5 4.22667 7.72667 4 8 4C8.27333 4 8.5 4.22667 8.5 4.5V7.83333C8.5 8.10667 8.27333 8.33333 8 8.33333Z" fill="#292F37"/>
<path d="M9.66668 6.66675H6.33334C6.06001 6.66675 5.83334 6.44008 5.83334 6.16675C5.83334 5.89341 6.06001 5.66675 6.33334 5.66675H9.66668C9.94001 5.66675 10.1667 5.89341 10.1667 6.16675C10.1667 6.44008 9.94001 6.66675 9.66668 6.66675Z" fill="#292F37"/>
</svg>
