<svg width="16" height="17" viewBox="0 0 16 17" fill="none" xmlns="http://www.w3.org/2000/svg">
<path d="M5.77999 15.6666H1.33333C1.05999 15.6666 0.833328 15.4399 0.833328 15.1666V11.1666C0.833328 10.1533 1.65333 9.33325 2.66666 9.33325H5.77999C6.05333 9.33325 6.27999 9.55992 6.27999 9.83325V15.1666C6.27999 15.4399 6.05333 15.6666 5.77999 15.6666ZM1.83333 14.6666H5.27999V10.3333H2.66666C2.20666 10.3333 1.83333 10.7066 1.83333 11.1666V14.6666Z" fill="#292F37"/>
<path d="M10.2201 15.6667H5.77344C5.5001 15.6667 5.27344 15.4401 5.27344 15.1667V8.50008C5.27344 7.48675 6.09344 6.66675 7.1068 6.66675H8.8868C9.90013 6.66675 10.7201 7.48675 10.7201 8.50008V15.1667C10.7201 15.4401 10.5001 15.6667 10.2201 15.6667ZM6.2801 14.6667H9.7268V8.50008C9.7268 8.04008 9.35347 7.66675 8.89346 7.66675H7.11346C6.65343 7.66675 6.2801 8.04008 6.2801 8.50008V14.6667Z" fill="#292F37"/>
<path d="M14.6667 15.6666H10.2201C9.94673 15.6666 9.72006 15.4399 9.72006 15.1666V11.8333C9.72006 11.5599 9.94673 11.3333 10.2201 11.3333H13.3334C14.3467 11.3333 15.1667 12.1533 15.1667 13.1666V15.1666C15.1667 15.4399 14.9401 15.6666 14.6667 15.6666ZM10.7201 14.6666H14.1667V13.1666C14.1667 12.7066 13.7934 12.3333 13.3334 12.3333H10.7201V14.6666Z" fill="#292F37"/>
<path d="M9.13259 6.06674C8.97259 6.06674 8.77259 6.02006 8.54593 5.88673L7.99926 5.56007L7.45926 5.88007C6.91259 6.20674 6.55261 6.0134 6.41927 5.92007C6.28594 5.82674 5.99927 5.5334 6.13927 4.92007L6.26594 4.36673L5.81261 3.91339C5.53261 3.63339 5.4326 3.30006 5.5326 2.99339C5.6326 2.68673 5.90593 2.47339 6.2926 2.40672L6.87259 2.30673L7.19926 1.65341C7.55926 0.940075 8.43259 0.940075 8.78593 1.65341L9.11259 2.30673L9.69259 2.40672C10.0793 2.47339 10.3593 2.68673 10.4526 2.99339C10.5526 3.30006 10.4459 3.63339 10.1726 3.91339L9.71926 4.36673L9.84593 4.92007C9.98593 5.54007 9.69926 5.82674 9.56593 5.92674C9.50593 5.98007 9.35259 6.06674 9.13259 6.06674ZM7.99926 4.55339C8.15926 4.55339 8.31926 4.59341 8.45259 4.67341L8.82593 4.8934L8.74593 4.53339C8.67926 4.25339 8.77926 3.9134 8.98593 3.70673L9.32593 3.36673L8.90593 3.2934C8.63926 3.24673 8.37926 3.0534 8.25926 2.8134L7.99926 2.3134L7.74593 2.8134C7.62593 3.0534 7.36593 3.24673 7.09926 3.2934L6.67926 3.36007L7.01926 3.70006C7.22593 3.90673 7.31926 4.24674 7.25926 4.52674L7.17926 4.88673L7.55259 4.66673C7.67926 4.58673 7.83926 4.55339 7.99926 4.55339Z" fill="#292F37"/>
</svg>
