<svg width="16" height="17" viewBox="0 0 16 17" fill="none" xmlns="http://www.w3.org/2000/svg">
<path d="M8.00013 15.5865C7.55346 15.5865 7.10013 15.4865 6.7468 15.2799L3.08015 13.1665C1.58682 12.1599 1.49348 12.0065 1.49348 10.4265V6.5732C1.49348 4.9932 1.58015 4.83987 3.04682 3.84654L6.74013 1.7132C7.44013 1.30654 8.54013 1.30654 9.24013 1.7132L12.9201 3.8332C14.4135 4.83987 14.5068 4.9932 14.5068 6.5732V10.4199C14.5068 11.9999 14.4201 12.1532 12.9535 13.1465L9.26013 15.2799C8.90013 15.4865 8.4468 15.5865 8.00013 15.5865ZM8.00013 2.4132C7.72013 2.4132 7.4468 2.46654 7.25347 2.57987L3.58682 4.69987C2.50015 5.4332 2.50015 5.4332 2.50015 6.5732V10.4199C2.50015 11.5599 2.50015 11.5599 3.61348 12.3132L7.25347 14.4132C7.6468 14.6399 8.36013 14.6399 8.75347 14.4132L12.4201 12.2932C13.5001 11.5599 13.5001 11.5599 13.5001 10.4199V6.5732C13.5001 5.4332 13.5001 5.4332 12.3868 4.67987L8.7468 2.57987C8.55346 2.46654 8.28013 2.4132 8.00013 2.4132Z" fill="#292F37"/>
<path d="M8 11C6.62 11 5.5 9.88 5.5 8.5C5.5 7.12 6.62 6 8 6C9.38 6 10.5 7.12 10.5 8.5C10.5 9.88 9.38 11 8 11ZM8 7C7.17333 7 6.5 7.67333 6.5 8.5C6.5 9.32667 7.17333 10 8 10C8.82667 10 9.5 9.32667 9.5 8.5C9.5 7.67333 8.82667 7 8 7Z" fill="#292F37"/>
</svg>
