<svg width="16" height="17" viewBox="0 0 16 17" fill="none" xmlns="http://www.w3.org/2000/svg">
<path d="M10.7802 7.70661H5.22015C4.64681 7.70661 4.20683 7.47995 4.00683 7.09331C3.80683 6.69998 3.88681 6.21331 4.22015 5.75331L7.00013 1.85998C7.49347 1.15331 8.51347 1.15331 9.01347 1.86665L11.7935 5.75331C12.1268 6.21331 12.2068 6.69998 12.0068 7.09331C11.7935 7.47995 11.3535 7.70661 10.7802 7.70661ZM8.00013 2.29997C7.94013 2.29997 7.87347 2.35331 7.81347 2.43331L5.03349 6.33331C4.90015 6.51331 4.89349 6.61997 4.90016 6.63998C4.90683 6.65331 5.00015 6.70664 5.22682 6.70664H10.7868C11.0068 6.70664 11.1002 6.64664 11.1135 6.63331C11.1135 6.61997 11.1068 6.51331 10.9801 6.33331L8.20013 2.43998C8.1268 2.34665 8.06013 2.29997 8.00013 2.29997Z" fill="#292F37"/>
<path d="M11.7265 13.0001H4.27979C3.32646 13.0001 2.94644 12.5401 2.80644 12.2668C2.66644 11.9935 2.51978 11.4201 3.07978 10.6468L5.73977 6.91345C5.8331 6.78012 5.98645 6.70679 6.14645 6.70679H9.8598C10.0198 6.70679 10.1731 6.78679 10.2665 6.91345L12.9265 10.6535C13.4865 11.4201 13.3331 11.9935 13.1931 12.2668C13.0531 12.5401 12.6798 13.0001 11.7265 13.0001ZM6.39978 7.70681L3.88644 11.2335C3.6731 11.5268 3.65312 11.7268 3.69312 11.8135C3.73978 11.9001 3.91312 12.0001 4.27312 12.0001H11.7198C12.0798 12.0001 12.2598 11.9001 12.2998 11.8135C12.3465 11.7268 12.3198 11.5268 12.1065 11.2335L9.59314 7.70015H6.39978V7.70681Z" fill="#292F37"/>
<path d="M8 15.6667C7.72667 15.6667 7.5 15.44 7.5 15.1667V12.5C7.5 12.2267 7.72667 12 8 12C8.27333 12 8.5 12.2267 8.5 12.5V15.1667C8.5 15.44 8.27333 15.6667 8 15.6667Z" fill="#292F37"/>
</svg>
