<svg width="16" height="17" viewBox="0 0 16 17" fill="none" xmlns="http://www.w3.org/2000/svg">
<path d="M8.58668 14.4068H4.54001C2.17334 14.4068 1.33334 12.7468 1.33334 11.2001V5.80017C1.33334 3.49351 2.23334 2.59351 4.54001 2.59351H8.58668C10.8933 2.59351 11.7933 3.49351 11.7933 5.80017V11.2001C11.7933 13.5068 10.8933 14.4068 8.58668 14.4068ZM4.54001 3.60684C2.80001 3.60684 2.34668 4.06017 2.34668 5.80017V11.2001C2.34668 12.0201 2.63334 13.3935 4.54001 13.3935H8.58668C10.3267 13.3935 10.78 12.9401 10.78 11.2001V5.80017C10.78 4.06017 10.3267 3.60684 8.58668 3.60684H4.54001Z" fill="#292F37"/>
<path d="M13.8531 12.5734C13.5665 12.5734 13.1998 12.4801 12.7798 12.1868L10.9998 10.9401C10.8665 10.8468 10.7865 10.6934 10.7865 10.5268V6.47341C10.7865 6.30674 10.8665 6.15342 10.9998 6.06008L12.7798 4.81341C13.5731 4.26008 14.1531 4.42008 14.4265 4.56008C14.6998 4.70674 15.1665 5.08674 15.1665 6.05341V10.9401C15.1665 11.9068 14.6998 12.2934 14.4265 12.4334C14.2998 12.5068 14.0998 12.5734 13.8531 12.5734ZM11.7931 10.2601L13.3598 11.3534C13.6598 11.5601 13.8731 11.5801 13.9598 11.5334C14.0531 11.4868 14.1531 11.3001 14.1531 10.9401V6.06008C14.1531 5.69341 14.0465 5.51341 13.9598 5.46674C13.8731 5.42008 13.6598 5.44008 13.3598 5.64674L11.7931 6.74008V10.2601Z" fill="#292F37"/>
<path d="M7.66666 8.33325C6.83999 8.33325 6.16666 7.65992 6.16666 6.83325C6.16666 6.00659 6.83999 5.33325 7.66666 5.33325C8.49332 5.33325 9.16666 6.00659 9.16666 6.83325C9.16666 7.65992 8.49332 8.33325 7.66666 8.33325ZM7.66666 6.33325C7.39332 6.33325 7.16666 6.55992 7.16666 6.83325C7.16666 7.10659 7.39332 7.33325 7.66666 7.33325C7.93999 7.33325 8.16666 7.10659 8.16666 6.83325C8.16666 6.55992 7.93999 6.33325 7.66666 6.33325Z" fill="#292F37"/>
</svg>
