<svg width="20" height="20" viewBox="0 0 20 20" fill="none" xmlns="http://www.w3.org/2000/svg">
<path d="M13.3333 18.9587H6.66667C3.625 18.9587 1.875 17.2087 1.875 14.167V5.83366C1.875 2.79199 3.625 1.04199 6.66667 1.04199H13.3333C16.375 1.04199 18.125 2.79199 18.125 5.83366V14.167C18.125 17.2087 16.375 18.9587 13.3333 18.9587ZM6.66667 2.29199C4.28333 2.29199 3.125 3.45033 3.125 5.83366V14.167C3.125 16.5503 4.28333 17.7087 6.66667 17.7087H13.3333C15.7167 17.7087 16.875 16.5503 16.875 14.167V5.83366C16.875 3.45033 15.7167 2.29199 13.3333 2.29199H6.66667Z" fill="#14141C"/>
<path d="M7.49992 9.25866C7.35825 9.25866 7.21659 9.23366 7.08325 9.17533C6.69992 9.00866 6.45825 8.63366 6.45825 8.22533V1.66699C6.45825 1.32533 6.74159 1.04199 7.08325 1.04199H12.9166C13.2583 1.04199 13.5416 1.32533 13.5416 1.66699V8.21698C13.5416 8.63366 13.2999 9.00866 12.9166 9.16699C12.5416 9.33366 12.0999 9.25866 11.7916 8.97533L9.99992 7.33365L8.20824 8.98366C8.00824 9.16699 7.75825 9.25866 7.49992 9.25866ZM9.99992 6.00868C10.2499 6.00868 10.5083 6.10031 10.7083 6.28364L12.2916 7.74198V2.29199H7.70825V7.74198L9.29159 6.28364C9.49159 6.10031 9.74992 6.00868 9.99992 6.00868Z" fill="#14141C"/>
<path d="M14.5834 12.292H11.0417C10.7001 12.292 10.4167 12.0087 10.4167 11.667C10.4167 11.3253 10.7001 11.042 11.0417 11.042H14.5834C14.9251 11.042 15.2084 11.3253 15.2084 11.667C15.2084 12.0087 14.9251 12.292 14.5834 12.292Z" fill="#14141C"/>
<path d="M14.5833 15.625H7.5C7.15833 15.625 6.875 15.3417 6.875 15C6.875 14.6583 7.15833 14.375 7.5 14.375H14.5833C14.925 14.375 15.2083 14.6583 15.2083 15C15.2083 15.3417 14.925 15.625 14.5833 15.625Z" fill="#14141C"/>
</svg>
