<svg width="16" height="18" viewBox="0 0 16 18" fill="none" xmlns="http://www.w3.org/2000/svg">
<path d="M12.0168 0.666992H3.98351C2.20851 0.666992 0.766846 2.11699 0.766846 3.88366V15.6253C0.766846 17.1253 1.84185 17.7587 3.15851 17.0337L7.22517 14.7753C7.6585 14.5337 8.3585 14.5337 8.7835 14.7753L12.8502 17.0337C14.1668 17.767 15.2418 17.1337 15.2418 15.6253V3.88366C15.2335 2.11699 13.7918 0.666992 12.0168 0.666992ZM10.0835 8.50033H5.91685C5.57518 8.50033 5.29185 8.21699 5.29185 7.87533C5.29185 7.53366 5.57518 7.25033 5.91685 7.25033H10.0835C10.4252 7.25033 10.7085 7.53366 10.7085 7.87533C10.7085 8.21699 10.4252 8.50033 10.0835 8.50033Z" fill="#04004d"/>
</svg>
