<svg width="18" height="18" viewBox="0 0 18 18" fill="none" xmlns="http://www.w3.org/2000/svg">
<path d="M6.68221 15.5021C6.53971 15.5021 6.39721 15.4496 6.28471 15.3371C6.06721 15.1196 6.06721 14.7596 6.28471 14.5421L11.1747 9.65213C11.5347 9.29213 11.5347 8.70713 11.1747 8.34713L6.28471 3.45715C6.06721 3.23965 6.06721 2.87965 6.28471 2.66215C6.50221 2.44465 6.86221 2.44465 7.07971 2.66215L11.9697 7.55213C12.3522 7.93463 12.5697 8.45213 12.5697 8.99963C12.5697 9.54713 12.3597 10.0646 11.9697 10.4471L7.07971 15.3371C6.96721 15.4421 6.82471 15.5021 6.68221 15.5021Z" fill="white"/>
</svg>
