<svg width="18" height="18" viewBox="0 0 18 18" fill="none" xmlns="http://www.w3.org/2000/svg">
<path d="M6.68221 15.5026C6.53971 15.5026 6.39721 15.4501 6.28471 15.3376C6.06721 15.1201 6.06721 14.7601 6.28471 14.5426L11.1747 9.65262C11.5347 9.29262 11.5347 8.70762 11.1747 8.34762L6.28471 3.45764C6.06721 3.24014 6.06721 2.88014 6.28471 2.66264C6.50221 2.44514 6.86221 2.44514 7.07971 2.66264L11.9697 7.55262C12.3522 7.93512 12.5697 8.45262 12.5697 9.00012C12.5697 9.54762 12.3597 10.0651 11.9697 10.4476L7.07971 15.3376C6.96721 15.4426 6.82471 15.5026 6.68221 15.5026Z" fill="white"/>
</svg>
