<svg width="15" height="15" viewBox="0 0 15 15" fill="none" xmlns="http://www.w3.org/2000/svg">
<path d="M13.8667 4.24H10.9067Z" fill="#292F37"/>
<path fill-rule="evenodd" clip-rule="evenodd" d="M7.2 1.06667C3.78928 1.06667 1.06667 3.81316 1.06667 7.2C1.06667 7.49455 0.827885 7.73333 0.533333 7.73333C0.238781 7.73333 0 7.49455 0 7.2C0 3.22684 3.19739 0 7.2 0C9.58169 0 11.3651 0.994935 12.5425 1.97712C12.845 2.22947 13.1085 2.48176 13.3333 2.71754V0.906667C13.3333 0.612115 13.5721 0.373333 13.8667 0.373333C14.1612 0.373333 14.4 0.612115 14.4 0.906667V4.24C14.4 4.53455 14.1612 4.77333 13.8667 4.77333H10.9067C10.6121 4.77333 10.3733 4.53455 10.3733 4.24C10.3733 3.94545 10.6121 3.70667 10.9067 3.70667H12.793C12.5514 3.43163 12.24 3.11386 11.8592 2.79621C10.8149 1.92506 9.26498 1.06667 7.2 1.06667ZM13.8667 6.66667C14.1612 6.66667 14.4 6.90545 14.4 7.2C14.4 11.1746 11.1746 14.4 7.2 14.4C5.17478 14.4 3.57041 13.3807 2.49836 12.4084C2.23902 12.1732 2.00802 11.9382 1.80667 11.717V13.4933C1.80667 13.7879 1.56788 14.0267 1.27333 14.0267C0.978781 14.0267 0.74 13.7879 0.74 13.4933V10.16C0.74 9.86545 0.978781 9.62667 1.27333 9.62667H4.28667C4.58122 9.62667 4.82 9.86545 4.82 10.16C4.82 10.4546 4.58122 10.6933 4.28667 10.6933H2.32899C2.5623 10.9727 2.85944 11.2958 3.21498 11.6183C4.18625 12.4993 5.54522 13.3333 7.2 13.3333C10.5854 13.3333 13.3333 10.5854 13.3333 7.2C13.3333 6.90545 13.5721 6.66667 13.8667 6.66667Z" fill="#292F37"/>
</svg>
