<svg width="18" height="18" viewBox="0 0 18 18" fill="none" xmlns="http://www.w3.org/2000/svg">
<path d="M8.99985 16.5596C8.77485 16.5596 8.54985 16.5071 8.36235 16.4021C6.95983 15.6371 4.49982 14.8271 2.95482 14.6246L2.73733 14.5946C1.75483 14.4746 0.944824 13.5521 0.944824 12.5546V3.49462C0.944824 2.90212 1.17732 2.36215 1.60482 1.97215C2.03232 1.58215 2.5873 1.39464 3.1723 1.44714C4.8148 1.58214 7.30481 2.40715 8.71485 3.28465L8.89477 3.38965C8.94727 3.41215 9.05985 3.41965 9.10485 3.38965L9.22477 3.31463C9.72727 2.99963 10.3573 2.69212 11.0473 2.41462C11.2198 2.34712 11.4148 2.36963 11.5723 2.47463C11.7298 2.57963 11.8198 2.75213 11.8198 2.93963V4.94962L12.4423 4.53713C12.6298 4.40963 12.8773 4.40963 13.0648 4.53713L13.6873 4.94962V2.08466C13.6873 1.81466 13.8823 1.58212 14.1448 1.52962C14.3623 1.49212 14.5798 1.46214 14.7748 1.44714C14.7898 1.44714 14.8498 1.44714 14.8648 1.44714C15.4123 1.40214 15.9748 1.58965 16.3948 1.97965C16.8223 2.36965 17.0548 2.90963 17.0548 3.50213V12.5546C17.0548 13.5596 16.2448 14.4746 15.2548 14.5946L15.0073 14.6246C13.4623 14.8271 10.9873 15.6446 9.61485 16.4021C9.44985 16.5071 9.22485 16.5596 8.99985 16.5596ZM2.9848 2.55712C2.7448 2.55712 2.52732 2.63962 2.35482 2.79713C2.16732 2.96963 2.06232 3.21712 2.06232 3.49462V12.5546C2.06232 12.9971 2.44482 13.4246 2.87232 13.4846L3.09732 13.5146C4.78482 13.7396 7.37232 14.5871 8.87235 15.4121C8.93985 15.4421 9.03727 15.4496 9.07477 15.4346C10.5823 14.6021 13.1773 13.7471 14.8723 13.5221L15.1273 13.4921C15.5548 13.4396 15.9373 13.0046 15.9373 12.5621V3.50964C15.9373 3.23214 15.8323 2.99214 15.6448 2.81214C15.4573 2.63964 15.1948 2.55714 14.9248 2.57214C14.9023 2.57214 14.8348 2.57214 14.8198 2.57214V5.99964C14.8198 6.20964 14.7073 6.39713 14.5198 6.49463C14.3323 6.59212 14.1148 6.58464 13.9423 6.46464L12.7573 5.67715L11.5723 6.46464C11.3998 6.57714 11.1823 6.59212 10.9948 6.49463C10.8148 6.39713 10.6948 6.20964 10.6948 5.99964V3.80215C10.3723 3.95965 10.0798 4.11715 9.82477 4.26715L9.70485 4.34212C9.29235 4.59712 8.70735 4.59713 8.30985 4.34963L8.12985 4.23716C6.86233 3.44216 4.5523 2.67712 3.0823 2.55712C3.0448 2.55712 3.0148 2.55712 2.9848 2.55712Z" fill="#14141C"/>
<path d="M9 15.4297C8.98694 15.4297 8.97128 15.4245 8.95699 15.4102C8.9427 15.3959 8.9375 15.3802 8.9375 15.3672V4.11719C8.9375 4.10412 8.9427 4.08847 8.95699 4.07418C8.97128 4.05989 8.98694 4.05469 9 4.05469C9.01306 4.05469 9.02872 4.05989 9.04301 4.07418C9.0573 4.08847 9.0625 4.10412 9.0625 4.11719V15.3672C9.0625 15.4017 9.03571 15.4297 9 15.4297Z" stroke="#14141C"/>
<path d="M14.25 6.56237C14.1375 6.56237 14.0325 6.53236 13.935 6.46486L12.75 5.67738L11.565 6.46486C11.3925 6.57736 11.175 6.59235 10.9875 6.49485C10.8075 6.39735 10.6875 6.20987 10.6875 5.99987V2.93985C10.6875 2.70735 10.83 2.50485 11.04 2.41485C12.075 2.00235 13.2075 1.67985 14.16 1.52985C14.325 1.49985 14.49 1.55238 14.6175 1.65738C14.745 1.76238 14.8125 1.91989 14.8125 2.08489V5.99987C14.8125 6.20987 14.7 6.39735 14.5125 6.49485C14.43 6.53985 14.34 6.56237 14.25 6.56237ZM12.75 4.43985C12.855 4.43985 12.9675 4.46986 13.065 4.53736L13.6875 4.94985V2.76737C13.0875 2.90237 12.435 3.09737 11.8125 3.32987V4.94985L12.435 4.53736C12.5325 4.46986 12.645 4.43985 12.75 4.43985Z" fill="#14141C"/>
</svg>
