<svg width="16" height="16" viewBox="0 0 16 16" xmlns="http://www.w3.org/2000/svg">
    <!-- Relleno del cuerpo -->
    <path
        d="M4 4.333H12C12.736 4.333 13.333 5.005 13.333 5.833V11.833C13.333 12.662 12.736 13.333 12 13.333H4C3.264 13.333 2.667 12.662 2.667 11.833V5.833C2.667 5.005 3.264 4.333 4 4.333Z"
        fill="#66C1EA"
    />

    <!-- Asa -->
    <path
        d="M8 4.333V1.333H5.333"
        stroke="#66C1EA"
        stroke-width="1.4"
        stroke-linecap="round"
        stroke-linejoin="round"
        fill="none"
    />

    <!-- Contorno -->
    <path
        d="M4 4.333H12C12.736 4.333 13.333 5.005 13.333 5.833V11.833C13.333 12.662 12.736 13.333 12 13.333H4C3.264 13.333 2.667 12.662 2.667 11.833V5.833C2.667 5.005 3.264 4.333 4 4.333Z"
        stroke="#66C1EA"
        stroke-width="1.4"
        stroke-linejoin="round"
        fill="none"
    />

    <!-- Ojitos -->
    <path
        d="M6 8.083V9.583M10 8.083V9.583"
        stroke="white"
        stroke-width="1.4"
        stroke-linecap="round"
    />
</svg>