<svg width="18" height="18" viewBox="0 0 18 18" fill="none" xmlns="http://www.w3.org/2000/svg">
<path d="M12.0001 17.0628H6.00017C2.53517 17.0628 1.89017 15.4503 1.72517 13.8828L1.16267 7.87531C1.08017 7.08781 1.05767 5.92531 1.83767 5.05531C2.51267 4.30531 3.63017 3.94531 5.25017 3.94531H12.7501C14.3776 3.94531 15.4951 4.31281 16.1626 5.05531C16.9426 5.92531 16.9201 7.08781 16.8376 7.88281L16.2751 13.8753C16.1101 15.4503 15.4651 17.0628 12.0001 17.0628ZM5.25017 5.06281C3.98267 5.06281 3.11267 5.31031 2.67017 5.80531C2.30267 6.21031 2.18267 6.83281 2.28017 7.76281L2.84267 13.7703C2.97017 14.9553 3.29267 15.9378 6.00017 15.9378H12.0001C14.7001 15.9378 15.0301 14.9553 15.1576 13.7628L15.7201 7.7703C15.8176 6.83281 15.6976 6.21031 15.3301 5.80531C14.8876 5.31031 14.0176 5.06281 12.7501 5.06281H5.25017Z" fill="white"/>
<path d="M12 5.0625C11.6925 5.0625 11.4375 4.8075 11.4375 4.5V3.9C11.4375 2.565 11.4375 2.0625 9.6 2.0625H8.4C6.5625 2.0625 6.5625 2.565 6.5625 3.9V4.5C6.5625 4.8075 6.3075 5.0625 6 5.0625C5.6925 5.0625 5.4375 4.8075 5.4375 4.5V3.9C5.4375 2.58 5.4375 0.9375 8.4 0.9375H9.6C12.5625 0.9375 12.5625 2.58 12.5625 3.9V4.5C12.5625 4.8075 12.3075 5.0625 12 5.0625Z" fill="white"/>
<path d="M9 12.5625C6.9375 12.5625 6.9375 11.2875 6.9375 10.5225V9.75C6.9375 8.6925 7.1925 8.4375 8.25 8.4375H9.75C10.8075 8.4375 11.0625 8.6925 11.0625 9.75V10.5C11.0625 11.28 11.0625 12.5625 9 12.5625ZM8.0625 9.5625C8.0625 9.6225 8.0625 9.69 8.0625 9.75V10.5225C8.0625 11.295 8.0625 11.4375 9 11.4375C9.9375 11.4375 9.9375 11.3175 9.9375 10.515V9.75C9.9375 9.69 9.9375 9.6225 9.9375 9.5625C9.8775 9.5625 9.81 9.5625 9.75 9.5625H8.25C8.19 9.5625 8.1225 9.5625 8.0625 9.5625Z" fill="white"/>
<path d="M10.4996 11.0772C10.2221 11.0772 9.97463 10.8672 9.94463 10.5822C9.90713 10.2747 10.1246 9.98969 10.4321 9.95219C12.4121 9.70469 14.3096 8.95469 15.9071 7.79219C16.1546 7.60469 16.5071 7.66469 16.6946 7.91969C16.8746 8.16719 16.8221 8.51969 16.5671 8.70719C14.8121 9.98219 12.7421 10.7997 10.5671 11.0772C10.5446 11.0772 10.5221 11.0772 10.4996 11.0772Z" fill="white"/>
<path d="M7.50053 11.0847C7.47804 11.0847 7.45554 11.0847 7.43304 11.0847C5.37804 10.8522 3.37554 10.1022 1.64304 8.91718C1.38804 8.74468 1.32054 8.39218 1.49304 8.13718C1.66554 7.88218 2.01804 7.81468 2.27304 7.98718C3.85554 9.06718 5.67804 9.74968 7.55303 9.96718C7.86053 10.0047 8.08553 10.2822 8.04803 10.5897C8.02553 10.8747 7.78553 11.0847 7.50053 11.0847Z" fill="white"/>
</svg>
