<svg width="18" height="18" viewBox="0 0 18 18" fill="none" xmlns="http://www.w3.org/2000/svg">
<g id="broom">
<path id="Vector" d="M4.83733 6.37494C4.79233 6.37494 4.74733 6.36742 4.70233 6.35992C4.55983 6.32242 4.43233 6.23245 4.35733 6.10495L3.18733 4.18495C2.90233 3.71995 2.81233 3.16494 2.94733 2.62494C3.07483 2.09244 3.40483 1.63493 3.87733 1.34993C4.34233 1.06493 4.89733 0.974923 5.43733 1.10992C5.97733 1.23742 6.42733 1.56742 6.71233 2.03992L7.88235 3.95996C8.04735 4.22246 7.95735 4.56744 7.69485 4.73244L5.12983 6.29245C5.03983 6.34495 4.94233 6.37494 4.83733 6.37494ZM4.94233 2.17496C4.76983 2.17496 4.60483 2.21995 4.46233 2.30995C4.25233 2.43745 4.10233 2.64742 4.04233 2.88742C3.98233 3.13492 4.01983 3.38242 4.14733 3.59242L5.02483 5.03245L6.62983 4.05742L5.75233 2.61743C5.62483 2.40743 5.41483 2.25743 5.17483 2.19743C5.09233 2.18243 5.01733 2.17496 4.94233 2.17496Z" fill="#282835"/>
<path id="Vector_2" d="M8.56455 16.9577C8.33955 16.9577 8.11455 16.9277 7.89705 16.8602C7.23702 16.6652 6.70452 16.2153 6.39702 15.5778L4.85952 12.4428C4.04202 10.7778 4.61952 8.79782 6.20202 7.83032L8.57205 6.39029C10.1545 5.4228 12.187 5.82029 13.2895 7.31279L15.367 10.1177C15.787 10.6877 15.9445 11.3702 15.817 12.0377C15.6895 12.7052 15.2845 13.2828 14.677 13.6503L9.85455 16.5827C9.44955 16.8302 9.00705 16.9577 8.56455 16.9577ZM10.4245 6.99029C9.98955 6.99029 9.55455 7.11027 9.14955 7.35027L6.77951 8.79024C5.69201 9.45024 5.30202 10.8077 5.85702 11.9477L7.39452 15.0827C7.56705 15.4277 7.85205 15.6752 8.20455 15.7802C8.55705 15.8852 8.93205 15.8253 9.25455 15.6303L14.077 12.6977C14.407 12.4952 14.6245 12.1878 14.6995 11.8278C14.767 11.4678 14.6845 11.1003 14.452 10.7928L12.3745 7.98782C11.902 7.3353 11.1745 6.99029 10.4245 6.99029Z" fill="#282835"/>
<path id="Vector_3" d="M5.7603 9.32218C5.7153 9.32218 5.67031 9.31468 5.62531 9.30718C5.48281 9.26968 5.3553 9.17968 5.2803 9.05218L3.72032 6.48722C3.55532 6.22472 3.64532 5.8797 3.90782 5.7147L7.7478 3.3747C8.0103 3.2172 8.3628 3.2997 8.5203 3.5622L10.0803 6.12719C10.1553 6.25469 10.1853 6.4047 10.1478 6.5547C10.1103 6.6972 10.0203 6.82471 9.8928 6.89971L6.05282 9.23968C5.96282 9.29968 5.8578 9.32218 5.7603 9.32218ZM4.97281 6.38972L5.9478 7.99468L8.8278 6.23971L7.8528 4.6347L4.97281 6.38972Z" fill="#282835"/>
<path id="Vector_4" d="M11.9696 15.2026C11.7821 15.2026 11.5946 15.1051 11.4896 14.9326L10.2521 12.9001C10.0871 12.6376 10.1771 12.2926 10.4396 12.1276C10.7021 11.9701 11.0546 12.0526 11.2121 12.3151L12.4496 14.3476C12.6146 14.6101 12.5246 14.9551 12.2621 15.1201C12.1721 15.1726 12.0671 15.2026 11.9696 15.2026Z" fill="#282835"/>
<path id="Vector_5" d="M10.0506 16.3726C9.86311 16.3726 9.67561 16.2751 9.57061 16.1026L8.33311 14.0701C8.16811 13.8076 8.25811 13.4626 8.52061 13.2976C8.78311 13.1401 9.13561 13.2226 9.29311 13.4851L10.5306 15.5176C10.6956 15.7801 10.6056 16.1251 10.3431 16.2901C10.2531 16.3426 10.1481 16.3726 10.0506 16.3726Z" fill="#282835"/>
<path id="Vector_6" d="M13.89 14.0328C13.7025 14.0328 13.515 13.9352 13.41 13.7627L12.1725 11.7303C12.0075 11.4678 12.0975 11.1227 12.36 10.9577C12.6225 10.8002 12.975 10.8827 13.1325 11.1452L14.37 13.1778C14.535 13.4403 14.445 13.7852 14.1825 13.9502C14.0925 14.0027 13.995 14.0328 13.89 14.0328Z" fill="#282835"/>
</g>
</svg>
