<svg width="16" height="17" viewBox="0 0 16 17" fill="none" xmlns="http://www.w3.org/2000/svg">
<path d="M14.6666 15.667H1.30664C1.03331 15.667 0.806641 15.4403 0.806641 15.167C0.806641 14.8937 1.03331 14.667 1.30664 14.667H14.6666C14.94 14.667 15.1666 14.8937 15.1666 15.167C15.1666 15.4403 14.94 15.667 14.6666 15.667Z" fill="#47535F"/>
<path d="M7.30684 6.7666H4.00684C3.7335 6.7666 3.50684 6.53993 3.50684 6.2666C3.50684 5.99327 3.7335 5.7666 4.00684 5.7666H7.30684C7.58017 5.7666 7.80684 5.99327 7.80684 6.2666C7.80684 6.53993 7.58017 6.7666 7.30684 6.7666Z" fill="#47535F"/>
<path d="M7.30684 9.2666H4.00684C3.7335 9.2666 3.50684 9.03993 3.50684 8.7666C3.50684 8.49327 3.7335 8.2666 4.00684 8.2666H7.30684C7.58017 8.2666 7.80684 8.49327 7.80684 8.7666C7.80684 9.03993 7.58017 9.2666 7.30684 9.2666Z" fill="#47535F"/>
<path d="M14.1801 15.2402C13.9068 15.2402 13.6801 15.0135 13.6801 14.7402V8.56687C13.6801 8.11353 13.4668 7.7002 13.1135 7.45353L9.56679 4.84687C9.34679 4.6802 9.29345 4.37353 9.46012 4.14687C9.62679 3.92687 9.93345 3.87353 10.1601 4.0402L13.6935 6.6402C14.3068 7.0602 14.6801 7.7802 14.6801 8.56687V14.7335C14.6801 15.0135 14.4535 15.2402 14.1801 15.2402Z" fill="#47535F"/>
<path d="M1.84668 15.2401C1.57335 15.2401 1.34668 15.0134 1.34668 14.7401V5.50008C1.34668 4.54008 1.92001 3.66008 2.78001 3.31342L7.06668 1.58008C7.74001 1.30675 8.47335 1.38675 9.08001 1.79342C9.72001 2.22675 10.1067 2.96008 10.1067 3.76008V14.7268C10.1067 15.0001 9.88001 15.2268 9.60668 15.2268C9.33335 15.2268 9.10668 15.0001 9.10668 14.7268V3.77342C9.10668 3.30675 8.88668 2.88008 8.52001 2.63342C8.19335 2.41342 7.80001 2.37342 7.44001 2.51342L3.15335 4.24675C2.67335 4.44008 2.34668 4.94675 2.34668 5.50008V14.7334C2.34668 15.0134 2.12001 15.2401 1.84668 15.2401Z" fill="#47535F"/>
<path d="M5.63379 15.4805C5.36046 15.4805 5.13379 15.2538 5.13379 14.9805V12.4805C5.13379 12.2071 5.36046 11.9805 5.63379 11.9805C5.90712 11.9805 6.13379 12.2071 6.13379 12.4805V14.9805C6.13379 15.2538 5.90712 15.4805 5.63379 15.4805Z" fill="#47535F"/>
</svg>
