<svg width="18" height="18" viewBox="0 0 18 18" fill="none" xmlns="http://www.w3.org/2000/svg">
<g clip-path="url(#clip0_2944_7438)">
<path d="M9.37502 17.0625H3.06004C1.88254 17.0625 0.915039 16.1175 0.915039 14.9475V3.81752C0.915039 2.67002 1.34254 1.77752 2.12254 1.29002C2.91004 0.795018 3.93004 0.810018 4.98754 1.33502L8.31752 2.97002C9.22502 3.42002 9.93752 4.55252 9.93752 5.55752V16.5C9.93752 16.8075 9.68252 17.0625 9.37502 17.0625ZM3.42004 2.06252C3.15754 2.06252 2.91754 2.12252 2.71504 2.25002C2.28004 2.52002 2.04004 3.08252 2.04004 3.81752V14.9475C2.04004 15.495 2.49754 15.9375 3.06004 15.9375H8.81252V5.55752C8.81252 4.98002 8.34752 4.23752 7.81502 3.98252L4.48504 2.34752C4.10254 2.16002 3.74254 2.06252 3.42004 2.06252Z" fill="white"/>
<path d="M14.1075 17.062H9.375C9.0675 17.062 8.8125 16.807 8.8125 16.4995V7.81448C8.8125 7.64198 8.8875 7.48447 9.0225 7.37947C9.1575 7.27447 9.3225 7.22947 9.495 7.26697L9.8475 7.34197L14.7525 8.43698C16.245 8.76698 16.995 9.64448 17.04 11.137C17.0475 11.137 17.0475 11.212 17.0475 11.2945V14.1295C17.04 16.0495 16.0275 17.062 14.1075 17.062ZM9.9375 15.937H14.1075C15.4275 15.937 15.915 15.4495 15.915 14.1295V11.2345C15.8775 10.207 15.4875 9.74948 14.505 9.53198L9.9375 8.51198V15.937Z" fill="white"/>
<path d="M6.7275 7.3125H4.125C3.8175 7.3125 3.5625 7.0575 3.5625 6.75C3.5625 6.4425 3.8175 6.1875 4.125 6.1875H6.7275C7.035 6.1875 7.29 6.4425 7.29 6.75C7.29 7.0575 7.0425 7.3125 6.7275 7.3125Z" fill="white"/>
<path d="M6.7275 10.3125H4.125C3.8175 10.3125 3.5625 10.0575 3.5625 9.75C3.5625 9.4425 3.8175 9.1875 4.125 9.1875H6.7275C7.035 9.1875 7.29 9.4425 7.29 9.75C7.29 10.0575 7.0425 10.3125 6.7275 10.3125Z" fill="white"/>
<path d="M11.4146 13.3129C10.1771 13.3129 9.16455 12.3004 9.16455 11.0629V7.89037C9.16455 7.71787 9.23955 7.56037 9.37455 7.44785C9.50955 7.33535 9.68205 7.29785 9.84705 7.33535L13.2221 8.09287C13.4771 8.15287 13.6646 8.37787 13.6646 8.64037V11.0554C13.6646 12.3004 12.6596 13.3129 11.4146 13.3129ZM10.2896 8.59537V11.0629C10.2896 11.6854 10.7921 12.1879 11.4146 12.1879C12.0371 12.1879 12.5396 11.6854 12.5396 11.0629V9.09787L10.2896 8.59537Z" fill="white"/>
<path d="M14.7896 13.3125C13.5521 13.3125 12.5396 12.3 12.5396 11.0625V8.64748C12.5396 8.47498 12.6146 8.31748 12.7496 8.21248C12.8846 8.10748 13.0571 8.06248 13.2221 8.09998L14.7446 8.43748C16.2371 8.76748 16.9871 9.64497 17.0321 11.1375C17.0321 11.1525 17.0321 11.1675 17.0321 11.1825C16.9721 12.375 15.9896 13.3125 14.7896 13.3125ZM13.6646 9.34498V11.0625C13.6646 11.685 14.1671 12.1875 14.7896 12.1875C15.3821 12.1875 15.8696 11.73 15.9071 11.145C15.8696 10.2 15.4796 9.74998 14.5046 9.53248L13.6646 9.34498Z" fill="white"/>
</g>
<defs>
<clipPath id="clip0_2944_7438">
<rect width="18" height="18" fill="white"/>
</clipPath>
</defs>
</svg>
