<svg width="16" height="16" viewBox="0 0 16 16" fill="none" xmlns="http://www.w3.org/2000/svg">
<g id="calendar-1">
<path id="Vector" d="M5.33334 3.8335C5.06001 3.8335 4.83334 3.60683 4.83334 3.3335V1.3335C4.83334 1.06016 5.06001 0.833496 5.33334 0.833496C5.60668 0.833496 5.83334 1.06016 5.83334 1.3335V3.3335C5.83334 3.60683 5.60668 3.8335 5.33334 3.8335Z" fill="#63637E"/>
<path id="Vector_2" d="M10.6667 3.8335C10.3933 3.8335 10.1667 3.60683 10.1667 3.3335V1.3335C10.1667 1.06016 10.3933 0.833496 10.6667 0.833496C10.94 0.833496 11.1667 1.06016 11.1667 1.3335V3.3335C11.1667 3.60683 10.94 3.8335 10.6667 3.8335Z" fill="#63637E"/>
<path id="Vector_3" d="M5.66667 9.66654C5.58 9.66654 5.49333 9.64654 5.41333 9.61321C5.32667 9.57988 5.26 9.53321 5.19333 9.47321C5.07333 9.34654 5 9.17988 5 8.99988C5 8.91321 5.02 8.82654 5.05333 8.74654C5.08667 8.66654 5.13333 8.59321 5.19333 8.52654C5.26 8.46654 5.32667 8.41988 5.41333 8.38654C5.65333 8.28654 5.95333 8.33988 6.14 8.52654C6.26 8.65321 6.33333 8.82654 6.33333 8.99988C6.33333 9.03988 6.32667 9.08654 6.32 9.13321C6.31333 9.17321 6.3 9.21321 6.28 9.25321C6.26667 9.29321 6.24667 9.33321 6.22 9.37321C6.2 9.40654 6.16667 9.43988 6.14 9.47321C6.01333 9.59321 5.84 9.66654 5.66667 9.66654Z" fill="#63637E"/>
<path id="Vector_4" d="M8.00001 9.66658C7.91334 9.66658 7.82668 9.64658 7.74668 9.61324C7.66001 9.57991 7.59334 9.53324 7.52668 9.47324C7.40668 9.34658 7.33334 9.17991 7.33334 8.99991C7.33334 8.91324 7.35334 8.82658 7.38668 8.74658C7.42001 8.66658 7.46668 8.59324 7.52668 8.52658C7.59334 8.46658 7.66001 8.41991 7.74668 8.38658C7.98668 8.27991 8.28668 8.33991 8.47334 8.52658C8.59334 8.65324 8.66668 8.82658 8.66668 8.99991C8.66668 9.03991 8.66001 9.08658 8.65334 9.13324C8.64668 9.17324 8.63334 9.21324 8.61334 9.25324C8.60001 9.29324 8.58001 9.33324 8.55334 9.37324C8.53334 9.40658 8.50001 9.43991 8.47334 9.47324C8.34668 9.59324 8.17334 9.66658 8.00001 9.66658Z" fill="#63637E"/>
<path id="Vector_5" d="M10.3333 9.66658C10.2467 9.66658 10.16 9.64658 10.08 9.61324C9.99332 9.57991 9.92666 9.53324 9.85999 9.47324C9.83332 9.43991 9.80666 9.40658 9.77999 9.37324C9.75332 9.33324 9.73332 9.29324 9.71999 9.25324C9.69999 9.21324 9.68666 9.17324 9.67999 9.13324C9.67332 9.08658 9.66666 9.03991 9.66666 8.99991C9.66666 8.82658 9.73999 8.65324 9.85999 8.52658C9.92666 8.46658 9.99332 8.41991 10.08 8.38658C10.3267 8.27991 10.62 8.33991 10.8067 8.52658C10.9267 8.65324 11 8.82658 11 8.99991C11 9.03991 10.9933 9.08658 10.9867 9.13324C10.98 9.17324 10.9667 9.21324 10.9467 9.25324C10.9333 9.29324 10.9133 9.33324 10.8867 9.37324C10.8667 9.40658 10.8333 9.43991 10.8067 9.47324C10.68 9.59324 10.5067 9.66658 10.3333 9.66658Z" fill="#63637E"/>
<path id="Vector_6" d="M5.66667 11.9997C5.58 11.9997 5.49333 11.9798 5.41333 11.9465C5.33333 11.9131 5.26 11.8664 5.19333 11.8064C5.07333 11.6797 5 11.5064 5 11.3331C5 11.2464 5.02 11.1597 5.05333 11.0797C5.08667 10.9931 5.13333 10.9198 5.19333 10.8598C5.44 10.6131 5.89333 10.6131 6.14 10.8598C6.26 10.9865 6.33333 11.1597 6.33333 11.3331C6.33333 11.5064 6.26 11.6797 6.14 11.8064C6.01333 11.9264 5.84 11.9997 5.66667 11.9997Z" fill="#63637E"/>
<path id="Vector_7" d="M8.00001 11.9997C7.82668 11.9997 7.65334 11.9264 7.52668 11.8064C7.40668 11.6797 7.33334 11.5064 7.33334 11.3331C7.33334 11.2464 7.35334 11.1597 7.38668 11.0797C7.42001 10.9931 7.46668 10.9198 7.52668 10.8598C7.77334 10.6131 8.22668 10.6131 8.47334 10.8598C8.53334 10.9198 8.58001 10.9931 8.61334 11.0797C8.64668 11.1597 8.66668 11.2464 8.66668 11.3331C8.66668 11.5064 8.59334 11.6797 8.47334 11.8064C8.34668 11.9264 8.17334 11.9997 8.00001 11.9997Z" fill="#63637E"/>
<path id="Vector_8" d="M10.3333 11.9999C10.16 11.9999 9.98666 11.9266 9.85999 11.8066C9.79999 11.7466 9.75332 11.6733 9.71999 11.5866C9.68666 11.5066 9.66666 11.4199 9.66666 11.3333C9.66666 11.2466 9.68666 11.1599 9.71999 11.0799C9.75332 10.9933 9.79999 10.9199 9.85999 10.8599C10.0133 10.7066 10.2467 10.6333 10.46 10.6799C10.5067 10.6866 10.5467 10.6999 10.5867 10.7199C10.6267 10.7333 10.6667 10.7533 10.7067 10.7799C10.74 10.7999 10.7733 10.8333 10.8067 10.8599C10.9267 10.9866 11 11.1599 11 11.3333C11 11.5066 10.9267 11.6799 10.8067 11.8066C10.68 11.9266 10.5067 11.9999 10.3333 11.9999Z" fill="#63637E"/>
<path id="Vector_9" d="M13.6667 6.56006H2.33334C2.06001 6.56006 1.83334 6.33339 1.83334 6.06006C1.83334 5.78673 2.06001 5.56006 2.33334 5.56006H13.6667C13.94 5.56006 14.1667 5.78673 14.1667 6.06006C14.1667 6.33339 13.94 6.56006 13.6667 6.56006Z" fill="#63637E"/>
<path id="Vector_10" d="M10.6667 15.1668H5.33333C2.9 15.1668 1.5 13.7668 1.5 11.3335V5.66683C1.5 3.2335 2.9 1.8335 5.33333 1.8335H10.6667C13.1 1.8335 14.5 3.2335 14.5 5.66683V11.3335C14.5 13.7668 13.1 15.1668 10.6667 15.1668ZM5.33333 2.8335C3.42667 2.8335 2.5 3.76016 2.5 5.66683V11.3335C2.5 13.2402 3.42667 14.1668 5.33333 14.1668H10.6667C12.5733 14.1668 13.5 13.2402 13.5 11.3335V5.66683C13.5 3.76016 12.5733 2.8335 10.6667 2.8335H5.33333Z" fill="#63637E"/>
</g>
</svg>
