<svg width="12" height="12" viewBox="0 0 12 12" fill="none" xmlns="http://www.w3.org/2000/svg">
<path d="M7.27519 6L11.7383 1.53684C12.0872 1.18797 12.0872 0.610526 11.7383 0.261654C11.3895 -0.087218 10.812 -0.087218 10.4632 0.261654L6 4.72481L1.53684 0.261654C1.18797 -0.087218 0.610526 -0.087218 0.261654 0.261654C-0.087218 0.610526 -0.087218 1.18797 0.261654 1.53684L4.72481 6L0.261654 10.4632C-0.087218 10.812 -0.087218 11.3895 0.261654 11.7383C0.610526 12.0872 1.18797 12.0872 1.53684 11.7383L6 7.27519L10.4632 11.7383C10.812 12.0872 11.3895 12.0872 11.7383 11.7383C12.0872 11.3895 12.0872 10.812 11.7383 10.4632L7.27519 6Z" fill="#14141C"/>
</svg>
