<svg width="14" height="15" viewBox="0 0 14 15" fill="none" xmlns="http://www.w3.org/2000/svg">
<g id="copy-success">
<path id="Vector" d="M9.97484 1.22949H7.52484C5.244 1.22949 4.229 2.24449 4.229 4.52533V5.16699C4.229 5.40616 4.42734 5.60449 4.6665 5.60449H6.47484C8.28317 5.60449 8.89567 6.21699 8.89567 8.02533V9.83366C8.89567 10.0728 9.094 10.2712 9.33317 10.2712H9.97484C12.2557 10.2712 13.2707 9.25616 13.2707 6.97533V4.52533C13.2707 2.24449 12.2557 1.22949 9.97484 1.22949ZM5.104 4.72949V4.52533C5.104 2.71699 5.7165 2.10449 7.52484 2.10449H9.97484C11.7832 2.10449 12.3957 2.71699 12.3957 4.52533V6.97533C12.3957 8.78366 11.7832 9.39616 9.97484 9.39616H9.77067V8.02533C9.77067 5.74449 8.75567 4.72949 6.47484 4.72949H5.104Z" fill="#14141C"/>
<path id="Vector_2" d="M6.47484 4.72949H4.02484C1.744 4.72949 0.729004 5.74449 0.729004 8.02533V10.4753C0.729004 12.7562 1.744 13.7712 4.02484 13.7712H6.47484C8.75567 13.7712 9.77067 12.7562 9.77067 10.4753V8.02533C9.77067 5.74449 8.75567 4.72949 6.47484 4.72949ZM4.02484 12.8962C2.2165 12.8962 1.604 12.2837 1.604 10.4753V8.02533C1.604 6.21699 2.2165 5.60449 4.02484 5.60449H6.47484C8.28317 5.60449 8.89567 6.21699 8.89567 8.02533V10.4753C8.89567 12.2837 8.28317 12.8962 6.47484 12.8962H4.02484Z" fill="#14141C"/>
<path id="Vector_3" d="M4.68389 10.8253C4.57306 10.8253 4.46223 10.7845 4.37473 10.697L3.23723 9.55949C3.06806 9.39033 3.06806 9.11033 3.23723 8.94116C3.40639 8.77199 3.68639 8.77199 3.85556 8.94116L4.68389 9.76949L6.64388 7.80949C6.81304 7.64033 7.09304 7.64033 7.26221 7.80949C7.43138 7.97866 7.43138 8.25866 7.26221 8.42783L4.98723 10.697C4.90556 10.7787 4.79473 10.8253 4.68389 10.8253Z" fill="#14141C"/>
</g>
</svg>
