<svg width="20" height="20" viewBox="0 0 20 20" fill="none" xmlns="http://www.w3.org/2000/svg">
<path d="M10 12.2917C9.65833 12.2917 9.375 12.0083 9.375 11.6667V7.5C9.375 7.15833 9.65833 6.875 10 6.875C10.3417 6.875 10.625 7.15833 10.625 7.5V11.6667C10.625 12.0083 10.3417 12.2917 10 12.2917Z" fill="#E10000"/>
<path d="M9.99996 14.9998C9.94996 14.9998 9.89163 14.9915 9.83329 14.9831C9.78329 14.9748 9.73329 14.9581 9.68329 14.9331C9.63329 14.9165 9.58329 14.8915 9.53329 14.8581C9.49163 14.8248 9.44996 14.7915 9.40829 14.7581C9.25829 14.5998 9.16663 14.3831 9.16663 14.1665C9.16663 13.9498 9.25829 13.7331 9.40829 13.5748C9.44996 13.5415 9.49163 13.5081 9.53329 13.4748C9.58329 13.4415 9.63329 13.4165 9.68329 13.3998C9.73329 13.3748 9.78329 13.3581 9.83329 13.3498C9.94163 13.3248 10.0583 13.3248 10.1583 13.3498C10.2166 13.3581 10.2666 13.3748 10.3166 13.3998C10.3666 13.4165 10.4166 13.4415 10.4666 13.4748C10.5083 13.5081 10.55 13.5415 10.5916 13.5748C10.7416 13.7331 10.8333 13.9498 10.8333 14.1665C10.8333 14.3831 10.7416 14.5998 10.5916 14.7581C10.55 14.7915 10.5083 14.8248 10.4666 14.8581C10.4166 14.8915 10.3666 14.9165 10.3166 14.9331C10.2666 14.9581 10.2166 14.9748 10.1583 14.9831C10.1083 14.9915 10.05 14.9998 9.99996 14.9998Z" fill="#E10000"/>
<path d="M15.0504 18.4665H4.95035C3.32534 18.4665 2.08368 17.8749 1.45034 16.8082C0.825348 15.7415 0.908678 14.3665 1.70034 12.9415L6.75034 3.8582C7.58368 2.3582 8.73371 1.5332 10.0004 1.5332C11.267 1.5332 12.417 2.3582 13.2504 3.8582L18.3004 12.9499C19.092 14.3749 19.1837 15.7415 18.5504 16.8165C17.917 17.8749 16.6754 18.4665 15.0504 18.4665ZM10.0004 2.7832C9.21704 2.7832 8.45038 3.3832 7.84201 4.46654L2.80034 13.5582C2.23368 14.5749 2.14201 15.5082 2.53368 16.1832C2.92534 16.8582 3.79201 17.2249 4.95868 17.2249H15.0587C16.2254 17.2249 17.0837 16.8582 17.4837 16.1832C17.8837 15.5082 17.7837 14.5832 17.217 13.5582L12.1587 4.46654C11.5504 3.3832 10.7837 2.7832 10.0004 2.7832Z" fill="#E10000"/>
</svg>
