<svg width="15" height="16" viewBox="0 0 15 16" fill="none" xmlns="http://www.w3.org/2000/svg">
<g clip-path="url(#clip0_837_2636)">
<path d="M7.5 13.625C10.6066 13.625 13.125 11.1066 13.125 8C13.125 4.8934 10.6066 2.375 7.5 2.375C4.3934 2.375 1.875 4.8934 1.875 8C1.875 11.1066 4.3934 13.625 7.5 13.625Z" stroke="white" stroke-miterlimit="7.3333" stroke-linecap="round" stroke-linejoin="round"/>
<path d="M5.9375 9.875C6.8125 10.75 8.1875 10.75 9 9.9375C9 9.9375 9 9.9375 9.0625 9.875" stroke="white" stroke-miterlimit="7.3333" stroke-linecap="round" stroke-linejoin="round"/>
<path d="M7.5 2.375C6.8125 2.375 6.25 2.9375 6.25 3.625C6.25 4.3125 6.8125 4.875 7.5 4.875" stroke="white" stroke-miterlimit="7.3333" stroke-linecap="round" stroke-linejoin="round"/>
</g>
<defs>
<clipPath id="clip0_837_2636">
<rect width="15" height="15" fill="white" transform="translate(0 0.5)"/>
</clipPath>
</defs>
</svg>
