<svg width="16" height="16" viewBox="0 0 16 16" fill="none" xmlns="http://www.w3.org/2000/svg">
<path d="M8.1328 3.33334C8.1328 3.12117 8.04845 2.91827 7.89842 2.76824C7.7858 2.65562 7.6435 2.58018 7.48957 2.54949L7.33332 2.53386C7.12114 2.53386 6.91824 2.61821 6.76821 2.76824C6.61818 2.91827 6.53384 3.12117 6.53384 3.33334C6.53384 3.54552 6.61818 3.74842 6.76821 3.89845C6.91824 4.04848 7.12114 4.13282 7.33332 4.13282L7.48957 4.1172C7.6435 4.08651 7.7858 4.01107 7.89842 3.89845C8.04845 3.74842 8.1328 3.54552 8.1328 3.33334ZM9.20051 3.33334C9.20051 3.82841 9.0037 4.30359 8.65363 4.65366C8.3474 4.95988 7.94541 5.14892 7.51821 5.19142L7.33332 5.20053C6.83825 5.20053 6.36307 5.00372 6.013 4.65366C5.66294 4.30359 5.46613 3.82841 5.46613 3.33334C5.46613 2.83827 5.66294 2.3631 6.013 2.01303C6.36307 1.66296 6.83825 1.46616 7.33332 1.46616L7.51821 1.47527C7.94541 1.51777 8.3474 1.7068 8.65363 2.01303C9.0037 2.3631 9.20051 2.83827 9.20051 3.33334Z" fill="#292F37"/>
<path d="M6.79946 4.66668C6.79946 4.37213 7.03877 4.13282 7.33332 4.13282C7.62787 4.13282 7.86717 4.37213 7.86717 4.66668V9.46616H9.99998L10.1198 9.48048C10.2357 9.50722 10.3409 9.57197 10.4167 9.66668L13.0833 13L13.1419 13.0912C13.2547 13.312 13.2012 13.5891 13 13.75C12.7986 13.9111 12.5162 13.9024 12.3255 13.7435L12.25 13.6667L9.74347 10.5339H7.33332C7.03877 10.5339 6.79946 10.2946 6.79946 10V4.66668Z" fill="#292F37"/>
<path d="M10.6667 6.79949L10.7747 6.81121C11.0174 6.86118 11.2005 7.07584 11.2005 7.33334C11.2005 7.59085 11.0174 7.8055 10.7747 7.85548L10.6667 7.8672H7.33332C7.03877 7.8672 6.79946 7.6279 6.79946 7.33334C6.79946 7.03879 7.03877 6.79949 7.33332 6.79949H10.6667Z" fill="#292F37"/>
<path d="M4.56573 7.14324C4.80932 7.09601 5.06074 7.22419 5.15948 7.46225C5.27218 7.73439 5.14256 8.04616 4.87042 8.15886L4.57875 8.30079C4.29571 8.45857 4.04099 8.66425 3.82745 8.91017C3.54274 9.23811 3.33796 9.62889 3.2298 10.0495C3.12177 10.4699 3.11392 10.9102 3.20506 11.3346C3.29628 11.759 3.48466 12.1571 3.75584 12.4961C4.02704 12.835 4.37358 13.1057 4.76756 13.2878C5.16165 13.4699 5.59275 13.5587 6.02667 13.5456C6.46076 13.5324 6.88642 13.418 7.26886 13.2122C7.65129 13.0065 7.98091 12.7144 8.2311 12.3594L8.30141 12.2774C8.48192 12.1077 8.76275 12.0825 8.97329 12.2305C9.21405 12.4002 9.27188 12.7332 9.10219 12.974L8.96808 13.1537C8.64236 13.5631 8.23616 13.9024 7.77407 14.1511C7.24593 14.4352 6.65868 14.5925 6.05922 14.6107C5.45988 14.6289 4.86397 14.508 4.31964 14.2565C3.7754 14.005 3.29705 13.6297 2.9225 13.1615C2.54811 12.6934 2.28801 12.1446 2.16209 11.5586C2.03622 10.9724 2.04799 10.3645 2.19724 9.78386C2.34662 9.20303 2.62959 8.66382 3.02276 8.21095C3.41585 7.75835 3.90901 7.40386 4.46287 7.17449L4.56573 7.14324Z" fill="#292F37"/>
</svg>
