<svg width="20" height="20" viewBox="0 0 20 20" fill="none" xmlns="http://www.w3.org/2000/svg">
<path d="M7.49954 14.7917C7.15788 14.7917 6.87454 14.5084 6.87454 14.1667V10.6751L6.27454 11.2751C6.03288 11.5167 5.63288 11.5167 5.39121 11.2751C5.14954 11.0334 5.14954 10.6334 5.39121 10.3917L7.05788 8.72507C7.23288 8.55007 7.50788 8.49174 7.74121 8.59174C7.97454 8.68341 8.12454 8.91674 8.12454 9.16674V14.1667C8.12454 14.5084 7.84121 14.7917 7.49954 14.7917Z" fill="#292F37"/>
<path d="M9.16624 11.4585C9.00791 11.4585 8.84958 11.4002 8.72458 11.2752L7.05787 9.60853C6.8162 9.36686 6.8162 8.96686 7.05787 8.7252C7.29953 8.48353 7.69953 8.48353 7.9412 8.7252L9.60791 10.3919C9.84958 10.6335 9.84958 11.0335 9.60791 11.2752C9.48291 11.4002 9.32458 11.4585 9.16624 11.4585Z" fill="#292F37"/>
<path d="M12.5 18.9587H7.49999C2.97499 18.9587 1.04166 17.0253 1.04166 12.5003V7.50033C1.04166 2.97533 2.97499 1.04199 7.49999 1.04199H11.6667C12.0083 1.04199 12.2917 1.32533 12.2917 1.66699C12.2917 2.00866 12.0083 2.29199 11.6667 2.29199H7.49999C3.65832 2.29199 2.29166 3.65866 2.29166 7.50033V12.5003C2.29166 16.342 3.65832 17.7087 7.49999 17.7087H12.5C16.3417 17.7087 17.7083 16.342 17.7083 12.5003V8.33366C17.7083 7.99199 17.9917 7.70866 18.3333 7.70866C18.675 7.70866 18.9583 7.99199 18.9583 8.33366V12.5003C18.9583 17.0253 17.025 18.9587 12.5 18.9587Z" fill="#292F37"/>
<path d="M18.3333 8.95841H15C12.15 8.95841 11.0417 7.85007 11.0417 5.00007V1.66674C11.0417 1.41674 11.1917 1.18341 11.425 1.09174C11.6583 0.991739 11.925 1.05007 12.1083 1.22507L18.775 7.89174C18.95 8.06674 19.0083 8.34175 18.9083 8.57508C18.8083 8.80841 18.5833 8.95841 18.3333 8.95841ZM12.2917 3.17507V5.00007C12.2917 7.15007 12.85 7.70841 15 7.70841H16.825L12.2917 3.17507Z" fill="#292F37"/>
</svg>
