<svg width="16" height="16" viewBox="0 0 16 16" fill="none" xmlns="http://www.w3.org/2000/svg">
<g clip-path="url(#clip0_8931_67611)">
<path d="M10 15.1654H6.00004C4.15337 15.1654 2.90204 14.7747 2.06337 13.9354C1.22471 13.096 0.833374 11.8454 0.833374 9.9987V5.9987C0.833374 4.15203 1.22404 2.9007 2.06337 2.06203C2.90271 1.22336 4.15337 0.832031 6.00004 0.832031H9.33337C9.46598 0.832031 9.59316 0.88471 9.68693 0.978478C9.7807 1.07225 9.83337 1.19942 9.83337 1.33203C9.83337 1.46464 9.7807 1.59182 9.68693 1.68558C9.59316 1.77935 9.46598 1.83203 9.33337 1.83203H6.00004C4.43604 1.83203 3.40937 2.13203 2.77004 2.7687C2.13071 3.40536 1.83337 4.4347 1.83337 5.9987V9.9987C1.83337 11.5627 2.13137 12.5894 2.77004 13.2287C3.40871 13.868 4.43604 14.1654 6.00004 14.1654H10C11.564 14.1654 12.5907 13.8674 13.23 13.2287C13.8694 12.59 14.1667 11.5627 14.1667 9.9987V6.66536C14.1667 6.53276 14.2194 6.40558 14.3132 6.31181C14.4069 6.21804 14.5341 6.16536 14.6667 6.16536C14.7993 6.16536 14.9265 6.21804 15.0203 6.31181C15.114 6.40558 15.1667 6.53276 15.1667 6.66536V9.9987C15.1667 11.8454 14.776 13.0967 13.9367 13.9354C13.0974 14.774 11.8467 15.1654 10 15.1654Z" fill="#000000"/>
<mask id="path-2-inside-1_8931_67611" fill="white">
<path d="M14.6667 7.16528H12C9.72137 7.16528 8.83337 6.27728 8.83337 3.99861V1.33194C8.83336 1.23304 8.86268 1.13636 8.91763 1.05412C8.97257 0.971884 9.05067 0.907789 9.14204 0.869943C9.2334 0.832183 9.3339 0.822353 9.43085 0.841695C9.5278 0.861037 9.61683 0.908682 9.68671 0.97861L15.02 6.31194C15.0899 6.38187 15.1374 6.47092 15.1567 6.56785C15.1759 6.66478 15.166 6.76525 15.1282 6.85656C15.0904 6.94787 15.0264 7.02592 14.9443 7.08087C14.8621 7.13582 14.7655 7.16519 14.6667 7.16528ZM9.83337 2.53928V3.99861C9.83337 5.71994 10.2787 6.16528 12 6.16528H13.4594L9.83337 2.53928Z"/>
</mask>
<path d="M14.6667 7.16528H12C9.72137 7.16528 8.83337 6.27728 8.83337 3.99861V1.33194C8.83336 1.23304 8.86268 1.13636 8.91763 1.05412C8.97257 0.971884 9.05067 0.907789 9.14204 0.869943C9.2334 0.832183 9.3339 0.822353 9.43085 0.841695C9.5278 0.861037 9.61683 0.908682 9.68671 0.97861L15.02 6.31194C15.0899 6.38187 15.1374 6.47092 15.1567 6.56785C15.1759 6.66478 15.166 6.76525 15.1282 6.85656C15.0904 6.94787 15.0264 7.02592 14.9443 7.08087C14.8621 7.13582 14.7655 7.16519 14.6667 7.16528ZM9.83337 2.53928V3.99861C9.83337 5.71994 10.2787 6.16528 12 6.16528H13.4594L9.83337 2.53928Z" fill="#000000"/>
<path d="M14.6667 7.16528V9.16528L14.6685 9.16527L14.6667 7.16528ZM8.83337 1.33194H10.8334V1.33172L8.83337 1.33194ZM9.14204 0.869943L8.37811 -0.978412L8.37671 -0.97783L9.14204 0.869943ZM9.68671 0.97861L8.27197 2.3923L8.27249 2.39282L9.68671 0.97861ZM15.02 6.31194L16.4351 4.89861L16.4343 4.89773L15.02 6.31194ZM9.83337 2.53928L11.2476 1.12506L7.83337 -2.28915L7.83337 2.53928H9.83337ZM13.4594 6.16528V8.16528H18.2878L14.8736 4.75106L13.4594 6.16528ZM14.6667 5.16528H12V9.16528H14.6667V5.16528ZM12 5.16528C11.0453 5.16528 10.9193 4.96515 10.9764 5.02223C11.0335 5.07931 10.8334 4.95333 10.8334 3.99861H6.83337C6.83337 5.32255 7.07725 6.77991 8.14799 7.85066C9.21874 8.9214 10.6761 9.16528 12 9.16528V5.16528ZM10.8334 3.99861V1.33194H6.83337V3.99861H10.8334ZM10.8334 1.33172C10.8334 1.62842 10.7454 1.91847 10.5806 2.16518L7.25463 -0.0569404C6.97992 0.354242 6.83332 0.83766 6.83337 1.33217L10.8334 1.33172ZM10.5806 2.16518C10.4158 2.41189 10.1815 2.60418 9.90737 2.71772L8.37671 -0.97783C7.91984 -0.788598 7.52935 -0.468123 7.25463 -0.0569404L10.5806 2.16518ZM9.90597 2.7183C9.63189 2.83158 9.33038 2.86107 9.03954 2.80304L9.82216 -1.11965C9.33743 -1.21636 8.83492 -1.16721 8.37811 -0.978412L9.90597 2.7183ZM9.03954 2.80304C8.7487 2.74502 8.4816 2.60208 8.27197 2.3923L11.1014 -0.435079C10.7521 -0.784717 10.3069 -1.02294 9.82216 -1.11965L9.03954 2.80304ZM8.27249 2.39282L13.6058 7.72616L16.4343 4.89773L11.1009 -0.435604L8.27249 2.39282ZM13.6049 7.72528C13.3954 7.5155 13.2528 7.24835 13.195 6.95755L17.1184 6.17815C17.0221 5.69349 16.7843 5.24823 16.4351 4.89861L13.6049 7.72528ZM13.195 6.95755C13.1372 6.66676 13.167 6.36536 13.2804 6.09143L16.9761 7.62169C17.1651 7.16514 17.2146 6.66281 17.1184 6.17815L13.195 6.95755ZM13.2804 6.09143C13.3938 5.8175 13.5859 5.58333 13.8323 5.41849L16.0562 8.74325C16.467 8.46852 16.7871 8.07824 16.9761 7.62169L13.2804 6.09143ZM13.8323 5.41849C14.0787 5.25365 14.3685 5.16554 14.6649 5.16528L14.6685 9.16527C15.1626 9.16484 15.6455 9.01798 16.0562 8.74325L13.8323 5.41849ZM7.83337 2.53928V3.99861H11.8334V2.53928H7.83337ZM7.83337 3.99861C7.83337 4.85905 7.89892 6.18358 8.85699 7.14166C9.81507 8.09973 11.1396 8.16528 12 8.16528V4.16528C11.8256 4.16528 11.6912 4.15953 11.5877 4.15045C11.4836 4.1413 11.4274 4.13015 11.4055 4.12485C11.3846 4.11981 11.4128 4.12433 11.469 4.15309C11.5294 4.184 11.6078 4.23556 11.6854 4.31323C11.7631 4.3909 11.8147 4.46926 11.8456 4.52966C11.8743 4.58588 11.8788 4.614 11.8738 4.59316C11.8685 4.57125 11.8573 4.51505 11.8482 4.41092C11.8391 4.30748 11.8334 4.17302 11.8334 3.99861H7.83337ZM12 8.16528H13.4594V4.16528H12V8.16528ZM14.8736 4.75106L11.2476 1.12506L8.41916 3.95349L12.0452 7.57949L14.8736 4.75106Z" fill="#000000" mask="url(#path-2-inside-1_8931_67611)"/>
<path d="M6.13333 12.0987C5.61251 12.0987 5.10338 11.9443 4.67033 11.6549C4.23728 11.3655 3.89976 10.9543 3.70045 10.4731C3.50114 9.99192 3.44899 9.46244 3.5506 8.95163C3.65221 8.44081 3.90301 7.9716 4.27129 7.60332C4.63956 7.23504 5.10878 6.98424 5.6196 6.88263C6.13041 6.78102 6.65989 6.83317 7.14107 7.03248C7.62225 7.23179 8.03352 7.56931 8.32287 8.00236C8.61223 8.43541 8.76667 8.94454 8.76667 9.46537C8.76596 10.1636 8.4883 10.8329 7.9946 11.3266C7.50091 11.8203 6.83152 12.098 6.13333 12.0987ZM6.13333 7.83203C5.81029 7.83203 5.4945 7.92783 5.2259 8.1073C4.9573 8.28677 4.74795 8.54186 4.62433 8.84032C4.50071 9.13877 4.46836 9.46718 4.53139 9.78401C4.59441 10.1008 4.74997 10.3919 4.97839 10.6203C5.20682 10.8487 5.49785 11.0043 5.81469 11.0673C6.13152 11.1303 6.45993 11.098 6.75838 10.9744C7.05684 10.8507 7.31193 10.6414 7.4914 10.3728C7.67087 10.1042 7.76667 9.78841 7.76667 9.46537C7.76614 9.03234 7.59389 8.6172 7.28769 8.31101C6.9815 8.00481 6.56636 7.83256 6.13333 7.83203Z" fill="#000000"/>
<path d="M8.66672 12.4983C8.60106 12.4983 8.53606 12.4853 8.47542 12.4602C8.41479 12.435 8.35972 12.3981 8.31338 12.3516L7.64672 11.6849C7.55308 11.5912 7.50049 11.4641 7.50049 11.3316C7.50049 11.1991 7.55308 11.072 7.64672 10.9783C7.74047 10.8846 7.86755 10.832 8.00005 10.832C8.13255 10.832 8.25963 10.8846 8.35338 10.9783L9.02005 11.6449C9.08989 11.7148 9.13744 11.8039 9.15669 11.9008C9.17595 11.9978 9.16605 12.0982 9.12824 12.1895C9.09043 12.2808 9.02641 12.3589 8.94427 12.4139C8.86213 12.4688 8.76554 12.4982 8.66672 12.4983Z" fill="#000000"/>
</g>
<defs>
<clipPath id="clip0_8931_67611">
<rect width="16" height="16" fill="white"/>
</clipPath>
</defs>
</svg>
