<svg width="16" height="16" viewBox="0 0 16 16" fill="none" xmlns="http://www.w3.org/2000/svg">
<g clip-path="url(#clip0_8931_29993)">
<path d="M7.33329 11.833C7.20663 11.833 7.07996 11.7863 6.97996 11.6863C6.78663 11.493 6.78663 11.173 6.97996 10.9796L7.45996 10.4996H4.66663C4.39329 10.4996 4.16663 10.273 4.16663 9.99963C4.16663 9.7263 4.39329 9.49963 4.66663 9.49963H7.45996L6.97996 9.01963C6.87996 8.91963 6.83329 8.79297 6.83329 8.6663C6.83329 8.53964 6.87996 8.41297 6.97996 8.31297C7.17329 8.11964 7.49329 8.11964 7.68663 8.31297L9.01996 9.6463C9.10663 9.73297 9.15329 9.8463 9.15996 9.95297C9.15996 9.9863 9.15996 10.0263 9.15996 10.0596C9.14663 10.153 9.10663 10.2396 9.03996 10.3196C9.03329 10.3263 9.01996 10.3396 9.01329 10.3463L7.67996 11.6796C7.58663 11.7863 7.45996 11.833 7.33329 11.833Z" fill="#000000"/>
<mask id="path-2-inside-1_8931_29993" fill="white">
<path d="M10 15.1654H6.00004C2.38004 15.1654 0.833374 13.6187 0.833374 9.9987V5.9987C0.833374 2.3787 2.38004 0.832031 6.00004 0.832031H9.33337C9.60671 0.832031 9.83337 1.0587 9.83337 1.33203C9.83337 1.60536 9.60671 1.83203 9.33337 1.83203H6.00004C2.92671 1.83203 1.83337 2.92536 1.83337 5.9987V9.9987C1.83337 13.072 2.92671 14.1654 6.00004 14.1654H10C13.0734 14.1654 14.1667 13.072 14.1667 9.9987V6.66536C14.1667 6.39203 14.3934 6.16536 14.6667 6.16536C14.94 6.16536 15.1667 6.39203 15.1667 6.66536V9.9987C15.1667 13.6187 13.62 15.1654 10 15.1654Z"/>
</mask>
<path d="M10 15.1654H6.00004C2.38004 15.1654 0.833374 13.6187 0.833374 9.9987V5.9987C0.833374 2.3787 2.38004 0.832031 6.00004 0.832031H9.33337C9.60671 0.832031 9.83337 1.0587 9.83337 1.33203C9.83337 1.60536 9.60671 1.83203 9.33337 1.83203H6.00004C2.92671 1.83203 1.83337 2.92536 1.83337 5.9987V9.9987C1.83337 13.072 2.92671 14.1654 6.00004 14.1654H10C13.0734 14.1654 14.1667 13.072 14.1667 9.9987V6.66536C14.1667 6.39203 14.3934 6.16536 14.6667 6.16536C14.94 6.16536 15.1667 6.39203 15.1667 6.66536V9.9987C15.1667 13.6187 13.62 15.1654 10 15.1654Z" fill="#000000"/>
<path d="M10 13.1654H6.00004V17.1654H10V13.1654ZM6.00004 13.1654C4.41962 13.1654 3.76807 12.82 3.47342 12.5253C3.17877 12.2307 2.83337 11.5791 2.83337 9.9987H-1.16663C-1.16663 12.0383 -0.738691 13.9701 0.644994 15.3537C2.02868 16.7374 3.96046 17.1654 6.00004 17.1654V13.1654ZM2.83337 9.9987V5.9987H-1.16663V9.9987H2.83337ZM2.83337 5.9987C2.83337 4.41828 3.17877 3.76673 3.47342 3.47208C3.76807 3.17743 4.41962 2.83203 6.00004 2.83203V-1.16797C3.96046 -1.16797 2.02868 -0.740034 0.644994 0.643651C-0.738691 2.02734 -1.16663 3.95912 -1.16663 5.9987H2.83337ZM6.00004 2.83203H9.33337V-1.16797H6.00004V2.83203ZM9.33337 2.83203C8.50214 2.83203 7.83337 2.16327 7.83337 1.33203H11.8334C11.8334 -0.0458716 10.7113 -1.16797 9.33337 -1.16797V2.83203ZM7.83337 1.33203C7.83337 0.500795 8.50214 -0.167969 9.33337 -0.167969V3.83203C10.7113 3.83203 11.8334 2.70993 11.8334 1.33203H7.83337ZM9.33337 -0.167969H6.00004V3.83203H9.33337V-0.167969ZM6.00004 -0.167969C4.32227 -0.167969 2.589 0.109648 1.34999 1.34865C0.110991 2.58765 -0.166626 4.32092 -0.166626 5.9987H3.83337C3.83337 4.60314 4.10242 4.25307 4.17842 4.17708C4.25442 4.10108 4.60448 3.83203 6.00004 3.83203V-0.167969ZM-0.166626 5.9987V9.9987H3.83337V5.9987H-0.166626ZM-0.166626 9.9987C-0.166626 11.6765 0.110991 13.4097 1.34999 14.6487C2.589 15.8877 4.32227 16.1654 6.00004 16.1654V12.1654C4.60448 12.1654 4.25442 11.8963 4.17842 11.8203C4.10242 11.7443 3.83337 11.3943 3.83337 9.9987H-0.166626ZM6.00004 16.1654H10V12.1654H6.00004V16.1654ZM10 16.1654C11.6778 16.1654 13.4111 15.8877 14.6501 14.6487C15.8891 13.4097 16.1667 11.6765 16.1667 9.9987H12.1667C12.1667 11.3943 11.8977 11.7443 11.8217 11.8203C11.7457 11.8963 11.3956 12.1654 10 12.1654V16.1654ZM16.1667 9.9987V6.66536H12.1667V9.9987H16.1667ZM16.1667 6.66536C16.1667 7.4966 15.4979 8.16536 14.6667 8.16536V4.16536C13.2888 4.16536 12.1667 5.28746 12.1667 6.66536H16.1667ZM14.6667 8.16536C13.8355 8.16536 13.1667 7.4966 13.1667 6.66536H17.1667C17.1667 5.28746 16.0446 4.16536 14.6667 4.16536V8.16536ZM13.1667 6.66536V9.9987H17.1667V6.66536H13.1667ZM13.1667 9.9987C13.1667 11.5791 12.8213 12.2307 12.5267 12.5253C12.232 12.82 11.5805 13.1654 10 13.1654V17.1654C12.0396 17.1654 13.9714 16.7374 15.3551 15.3537C16.7388 13.9701 17.1667 12.0383 17.1667 9.9987H13.1667Z" fill="#000000" mask="url(#path-2-inside-1_8931_29993)"/>
<path d="M14.6667 7.16829H12C9.72004 7.16829 8.83337 6.28162 8.83337 4.00162V1.33495C8.83337 1.13495 8.95337 0.948287 9.14004 0.874953C9.32671 0.794953 9.54004 0.84162 9.68671 0.98162L15.02 6.31495C15.16 6.45495 15.2067 6.67496 15.1267 6.86163C15.0467 7.04829 14.8667 7.16829 14.6667 7.16829ZM9.83337 2.54162V4.00162C9.83337 5.72162 10.28 6.16829 12 6.16829H13.46L9.83337 2.54162Z" fill="#000000"/>
</g>
<defs>
<clipPath id="clip0_8931_29993">
<rect width="16" height="16" fill="white"/>
</clipPath>
</defs>
</svg>
