<svg width="16" height="16" viewBox="0 0 16 16" fill="none" xmlns="http://www.w3.org/2000/svg">
<g id="dollar-circle" clip-path="url(#clip0_689_8976)">
<path id="Vector" d="M8.93346 11.6134H7.26013C6.16677 11.6134 5.2801 10.6934 5.2801 9.56007C5.2801 9.28673 5.50677 9.06007 5.7801 9.06007C6.05344 9.06007 6.2801 9.28673 6.2801 9.56007C6.2801 10.1401 6.72013 10.6134 7.26013 10.6134H8.93346C9.3668 10.6134 9.7268 10.2267 9.7268 9.76006C9.7268 9.18006 9.52013 9.06673 9.18013 8.94673L6.49344 8.00007C5.97344 7.82007 5.27344 7.4334 5.27344 6.24005C5.27344 5.21339 6.0801 4.38672 7.0668 4.38672H8.74013C9.83346 4.38672 10.7201 5.30672 10.7201 6.44005C10.7201 6.7134 10.4935 6.94007 10.2201 6.94007C9.9468 6.94007 9.72013 6.7134 9.72013 6.44005C9.72013 5.86005 9.28013 5.38672 8.74013 5.38672H7.0668C6.63344 5.38672 6.27344 5.77339 6.27344 6.24005C6.27344 6.82007 6.4801 6.9334 6.82013 7.0534L9.5068 8.00007C10.0268 8.18007 10.7268 8.56673 10.7268 9.76006C10.7201 10.7801 9.92013 11.6134 8.93346 11.6134Z" fill="#63637E"/>
<path id="Vector_2" d="M8 12.5C7.72667 12.5 7.5 12.2733 7.5 12V4C7.5 3.72667 7.72667 3.5 8 3.5C8.27333 3.5 8.5 3.72667 8.5 4V12C8.5 12.2733 8.27333 12.5 8 12.5Z" fill="#63637E"/>
<path id="Vector_3" d="M8.00001 15.1668C4.04668 15.1668 0.833344 11.9535 0.833344 8.00016C0.833344 4.04683 4.04668 0.833496 8.00001 0.833496C11.9533 0.833496 15.1667 4.04683 15.1667 8.00016C15.1667 11.9535 11.9533 15.1668 8.00001 15.1668ZM8.00001 1.8335C4.60001 1.8335 1.83334 4.60016 1.83334 8.00016C1.83334 11.4002 4.60001 14.1668 8.00001 14.1668C11.4 14.1668 14.1667 11.4002 14.1667 8.00016C14.1667 4.60016 11.4 1.8335 8.00001 1.8335Z" fill="#63637E"/>
</g>
<defs>
<clipPath id="clip0_689_8976">
<rect width="16" height="16" fill="white"/>
</clipPath>
</defs>
</svg>
