<svg width="18" height="18" viewBox="0 0 18 18" fill="none" xmlns="http://www.w3.org/2000/svg">
<g clip-path="url(#clip0_3345_2299)">
<path d="M10.0501 13.0656H8.16765C6.93762 13.0656 5.94012 12.0306 5.94012 10.7556C5.94012 10.4481 6.19512 10.1931 6.50262 10.1931C6.81012 10.1931 7.06512 10.4481 7.06512 10.7556C7.06512 11.4081 7.56015 11.9406 8.16765 11.9406H10.0501C10.5376 11.9406 10.9426 11.5056 10.9426 10.9806C10.9426 10.3281 10.7101 10.2006 10.3276 10.0656L7.30512 9.00056C6.72012 8.79806 5.93262 8.36306 5.93262 7.02055C5.93262 5.86555 6.84012 4.93555 7.95015 4.93555H9.83265C11.0626 4.93555 12.0601 5.97055 12.0601 7.24555C12.0601 7.55306 11.8051 7.80806 11.4976 7.80806C11.1901 7.80806 10.9351 7.55306 10.9351 7.24555C10.9351 6.59305 10.4401 6.06055 9.83265 6.06055H7.95015C7.46262 6.06055 7.05762 6.49555 7.05762 7.02055C7.05762 7.67306 7.29012 7.80056 7.67265 7.93556L10.6951 9.00056C11.2801 9.20306 12.0676 9.63806 12.0676 10.9806C12.0601 12.1281 11.1601 13.0656 10.0501 13.0656Z" fill="white"/>
<path d="M9 14.0625C8.6925 14.0625 8.4375 13.8075 8.4375 13.5V4.5C8.4375 4.1925 8.6925 3.9375 9 3.9375C9.3075 3.9375 9.5625 4.1925 9.5625 4.5V13.5C9.5625 13.8075 9.3075 14.0625 9 14.0625Z" fill="white"/>
<path d="M9 17.0625C4.5525 17.0625 0.9375 13.4475 0.9375 9C0.9375 4.5525 4.5525 0.9375 9 0.9375C13.4475 0.9375 17.0625 4.5525 17.0625 9C17.0625 13.4475 13.4475 17.0625 9 17.0625ZM9 2.0625C5.175 2.0625 2.0625 5.175 2.0625 9C2.0625 12.825 5.175 15.9375 9 15.9375C12.825 15.9375 15.9375 12.825 15.9375 9C15.9375 5.175 12.825 2.0625 9 2.0625Z" fill="white"/>
</g>
<defs>
<clipPath id="clip0_3345_2299">
<rect width="18" height="18" fill="white"/>
</clipPath>
</defs>
</svg>
