<svg width="15" height="15" viewBox="0 0 15 15" fill="none" xmlns="http://www.w3.org/2000/svg">
<path d="M9.16667 14.5016H5.16667C1.54667 14.5016 0 12.955 0 9.33496V5.33496C0 1.71496 1.54667 0.168294 5.16667 0.168294H6.5C6.77333 0.168294 7 0.39496 7 0.668294C7 0.941627 6.77333 1.16829 6.5 1.16829H5.16667C2.09333 1.16829 1 2.26163 1 5.33496V9.33496C1 12.4083 2.09333 13.5016 5.16667 13.5016H9.16667C12.24 13.5016 13.3333 12.4083 13.3333 9.33496V8.00163C13.3333 7.72829 13.56 7.50163 13.8333 7.50163C14.1067 7.50163 14.3333 7.72829 14.3333 8.00163V9.33496C14.3333 12.955 12.7867 14.5016 9.16667 14.5016Z" fill="#292F37"/>
<path d="M4.8329 11.1284C4.42623 11.1284 4.0529 10.9817 3.77957 10.715C3.4529 10.3884 3.3129 9.91503 3.38623 9.41503L3.6729 7.40836C3.72623 7.02169 3.97957 6.52169 4.2529 6.24836L9.5062 0.995001C10.8329 -0.331667 12.1795 -0.331667 13.5062 0.995001C14.2329 1.72167 14.5595 2.46167 14.4929 3.20167C14.4329 3.80167 14.1129 4.38833 13.5062 4.98833L8.25287 10.2417C7.97953 10.515 7.47953 10.7684 7.09287 10.8217L5.08623 11.1084C4.99957 11.1284 4.9129 11.1284 4.8329 11.1284ZM10.2129 1.70167L4.95957 6.95503C4.8329 7.08169 4.68623 7.37503 4.65957 7.54836L4.3729 9.55503C4.34623 9.74836 4.38623 9.90836 4.48623 10.0084C4.58623 10.1084 4.74623 10.1484 4.93957 10.1217L6.9462 9.83503C7.11953 9.80836 7.41953 9.66169 7.53953 9.53503L12.7929 4.28167C13.2262 3.84833 13.4529 3.46167 13.4862 3.10167C13.5262 2.66833 13.2995 2.20833 12.7929 1.695C11.7262 0.628334 10.9929 0.928334 10.2129 1.70167Z" fill="#292F37"/>
<path d="M12.3997 5.88815C12.3531 5.88815 12.3064 5.88148 12.2664 5.86815C10.5131 5.37481 9.11973 3.98148 8.6264 2.22815C8.55307 1.96148 8.7064 1.68815 8.97307 1.60815C9.23973 1.53481 9.51307 1.68815 9.5864 1.95481C9.9864 3.37481 11.1131 4.50148 12.5331 4.90148C12.7997 4.97481 12.9531 5.25481 12.8797 5.52148C12.8197 5.74815 12.6197 5.88815 12.3997 5.88815Z" fill="#292F37"/>
</svg>
