<svg width="21" height="22" viewBox="0 0 21 22" fill="none" xmlns="http://www.w3.org/2000/svg">
<g id="export-3">
<path id="Vector" d="M11.3561 10.7857C11.1933 10.7857 11.0306 10.7258 10.9021 10.5973C10.6537 10.3489 10.6537 9.9378 10.9021 9.68942L17.9253 2.66627C18.1736 2.41789 18.5848 2.41789 18.8331 2.66627C19.0815 2.91464 19.0815 3.32576 18.8331 3.57414L11.81 10.5973C11.6815 10.7258 11.5188 10.7857 11.3561 10.7857Z" fill="#14141C"/>
<path id="Vector_2" d="M19.0641 7.1888C18.713 7.1888 18.4218 6.8976 18.4218 6.54644V3.07769H14.953C14.6019 3.07769 14.3107 2.78649 14.3107 2.43533C14.3107 2.08417 14.6019 1.79297 14.953 1.79297H19.0641C19.4153 1.79297 19.7065 2.08417 19.7065 2.43533V6.54644C19.7065 6.8976 19.4153 7.1888 19.0641 7.1888Z" fill="#14141C"/>
<path id="Vector_3" d="M13.0694 20.2073H7.93056C3.27986 20.2073 1.29282 18.2203 1.29282 13.5696V8.4307C1.29282 3.78001 3.27986 1.79297 7.93056 1.79297H9.64352C9.99468 1.79297 10.2859 2.08417 10.2859 2.43533C10.2859 2.78649 9.99468 3.07769 9.64352 3.07769H7.93056C3.98218 3.07769 2.57755 4.48232 2.57755 8.4307V13.5696C2.57755 17.518 3.98218 18.9226 7.93056 18.9226H13.0694C17.0178 18.9226 18.4225 17.518 18.4225 13.5696V11.8566C18.4225 11.5055 18.7137 11.2143 19.0648 11.2143C19.416 11.2143 19.7072 11.5055 19.7072 11.8566V13.5696C19.7072 18.2203 17.7201 20.2073 13.0694 20.2073Z" fill="#14141C"/>
</g>
</svg>
