<svg width="18" height="18" viewBox="0 0 18 18" fill="none" xmlns="http://www.w3.org/2000/svg">
<g clip-path="url(#clip0_5728_988)">
<path d="M7.10195 11.4599C6.95945 11.4599 6.81695 11.4074 6.70445 11.2949C6.08945 10.6799 5.75195 9.86243 5.75195 8.99993C5.75195 7.20744 7.20695 5.75244 8.99944 5.75244C9.86194 5.75244 10.6794 6.08994 11.2944 6.70494C11.3994 6.80994 11.4594 6.95244 11.4594 7.10244C11.4594 7.25244 11.3994 7.39494 11.2944 7.49994L7.49945 11.2949C7.38695 11.4074 7.24445 11.4599 7.10195 11.4599ZM8.99944 6.87744C7.82944 6.87744 6.87695 7.82993 6.87695 8.99993C6.87695 9.37493 6.97445 9.73493 7.15445 10.0499L10.0494 7.15494C9.73444 6.97494 9.37444 6.87744 8.99944 6.87744Z" fill="#0A0C0E"/>
<path d="M4.19988 13.8824C4.07238 13.8824 3.93738 13.8374 3.83238 13.7474C3.02988 13.0649 2.30988 12.2249 1.69488 11.2499C0.899883 10.0124 0.899883 7.99488 1.69488 6.74986C3.52488 3.88486 6.18738 2.23486 8.99985 2.23486C10.6499 2.23486 12.2774 2.80486 13.7024 3.87736C13.9499 4.06486 14.0024 4.41736 13.8149 4.66486C13.6274 4.91236 13.2749 4.96486 13.0274 4.77736C11.7974 3.84736 10.4024 3.35986 8.99985 3.35986C6.57738 3.35986 4.25988 4.81486 2.63988 7.35736C2.07738 8.23488 2.07738 9.76488 2.63988 10.6424C3.20238 11.5199 3.84738 12.2774 4.55988 12.8924C4.79238 13.0949 4.82238 13.4474 4.61988 13.6874C4.51488 13.8149 4.35738 13.8824 4.19988 13.8824Z" fill="#0A0C0E"/>
<path d="M8.99996 15.7651C8.00246 15.7651 7.02742 15.5626 6.08992 15.1651C5.80492 15.0451 5.66992 14.7151 5.78992 14.4301C5.90992 14.1451 6.23992 14.0101 6.52492 14.1301C7.31992 14.4676 8.15246 14.6401 8.99246 14.6401C11.415 14.6401 13.7325 13.1851 15.3525 10.6426C15.915 9.76512 15.915 8.23512 15.3525 7.35762C15.12 6.99012 14.8649 6.63762 14.595 6.30762C14.4 6.06762 14.4375 5.71512 14.6775 5.51262C14.9175 5.31762 15.2699 5.34762 15.4725 5.59512C15.765 5.95512 16.05 6.34512 16.305 6.75012C17.1 7.98762 17.1 10.0051 16.305 11.2501C14.475 14.1151 11.8125 15.7651 8.99996 15.7651Z" fill="#0A0C0E"/>
<path d="M9.51768 12.2028C9.25518 12.2028 9.01518 12.0153 8.96268 11.7453C8.90268 11.4378 9.10518 11.1453 9.41268 11.0928C10.2377 10.9428 10.9277 10.2528 11.0777 9.42776C11.1377 9.12026 11.4302 8.92526 11.7377 8.97776C12.0452 9.03776 12.2477 9.33026 12.1877 9.63776C11.9477 10.9353 10.9127 11.9628 9.62268 12.2028C9.58518 12.1953 9.55518 12.2028 9.51768 12.2028Z" fill="#0A0C0E"/>
<path d="M1.4991 17.0625C1.3566 17.0625 1.2141 17.01 1.1016 16.8975C0.884102 16.68 0.884102 16.32 1.1016 16.1025L6.7041 10.5C6.9216 10.2825 7.2816 10.2825 7.4991 10.5C7.71664 10.7175 7.71664 11.0775 7.4991 11.295L1.8966 16.8975C1.7841 17.01 1.6416 17.0625 1.4991 17.0625Z" fill="#0A0C0E"/>
<path d="M10.8975 7.66505C10.755 7.66505 10.6125 7.61255 10.5 7.50008C10.2825 7.28258 10.2825 6.92258 10.5 6.70508L16.1025 1.10258C16.32 0.885078 16.68 0.885078 16.8975 1.10258C17.115 1.32008 17.115 1.68008 16.8975 1.89758L11.295 7.50008C11.1825 7.61255 11.04 7.66505 10.8975 7.66505Z" fill="#0A0C0E"/>
</g>
<defs>
<clipPath id="clip0_5728_988">
<rect width="18" height="18" fill="white"/>
</clipPath>
</defs>
</svg>
