<?xml version="1.0" encoding="utf-8"?>
<!-- Generator: Adobe Illustrator 25.4.1, SVG Export Plug-In . SVG Version: 6.00 Build 0)  -->
<svg version="1.1" id="Capa_1" xmlns="http://www.w3.org/2000/svg" xmlns:xlink="http://www.w3.org/1999/xlink" x="0px" y="0px"
	 viewBox="0 0 20 20" style="enable-background:new 0 0 20 20;" xml:space="preserve">
<style type="text/css">
	.st0{fill:none;}
	.st1{fill:none;stroke:#404040;stroke-linecap:round;}
	.st2{fill:none;stroke:#404040;stroke-linecap:round;stroke-linejoin:round;}
	.st3{fill:none;stroke:#17191C;stroke-width:1.5;stroke-linecap:round;stroke-linejoin:round;}
	.st4{fill:none;stroke:#17191C;stroke-width:1.5;}
</style>
<path id="BG_1" class="st0" d="M0,0h20v20H0V0z"/>
<path id="Vector" class="st1" d="M11.7,7.8v2.4h2.2c0.2,0,0.2,0.2,0.2,0.3l-0.3,1.6c0,0.1-0.2,0.2-0.2,0.2h-1.8v6.1H9.2v-6H7.8
	c-0.1,0-0.2-0.1-0.2-0.2c0,0,0,0,0-0.1v-1.6c0-0.1,0.1-0.2,0.2-0.2c0,0,0,0,0.1,0h1.4V7.5c0-1.4,1.1-2.5,2.4-2.5c0,0,0.1,0,0.1,0
	h2.2c0.1,0,0.2,0.1,0.3,0.2c0,0,0,0,0,0.1v2c0,0.1-0.1,0.2-0.2,0.2c0,0,0,0-0.1,0h-2C11.8,7.5,11.7,7.6,11.7,7.8
	C11.7,7.7,11.7,7.7,11.7,7.8z"/>
<path id="Vector-2" class="st2" d="M12.5,18.3h-5c-4.2,0-5.8-1.7-5.8-5.8v-5c0-4.2,1.7-5.8,5.8-5.8h5c4.2,0,5.8,1.7,5.8,5.8v5
	C18.3,16.7,16.7,18.3,12.5,18.3z"/>
<path id="Vector-3" class="st0" d="M0,0h20v20H0V0z"/>
<g id="vuesax_linear_youtube" transform="translate(-416 -469)">
	<g id="youtube">
		<path id="BG_1-2" class="st0" d="M606,466.9h24v24h-24V466.9z"/>
		<path id="Vector-4" class="st3" d="M623,486.9h-10c-2.6,0.2-4.8-1.8-5-4.4c0-0.2,0-0.4,0-0.6v-6c-0.2-2.6,1.8-4.8,4.4-5
			c0.2,0,0.4,0,0.6,0h10c2.6-0.2,4.8,1.8,5,4.4c0,0.2,0,0.4,0,0.6v6c0.2,2.6-1.8,4.8-4.4,5C623.4,486.9,623.2,486.9,623,486.9z"/>
		<path id="Vector-5" class="st3" d="M617.4,476.4l2.5,1.5c0.6,0.3,0.8,0.9,0.6,1.5c-0.1,0.3-0.3,0.5-0.6,0.6l-2.5,1.5
			c-1,0.6-1.8,0.1-1.8-1v-3C615.6,476.2,616.4,475.8,617.4,476.4z"/>
		<path id="Vector-6" class="st0" d="M606,466.9h24v24h-24V466.9z"/>
	</g>
</g>
<g id="vuesax_linear_whatsapp" transform="translate(-416 -469)">
	<g id="whatsapp">
		<path id="BG_1-3" class="st0" d="M670,466.9h24v24h-24V466.9z"/>
		<path id="Vector-7" class="st3" d="M676.9,487.5c4.8,2.8,10.9,1.2,13.7-3.5s1.2-10.9-3.5-13.7s-10.9-1.2-13.7,3.5
			c-0.9,1.5-1.4,3.3-1.4,5.1c0,1.7,0.5,3.5,1.3,5l-1.3,5L676.9,487.5z"/>
		<path id="Vector-8" class="st4" d="M686.5,481.7c0,0.2,0,0.3-0.1,0.5c-0.1,0.2-0.2,0.3-0.3,0.5c-0.2,0.2-0.5,0.4-0.7,0.5
			c-0.3,0.1-0.6,0.2-0.9,0.2c-0.5,0-1-0.1-1.5-0.3c-0.5-0.2-1.1-0.5-1.5-0.9c-0.5-0.4-1-0.8-1.5-1.3c-0.5-0.5-0.9-0.9-1.3-1.5
			c-0.4-0.5-0.6-1-0.9-1.5c-0.2-0.5-0.3-1-0.3-1.5c0-0.3,0.1-0.6,0.2-0.9c0.1-0.3,0.3-0.5,0.5-0.8c0.2-0.3,0.6-0.4,0.9-0.4
			c0.1,0,0.3,0,0.4,0.1c0.1,0.1,0.2,0.1,0.3,0.3l1,1.5c0.1,0.1,0.1,0.2,0.2,0.3c0,0.1,0.1,0.2,0.1,0.3c0,0.1,0,0.2-0.1,0.3
			c-0.1,0.1-0.2,0.2-0.3,0.3l-0.3,0.4c0,0-0.1,0.1-0.1,0.2c0,0,0,0.1,0,0.1c0,0,0,0.1,0,0.1c0.1,0.2,0.3,0.4,0.4,0.6
			c0.2,0.2,0.4,0.5,0.7,0.7c0.2,0.2,0.5,0.5,0.7,0.7c0.2,0.2,0.4,0.3,0.6,0.4c0,0,0,0,0.1,0c0,0,0.1,0,0.1,0c0.1,0,0.1,0,0.2-0.1
			l0.3-0.3c0.1-0.1,0.2-0.2,0.3-0.3c0.1-0.1,0.2-0.1,0.3-0.1c0.1,0,0.2,0,0.3,0.1c0.1,0,0.2,0.1,0.3,0.2l1.5,1.1
			c0.1,0.1,0.2,0.2,0.2,0.3C686.5,481.5,686.5,481.6,686.5,481.7z"/>
		<path id="Vector-9" class="st0" d="M670,466.9h24v24h-24V466.9z"/>
	</g>
</g>
</svg>
