<?xml version="1.0" encoding="UTF-8"?>
<svg id="Capa_1" data-name="Capa 1" xmlns="http://www.w3.org/2000/svg" version="1.1" viewBox="0 0 65 44.1">
  <defs>
    <style>
      .cls-1 {
        fill: #0cbb4e;
      }

      .cls-1,
      .cls-2 {
        stroke-width: 0px;
      }

      .cls-2 {
        fill: #3dc971;
      }
    </style>
  </defs>
  <path class="cls-2"
    d="M38.5,21.3c0-.6,0-1.2,0-1.9C38.6,8.7,29.9,0,19.3,0S0,8.6,0,19.3h0v22.2c.1,1.4,1.3,2.5,2.7,2.5h7.2c1.6,0,2.8-1.4,2.8-3v-11.5c-.1,0-.1-8.2-.1-8.2,0-3.8,3.1-6.8,6.8-6.8s6.2,2.5,6.7,5.7l.2,21.2c0,1.4,1.2,2.5,2.6,2.5h7.2c1.6,0,2.8-1.4,2.8-3l-.4-19.6Z" />
  <path class="cls-1"
    d="M64.7,21.3c0-.6,0-1.2,0-1.9C64.7,8.7,56.1.1,45.4.1s-19.3,8.6-19.3,19.3h0v22.2c0,1.4,1.3,2.5,2.7,2.5h7.2c1.6,0,2.8-1.4,2.8-3v-11.5c0,0,0-8.2,0-8.2,0-3.8,3.1-6.8,6.8-6.8s6.2,2.5,6.7,5.7l.2,21.2c0,1.4,1.2,2.5,2.6,2.5h7.2c1.6,0,2.8-1.4,2.8-3l-.3-19.7Z" />
</svg>