<?xml version="1.0" encoding="utf-8"?>
<!-- Generator: Adobe Illustrator 25.4.1, SVG Export Plug-In . SVG Version: 6.00 Build 0)  -->
<svg version="1.1" id="Capa_1" xmlns="http://www.w3.org/2000/svg" xmlns:xlink="http://www.w3.org/1999/xlink" x="0px" y="0px"
	 viewBox="0 0 65 44.1" style="enable-background:new 0 0 65 44.1;" xml:space="preserve">
<style type="text/css">
	.st0{fill:#00FBA3;}
	.st1{fill:#00DF98;}
</style>
<g>
	<path class="st0" d="M38.6,21.3c0.1-0.6,0.1-1.2,0.1-1.9C38.7,8.7,30,0,19.4,0C8.7,0,0.1,8.6,0,19.3l0,0l0.1,22.2
		c0,1.4,1.2,2.5,2.6,2.5L9.9,44c1.6,0,2.8-1.3,2.8-2.9l-0.1-11.5v-8.2c0-3.8,3.1-6.8,6.8-6.8c3.4,0,6.2,2.5,6.7,5.7l0.2,21.2
		c0,1.4,1.2,2.5,2.6,2.5L36,44c1.6,0,2.8-1.3,2.8-2.9L38.6,21.3z"/>
	<path class="st1" d="M64.8,21.3c0.1-0.6,0.1-1.2,0.1-1.9C64.8,8.7,56.2,0,45.5,0C34.8,0,26.2,8.6,26.2,19.3l0,0l0.1,22.2
		c0,1.4,1.2,2.5,2.6,2.5L36,44c1.6,0,2.8-1.3,2.8-2.9l-0.1-11.5v-8.2c0-3.8,3.1-6.8,6.8-6.8c3.4,0,6.2,2.5,6.7,5.7l0.2,21.2
		c0,1.4,1.2,2.5,2.6,2.5l7.2-0.1c1.6,0,2.8-1.3,2.8-2.9L64.8,21.3z"/>
</g>
</svg>
