<svg width="16" height="17" viewBox="0 0 16 17" fill="none" xmlns="http://www.w3.org/2000/svg">
<g id="filter-search">
<g id="Vector">
<path d="M7.28736 15.6667C6.96736 15.6667 6.64738 15.5867 6.35404 15.4267C5.76071 15.0933 5.40735 14.5 5.40735 13.8267V10.26C5.40735 9.92 5.18734 9.42 4.98067 9.16L2.44735 6.50002C2.02735 6.08002 1.70068 5.34668 1.70068 4.80668V3.26003C1.70068 2.1867 2.51403 1.34668 3.54736 1.34668H12.4407C13.4607 1.34668 14.2874 2.17336 14.2874 3.19336V4.67336C14.2874 5.37336 13.8674 6.18001 13.4674 6.57335C13.274 6.76668 12.954 6.76668 12.7607 6.57335C12.5674 6.38001 12.5674 6.06001 12.7607 5.86668C13.0074 5.62001 13.2874 5.06669 13.2874 4.67336V3.19336C13.2874 2.72669 12.9074 2.34668 12.4407 2.34668H3.54736C3.07403 2.34668 2.70068 2.7467 2.70068 3.26003V4.80668C2.70068 5.05335 2.90068 5.54003 3.16068 5.80003L5.72738 8.5C6.06738 8.92 6.40068 9.62667 6.40068 10.26V13.8267C6.40068 14.2667 6.7007 14.48 6.83403 14.5533C7.1207 14.7133 7.4607 14.7067 7.72736 14.5467L8.6607 13.9467C8.85403 13.8333 9.0407 13.4667 9.0407 13.22C9.0407 12.9467 9.26736 12.72 9.5407 12.72C9.81403 12.72 10.0407 12.9467 10.0407 13.22C10.0407 13.82 9.66736 14.5067 9.19403 14.7933L8.26736 15.3933C7.96736 15.5733 7.62736 15.6667 7.28736 15.6667Z" fill="#0A0C0E"/>
<path d="M10.7142 12.0134C9.2609 12.0134 8.0809 10.8334 8.0809 9.38007C8.0809 7.92673 9.2609 6.74675 10.7142 6.74675C12.1676 6.74675 13.3476 7.92673 13.3476 9.38007C13.3476 10.8334 12.1676 12.0134 10.7142 12.0134ZM10.7142 7.74673C9.81423 7.74673 9.0809 8.48007 9.0809 9.38007C9.0809 10.2801 9.81423 11.0134 10.7142 11.0134C11.6142 11.0134 12.3476 10.2801 12.3476 9.38007C12.3476 8.48007 11.6142 7.74673 10.7142 7.74673Z" fill="#0A0C0E"/>
<path d="M13.2472 12.4134C13.1205 12.4134 12.9938 12.3667 12.8938 12.2667L12.2272 11.6001C12.0338 11.4067 12.0338 11.0867 12.2272 10.8934C12.4205 10.7001 12.7405 10.7001 12.9338 10.8934L13.6005 11.5601C13.7938 11.7534 13.7938 12.0734 13.6005 12.2667C13.5072 12.3601 13.3738 12.4134 13.2472 12.4134Z" fill="#0A0C0E"/>
</g>
</g>
</svg>
