<svg width="18" height="18" viewBox="0 0 18 18" fill="none" xmlns="http://www.w3.org/2000/svg">
<g clip-path="url(#clip0_3345_6699)">
<path d="M11.25 17.0625H6.75C2.6775 17.0625 0.9375 15.3225 0.9375 11.25V6.75C0.9375 2.6775 2.6775 0.9375 6.75 0.9375H11.25C15.3225 0.9375 17.0625 2.6775 17.0625 6.75V11.25C17.0625 15.3225 15.3225 17.0625 11.25 17.0625ZM6.75 2.0625C3.2925 2.0625 2.0625 3.2925 2.0625 6.75V11.25C2.0625 14.7075 3.2925 15.9375 6.75 15.9375H11.25C14.7075 15.9375 15.9375 14.7075 15.9375 11.25V6.75C15.9375 3.2925 14.7075 2.0625 11.25 2.0625H6.75Z" fill="white"/>
<path d="M9 17.0625C8.6925 17.0625 8.4375 16.8075 8.4375 16.5V1.5C8.4375 1.1925 8.6925 0.9375 9 0.9375C9.3075 0.9375 9.5625 1.1925 9.5625 1.5V16.5C9.5625 16.8075 9.3075 17.0625 9 17.0625Z" fill="white"/>
<path d="M9 7.6875H1.5C1.1925 7.6875 0.9375 7.4325 0.9375 7.125C0.9375 6.8175 1.1925 6.5625 1.5 6.5625H9C9.3075 6.5625 9.5625 6.8175 9.5625 7.125C9.5625 7.4325 9.3075 7.6875 9 7.6875Z" fill="white"/>
<path d="M16.5 11.4375H9C8.6925 11.4375 8.4375 11.1825 8.4375 10.875C8.4375 10.5675 8.6925 10.3125 9 10.3125H16.5C16.8075 10.3125 17.0625 10.5675 17.0625 10.875C17.0625 11.1825 16.8075 11.4375 16.5 11.4375Z" fill="white"/>
</g>
<defs>
<clipPath id="clip0_3345_6699">
<rect width="18" height="18" fill="white"/>
</clipPath>
</defs>
</svg>
