<svg width="18" height="18" viewBox="0 0 18 18" fill="none" xmlns="http://www.w3.org/2000/svg">
<path d="M15.0302 5.11624L10.7102 2.09374C9.53265 1.26874 7.72515 1.31374 6.59268 2.19124L2.83518 5.12373C2.08518 5.70873 1.49268 6.90873 1.49268 7.8537V13.0287C1.49268 14.9412 3.04518 16.5012 4.95768 16.5012H13.0427C14.9552 16.5012 16.5077 14.9487 16.5077 13.0362V7.9512C16.5077 6.93874 15.8552 5.69374 15.0302 5.11624ZM9.56265 13.5012C9.56265 13.8087 9.30765 14.0637 9.00015 14.0637C8.69265 14.0637 8.43765 13.8087 8.43765 13.5012V11.2512C8.43765 10.9437 8.69265 10.6887 9.00015 10.6887C9.30765 10.6887 9.56265 10.9437 9.56265 11.2512V13.5012Z" fill="#66C1EA"/>
</svg>
