<svg width="16" height="16" viewBox="0 0 16 16" fill="none" xmlns="http://www.w3.org/2000/svg">
<g clip-path="url(#clip0_1824_15)">
<path d="M8.00001 15.1666C4.04668 15.1666 0.833344 11.9533 0.833344 7.99998C0.833344 4.04665 4.04668 0.833313 8.00001 0.833313C11.9533 0.833313 15.1667 4.04665 15.1667 7.99998C15.1667 11.9533 11.9533 15.1666 8.00001 15.1666ZM8.00001 1.83331C4.60001 1.83331 1.83334 4.59998 1.83334 7.99998C1.83334 11.4 4.60001 14.1666 8.00001 14.1666C11.4 14.1666 14.1667 11.4 14.1667 7.99998C14.1667 4.59998 11.4 1.83331 8.00001 1.83331Z" fill="#E10000"/>
<path d="M8.00001 9.16665C7.72668 9.16665 7.50001 8.93998 7.50001 8.66665V5.33331C7.50001 5.05998 7.72668 4.83331 8.00001 4.83331C8.27334 4.83331 8.50001 5.05998 8.50001 5.33331V8.66665C8.50001 8.93998 8.27334 9.16665 8.00001 9.16665Z" fill="#E10000"/>
<path d="M8.00001 11.3332C7.91334 11.3332 7.82668 11.3132 7.74668 11.2799C7.66668 11.2466 7.59334 11.1999 7.52668 11.1399C7.46668 11.0732 7.42001 11.0066 7.38668 10.9199C7.35334 10.8399 7.33334 10.7532 7.33334 10.6666C7.33334 10.5799 7.35334 10.4932 7.38668 10.4132C7.42001 10.3332 7.46668 10.2599 7.52668 10.1932C7.59334 10.1332 7.66668 10.0866 7.74668 10.0532C7.90668 9.98658 8.09334 9.98658 8.25334 10.0532C8.33334 10.0866 8.40668 10.1332 8.47334 10.1932C8.53334 10.2599 8.58001 10.3332 8.61334 10.4132C8.64668 10.4932 8.66668 10.5799 8.66668 10.6666C8.66668 10.7532 8.64668 10.8399 8.61334 10.9199C8.58001 11.0066 8.53334 11.0732 8.47334 11.1399C8.40668 11.1999 8.33334 11.2466 8.25334 11.2799C8.17334 11.3132 8.08668 11.3332 8.00001 11.3332Z" fill="#E10000"/>
</g>
<defs>
<clipPath id="clip0_1824_15">
<rect width="16" height="16" fill="white"/>
</clipPath>
</defs>
</svg>
