<svg width="37" height="37" viewBox="0 0 37 37" fill="none" xmlns="http://www.w3.org/2000/svg">
<circle cx="18.5" cy="18.7227" r="18" fill="#E9E9F6"/>
<g clip-path="url(#clip0_1172_3833)">
<mask id="mask0_1172_3833" style="mask-type:alpha" maskUnits="userSpaceOnUse" x="10" y="10" width="17" height="17">
<path fill-rule="evenodd" clip-rule="evenodd" d="M18.564 12.1307H21.764C22.532 12.1307 22.916 12.2587 23.3 12.3867C23.684 12.5147 23.94 12.7707 24.196 13.0267C24.452 13.2827 24.708 13.5387 24.836 13.9227C24.964 14.1787 25.092 14.6907 25.092 15.4587V18.6587V21.8587C25.092 22.6267 24.964 23.0107 24.836 23.3947C24.708 23.7787 24.452 24.0347 24.196 24.2907C23.94 24.5467 23.684 24.8027 23.3 24.9307C23.044 25.0587 22.532 25.1867 21.764 25.1867H18.564H15.364C14.596 25.1867 14.212 25.0587 13.828 24.9307C13.444 24.8027 13.188 24.5467 12.932 24.2907C12.676 24.0347 12.42 23.7787 12.292 23.3947C12.164 23.1387 12.036 22.6267 12.036 21.8587V18.6587V15.4587C12.036 14.6907 12.164 14.3067 12.292 13.9227C12.42 13.6667 12.548 13.4107 12.932 13.1547C13.188 12.7707 13.444 12.6427 13.828 12.5147C14.084 12.3867 14.468 12.2587 15.364 12.2587C16.132 12.1307 16.388 12.1307 18.564 12.1307ZM18.564 10.7227H15.236C14.34 10.8507 13.828 10.9787 13.316 11.1067C12.804 11.3627 12.292 11.6187 11.908 12.1307C11.396 12.5147 11.14 13.0267 10.884 13.5387C10.756 14.0507 10.628 14.5627 10.5 15.4587V18.7867V22.1147C10.5 23.0107 10.628 23.5227 10.884 24.0347C11.14 24.5467 11.396 25.0587 11.78 25.4427C12.292 25.9547 12.676 26.2107 13.188 26.3387C13.7 26.5947 14.34 26.7227 15.108 26.7227H18.436H21.764C22.66 26.7227 23.172 26.5947 23.684 26.3387L23.684 26.3387C24.196 26.0827 24.708 25.8267 25.092 25.4427C25.604 24.9307 25.86 24.5467 25.988 24.0347C26.244 23.5227 26.372 22.8827 26.372 22.1147V18.7867V15.4587C26.372 14.5627 26.244 14.0507 25.988 13.5387C25.732 13.0267 25.476 12.5147 25.092 12.1307C24.58 11.6187 24.196 11.3627 23.684 11.2347C23.172 10.9787 22.532 10.8507 21.764 10.8507C20.996 10.7227 20.74 10.7227 18.564 10.7227ZM18.564 14.6902C16.26 14.6902 14.468 16.4822 14.468 18.7862C14.468 21.0902 16.26 22.8822 18.564 22.8822C20.868 22.8822 22.66 21.0902 22.66 18.7862C22.66 16.4822 20.868 14.6902 18.564 14.6902ZM18.564 21.4742C17.028 21.4742 15.876 20.3222 15.876 18.7862C15.876 17.2502 17.028 16.0982 18.564 16.0982C20.1 16.0982 21.252 17.2502 21.252 18.7862C21.252 20.3222 20.1 21.4742 18.564 21.4742ZM23.94 14.4342C23.94 14.9997 23.4816 15.4582 22.916 15.4582C22.3505 15.4582 21.892 14.9997 21.892 14.4342C21.892 13.8686 22.3505 13.4102 22.916 13.4102C23.4816 13.4102 23.94 13.8686 23.94 14.4342Z" fill="white"/>
</mask>
<g mask="url(#mask0_1172_3833)">
<path d="M26.308 23.3918C26.308 25.1306 24.8853 26.5534 23.1464 26.5534H13.6616C11.9227 26.5534 10.5 25.1306 10.5 23.3918V13.907C10.5 12.1681 11.9227 10.7454 13.6616 10.7454H23.1464C24.8853 10.7454 26.308 12.1681 26.308 13.907V23.3918Z" fill="url(#paint0_radial_1172_3833)"/>
</g>
</g>
<defs>
<radialGradient id="paint0_radial_1172_3833" cx="0" cy="0" r="1" gradientUnits="userSpaceOnUse" gradientTransform="translate(12.991 26.3406) scale(18.9143)">
<stop stop-color="#FEC053"/>
<stop offset="0.3273" stop-color="#F2203E"/>
<stop offset="0.6485" stop-color="#B729A8"/>
<stop offset="1" stop-color="#5342D6"/>
</radialGradient>
<clipPath id="clip0_1172_3833">
<rect width="15.872" height="16" fill="white" transform="translate(10.5 10.7227)"/>
</clipPath>
</defs>
</svg>
