<svg width="20" height="20" viewBox="0 0 20 20" fill="none" xmlns="http://www.w3.org/2000/svg">
<g clip-path="url(#clip0_5249_2075)">
<mask id="mask0_5249_2075" style="mask-type:alpha" maskUnits="userSpaceOnUse" x="4" y="4" width="12" height="13">
<path fill-rule="evenodd" clip-rule="evenodd" d="M10.048 5.55598H12.448C13.024 5.55598 13.312 5.65198 13.6 5.74798C13.888 5.84398 14.08 6.03598 14.272 6.22798C14.464 6.41998 14.656 6.61198 14.752 6.89998C14.848 7.09198 14.944 7.47598 14.944 8.05198V10.452V12.852C14.944 13.428 14.848 13.716 14.752 14.004C14.656 14.292 14.464 14.484 14.272 14.676L14.272 14.676L14.272 14.676C14.08 14.868 13.888 15.06 13.6 15.156C13.408 15.252 13.024 15.348 12.448 15.348H10.048H7.648C7.072 15.348 6.784 15.252 6.496 15.156C6.208 15.06 6.016 14.868 5.824 14.676C5.632 14.484 5.44 14.292 5.344 14.004C5.248 13.812 5.152 13.428 5.152 12.852V10.452V8.05198C5.152 7.47598 5.248 7.18798 5.344 6.89998C5.44 6.70798 5.536 6.51598 5.824 6.32398C6.016 6.03598 6.208 5.93998 6.496 5.84398C6.688 5.74798 6.976 5.65198 7.648 5.65198C8.224 5.55598 8.416 5.55598 10.048 5.55598ZM10.048 4.49998H7.552C6.88 4.59598 6.496 4.69198 6.112 4.78798C5.728 4.97998 5.344 5.17198 5.056 5.55598C4.672 5.84398 4.48 6.22798 4.288 6.61198C4.192 6.99598 4.096 7.37998 4 8.05198V10.548V13.044C4 13.716 4.096 14.1 4.288 14.484C4.48 14.868 4.672 15.252 4.96 15.54C5.344 15.924 5.632 16.116 6.016 16.212C6.4 16.404 6.88 16.5 7.456 16.5H9.952H12.448C13.12 16.5 13.504 16.404 13.888 16.212L13.888 16.212C14.272 16.02 14.656 15.828 14.944 15.54C15.328 15.156 15.52 14.868 15.616 14.484C15.808 14.1 15.904 13.62 15.904 13.044V10.548V8.05198C15.904 7.37998 15.808 6.99598 15.616 6.61198C15.424 6.22798 15.232 5.84398 14.944 5.55598C14.56 5.17198 14.272 4.97998 13.888 4.88398C13.504 4.69198 13.024 4.59598 12.448 4.59598C11.872 4.49998 11.68 4.49998 10.048 4.49998ZM10.048 7.47561C8.31998 7.47561 6.97598 8.81961 6.97598 10.5476C6.97598 12.2756 8.31998 13.6196 10.048 13.6196C11.776 13.6196 13.12 12.2756 13.12 10.5476C13.12 8.81961 11.776 7.47561 10.048 7.47561ZM10.048 12.5636C8.89598 12.5636 8.03198 11.6996 8.03198 10.5476C8.03198 9.39561 8.89598 8.53161 10.048 8.53161C11.2 8.53161 12.064 9.39561 12.064 10.5476C12.064 11.6996 11.2 12.5636 10.048 12.5636ZM14.08 7.28361C14.08 7.70776 13.7362 8.05161 13.312 8.05161C12.8879 8.05161 12.544 7.70776 12.544 7.28361C12.544 6.85945 12.8879 6.51561 13.312 6.51561C13.7362 6.51561 14.08 6.85945 14.08 7.28361Z" fill="white"/>
</mask>
<g mask="url(#mask0_5249_2075)">
<path d="M15.856 14.0018C15.856 15.306 14.789 16.373 13.4848 16.373H6.3712C5.06704 16.373 4 15.306 4 14.0018V6.88824C4 5.58408 5.06704 4.51704 6.3712 4.51704H13.4848C14.789 4.51704 15.856 5.58408 15.856 6.88824V14.0018Z" fill="url(#paint0_radial_5249_2075)"/>
</g>
</g>
<defs>
<radialGradient id="paint0_radial_5249_2075" cx="0" cy="0" r="1" gradientUnits="userSpaceOnUse" gradientTransform="translate(5.86827 16.2135) scale(14.1857 14.1857)">
<stop stop-color="#FEC053"/>
<stop offset="0.3273" stop-color="#F2203E"/>
<stop offset="0.6485" stop-color="#B729A8"/>
<stop offset="1" stop-color="#5342D6"/>
</radialGradient>
<clipPath id="clip0_5249_2075">
<rect width="11.904" height="12" fill="white" transform="translate(4 4.49998)"/>
</clipPath>
</defs>
</svg>
