<?xml version="1.0" encoding="utf-8"?>
<!-- Generator: Adobe Illustrator 25.4.1, SVG Export Plug-In . SVG Version: 6.00 Build 0)  -->
<svg version="1.1" id="Capa_1" xmlns="http://www.w3.org/2000/svg" xmlns:xlink="http://www.w3.org/1999/xlink" x="0px" y="0px"
	 viewBox="0 0 20 20" style="enable-background:new 0 0 20 20;" xml:space="preserve">
<style type="text/css">
	.st0{fill:none;}
	.st1{fill:none;stroke:#404040;stroke-linecap:round;stroke-linejoin:round;}
	.st2{fill:none;stroke:#404040;stroke-width:0.8;stroke-linecap:round;stroke-linejoin:round;stroke-miterlimit:10;}
</style>
<path id="BG_1" class="st0" d="M0,0h20v20H0V0z"/>
<path id="Vector-2" class="st1" d="M12.5,18.3h-5c-4.2,0-5.8-1.7-5.8-5.8v-5c0-4.2,1.7-5.8,5.8-5.8h5c4.2,0,5.8,1.7,5.8,5.8v5
	C18.3,16.7,16.7,18.3,12.5,18.3z"/>
<path id="Vector-3" class="st0" d="M0,0h20v20H0V0z"/>
<g>
	<path class="st2" d="M5.2,8.3h2.1V15H5.2V8.3z M6.2,5c0.6,0,1.2,0.6,1.2,1.2S6.9,7.4,6.2,7.4S5,6.9,5,6.2C5,5.5,5.5,5,6.2,5"/>
	<path class="st2" d="M8.5,8.3h2v0.9l0,0c0.3-0.5,1-1.1,2-1.1c2.1,0,2.5,1.4,2.5,3.2V15h-2.1v-3.2c0-0.8,0-1.8-1.1-1.8
		s-1.3,0.8-1.3,1.7V15h-2V8.3z"/>
</g>
</svg>
