<svg width="16" height="16" viewBox="0 0 16 16" fill="none" xmlns="http://www.w3.org/2000/svg">
    <path
        d="M13.12 1.28H2.88003C1.99683 1.28 1.28003 1.9968 1.28003 2.88V13.12C1.28003 14.0032 1.99683 14.72 2.88003 14.72H13.12C14.0032 14.72 14.72 14.0032 14.72 13.12V2.88C14.72 1.9968 14.0032 1.28 13.12 1.28ZM5.44003 6.4V12.48H3.52003V6.4H5.44003ZM3.52003 4.6304C3.52003 4.1824 3.90403 3.84 4.48003 3.84C5.05603 3.84 5.41763 4.1824 5.44003 4.6304C5.44003 5.0784 5.08163 5.44 4.48003 5.44C3.90403 5.44 3.52003 5.0784 3.52003 4.6304ZM12.48 12.48H10.56C10.56 12.48 10.56 9.5168 10.56 9.28C10.56 8.64 10.24 8 9.44003 7.9872H9.41443C8.64003 7.9872 8.32003 8.6464 8.32003 9.28C8.32003 9.5712 8.32003 12.48 8.32003 12.48H6.40003V6.4H8.32003V7.2192C8.32003 7.2192 8.93763 6.4 10.1792 6.4C11.4496 6.4 12.48 7.2736 12.48 9.0432V12.48Z"
        fill="#0C65C2" />
</svg>