<svg width="21" height="21" viewBox="0 0 21 21" fill="none" xmlns="http://www.w3.org/2000/svg">
<g id="Component 1/brand-linkedin 1" clip-path="url(#clip0_1803_5414)">
<path id="Vector" d="M5.12599 3.30566H16.0487C17.05 3.30566 17.8692 4.12487 17.8692 5.12612V16.0488C17.8692 17.0501 17.05 17.8693 16.0487 17.8693H5.12599C4.12475 17.8693 3.30554 17.0501 3.30554 16.0488V5.12612C3.30554 4.12487 4.12475 3.30566 5.12599 3.30566Z" stroke="#14141C" stroke-miterlimit="7.3333" stroke-linecap="round" stroke-linejoin="round"/>
<path id="Vector_2" d="M6.94653 9.67773V14.2289" stroke="#14141C" stroke-miterlimit="7.3333" stroke-linecap="round" stroke-linejoin="round"/>
<path id="Vector_3" d="M10.5873 14.2289V9.67773" stroke="#14141C" stroke-miterlimit="7.3333" stroke-linecap="round" stroke-linejoin="round"/>
<path id="Vector_4" d="M14.2282 14.2289V11.4982C14.2282 10.4969 13.409 9.67773 12.4077 9.67773C11.4065 9.67773 10.5873 10.4969 10.5873 11.4982" stroke="#14141C" stroke-miterlimit="7.3333" stroke-linecap="round" stroke-linejoin="round"/>
<path id="Vector_5" d="M6.7188 8.3126C6.3092 8.3126 6.03613 8.03954 6.03613 7.62993C6.03613 7.22033 6.3092 6.94727 6.7188 6.94727C7.1284 6.94727 7.40147 7.22033 7.40147 7.62993C7.40147 8.03954 7.1284 8.3126 6.7188 8.3126Z" fill="#14141C"/>
</g>
<defs>
<clipPath id="clip0_1803_5414">
<rect width="20.5556" height="20.5556" fill="white" transform="translate(0.222168 0.222656)"/>
</clipPath>
</defs>
</svg>
