<svg width="36" height="36" viewBox="0 0 36 36" fill="none" xmlns="http://www.w3.org/2000/svg">
<g id="linkedin">
<g id="Group">
<g id="Group_2">
<path id="Vector" d="M18.7397 16.7229C19.0086 16.454 19.1431 16.185 19.412 16.0506C20.0843 15.3783 20.891 15.1094 21.8322 15.1094C22.3701 15.1094 22.9079 15.1094 23.4457 15.2438C24.6558 15.6472 25.3281 16.3195 25.597 17.5296C25.866 18.3364 25.866 19.2776 25.866 20.0843C25.866 21.9667 25.866 23.8491 25.866 25.5971C25.866 25.7316 25.866 25.866 25.597 25.866C24.6558 25.866 23.7146 25.866 22.7734 25.866C22.639 25.866 22.5045 25.866 22.5045 25.5971C22.5045 23.8491 22.5045 22.1012 22.5045 20.3532C22.5045 19.9499 22.5045 19.412 22.3701 19.0087C22.1011 18.2019 21.5633 17.7985 20.7566 17.7985C19.6809 17.7985 19.0086 18.4708 18.8741 19.5465C18.8741 19.8154 18.8741 20.0843 18.8741 20.3532C18.8741 22.1012 18.8741 23.8491 18.8741 25.4626C18.8741 25.5971 18.8741 25.7316 18.6052 25.7316C17.664 25.7316 16.7228 25.7316 15.6472 25.7316C15.5127 25.7316 15.5127 25.7316 15.5127 25.5971C15.5127 22.2356 15.5127 18.7397 15.5127 15.3783C15.6472 15.2438 15.6472 15.2438 15.7816 15.2438C16.7228 15.2438 17.664 15.2438 18.4708 15.2438C18.6052 15.2438 18.7397 15.2438 18.7397 15.5127C18.7397 15.9161 18.7397 16.3195 18.7397 16.7229Z" fill="#2967B0"/>
<path id="Vector_2" d="M13.496 20.6216C13.496 22.3696 13.496 23.9831 13.496 25.731C13.496 25.8655 13.496 25.9999 13.2271 25.9999C12.2859 25.9999 11.3447 25.9999 10.4035 25.9999C10.269 25.9999 10.269 25.9999 10.269 25.8655C10.269 22.504 10.269 19.0081 10.269 15.6467C10.269 15.5122 10.269 15.5122 10.4035 15.5122C11.3447 15.5122 12.2859 15.5122 13.3616 15.5122C13.496 15.5122 13.6305 15.6467 13.6305 15.7811C13.496 17.1257 13.496 18.8737 13.496 20.6216Z" fill="#2967B0"/>
<path id="Vector_3" d="M13.7648 11.8824C13.7648 12.9581 12.9581 13.7648 11.8824 13.7648C10.8067 13.7648 10 12.9581 10 11.8824C10 10.8067 10.8067 10 11.8824 10C12.9581 10 13.7648 10.8067 13.7648 11.8824Z" fill="#2967B0"/>
</g>
</g>
</g>
</svg>
