<svg width="20" height="20" viewBox="0 0 20 20" fill="none" xmlns="http://www.w3.org/2000/svg">
<path d="M10.5555 9.04215C10.7572 8.84047 10.858 8.63878 11.0597 8.53794C11.5639 8.03372 12.169 7.83203 12.8749 7.83203C13.2783 7.83203 13.6816 7.83203 14.085 7.93287C14.9926 8.23541 15.4968 8.73962 15.6985 9.64721C15.9002 10.2523 15.9002 10.9582 15.9002 11.5632C15.9002 12.9751 15.9002 14.3869 15.9002 15.6978C15.9002 15.7987 15.9002 15.8995 15.6985 15.8995C14.9926 15.8995 14.2867 15.8995 13.5808 15.8995C13.48 15.8995 13.3791 15.8995 13.3791 15.6978C13.3791 14.3869 13.3791 13.0759 13.3791 11.7649C13.3791 11.4624 13.3791 11.059 13.2783 10.7565C13.0766 10.1514 12.6732 9.8489 12.0682 9.8489C11.2614 9.8489 10.7572 10.3531 10.6563 11.1599C10.6563 11.3616 10.6563 11.5632 10.6563 11.7649C10.6563 13.0759 10.6563 14.3869 10.6563 15.597C10.6563 15.6978 10.6563 15.7987 10.4547 15.7987C9.74875 15.7987 9.04285 15.7987 8.2361 15.7987C8.13525 15.7987 8.13525 15.7987 8.13525 15.6978C8.13525 13.1767 8.13525 10.5548 8.13525 8.03372C8.2361 7.93288 8.2361 7.93287 8.33694 7.93287C9.04285 7.93287 9.74875 7.93287 10.3538 7.93287C10.4547 7.93287 10.5555 7.93287 10.5555 8.13456C10.5555 8.43709 10.5555 8.73962 10.5555 9.04215Z" fill="#2967B0"/>
<path d="M6.62239 11.9662C6.62239 13.2772 6.62239 14.4873 6.62239 15.7983C6.62239 15.8991 6.62239 15.9999 6.42071 15.9999C5.7148 15.9999 5.0089 15.9999 4.30299 15.9999C4.20215 15.9999 4.20215 15.9999 4.20215 15.8991C4.20215 13.378 4.20215 10.7561 4.20215 8.235C4.20215 8.13416 4.20215 8.13416 4.30299 8.13416C5.0089 8.13416 5.7148 8.13416 6.52155 8.13416C6.62239 8.13416 6.72324 8.235 6.72324 8.33584C6.62239 9.34428 6.62239 10.6552 6.62239 11.9662Z" fill="#2967B0"/>
<path d="M6.82362 5.41181C6.82362 6.21856 6.21856 6.82362 5.41181 6.82362C4.60506 6.82362 4 6.21856 4 5.41181C4 4.60506 4.60506 4 5.41181 4C6.21856 4 6.82362 4.60506 6.82362 5.41181Z" fill="#2967B0"/>
</svg>
