<svg width="16" height="16" viewBox="0 0 16 16" fill="none" xmlns="http://www.w3.org/2000/svg">
<g id="location">
<path id="Vector" d="M8.00059 9.44676C6.58056 9.44676 5.42056 8.29343 5.42056 6.86676C5.42056 5.44012 6.58056 4.29346 8.00059 4.29346C9.42059 4.29346 10.5806 5.44679 10.5806 6.87343C10.5806 8.3001 9.42059 9.44676 8.00059 9.44676ZM8.00059 5.29346C7.13392 5.29346 6.42056 6.00012 6.42056 6.87343C6.42056 7.74676 7.12726 8.45343 8.00059 8.45343C8.87392 8.45343 9.58059 7.74676 9.58059 6.87343C9.58059 6.00012 8.86726 5.29346 8.00059 5.29346Z" fill="#63637E"/>
<path id="Vector_2" d="M7.99979 15.1735C7.01312 15.1735 6.01978 14.8002 5.24645 14.0602C3.27978 12.1668 1.10645 9.14683 1.92645 5.5535C2.66645 2.2935 5.51312 0.833496 7.99979 0.833496C7.99979 0.833496 7.99979 0.833496 8.00646 0.833496C10.4931 0.833496 13.3398 2.2935 14.0798 5.56016C14.8931 9.1535 12.7198 12.1668 10.7531 14.0602C9.97979 14.8002 8.98646 15.1735 7.99979 15.1735ZM7.99979 1.8335C6.05978 1.8335 3.56645 2.86683 2.90645 5.7735C2.18645 8.9135 4.15978 11.6202 5.94645 13.3335C7.09979 14.4468 8.90646 14.4468 10.0598 13.3335C11.8398 11.6202 13.8131 8.9135 13.1065 5.7735C12.4398 2.86683 9.93979 1.8335 7.99979 1.8335Z" fill="#63637E"/>
</g>
</svg>
