<svg width="15" height="16" viewBox="0 0 15 16" fill="none" xmlns="http://www.w3.org/2000/svg">
<g clip-path="url(#clip0_886_3109)">
<path d="M7.5 9.25C8.53553 9.25 9.375 8.41053 9.375 7.375C9.375 6.33947 8.53553 5.5 7.5 5.5C6.46447 5.5 5.625 6.33947 5.625 7.375C5.625 8.41053 6.46447 9.25 7.5 9.25Z" stroke="#66C1EA" stroke-miterlimit="7.3333" stroke-linecap="round" stroke-linejoin="round"/>
<path d="M11.0625 10.9375L8.4375 13.5625C7.9375 14.0625 7.1875 14.0625 6.6875 13.5625L4.0625 10.9375C2.125 9 2.125 5.8125 4.0625 3.875C6 1.9375 9.1875 1.9375 11.125 3.875C13 5.8125 13 8.9375 11.0625 10.9375Z" stroke="#66C1EA" stroke-miterlimit="7.3333" stroke-linecap="round" stroke-linejoin="round"/>
</g>
<defs>
<clipPath id="clip0_886_3109">
<rect width="15" height="15" fill="white" transform="translate(0 0.5)"/>
</clipPath>
</defs>
</svg>
