<svg width="20" height="20" viewBox="0 0 20 20" fill="none" xmlns="http://www.w3.org/2000/svg">
<path d="M10.0009 14.4582C10.7511 14.4582 11.3592 13.8501 11.3592 13.0998C11.3592 12.3497 10.7511 11.7415 10.0009 11.7415C9.25074 11.7415 8.64258 12.3497 8.64258 13.0998C8.64258 13.8501 9.25074 14.4582 10.0009 14.4582Z" fill="#A3ADB8"/>
<path d="M15.2334 7.94166V6.89999C15.2334 4.64999 14.6917 1.66666 10.0001 1.66666C5.30841 1.66666 4.76675 4.64999 4.76675 6.89999V7.94166C2.43341 8.23332 1.66675 9.41666 1.66675 12.325V13.875C1.66675 17.2917 2.70841 18.3333 6.12508 18.3333H13.8751C17.2917 18.3333 18.3334 17.2917 18.3334 13.875V12.325C18.3334 9.41666 17.5667 8.23332 15.2334 7.94166ZM10.0001 15.6167C8.60842 15.6167 7.48341 14.4833 7.48341 13.1C7.48341 11.7083 8.61675 10.5833 10.0001 10.5833C11.3834 10.5833 12.5167 11.7167 12.5167 13.1C12.5167 14.4917 11.3917 15.6167 10.0001 15.6167ZM6.12508 7.86666C6.05841 7.86666 6.00008 7.86666 5.93341 7.86666V6.89999C5.93341 4.45832 6.62508 2.83332 10.0001 2.83332C13.3751 2.83332 14.0667 4.45832 14.0667 6.89999V7.87499C14.0001 7.87499 13.9417 7.87499 13.8751 7.87499H6.12508V7.86666Z" fill="#A3ADB8"/>
</svg>
