<svg width="52" height="40" viewBox="0 0 52 40" fill="none" xmlns="http://www.w3.org/2000/svg">
<g clip-path="url(#clip0_2189_52513)">
<path d="M5.94496 32.3008C8.41379 32.3008 10.1048 33.9774 9.6313 36.1673C9.15782 38.2888 6.75663 39.9655 4.2878 39.9655C1.81896 39.9655 0.127982 38.2546 0.567637 36.1673C1.04111 33.9432 3.47613 32.3008 5.94496 32.3008ZM4.55835 38.6994C6.21552 38.6994 7.7374 37.5018 8.04178 36.1673C8.34615 34.7644 7.29774 33.601 5.6744 33.601C4.05106 33.601 2.49536 34.7644 2.19098 36.1673C1.8866 37.5018 2.90119 38.6994 4.55835 38.6994Z" fill="#006595"/>
<path d="M9.9695 34.2852H11.6605L12.4383 37.9464H12.4722L14.7381 34.2852H16.4629L12.6074 39.7941H11.3899L9.9695 34.2852Z" fill="#006595"/>
<path d="M16.8349 37.6387C16.8349 37.9808 17.2745 38.7678 18.3906 38.7678C18.9993 38.8021 19.6081 38.5283 20.0477 38.0493H21.6711C21.0962 39.0416 19.6419 39.9655 18.12 39.9655C16.1585 39.9655 14.9748 38.6652 15.3468 37.057C15.685 35.483 17.3422 34.0801 19.4052 34.0801C21.5358 34.0801 22.4489 35.5514 22.1446 36.9543C22.0769 37.1939 22.0093 37.4334 21.9078 37.6387H16.8349ZM20.6227 36.5779C20.6565 35.6883 19.9801 35.3119 19.1346 35.3119C18.2553 35.2777 17.4436 35.7909 17.0378 36.5779H20.6227Z" fill="#006595"/>
<path d="M23.193 34.2854H24.6134L24.5119 34.7644H24.5457C24.9178 34.3196 25.4927 34.0801 26.0676 34.0801H26.2029L25.9324 35.3803C24.5119 35.4488 24.309 36.3726 24.2414 36.7148L23.565 39.8286H22.0093L23.193 34.2854Z" fill="#006595"/>
<path d="M26.9808 32.4375H28.9423C31.0729 32.4375 31.8846 32.9165 32.3243 33.2929C33.1021 34.0115 33.4065 35.1064 33.1359 36.133C32.8654 37.4674 31.7493 38.7335 30.3627 39.3152C29.4834 39.6916 28.3674 39.7942 27.3866 39.7942H25.3912L26.9808 32.4375ZM27.2513 38.5282H27.5895C28.3335 38.5624 29.0776 38.4597 29.754 38.186C30.6333 37.8438 31.2758 37.0568 31.4788 36.1672C31.6479 35.5171 31.4449 34.7985 30.9377 34.3537C30.3965 33.8404 29.551 33.7378 28.5703 33.7378H28.2659L27.2513 38.5282Z" fill="#006595"/>
<path d="M33.9476 34.2853H35.368L35.2666 34.7644H35.3004C35.6724 34.3195 36.2473 34.0458 36.8561 34.08H36.9914L36.7208 35.3803C35.3004 35.4487 35.0975 36.3726 35.0298 36.7148L34.3534 39.8285H32.7977L33.9476 34.2853Z" fill="#006595"/>
<path d="M37.3296 34.2852H38.8853L37.6678 39.7942H36.1121L37.3296 34.2852ZM37.7354 32.4375H39.2911L39.0205 33.6693H37.4648L37.7354 32.4375Z" fill="#006595"/>
<path d="M39.2235 34.2852H40.8806L41.6585 37.9464H41.6923L43.9582 34.2852H45.683L41.8276 39.7941H40.6439L39.2235 34.2852Z" fill="#006595"/>
<path d="M46.1903 37.6387C46.1903 37.9808 46.63 38.7678 47.746 38.7678C48.3548 38.8021 48.9635 38.5283 49.4032 38.0493H51.0265C50.4516 39.0416 48.9973 39.9655 47.4755 39.9655C45.5139 39.9655 44.3302 38.6652 44.7023 37.057C45.0404 35.483 46.6976 34.0801 48.7606 34.0801C50.8912 34.0801 51.8044 35.5514 51.5 36.9543C51.4324 37.1939 51.3647 37.4334 51.2633 37.6387H46.1903ZM49.9781 36.5779C50.0119 35.6883 49.3355 35.3119 48.4901 35.3119C47.6107 35.2777 46.7991 35.7909 46.3932 36.5779H49.9781Z" fill="#006595"/>
<path d="M40.4072 18.6485C41.4894 13.7212 37.8369 9.68359 32.1552 9.68359C26.4735 9.68359 21.0623 13.7212 20.0139 18.6485C18.9655 23.4047 22.5166 27.545 28.2659 27.545C34.0152 27.545 39.3587 23.4047 40.4072 18.6485Z" fill="#006595"/>
<path d="M38.75 30.3853C40.2381 30.3853 41.4556 29.1535 41.4556 27.648V26.3135C39.697 27.9901 37.5325 29.393 35.1313 30.3853H38.75Z" fill="#006595"/>
<path d="M38.75 0H14.0279C12.5398 0 11.3223 1.23182 11.3223 2.73738V27.6476C11.3223 29.1531 12.5398 30.3849 14.0279 30.3849H20.183C15.685 28.1266 13.25 23.7126 14.366 18.6826C16.0232 11.0522 24.5119 5.23524 33.1021 5.23524C36.3488 5.23524 39.2235 6.09068 41.4556 7.5278V2.73738C41.4556 1.23182 40.2719 0 38.75 0Z" fill="#006595"/>
<path d="M33.1021 5.23535C24.5119 5.23535 16.0232 11.0523 14.3661 18.6827C13.25 23.7469 15.685 28.1267 20.1492 30.3851H35.1651C37.5325 29.3928 39.6969 27.9898 41.4894 26.3132V7.52791C39.2235 6.05657 36.3488 5.23535 33.1021 5.23535ZM28.2321 27.545C22.4828 27.545 18.9317 23.4047 19.9801 18.6485C21.0285 13.7212 26.4397 9.6836 32.1214 9.6836C37.8031 9.6836 41.4556 13.7212 40.3733 18.6485C39.3588 23.4047 34.0153 27.545 28.2321 27.545Z" fill="white"/>
</g>
<defs>
<clipPath id="clip0_2189_52513">
<rect width="51" height="40" fill="white" transform="translate(0.5)"/>
</clipPath>
</defs>
</svg>
