<svg version="1.2" xmlns="http://www.w3.org/2000/svg" viewBox="0 0 1288 975" width="600" height="454">
	<title>logo-SPE-2024-svg</title>
	<style>
		.s0 { fill: #5f2234 } 
		.s1 { fill: #f5c945 } 
		.s2 { fill: #113083 } 
		.s3 { fill: #c52a2f } 
	</style>
	<g id="Capa_1-2">
		<g id="Layer">
			<g id="Layer">
				<path id="Layer" fill-rule="evenodd" class="s0" d="m662.2 240.6c-0.9-0.9-1.3-2.6 0.3-4.4 0.9-0.9 2.1-1.2 3.5-1.2 0.1-1.4 0.7-2.7 1.8-3.4 0.6-0.4 1.3-0.6 2-0.6-0.4-5 1.2-10.3 4.5-13.9 2.5-2.8 5.7-4.2 8.9-4.2 2.5 0 4.8 0.8 6.8 2.3 2.9-1.6 5.6-2.2 8-1.7 0.3-0.8 1.1-2.1 2.4-2.8 0.2-0.6 0.9-2.4 2.6-3.3 0.2-0.8 1-1.6 1.3-1.9 1.8-1.9 3.6-2.7 5.4-2.3 2.8 0.6 4.5 3.9 4.8 4.7 1.8 1.7 1 5.2 0.7 6.3 2 4.8-1.5 8.6-2.6 9.6 1.3 8-6.1 10.7-7.6 11.2-5.1 7-9.9 5.9-11.7 5.2-1.9 2.5-4.4 3.3-8 3.4-0.5 0-1.2 0.1-2 0.1-1.4 0.1-1.9 0.2-4.7 0.2-2.8 0-5.5-0.4-6.6-2-1 0.7-1.9 1.1-2.8 1.1-0.4 0-0.8-0.1-1.2-0.2-0.8-0.3-1.4-1-1.7-1.7-1.7 0.8-3.4 0.3-4.3-0.7m36.6-25.5c-2.2-0.9-4.8-0.5-7.8 1 1.2 1.2 2.3 2.6 3.2 4.3 3.1 6 2.9 13.6-0.3 18.8 2.1 0.5 6.1 0.5 10.1-5.1l0.2-0.3h0.2c0.3-0.1 8.3-2.3 6.7-10.2v-0.4l0.3-0.2c0.2-0.1 4.6-3.7 2.4-8.4v-0.4c0.4-1.1 0.9-4.2-0.3-5.3 0 0 0-0.1 0-0.2 0-0.1-1.4-3.6-3.9-4.1-1.3-0.3-2.7 0.4-4.2 1.9-0.1 0.2-0.3 0.3-0.3 0.4 1.8-0.2 4 0.5 6.5 2.2l-0.8 1.1q-4.1-2.7-6.6-1.8c-1.1 0.4-1.7 1.2-2.1 1.9q3.4-0.2 8.1 5.7l-1 0.8c-3.7-4.8-6.1-5.4-7.4-5.2-1.3 0.2-2.1 1.4-2.4 2.2 4.1 1.6 5.6 5.8 5.6 6l-1.3 0.4c0 0-1.3-3.8-4.8-5.1zm-35.4 22c-0.8 0.9-0.9 1.8-0.3 2.5 0.7 0.7 2.1 0.9 3.4 0l1.2-0.9-0.2 1.5c0 0.6 0.5 1.2 1 1.4 1.4 0.5 2.8-0.8 3.8-1.9l0.4 1 0.2 0.3c1.1 2.1 7.1 1.6 10.3 1.3 0.8-0.1-0.1-0.1 2.1-0.1 2.2 0 6.2-1.1 7.4-3.5 3.2-4.9 3.4-12.1 0.4-17.8-2.2-4.3-5.8-6.8-9.9-6.8-2.9 0-5.7 1.3-7.9 3.8-2.9 3.3-4.4 8-4.1 12.5 0-0.1 0.3-0.3 0.3-0.4 0.2-0.1 0.3-0.3 0.5-0.3v-0.7c0.4-3.3 1.7-6.3 3.7-8.5 2.1-2.4 4.7-3.6 7.4-3.3 3.4 0.3 6 2.6 7.5 6.2 2.1 5.2 1.3 11.8-2 15.8l-1-0.9c2.9-3.6 3.7-9.8 1.8-14.5-0.5-1.2-1.1-2.3-1.9-3.1-4.1 1.1-5.4 6.1-5.8 8.2h1c1.8 0.3 3.1 1.6 3.4 3.5l-1.3 0.2c-0.3-1.3-1.1-2.2-2.3-2.4-1.2-0.1-2.9 0.4-3.7 2l-0.8 1.5-0.5-1.6c-0.4-1.3-2.3-1.7-2.8-1.7-0.9-0.2-1.9 0-2.4 0.5-0.4 0.3-0.4 0.7-0.4 1.1l0.2 1.6-1.2-1c-0.6-0.5-1.6-0.5-2.3 0-0.7 0.5-1.2 1.4-1.2 2.4 0 0.5-0.2 0.8-0.4 1-0.2 0.2-0.6 0.3-1.1 0.3-0.5 0-1.6 0.1-2.4 0.8zm10-7.9q0-0.1 0-0.1zm0-0.1h1.6c1.4 0.1 2.6 0.7 3.3 1.5 0.5-0.6 1.2-1.1 2-1.4 0.2-1.6 1.4-7.6 6-9.5-1-0.7-2.1-1.2-3.3-1.3-2.2-0.2-4.5 0.8-6.3 2.9-1.8 2-2.9 4.7-3.3 7.8z"/>
				<path id="Layer" fill-rule="evenodd" class="s0" d="m582.7 223.8c-1.1-1-4.6-4.7-2.6-9.5-0.3-1-1.1-4.6 0.7-6.3 0.3-0.8 1.9-4.1 4.8-4.7 1.7-0.3 3.6 0.4 5.4 2.3 0.2 0.3 1 1.1 1.3 1.9 1.7 1 2.4 2.7 2.6 3.3 1.4 0.7 2.2 2 2.5 2.8 2.3-0.5 5 0.1 8 1.7 2-1.5 4.3-2.3 6.8-2.3h0.2c3.2 0 6.2 1.5 8.7 4.2 3.3 3.5 4.9 8.5 4.5 13.4 0.7 0.1 1.4 0.4 1.9 1.1 0.2 0.1 0.2 0.2 0.2 0.2 0.2 0.1 0.2 0.2 0.2 0.2h0.4c1.4 0.1 2.8 0.9 3.2 2.2 0.5 0.1 1 0.2 1.6 0.2 1.3 0.1 2.6 0.2 3.6 0.8h0.2c0.1 0.1 0.3 0.4 0.3 0.6 0 0.1 0.3 0.3 0.5 0.4 0.1 0 0.4 0.2 0.4 0.2 0.8 0.5 1 1.2 0.8 1.8-0.2 0.6-0.7 1-1.5 1-3.3 0.4-6.6 0.2-9.9 0.1-0.7-0.1-1.2-0.2-1.6-0.5-1.7 1.1-3.9 1.3-6.1 1.3-1.1 0-1.9-0.3-2.4-0.8-1.4 0.7-2.9 0.7-4.2 0.7-1.3 0-1.9-0.3-2.3-0.7-1.4 0.6-3.2 0.9-4.4 0.9-1.2 0-2.5-0.1-3.7-0.5-0.6 0.3-0.8 0.7-3.4 0.7-2.6 0-6-1.1-9.4-5.7-1.4-0.4-8.9-3.1-7.6-11.2m43.5 8.3c-0.6-0.7-1.7-0.7-2.8-0.7h-1.1q-0.9 0-1.8-0.9c-0.3-0.1-0.8-0.1-1.4-0.1l-6.3 0.3v-1.4h0.9c-0.3-1.9-1.7-7.7-5.9-8.8-1.2 1.3-1.8 2.8-2.2 3.9-1.7 5-0.4 11.1 2.8 14.4 0.9-0.2 1.8-0.4 2.6-0.8l0.7-0.3 0.2 0.8c0.1 0.3 0.6 0.4 1.4 0.4 1.7-0.1 3-0.2 4.1-0.9l0.8-0.6 0.2 1c0.1 0.4-0.8 0.5 1.5 0.5 2.3 0 4.4-0.2 5.8-1.4l0.8-0.7 0.3 1c0 0.1 0.2 0.3 0.9 0.3 3.2 0.2 6.5 0.3 9.7-0.1h0.3c0 0-0.1-0.2-0.3-0.3-0.1-0.1-0.3-0.2-0.3-0.2-0.3-0.2-0.7-0.5-1-0.9-0.2-0.1-0.2-0.2-0.2-0.3-0.8-0.3-1.9-0.5-3-0.5-0.7-0.1-1.5-0.2-2.2-0.3h-0.5v-0.5c-0.1-0.8-1.1-1.5-2-1.5-0.4-0.1-0.8-0.1-1.1-0.3-0.3-0.2-0.6-0.5-0.6-0.8zm-14-17.9c-4.1 0-7.7 2.5-9.9 6.8-3 5.7-2.8 12.9 0.3 17.7 1.3 0.4 2.8 0.5 4.2 0.5-3.4-4.1-3.9-10.5-2.4-15 1.3-4.2 4.2-6.8 7.8-7.2 2.2-0.3 4.6 0.6 6.6 2.5 2.9 2.7 4.5 6.9 4.5 10.8h0.9c0.4-4.5-1.2-9.2-4.1-12.4-2.2-2.4-5-3.7-7.8-3.7zm3 15.3l4-0.2c0.6 0 1.6 0 2.3 0.5 0.2 0.2 0.3 0.4 0.5 0.4 0-3.5-1.6-7.2-4.1-9.6-1.7-1.7-3.7-2.4-5.5-2.2-1.3 0.2-2.4 0.7-3.3 1.3 4.6 1.8 5.8 7.9 6.1 9.8zm-33.8-15.3v0.4c-2.2 4.7 2.2 8.3 2.4 8.4l0.2 0.3v0.4c-1.6 8 6.5 10.2 6.8 10.2h0.4v0.2c4 5.5 8.1 5.6 10.1 5.1-3.3-5.2-3.4-12.8-0.3-18.8 0.9-1.7 2-3.2 3.2-4.3-3-1.5-5.6-1.9-7.8-1-3.5 1.3-4.8 5.1-4.8 5.1l-1.3-0.4c0.1-0.2 1.6-4.5 5.6-6-0.4-0.8-1.1-2-2.4-2.2-1.3-0.3-3.7 0.4-7.4 5.1l-1-0.8c3.1-3.9 5.8-5.7 8.1-5.7-0.4-0.7-1-1.6-2.1-2q-2.6-0.9-6.6 1.8l-0.8-1.1c2.5-1.6 4.6-2.4 6.5-2.2-0.1-0.1-0.3-0.2-0.3-0.3-1.5-1.5-2.9-2.2-4.2-1.9-2.4 0.5-3.9 4-3.9 4v0.3c-1.2 1.1-0.6 4.2-0.3 5.3z"/>
				<path id="Layer" fill-rule="evenodd" class="s0" d="m646.7 234.7c-5.8-0.7-9.6-4.7-11.8-8.1-1.7-2.6-3.3-6.3-3.1-6.9l0.2-0.4h0.5c7.2 1.2 11.4 5.5 13.8 9.1-0.8-4.8-2.3-7-2.6-7.4-7.2-1.5-10.6-8.8-10.6-13.1 0-4.3 2-9 6.4-11.5l-1.5-4.6 5.7 2.2 1.3-2.6 2.5 2.1 3.2-2 1.9 3.2 6.3-0.8-3.3 4.1c2.7 2.5 4.4 3 4.4 9.9 0 6.9-5.2 12.6-12 13.3 0.9 1.6 1.7 3.4 2.2 5.5 1.6-3.9 4.8-9.1 11.8-11.9h0.3l0.3 0.2c0.3 0.2 0.4 0.3 0 2.4-0.7 3.5-3.3 11.8-11.5 14.3 0.7 6.6 0 12.6-0.2 12.9v0.8l-0.8-0.3c-2.4-0.9-4-2.8-4-2.8v-0.5c0.4-2.5 0.7-4.9 0.7-7.1m4-5.4l-0.3 1.1c8.2-2.3 10.5-10.9 11-13.9-7.2 3.3-9.8 9.4-10.7 12.9zm2.1-33.3c0.6 0.3 1.2 0.7 1.8 1.1l1.2-1.5zm5.9 11.8c0-5.5-3.8-10.2-9-11.6 2.8 3.5 8.4 12.5 0.5 23.2 4.9-1.5 8.5-6.1 8.5-11.5zm-8.4-14.6l-2.1 1.3c1.1 0.2 2.3 0.5 3.3 0.9l-1.2-2.1zm-5.4 1.3c0.5-0.1 1.1-0.1 1.6-0.1h0.2l-1.2-1zm-2 0.5l-2.6-1 0.5 1.7c0.6-0.3 1.3-0.5 2-0.7zm0.3 24.5c-7.9-10.8-2.1-19.9 0.7-23.3-6.4 1.4-9.4 6.8-9.4 11.7 0 4.8 2.7 10 8.7 11.6zm2 0.3c0.4 0.1 0.8 0.1 1.3 0.1 0.5 0 1-0.1 1.5-0.1 10.5-12.6 0.8-22.7-0.5-24h-1.6c-1.4 1.3-11.1 11.4-0.7 24zm2.8 11.6v2.7c0 2.4-0.3 4.9-0.7 7.6 0.3 0.4 1.1 1.2 2.3 1.8 0.3-2 0.7-7.1 0-12.3v-0.6l-0.2-1.3q-0.9-5.1-3-8.1h-0.9c0.9 1.6 2.2 4.8 2.5 10.2zm-1.2 0.3c-1.6-3.4-5.4-9.2-13.3-11 1.2 3.1 5.4 12.1 14 12.7l-0.8-1.7z"/>
				<path id="Layer" class="s0" d="m601.1 107.5c-0.6-0.7-0.6-1.8-0.2-2.6 0-0.2 0.3-0.4 0.5-0.6-0.8 0.3-1.9 0-2.3-0.8-0.5-1 0.2-2.3 1.2-2.7-0.8 0-1.6 0.6-2.4 0.9-0.8 0.3-1.8 0.4-2.5-0.2-0.7-0.5-0.8-1.5-0.5-2.3 0.3-0.8 0.9-1.4 1.5-2-1.3 0.3-2.5 1.6-3.8 1.2-1.3-0.4-1.5-2.3-0.8-3.5 0.7-1.2 1.9-2 2.7-3.1-2 1-4.1 1.7-6.3 2.2-0.8 0.2-1.7 0.3-2.2-0.2-0.4-0.3-0.4-1.1 0-1.5l-3 1c-0.7 0.2-1.5 0.5-2.2 0.3-0.7-0.2-1.3-1.1-0.9-1.7-1.1 0.7-2.3 1.3-3.5 1.2-0.8 0-1.3-0.4-1.7-1.1-0.5-0.8 0-1.1 0.5-1.7-1.2 0.5-2.4 2-2 3.4 0.3 1 1.5 1.5 2.5 1.4 1 0 2-0.7 2.9-1.2-0.4 0.2 0.7 1.4 0.9 1.5 0.7 0.5 1.8 0.7 2.7 0.5 0.5 0 1-0.3 1.5-0.5 0.2 0 1.4-0.7 1.4-0.8 0 0.7 0.9 0.9 1.6 0.8 1.3 0 2.7 0 4 0-1 0.9-1.2 2.4-0.6 3.5 0.6 1.1 2.1 1.7 3.3 1.4-1 1.2-0.2 3.2 1.3 3.7 1.3 0.4 2.7-0.2 3.6-1.2 0 0.2-0.2 0.3-0.3 0.5 0 0.2-0.2 0.4-0.2 0.6-0.2 0.4-0.2 0.8-0.2 1.2 0 0.4 0.2 0.7 0.4 1 0.2 0.3 0.5 0.5 0.8 0.7 0.2 0 0.3 0 0.5 0 0.4 0 0.8-0.2 1.1-0.4-0.2 0.4-0.5 0.8-0.7 1.2-0.2 0.4-0.4 0.8-0.4 1.3 0 1 0.8 1.9 1.7 2.1 0.5 0 1.2 0 1.7-0.3 1.1-0.7 1.8-1.9 2.3-3.1-0.9 1.2-2.8 1.2-3.8 0"/>
				<path id="Layer" class="s0" d="m550.5 93.6c0.8-0.2 1.6-0.7 2.3-1.2 0.2 0 0.5-0.2 0.7 0 0.2 0 0.2 0.4 0.2 0.6 0 1 1.1 1.8 2.2 1.8 1.1 0 2-0.4 2.9-1v0.6c0.4 0.7 1.2 1 2 1 0.8 0 1.6-0.2 2.3-0.4 1-0.3 2-0.7 2.5-1.5-0.5 0.5-1.1 1-1.8 0.9-0.8 0-1.2-1-1.1-1.8 0-0.8 0.6-1.4 1.1-2q-1.9 1.2-4.2 1.8c-0.6 0.2-1.3 0.3-1.9 0.2-0.6-0.2-1.2-0.7-1.1-1.3 0-0.3 0.2-0.7 0.5-0.9 0.4-0.4 0.8-0.7 1.3-1-1.2 0.5-2.4 1-3.7 1.5-0.9 0.3-1.8 0.7-2.8 0.7-1 0-2-0.7-2.1-1.7 0-0.4 0-0.8 0.2-1.1-0.2 0-0.3 0.2-0.5 0.3-0.6 0.5-1.2 1-1.5 1.7-0.3 0.7-0.3 1.6 0.2 2.2 0.5 0.7 1.6 0.8 2.4 0.6"/>
				<path id="Layer" class="s0" d="m611.8 72.2h-0.3c0 0.1-0.2 0.1-0.3 0.2-0.5 0.2-0.9 0.3-1.4 0.3-0.5 0-1.5-0.5-1.7-1.2 0-0.5 0-1-0.2-1.4-0.3-0.4-0.9-0.4-1.3-0.3-1.1 0.2-3.4 1.8-4.3 0.4 0-0.2 0-0.5 0-0.8 0-0.2 0-0.4 0.2-0.5-1 0.8-2 1.1-3 1.7-1 0.6-2.2 1.1-3.3 1.6-0.7 0.3-1.6 0.5-2.1-0.2-0.6-0.8 0-2.1 0.6-2.8 0.6-0.7 0.6-0.7 1.4-1.2-2.9 1.1-5.5 1.8-8.6 2.9-3.1 1.1-6.2 2.5-8.7 4.8-0.4 0.4-0.8 0.8-0.9 1.3-0.1 0.5 0.2 1.1 0.7 1.2-3.5 1.1-6.6 3.5-8.5 6.6-0.4 0.6-0.7 1.6-0.2 2.1 0.3 0.2 0.7 0.3 1 0.3 1 0 2-0.4 2.9-1-0.6-0.4-0.7-1.2-0.5-1.9 0.2-0.7 0.7-1.2 1.2-1.6 2-1.9 4.4-3.4 6.9-4.4-0.4 0.2-0.8-0.2-0.8-0.7 0-0.5 0.2-0.8 0.5-1.1 0.2-0.3 0.5-0.6 0.8-0.9 1.2-1.2 2.6-2.1 4-2.8 1.6-0.8 3.2-1.4 4.9-1.9 0.2 0 0.5-0.1 0.7-0.2 0 0 0.7-0.1 0.7-0.2-0.5 1.6-0.6 3.9 1.7 3.9 2.3 0 4.6-1 6.1-2.8-0.5 0.7-0.9 1.7-0.4 2.4 0.5 0.6 1.4 0.6 2.2 0.4 1.8-0.4 3.5-1.3 4.9-2.6-0.6 0.7-1.1 1.9-0.5 2.5 0 0 0.2 0.1 0.3 0.2 0.4 0.2 0.9 0.2 1.3 0q0.9-0.1 1.8-0.6c0.8-0.4 1.5-0.8 2.1-1.4 0 0 0.4-0.4 0.3-0.4"/>
				<path id="Layer" class="s0" d="m564.7 109.3c-2.7 1.4-5.7 2.4-8.7 2.9-0.9 0.2-2.2 0-2.3-0.8 0-0.4 0-0.8 0.4-1.1 1-1.5 2.4-2.8 4-3.7-2.6 1.3-5.5 2.1-8.4 2.6-1.2 0.2-2.8 0-2.8-1.2 0-1.2 0.3-0.9 0.6-1.3 1.1-1.4 2.5-2.6 4-3.5q-3.6 2.4-7.8 3.6c-1.1 0.3-2.5 0.6-3.4 0-0.7-0.5-0.8-1.5-0.3-2.1-1.7 0.9-3.6 1.4-5.5 1.3-0.3 0-0.7 0-1-0.3-0.9-0.8 0.1-2.3 0.9-3.2-1.1 1.1-2.2 2.2-3 3.6-0.4 0.7-0.7 1.8 0 2.3 0.3 0.2 0.6 0.2 0.9 0.2 0.6 0 1.3 0 2-0.2 0.4 0 0.8-0.2 1.2-0.3 0.5 0 0.9-0.3 1.4-0.5 0.2 0 1.1-0.4 1.2-0.6-0.6 1.6 1.1 3.3 2.8 3.3 1.7 0 3.3-0.9 4.7-1.9-0.6 0.8 0 2 0.9 2.4 0.9 0.4 1.9 0.3 2.9 0 1.7-0.3 3.4-0.9 5-1.5-0.6 1.5-2.9 2.7-2.1 4.2 0.3 0.6 1.1 0.9 1.8 1 2.7 0.5 5.6 0 7.8-1.7 0.5-0.3 1-0.7 1.6-0.7 0.6 0 0.9 0.3 1.3 0.5 0.9 0.4 2 0.3 2.9-0.2-1.7 0-3.2-1.5-2.9-3.2"/>
				<path id="Layer" class="s0" d="m528.7 120.4c0-0.4 0-0.8 0.1-1.2 0 0 0.2-0.2 0.2-0.3-0.2 0-0.3 0.2-0.5 0.3-0.1 0-0.3 0.2-0.5 0.3-0.3 0.2-0.7 0.3-1 0.5-0.7 0.3-1.4 0.5-2.2 0.5h-1.5c-0.3 0-0.5 0-0.8 0-0.2 0-0.4 0-0.6-0.2-0.2-0.2-0.3-0.5-0.3-0.7v-1c0-0.2 0.2-0.5 0.3-0.6 0.1-0.2 0.3-0.4 0.5-0.5-1.6 1.1-3.4 1.8-5.2 2.2q-0.5 0-0.9 0c-0.5-0.3-0.3-1.1 0-1.7 1.5-2.4 3.5-4.5 5.6-6.4-2.3 1.5-4.3 3.3-6.2 5.3-0.8 0.8-1.5 1.9-1.2 3 0.3 0.9 1.4 1.4 2.4 1.3 1 0 1.9-0.6 2.7-1 0.2 0 0.5-0.2 0.7-0.4 0.2 0 0.4-0.2 0.6-0.3-0.2 0.7-0.4 1.4-0.3 2.1 0 0.3 0.1 0.7 0.3 0.9 0.1 0.2 0.4 0.5 0.7 0.5h1.1c0.5 0 1-0.3 1.5-0.4 0.7-0.3 1.4-0.6 2.1-1 0.5-0.3 0.9-0.7 1.4-1.1 0 0 0.2-0.2 0.3-0.2v0.4c0 0.2-0.1 0.3-0.1 0.5v1c0.1 0.4 0.4 0.7 0.8 0.9 0.2 0 0.3 0 0.5 0h0.6c0.7 0 1.4-0.4 2-0.9 1.7-1.2 3.1-2.9 4-4.9-1.9 1.4-4 2.5-6.2 3.4-0.2 0-1.1 0.3-1.2 0"/>
				<path id="Layer" class="s0" d="m718.4 90.2c0.7 0.5 1 0.9 0.5 1.7-0.4 0.7-0.9 1-1.7 1.1-1.3 0-2.5-0.5-3.5-1.2 0.4 0.6 0 1.5-0.9 1.7-0.7 0.2-1.5 0-2.2-0.2l-3-1c0.3 0.3 0.4 1.1 0 1.4-0.6 0.5-1.5 0.4-2.2 0.2-2.2-0.5-4.3-1.2-6.3-2.2 0.8 1.1 2 1.9 2.7 3.1 0.7 1.2 0.5 3-0.8 3.5-1.3 0.4-2.5-0.9-3.8-1.2 0.6 0.6 1.2 1.2 1.5 2 0.3 0.8 0.2 1.8-0.5 2.3-0.7 0.5-1.7 0.5-2.5 0.2-0.8-0.3-1.6-0.7-2.4-0.9 1 0.4 1.7 1.7 1.2 2.7-0.4 0.8-1.5 1.2-2.3 0.8 0.2 0.2 0.3 0.4 0.5 0.6 0.4 0.8 0.3 1.9-0.2 2.6-0.9 1.1-2.9 1-3.8 0 0.5 1.2 1.1 2.4 2.3 3.1 0.5 0.3 1.1 0.4 1.7 0.3 1 0 1.9-1 1.7-2.1 0-0.5-0.2-0.9-0.4-1.3-0.2-0.4-0.4-0.8-0.7-1.2 0.3 0.2 0.7 0.4 1.1 0.4 0.4 0 0.3 0 0.5 0 0.3 0 0.6-0.4 0.8-0.7 0.2-0.3 0.3-0.7 0.4-1 0-0.4 0-0.9-0.2-1.3 0-0.2-0.2-0.4-0.2-0.5 0-0.2-0.2-0.4-0.3-0.5 0.9 1 2.3 1.6 3.6 1.2 1.5-0.5 2.3-2.5 1.3-3.7 1.2 0.3 2.7-0.3 3.3-1.4 0.6-1.1 0.3-2.7-0.6-3.5 1.3 0 2.7 0 4 0 0.7 0 1.6-0.2 1.6-0.8 0 0.2 1.2 0.7 1.4 0.8 0.5 0.2 1 0.5 1.5 0.5 0.8 0.2 2 0 2.7-0.5 0.2 0 1.3-1.3 0.9-1.5 0.9 0.5 1.8 1.1 2.9 1.2 1 0 2.2-0.4 2.5-1.4 0.4-1.4-0.8-2.9-2-3.3"/>
				<path id="Layer" class="s0" d="m729.9 94.4c-0.7 0-1.3-0.4-1.8-0.9 0.5 0.8 1.6 1.2 2.5 1.5 0.8 0.2 1.5 0.5 2.3 0.5 0.8 0 1.6-0.3 2-1v-0.6c0.9 0.6 1.9 1 2.9 0.9 1-0.1 2.1-0.8 2.2-1.8 0-0.2 0-0.5 0.2-0.6 0.2-0.1 0.5 0 0.7 0 0.8 0.5 1.5 0.9 2.3 1.2 0.8 0.2 1.8 0 2.4-0.6 0.5-0.6 0.5-1.5 0.2-2.2-0.3-0.7-0.9-1.3-1.5-1.7-0.2 0-0.3-0.2-0.5-0.3 0.2 0.3 0.3 0.7 0.2 1.1 0 1-1.1 1.6-2.1 1.7-1 0-1.9-0.3-2.8-0.7-1.2-0.5-2.5-1-3.7-1.5 0.5 0.2 1 0.6 1.3 1 0.2 0.3 0.5 0.6 0.5 0.9 0 0.6-0.5 1.2-1.1 1.3-0.6 0.2-1.3 0-1.9-0.2q-2.2-0.6-4.2-1.8c0.5 0.6 1 1.2 1.1 2 0.1 0.8-0.3 1.7-1.1 1.8"/>
				<path id="Layer" class="s0" d="m682.2 72.7c0.6 0.6 1.3 1 2.1 1.4q0.9 0.5 1.8 0.6h1.3c0 0 0.2-0.1 0.3-0.2 0.7-0.7 0-1.8-0.5-2.5 1.4 1.2 3.1 2.1 4.9 2.6 0.8 0.2 1.7 0.2 2.2-0.4 0.5-0.7 0-1.7-0.4-2.4 1.5 1.7 3.8 2.8 6.1 2.8 2.3 0 2.1-2.3 1.6-3.9 0 0 0.6 0.2 0.7 0.2l0.7 0.2c1.7 0.5 3.3 1.1 4.9 1.9 1.5 0.7 2.9 1.6 4.1 2.8 0.3 0.3 0.5 0.5 0.8 0.9 0.3 0.3 0.5 0.7 0.5 1.1 0 0.4-0.5 0.9-0.8 0.7 2.5 1 4.9 2.5 6.9 4.4 0.5 0.5 1 1 1.2 1.6 0.2 0.6 0 1.5-0.5 1.9 0.8 0.6 1.8 0.9 2.9 1 0.3 0 0.8 0 1-0.3 0.6-0.5 0.3-1.4 0-2.1-2-3.1-5-5.5-8.5-6.6 0.5 0 0.8-0.7 0.7-1.2-0.1-0.5-0.5-0.9-0.9-1.3-2.4-2.3-5.5-3.7-8.7-4.8-3.1-1.1-6.4-1.9-9.4-3.4 0.8 0.5 1.6 1 2.2 1.7 0.5 0.6 1.2 2 0.6 2.7-0.5 0.6-1.5 0.5-2.1 0.2-1.1-0.5-2.2-1-3.3-1.6-1.1-0.6-2.1-0.9-3.1-1.7 0 0.2 0 0.4 0.2 0.5v0.8c-0.9 1.4-3.2-0.2-4.3-0.4-0.5 0-1 0-1.3 0.3-0.3 0.4 0 0.9-0.2 1.4-0.2 0.7-0.9 1.2-1.7 1.2-0.8 0-0.9-0.1-1.4-0.3 0 0-0.2 0-0.3-0.1h-0.3c0-0.1 0.2 0.3 0.3 0.3"/>
				<path id="Layer" class="s0" d="m728.9 112.7c0.4-0.2 0.8-0.5 1.3-0.5 0.5 0 1.1 0.4 1.6 0.7 2.2 1.6 5.1 2.2 7.8 1.7 0.7 0 1.4-0.4 1.7-1 0.8-1.5-1.5-2.7-2.1-4.2 1.6 0.7 3.2 1.2 4.9 1.5 1 0.2 2 0.3 2.9 0 0.9-0.4 1.5-1.6 0.9-2.4 1.4 1 3 2 4.7 1.9 1.7 0 3.5-1.8 2.8-3.4 0 0.2 1 0.5 1.2 0.6 0.5 0.2 0.9 0.3 1.4 0.5 0.4 0 0.8 0.2 1.2 0.3 0.7 0 1.3 0.2 2 0.2 0.7 0 0.7 0 0.9-0.2 0.7-0.5 0.5-1.5 0-2.3-0.8-1.4-1.9-2.5-3-3.6 0.8 0.8 1.8 2.4 0.9 3.2-0.3 0.2-0.6 0.3-1 0.3-1.9 0-3.8-0.4-5.5-1.3 0.4 0.6 0.3 1.7-0.3 2.1-1 0.7-2.3 0.5-3.4 0q-4.2-1.2-7.8-3.6c1.5 0.9 2.9 2.1 4 3.5 0.3 0.4 0.6 0.8 0.6 1.3 0 1.2-1.7 1.4-2.8 1.2-2.9-0.5-5.7-1.3-8.4-2.6 1.6 0.9 3 2.2 4 3.7 0.2 0.3 0.5 0.7 0.4 1.1 0 0.9-1.4 1-2.3 0.8-3-0.5-5.9-1.5-8.7-2.9 0.3 1.6-1.3 3.3-2.9 3.2 0.8 0.5 2 0.6 2.9 0.2"/>
				<path id="Layer" class="s0" d="m761.6 121.8c0.6 0.4 1.2 0.8 2 0.9h0.6c0.2 0 0.3 0 0.5 0 0.3-0.2 0.7-0.5 0.8-0.9 0-0.3 0-0.7 0-1 0-0.2 0-0.3 0-0.5v-0.4c0 0 0.2 0.2 0.3 0.2 0.4 0.4 0.8 0.7 1.3 1.1 0.7 0.4 1.3 0.8 2.1 1 0.5 0.2 1 0.3 1.5 0.4 0.3 0 0.7 0 1 0 0.3 0 0.6-0.3 0.7-0.5 0.2-0.3 0.2-0.6 0.3-0.9 0-0.7 0-1.5-0.3-2.2 0.2 0 0.4 0.2 0.6 0.3 0.2 0 0.5 0.2 0.7 0.4 0.9 0.5 1.8 0.9 2.7 1 1 0 2.1-0.4 2.4-1.3 0.3-1.1-0.4-2.1-1.2-2.9-1.8-2-3.9-3.8-6.2-5.3 2.1 1.9 4 4 5.6 6.4 0.3 0.5 0.6 1.3 0 1.7-0.3 0.2-0.6 0-0.9 0-1.9-0.4-3.7-1.1-5.2-2.2 0.2 0.2 0.3 0.3 0.5 0.5 0.2 0.2 0.2 0.4 0.3 0.6v1c0 0.3 0 0.5-0.3 0.7-0.3 0.2-0.4 0.2-0.6 0.2h-2.3c-0.7 0-1.5-0.3-2.1-0.6-0.3 0-0.7-0.3-1-0.5-0.2 0-0.3-0.2-0.5-0.3 0 0-0.3-0.3-0.5-0.2 0 0 0.2 0.2 0.2 0.3 0.2 0.4 0.3 0.8 0.2 1.2 0 0.4-1 0.2-1.2 0-2.2-0.9-4.3-2.1-6.2-3.4 0.9 1.9 2.3 3.6 4 4.8"/>
				<path id="Layer" class="s0" d="m642.4 164.6c-5.3-0.7-6.9-6.3-6.9-6.3l-1.3 2.1c3.5 5 8.2 4.2 8.2 4.2z"/>
				<path id="Layer" fill-rule="evenodd" class="s0" d="m633.4 82.3c0 0.9-0.7 1.6-1.7 1.6-1 0-1.7-0.7-1.7-1.6 0-0.9 0.8-1.6 1.7-1.6 1 0 1.7 0.7 1.7 1.6zm-1 0.1c0-0.4-0.3-0.7-0.7-0.7-0.4 0-0.7 0.3-0.7 0.7 0 0.4 0.3 0.7 0.7 0.7 0.4 0 0.7-0.3 0.7-0.7z"/>
				<path id="Layer" fill-rule="evenodd" class="s0" d="m822.4 181.6c0.7 0.9 0.6 2.1 0 3l-13.1 18.1-11.4-2.5c8.1 61-1 102.5-10.1 126.6-10 26.5-21.4 37.7-21.9 38.2-3 3.5-22.8 24.9-53.1 24.9-13.2 0-28.3-4-44.9-15.3 5.1 17 18.6 37.1 18.6 37.3l0.7 1h-1.3c-6-0.2-10.7 0.3-14.4 1v0.2c0.2 0.7 0.3 1.4 0.5 2.1 0.3 1.1 0.5 2.2 0.8 3.3 0.2 0.9 0.5 1.9 0.7 2.8 0.1 0.6 0.4 1.1 0.4 1.7v0.6c0.1 0.5-0.1 1.5-1 2.3-1.3 1.3-3.9 1.6-7.5 1-1.6-0.2-2.9-0.3-3.9-0.2l-0.3 9.7c0 0.4 0 0.8-0.3 1.3q-1.8 2.7-12.9 2.7-11.1 0-12.9-2.7c-0.3-0.2-0.3-0.5-0.3-0.7v-0.6l-0.3-9.7c-1-0.1-2.2-0.1-3.9 0.2-3.7 0.6-6.2 0.3-7.6-1-1-0.8-1-1.8-1-2.3 0 0-0.1-0.6 0.2-1.5l2.2-9.2c-3.6-0.7-8.4-1.2-14.4-1h-1.3l0.7-1.1c0.1-0.2 13.4-20.2 18.6-37.2-16.6 11.2-14.5 15.2-44.8 15.2-30.3 0-49.9-21.3-52.9-24.8-1.8-1.8-12.8-13.5-22.2-38.3-9.1-24.1-18.2-65.6-10.1-126.6l-11.4 2.5-13-18.1c-0.6-0.9-0.6-2.1 0-3 0.5-0.9 1.5-1.2 2.4-1.2l22.1 4.8 2.4 11.9 5.8 3.8c0.1-10.2 0.5-20.9 1.4-31.9l-11.7 2.5-13-18.1c-0.6-0.9-0.6-2.1 0-3 0.5-0.9 1.4-1.2 2.4-1.2l22.1 4.8 2.4 11.9 52.9 34.6c0.2-4.7 0.5-9.4 1-14.2-1.2 0.2-0.6 0.2-3.5 0.2-2.9 0-5.4-0.6-7.6-2-7.4-4.7-9.7-19-10.1-21.8v-0.3l0.7-0.5c1.4-1 4.7-3.6 5.7-7.4-1.2 0.1-2.4 0.4-3.5 0.8-1 0.3-2.1 0.8-3.2 1.4-3.1 1.5-6.7 3.2-11 3.2-1.4 0-2.9-0.3-4.5-0.7-7-2.3-9.8-5.9-9.9-5.9l-0.8-1 8.6-0.8-2.7-8.1 1.7 1.3c0 0 4.1 3 6 3.8h0.4c1.6 0.5 3.5 1.1 8.8-1 3.3-1.4 6-1.9 8.5-1.6 3.1 0.4 5.3 2.3 7.2 4 1.9 1.7 4.2 3.7 5 6.3v0.3c0.2 0.4 0.2 0.9 0.2 1.3 0 0.8 0 1.8 0 2.6-0.2 1.2-0.5 2.4-1 3.5-0.3 0.9-0.8 1.7-1.3 2.5 5.4 0 12.7-1 22.6-4.1 7.2-2.3 14.3-3.4 21.1-3.4 9.1 0 16.9 2 23.3 4.7 0.3-0.6 0.6-1.2 1-1.7-2-1.5-1.8-2-2.8-4.4-0.5-1.1-0.8-2.3-1-3.6-0.8 1.8-1.9 3.3-3.1 4.2l-0.8 0.6-0.3-0.9c-1.3-4.2-0.4-8.6 3.2-12.4-1.5-2-2.5-4.3-2.9-6.9-0.9 1.9-2.2 3.3-3.5 4.1l-0.8 0.5-0.2-0.9c-0.8-4.4 1.1-9.4 4.7-12.4-1.1-1.6-1.9-3.5-2.3-5.5-0.8 1.8-2 3.2-3.3 4l-0.8 0.5-0.2-1c-0.6 0.2-1.2 0.2-1.6 0.2-1.7-0.3-2.7-2-3.4-3.2v-0.3c-0.3-0.6-0.3-0.8-0.5-0.8-1.3-0.6-1.9-1.8-2.2-2.9-0.2 0-0.3 0-0.5 0-0.5-0.2-0.8-0.2-1.3 0.2-0.8 0.6-1.8 0.6-2.6 0.2-0.7 0.7-1.6 0.9-2.6 0.9-0.6-0.1-1.2-0.4-1.7-0.8-0.2 0.1-0.5 0.4-0.8 0.4-0.6 0.2-0.9 0.6-1.5 1.4l-0.2 0.3c-1.3 1.7-2.6 2-3.5 2-0.6 0-1.5-0.1-2.3-0.8-0.2 0-0.6-0.2-0.9 0-1.5 0.8-2.7 0.5-3.4 0.2-2.2-0.9-3.2-3.7-3.5-6.1-0.1-0.3-0.3-0.7-0.6-0.7-0.6-0.1-1.1-0.4-1.6-0.9-0.2 0.2-0.5 0.5-0.5 0.5-0.3 0.3-0.6 0.6-0.8 0.6l-0.9 0.6c-1.8 1.1-3.5 2.2-5.6 2.8h-0.3c-0.7 0.1-1.3-0.2-1.6-0.2-0.2 0.2-0.5 0.4-0.8 0.6-3.9 2.8-6.6 4.3-8.6 3.9q-0.7-0.1-1.2-0.6c-0.3-0.2-0.8-0.2-1.1 0-2.5 1.7-5.2 3.4-8.2 4.5q-1 0.3-2.1 0c-0.5-0.2-0.9-0.5-1.2-0.8-0.7 0.5-1.5 1.1-2.2 1.6-2.5 1.8-5 3.6-8 4.8-1.6 0.8-2.7 0.4-3.4 0-0.6-0.4-1-0.9-1.2-1.4-0.2-0.5-0.9-0.6-1.3-0.3-1.2 1.1-2.7 2.1-4.7 2.7h-0.2c-1.3 0.3-2.2-0.1-2.8-0.6-0.2 0.2-0.4 0.3-0.6 0.5-1.7 1.3-3.4 2.7-5.5 3.6-1 0.5-2.3 0.4-3.2-0.3q-0.4-0.3-0.6-0.6c-0.2-0.3-0.6-0.5-1-0.3-1.6 0.7-3 1.5-4.4 2.5-0.8 0.5-2.7 1.9-4.7 0.7-0.3-0.2-0.6-0.4-0.8-0.7-0.3-0.2-0.8-0.3-1.2 0-3.8 3-6.2 4.2-8 3.3-0.3-0.2-0.8-0.5-1.1-1.1-0.2-0.4-0.8-0.5-1.2-0.2-1 0.7-2 1.3-3 1.9-1.1 0.7-2.4 1.5-3.6 2.3-2.1 1.4-3.9 2.1-5.2 2.1-0.5 0-1-0.1-1.4-0.4-0.4-0.3-1.3-1-1.1-2.6 0.4-3.9 2.9-6.7 5.1-9.1 5.8-6.5 12.7-12.2 19.3-17.8 2.5-2.1 5-4.3 7.5-6.4 16.8-14.7 34.2-28 53.3-40.8 16.8-11.2 33.7-17.3 50.4-18.1 7-0.4 16.5 0.3 21.4 6.1 2.7 3.2 3.7 8.1 2.7 13.3 0.2 0.2 0.4 0.2 0.4 0.2 0.5 0.1 1.2-0.2 2-0.6h0.3c0.9-0.3 1.9-0.8 3.4-0.8 1.5 0 2.8 0.5 3.8 1.4 0.7 0.7 1.3 1.7 1.3 3 0.6 0.6 1.2 1.3 1.7 2.1 1.5 2.3 2.2 5.1 2 8.2 0.4 0.4 1.1 0.9 1.9 1.4 2-0.3 8.8-0.6 13 4.3l0.2 0.2c0.9-0.4 1.6-0.9 2-1.6 1.1-1.8 1-4.9-0.5-9.3l-0.2-0.7c-2.4-8.1-5.7-19.2 4.6-24.6 4.4-2.3 10.1-3.1 17.3-2.8 16.7 0.9 33.7 7 50.2 18.1 19 12.8 36.5 26.1 53.3 40.8 2.4 2.1 5 4.3 7.5 6.4 6.6 5.5 13.5 11.3 19.3 17.7 2.2 2.4 4.7 5.2 5.1 9.1 0.1 1.1-0.1 1.8-0.8 2.4-0.4 0.4-0.9 0.6-1.6 0.6h-0.6c-2.7-0.7-5-2.2-7.2-3.7-1.1-0.8-2.1-1.4-3.1-2-0.8-0.4-1.4-0.8-2-1.2-0.2 1-0.8 1.6-1.3 1.8-2 1.1-4.9-0.8-5.8-1.5-1.1-0.7-2.1-1.5-3.1-2.3-0.2 0.7-0.7 1.1-1.1 1.4-2 1.2-4-0.2-4.7-0.7-1.5-1.1-3.3-2-5.1-2.8-0.2 0.4-0.4 0.8-0.9 1.2-0.9 0.7-2.2 0.8-3.3 0.3-2.3-1.1-4.2-2.6-6.1-4.1-0.6 0.6-1.5 0.9-2.8 0.6h-0.2c-2.5-0.7-4.2-2.1-5.7-3.4-0.2 1-0.6 1.9-1.5 2.5-0.6 0.5-1.8 0.8-3.5 0-2.9-1.1-5.4-2.9-7.9-4.7-0.8-0.6-1.5-1.1-2.2-1.6-0.3 0.4-0.7 0.6-1.2 0.8q-1.1 0.3-2.1 0c-3.3-1.2-6.1-3.1-8.8-5-0.2 0.4-0.6 0.8-0.8 0.8-2 1.2-4.9-0.3-9.5-3.6-0.3-0.2-0.6-0.5-0.8-0.5-0.4 0.2-0.9 0.2-1.6 0.2-0.7-0.1-1.4-0.3-1.9-0.6-1.6-0.8-3.3-1.7-4.8-2.8-0.3-0.1-0.5-0.4-0.8-0.6-0.1-0.2-0.3-0.3-0.5-0.5-0.6 0.6-1.3 1-2.1 1-0.1 1.4-0.5 2.8-1.2 4.3-0.8 1.8-2 2.4-2.8 2.6-0.8 0.2-2 0.2-3.4-0.7-1 1-1.8 1.2-2.7 1.2-0.9 0-2.2-0.3-3.5-2l-0.2-0.3c-0.6-0.7-1-1.2-1.5-1.4-0.3-0.2-0.6-0.3-0.8-0.5-0.5 0.4-1.1 0.8-1.7 0.8-1 0.1-1.9-0.2-2.6-0.9-0.8 0.5-1.8 0.5-2.6-0.2-0.4-0.4-0.7-0.5-1.3-0.2-0.2 0-0.3 0-0.5 0-0.4 1.1-0.9 2.3-2.2 2.9q-0.2 0.1-0.6 0.8v0.3c-0.6 1.2-1.6 2.9-3.3 3.2-0.3 0.2-0.8 0.2-1.3 0-0.9 1.3-2.2 2.3-3.4 3.1-0.5 0.3-1.8 1.3-3.3 0.7-0.6-0.2-1-0.6-1.3-1-1.3 1.4-3.1 2.2-4.9 2.2-1.8 0-3.1-1-3.9-2.7-0.1 0.2-0.4 0.5-0.6 0.5v1.5c0.2 1 0 1.9-0.5 2.7q-0.3 0.5-0.6 0.9c-0.1 0.2-0.3 0.3-0.5 0.5v0.2c-0.3 0.2-0.3 0.5-0.3 0.5-0.1 1.4-0.5 2.8-1.3 4.1 0.2 0.2 0.3 0.4 0.5 0.6 0.3 0.4 0.6 0.8 1 1.2 0.9 1 1.5 2.1 1.9 3.4 0.6 2.1 0.7 4.4 0.4 6.8-0.3 1.7-0.5 3.4-0.3 5.1 0.2 1.5 1 2.8 1.8 4.1 0.3 0.5 0.6 1 0.8 1.5q0 0.3 0 0.6c6.7-3 14.9-5.2 24.6-5.2 6.8 0 13.9 1.2 21.1 3.4 9.9 3.1 17.2 4.1 22.6 4.1-0.5-0.8-0.9-1.6-1.3-2.5-0.5-1.1-0.8-2.3-1-3.5v-2.6c0-0.5 0.1-0.9 0.3-1.3v-0.3c0.7-2.6 3-4.6 4.9-6.3 2-1.7 4.1-3.6 7.2-4 2.4-0.2 5.2 0.3 8.5 1.6 5.3 2.1 7.2 1.5 8.8 0.9h0.4c1.9-0.7 6-3.7 6-3.7l1.7-1.3-2.7 8.1 8.7 0.8-0.8 1c-0.1 0.1-2.8 3.6-9.8 5.9-1.6 0.5-0.1 0.7-4.5 0.7-4.4 0-8-1.8-11-3.2-1.1-0.5-2.2-1-3.2-1.4-1.1-0.4-2.3-0.8-3.5-0.8 1 3.8 4.3 6.5 5.7 7.4l0.7 0.5v0.3c-0.3 2.8-2.6 17.1-10 21.8-2.1 1.4-4.7 2-7.6 2-1.2 0-2.4-0.1-3.7-0.3v0.4c0.5 4.7 0.8 9.3 1 13.9l53-34.7 2.4-11.9 22.1-4.8c0.9-0.1 1.9 0.4 2.4 1.2 0.7 0.9 0.6 2.1 0 3l-13.1 18.1-11.7-2.5c0.9 11 1.4 21.7 1.4 31.9l5.8-3.8 2.4-11.9 22.1-4.8c0.9 0 1.9 0.4 2.4 1.2m-30.8-24.5l-1.7 8.6 8.6 1.8 10.2-14.2-17.1 3.7zm-294 10.2l8.6-1.8-1.7-8.6-17.1-3.7 10.2 14.2zm-9.3 31.4l8.6-1.9-1.7-8.6-17.1-3.7 10.2 14.1zm272.2-11.9c-0.3 12.7-0.9 24-2.1 34.4l27.7-18.1c0-10.2-0.5-21-1.3-32.1l-24.3 15.9zm-27.8 51.3l9-5.9c1.6-10.8 2.7-22.3 3.2-35.1l-11.5 7.6c0.4 11.7 0.1 22.9-0.7 33.4zm-0.3 4.5c-4.8 48-21.9 83.3-41 107.1 1.2 1.5 3.2 3.8 5.9 6.4 3.7-3.7 7.2-7.6 10.6-11.7 6.4-7.8 12.2-16.2 17.1-25 4.9-8.9 9-18.3 12.1-27.9 6.1-18.8 8.8-38.5 9.6-58.3l-14.4 9.4zm-62.8 106c0.6 1.6-0.2 2.9-1 4.1-0.4 0.7-0.9 1.3-0.9 1.8 0 0.1 0.2 0.2 0.7 0.4 1.8 0.6 3 1.7 3.2 3v1.6c0.1 0.1 0.3 0.3 0.3 0.4 0.2 0.2 0.3 0.4 0.5 0.7v0.2c0 0.5 0.1 0.8 0.3 1.1 8-7.4 16.2-16.8 23.7-28.3-2.9-3.2-5.5-2.8-8-1.4 0.6 0.5 1.3 0.9 2 1.3l1 0.5-1 0.6c-1.1 0.7-2.2 0.8-3.4 0.8h-0.8c-3.3 0.3-6.4 2.1-8.3 4.8-0.3 0.4-0.3 0.7-0.3 0.7 0 0.1 0.3 0.2 0.3 0.4 1.4 1.2 2 3.5 0.8 5.1-0.5 0.6-1.3 1-2.2 1h-0.8c-1-0.3-1.8-1-1.8-1.9 0-0.4 0-1.8 0-1.8h-0.6c-1.9-0.2-2.8-1.7-3.7-3.1-0.5-0.8-1-1.7-1.7-2.2-1.7-1.4-4.2-0.7-6.7 0l-0.7 0.2c-5 1.3-10.2 1.1-15.2 0.9-3-0.1-6.1-0.2-9-1.1-0.8-0.2-1.5-0.5-2.3-0.8-1-0.3-1.9-0.7-2.8-0.9-1.3-0.3-2.6-0.5-4-0.6-1.2-0.1-2.3-0.3-3.5-0.5-4.7-1-8.8-3.8-12.5-6.3-1.3-0.9-2.6-1.8-3.7-3.1-0.7-0.9-1.3-1.8-1.8-2.8-0.5-1-1.1-2-1.8-2.8-2.8-2.1-4.3-5.4-5.7-8.5-0.3-0.5-0.5-0.9-0.7-1.4h-10.2c10 21.6 22.6 38.2 35 50v-1.7c0-1.6 0-3.3 1.5-4.3 0.2-0.2 0.5-0.3 0.7-0.4 0.3-0.1 0.4-0.2 0.6-0.3 0.2-0.1 0.4-0.4 0.4-0.6 0.1-0.3 0.3-0.6 0.5-0.9 0.7-0.8 1.9-1 2.7-1 0.8 0 1.5-0.1 2-0.6 0.4-0.4 0.6-0.9 0.4-1.3-0.2-0.1-0.2-0.2-0.2-0.3-0.1-0.1-0.3-0.3-0.3-0.5-0.3-1-0.1-1.9 0.5-2.7 1.1-1.4 3.1-2 4.6-2 0.5 0.1 1.1 0.2 1.6 0.2 1.1 0.2 2.2 0.3 2.9-0.2 0.3-0.2 0.5-0.5 0.8-0.9 0.4-0.6 0.9-1.2 1.7-1.5 0.5-0.1 0.9-0.1 1.4-0.1 0.5 0 0.8 0 1-0.1 0.4-0.9 1.1-1.2 2.1-1.1l7.8 0.5c0.6 0 1.3 0.1 1.9 0.5 0.5 0.3 0.8 0.7 1 1 0.2 0.2 0.4 0.5 0.6 0.6 0.7 0.5 1.7 0.2 2.1 0 0.3-0.1 0.6-0.3 0.9-0.4 0.6-0.3 1.1-0.7 1.8-0.8 1.4-0.5 3.6 0.3 4.6 1.7 0.7 1 0.7 2.1 0 3.1-0.2 0.3-0.3 0.4-0.5 0.5l-0.3 0.3c0 0.1 0.2 0.3 0.5 0.5h0.3c0.5 0.2 1.1 0.4 1.5 1zm-40-163.7q0-1.3 0-2.7c-7.7-2.6-22.3-5.7-41.7-2-2.3 0.6-4.4 1.2-6.5 1.8 9.9 5.3 26.8 10.4 48.1 3zm7.3 0.9c-26.8 11.8-48.8 4-60-2.6-2.8 0.8-5.4 1.4-7.8 2-2.2 23.1-1.8 44 0.6 62.8h156.7c2.2-18.5 2.6-39.1 0.4-61.8v-1.1c-2.4-0.5-4.9-1.2-7.7-2-0.4 0.3-1.1 0.7-1.1 0.7-6.9 3.9-20 8.2-30.9 8.2-10.9 0-23.6-2.9-37.6-11.3-0.4 1-0.9 1.8-1.4 2.5l-0.6 0.8-0.5-0.8c-0.4-0.6-0.7-1.4-1-2.1q-2.1 1.4-4.2 2.4c0.5 2 0.8 4 0.5 5.7l-0.2 0.9-0.8-0.4c-1.6-0.9-3.1-2.3-4.3-3.9zm-16.4-76.7c-0.2 2.2-0.7 4.3-1.6 6 1.7 0.9 3.5 2.1 4.7 3.7 1.6 2 2.6 4.3 2.6 6.3v0.9l-0.9-0.3c-1.3-0.4-2.6-1.2-3.7-2.1 0.2 0.5 0.2 0.9 0.2 1.5 1.7 2.5 4.5 2.5 4.5 2.5l2.8 4.2v0.3c0 0.6 0 1.5 0.2 2.2 0.2 0.7 0.7 1.4 1.4 1.6-0.2 0.1-0.2 0.2-0.2 0.4-0.2 1-0.2 2.1 0 3 0.2 1.3 0.9 2 2 2.7-0.2-0.1-0.4 0.1-0.6 0.3-1 1.3-2 2.6-2.8 4-0.2 0.4-0.5 0.8-0.5 1.1 0.4 0.3 0.8 0.6 0.8 0.8 1.5 2 2.4 4.3 2.4 6.3v0.9l-0.9-0.3c-1.1-0.4-2.1-0.9-3-1.6 0.1 1.2 0.3 2.4 0.7 3.6 0.2 0 0.2 0.2 0.2 0.2 0.6 0 1.5 0 2.1 0 1.7 0.3 2.2 1.7 2.2 3.1 0.2 0.2 0.5 0.2 0.5 0.2 2.1 1.2 3.8 3.1 4.5 4.9l0.3 0.9h-0.9c-0.3 0 0.3 0-1 0-1.3 0-2.5-0.3-3.7-0.7 0.2 0.4 0.3 0.7 0.5 1 0.3 0.5 0.6 1.3 0.8 2.1q4.5 3 7.5 5.7c-0.4-3.1 0.1-6.5 1.5-9.4 0.8-1.5 1.7-2.9 2.7-4-1.4-3-1.8-6.6-1.1-10-1.5 1.4-3.3 2.4-4.9 2.8h-0.9l0.2-0.9c0.5-3.3 2.4-6.3 5.1-8.1 0.8-0.6 1.7-1 2.5-1.4-1.3-2.4-2-5.3-1.8-8.2-1.2 1.7-2.8 3-4.3 3.5l-0.9 0.3v-0.9c0-2.3 0.6-4.6 1.8-6.5 1-1.7 2.5-3.2 4.2-4.3-1.7-2-2.9-4.6-3.4-7.4-1.1 2.3-2.6 4-4.2 4.9l-1 0.4v-0.9c-0.4-3.2 0.5-6.7 2.4-9.3 0.6-0.8 1.3-1.7 2.1-2.3-2.2-1.4-4-3.5-5.2-6.1-0.3 2.3-1.1 4.4-2.3 5.7l-0.6 0.7-0.5-0.9c-2-3.7-1.7-8.6 0.5-12.6-2-1.1-3.8-2.8-5.1-4.9-0.7-1.2-1.4-2.7-1.9-4.3-0.3 1.5-0.8 2.9-1.5 4.3-1.3 2.3-3 4.2-4.8 5.3 1.5 0.9 2.9 2.5 3.8 3.8 1.4 2.1 2.1 4.5 1.9 6.5v0.9l-0.9-0.4c-1.7-0.7-3.3-2-4.5-3.6zm-8.5 14.1c0.6-2.8 2.1-5.5 4.3-7.5-1.3-3.2-1.5-6.8-0.5-10.3-0.8 0.6-2.1 1.4-3.5 1.4h-0.9l0.2-0.8c0.7-3.3 3.5-6.1 6.6-6.8h0.5c0-3.7 1.4-7.4 3.8-10.2 0.7-0.8 1.5-1.5 2.3-2.2-1.3-0.1-3.1 0-5.1 1-2.4 1.1-2.1 5.4-3 2.8 0-0.2 0-0.3 0-0.5-0.9-2.9-0.3-5.4 1.7-7.5 0.4-0.5 0.9-0.8 1.4-1.2 0.3-0.2 0.6-0.4 0.8-0.6 0.1-0.1 0.3-0.2 0.4-0.3 0.1-0.1 0.3-0.2 0.3-0.2 0.2-0.1 0.2-0.2 0.2-0.3-0.1-0.3-0.3-0.5-0.3-0.8v-0.2c-0.5-1.9 0.5-3.7 2.4-4 1.1-0.2 2.3 0.2 3.3 0.7 0 0 1.7-2.8 3.6-2.5 0.8-4.1 0.1-8.2-1.9-10.6-4.2-4.9-13.4-5.2-18.5-4.9-16 0.8-32.3 6.7-48.5 17.5-19 12.6-36.3 25.9-53 40.5-2.5 2.2-5.1 4.4-7.6 6.5-6.6 5.5-13.4 11.2-19 17.4-1.7 1.8-3.2 3.6-3.9 5.6 0.6-0.3 1.3-0.7 1.9-1.1 1.3-0.9 2.6-1.7 3.8-2.4 2.5-1.5 4.9-3 7.1-5.1 0.9-0.7 2-0.7 2.8 0 0.8 0.7 0.9 1.8 0.3 2.7-0.4 0.6-0.7 0.9-0.8 1.2 1.3-0.7 3.5-2.4 6.6-5 0.7-0.7 1.2-1.1 1.5-1.3l1.5-1c0.8-0.5 2.1-0.6 1.9 0.7-0.1 0.9-0.5 1.7-0.7 2.7q-0.3 0.7-0.6 1.5c2.1-1.5 4.4-2.6 6.6-3.6l0.9-0.4c0.8-0.4 1.7-0.3 2.4 0.2 0.5 0.4 0.9 1 0.9 1.7 1.3-0.8 2.6-1.8 3.9-2.8 0.7-0.6 1.5-1.2 2.2-1.7 0.3-0.2 0.7-0.5 1-0.7 0.4-0.4 1.1-0.2 1.3 0.3 0.1 0.4 0.3 0.8 0.4 1.2 0.1 0.1 0.1 0.3 0.1 0.3 1.7-0.5 2.9-1.5 4.2-2.7 0.7-0.6 1.3-1.1 2.1-1.7 0.6-0.5 1.5-0.6 2.3-0.2 0.7 0.4 1.2 1.1 1.2 2.1 0.1 0.5 0.1 1.3 0.1 1.8 2.7-1.1 4.9-2.7 7.3-4.4 1.3-1 2.6-1.9 4-2.8l1.5-0.9 0.9 1.5c0.1 0.3 0.3 0.5 0.3 0.7 3-1.2 5.7-3.1 8.4-5l0.6-0.4c0.4-0.3 1.5-1.2 2.7-0.5 0.4 0.3 0.8 0.6 0.8 1 0.2 0.4 0.7 0.6 1.2 0.4 1-0.5 2.3-1.4 4-2.6 0.5-0.4 0.9-0.8 1.1-0.8 1.2-0.8 2.1-0.6 2.9-0.3 1.4-0.5 2.8-1.4 4.3-2.3l0.9-0.6c0.1 0 0.2-0.3 0.4-0.3 0.9-0.8 2.2-1.9 3.7-1.6 0.7 0.1 1.3 0.5 1.7 1.2 0.9-0.5 1.6-0.4 2.2 0 1 0.7 1 1.9 1 2.4-0.1 2.1 0.8 4.5 1.4 4.7 0 0 0.4-0.2 0.9-0.7 0.7-0.7 1.3-0.7 1.8-0.7 1 0.1 1.5 0.9 1.7 1.1 0.4 0.5 0.7 0.7 0.7 0.7 0 0 0.2-0.2 0.5-0.6l0.2-0.3c0.6-0.9 1.4-2 2.9-2.6 0.1-0.1 0.3-0.4 0.3-0.4l0.2-0.3c0.5-0.7 1.2-1 2-1 0.8 0.1 1.5 0.6 1.9 1.3v0.2c0.4-0.4 1.1-0.9 1.7-0.9 0.6 0 1.1 0.2 1.5 0.4 1.2-0.7 2.4-0.8 3.7-0.4 0.6-0.1 1.2 0 1.5 0.2 1 0.5 1.4 1.5 1.4 1.8 0.1 0.3 0.3 1.1 0.5 1.3 1.4 0.6 1.9 1.8 2.3 2.6v0.2c0.2 0.3 0.4 0.5 0.4 0.7 0.3-0.6 0.7-0.9 1.2-1.1zm13.2-38.6c0.3-0.9 0.3-1.3 0.3-1.8-0.2-0.7-0.5-1.1-1-1.2-0.5-0.2-0.9-0.2-1.5-0.2-0.6 0-1.2 0.1-1.7 0.4-1 0.5-1.8 1.2-2.4 2-0.2 0.3-0.5 0.7-0.7 1.2-0.2 0.5-0.4 1.1-0.4 1.8 1.8-1.8 4-2.6 6.7-2.2zm-1.3 53.4c0.5 2.1 0.5 4.2 0.2 6 0.5 0.3 2 1.4 3.3 2.3 0.4-1.2 0.9-2.1 1.7-3 0.3-0.4 0.7-0.8 1-1.2 0.2-0.2 0.3-0.4 0.5-0.6-0.9-1.3-1.3-2.7-1.3-4.1 0-0.1-0.2-0.3-0.4-0.5v-0.2c-0.1-0.2-0.4-0.3-0.4-0.5-0.2-0.3-0.4-0.6-0.7-0.9v-3.7l-1.3-1.8-4.6-3.6c0 1.3-0.1 2.4-0.3 3.5 1.8 0.8 3.5 2.2 4.6 3.4 1.6 2 2.7 4.2 2.9 6.2v0.9l-0.9-0.2c-1.7-0.4-3.3-1.3-4.6-2.5 0.2 0.2 0.2 0.4 0.2 0.6zm-4.3-36.1c0.2 0.5 0.4 0.9 0.4 1.4 0.3 1 0.8 1.9 1.3 2.7 0.9 1.3 2.1 2.4 3.4 3.2-0.2-1.5-0.7-3.2-1.7-4.7-0.8-1.2-2.1-2.6-3.6-3.5 0.2 0.3 0.2 0.6 0.2 0.9zm9.9-8c1.1 1.8 2.7 3.4 4.5 4.4 0-2-0.8-4.3-2-6.4-1.2-1.9-2.9-3.6-4.8-4.8 0.2 2.1 1 4.6 2.3 6.8zm32 0.9c-3-3.7-8.3-3.5-10.2-3.5 0 0.1 0.2 0.3 0.2 0.3 0.4 0.4 0.8 0.7 1.2 1.2 0.3 0.4 0.6 0.8 0.9 1.3 0.5 0.9 0.9 1.8 1.3 2.8 0.7 1.6 1 3.1 1 4.8-0.1 1.3-1.3 2.2-2.3 2.8-2.2 1.3-4.9 1.5-7.3 1.1-0.4-0.1-0.8-0.2-1.1-0.5-0.3-0.2-0.5-0.6-0.5-1-0.4-2-0.5-4.6-0.7-6.6-0.5-4-4.5-5.7-4.5-5.7-1.7 0.2-3.4 2.8-3.4 2.8v-2.7c-0.4-0.1-0.9-0.3-1.2-0.5-0.7-0.7-2.5-2.6-3.3-2.8-0.2-0.1-0.5-0.3-0.8-0.3 1 1 1.9 2.1 2.6 3.2 1.3 2.3 2.2 4.8 2.2 7l0.3 0.2c2.4 1.4 4.7 3.7 6.1 6.2 1.1 2.1 1.9 4.3 1.9 6.3 2 0.4 3.9 1.2 5.5 2.5 1.9 1.6 3.3 3.7 3.8 5.6l0.2 0.8h-0.9c-1.7-0.1-3.3-0.7-4.8-1.6 0.2 0.6 0.5 1.1 0.5 1.6 0.5 1.8 0.5 3.6 0.5 5.2 1.8 1.1 3.4 2.7 4.5 4.6 1.2 2.3 1.8 4.7 1.4 6.7v0.9l-0.8-0.4c-1.3-0.6-2.4-1.5-3.3-2.6 0.2 0.8 0.2 1.5 0.2 2.3 0 2.6-0.5 5-1.4 6.9 1.8 0.9 3.5 2.3 4.7 3.9 1.5 2.1 2.3 4.4 2.3 6.4v0.9l-0.9-0.3c-1.9-0.7-3.7-2.1-5.1-3.9q0 1.5 0 3c-0.3 2.6-1.1 5-2.3 6.7 1.7 1.4 3.1 3.3 4 5.4 0.9 2.4 1.2 4.8 0.7 6.6l-0.2 0.9-0.8-0.6c-0.5-0.3-0.9-0.7-1.3-1.1 0.3 1.2 0.3 2.5 0.3 3.7-0.2 0.7-0.2 1.3-0.2 2 0.3 0.2 0.5 0.3 0.8 0.5 2.6-2.8 7.6-7.5 15-11.5-0.1 0-0.3 0-0.3 0-1.1-0.6-2.1-1.6-3-2.4-0.9-0.9-1.7-1.9-2.4-2.9-0.3-0.4-0.5-0.8-0.7-1.2-3.5 4.8-8.1 4-8.1 4 5.3-0.8 6.9-6.3 6.9-6.3l2.8 3.1c0-1.7 0.2-3.7 2.2-3.9 0.6-0.2 1.2 0 1.8 0h0.3c0.2-0.1 0.2-0.3 0.2-0.3 0.6-1.7 0.8-3.6 0.8-5.4-0.1-1.8-0.3-3.9-1.2-5.4-0.8-1.4-1.8-2.8-2.8-4-0.1-0.1-0.4-0.3-0.6-0.3 1.1-0.7 1.8-1.5 2-2.7 0.2-1 0.2-2.1 0-3-0.1-0.2-0.1-0.4-0.3-0.4 0.7-0.2 1.2-0.9 1.4-1.6 0.2-0.6 0.2-1.5 0.2-2.2-0.1-0.4-0.3-1-0.3-1.3 0.1-0.4 0.9-0.8 1.1-1.1 0.7-0.8 1-2 0.7-3.1-0.5-2-2.7-3.2-2.7-5.4 0-0.8 0.2-1.7 0.5-2.5 0.2-0.8 0.8-1.7 0.8-2.5 0.2-1-0.1-1.5-0.6-2.3-0.4-0.7-0.9-1.3-1.4-1.9-9.2 1.9-6.9 0.3-6.9 0.3 3.2-0.5 5.2-1.2 6.3-1.8 0.2 0 0.4-0.2 0.4-0.2 0.5-0.4 0.9-0.9 1.4-1.4 0.7-0.7 1.3-1.6 1.5-2.6 0.3-1.3 0.1-2.6-0.2-3.9-0.7-2.3-1.4-4.2-3-6.1-0.2-0.2-0.2-0.2-0.2-0.2-1-0.1-1.4-0.5-1.7-0.8zm-19.2 16.6v-0.8c-0.2-1.7-0.7-3.6-1.7-5.4-1.1-2-2.8-3.7-4.6-5 0.4 4.8 2.6 9.3 6.3 11.2zm-0.1 2.6v0.1q0-0.1 0.1-0.1zm0 0.1c-0.6 0.5-1 1.1-1.5 1.7-1.5 2.1-2.2 4.8-2.2 7.3 1.1-0.8 2.1-2.2 2.8-3.8 0.4-1.2 0.9-2.4 0.9-3.7zm5.3 15.6c-0.4 1-0.7 2.4-1 3.5-0.6 3.3-0.2 6.8 1.3 9.7h0.2c0.8-1.7 1.2-3.9 1.2-6.3 0-2.4-0.7-4.8-1.7-6.9zm1-3.1q0.1 0.1 0.1 0.1 0 0 0-0.1zm0.1 0.1c0 0.9 0.3 1.7 0.5 2.5 0.7 2.6 2.2 4.7 4.2 6 0-1.5-0.5-3.2-1.4-4.8-0.9-1.4-2-2.7-3.3-3.7zm-3.3 44.6c0.3-1.3 0.7-2.4 1.2-3.5v-2.5c0-0.9-0.1-1.8-0.3-2.6-0.7 0.9-1.4 1.9-1.9 3.1-1.5 3-1.9 6.7-1.1 9.9q1.1-1.2 1.8-2.7c0.1-0.6 0.3-1.1 0.3-1.7zm-0.3 6.2c-0.2-0.6-0.2-1.2-0.2-1.8-0.2 0.4-0.5 0.7-0.8 1 0.3 0.3 0.6 0.6 0.8 0.9h0.2zm-9.9-1.3q0 0 0 0 0 0 0-0.1zm0 0c0.1 1.2 0.3 2.5 0.6 3.7 0.8 3.3 2.8 6.2 5.4 8 0.1-2-0.5-4.3-1.6-6.5-1-2-2.6-3.9-4.4-5.2zm0 6.5c-0.2-0.6-0.4-1.1-0.6-1.7q0 0.3 0 0.6c-0.1 0.3-0.3 0.6-0.3 0.9 0.2 0.1 0.5 0.3 0.7 0.3 0.1 0 0.3-0.1 0.3-0.1zm5.2-2.6q0 0-0.1-0.1 0 0 0 0zm-0.1-0.1c0.3-0.2 0.7-0.4 1-0.6q1.1-0.6 2.1-1.2h0.2q-0.3-0.3-0.6-0.6l-0.5 0.4-0.3-0.9v-0.3c-1.8-1.8-4.3-3.9-7.5-6.1 0.3 1.5 0.5 2.9 0.5 3.8 2.1 1.4 3.8 3.3 5.1 5.5zm6.2-6.6c-0.3 2.8 0.2 5.7 1.4 8.2 0.9-1.6 1.5-4 1.5-6.4 0-1.5-0.2-3.1-0.6-4.5q-0.4-1.2-0.9-2.4c-0.1 0.6-0.3 1.3-0.3 1.9-0.3 1.1-0.7 2.2-1.2 3.2zm1.2-11.3c0 3.4 1.4 6.7 3.7 8.8 0.1-1.4-0.1-3.1-0.8-4.7-0.6-1.6-1.6-3-2.8-4.2zm-0.9-2.5c1.1-1.5 1.9-3.8 2.2-6.2 0.1-1.5 0.1-3.1-0.2-4.5-0.1-0.8-0.3-1.7-0.6-2.5q-0.9 1.5-1.5 3.3c-1.2 3.3-1.2 6.9 0 10zm-0.4-12.9l0.2-0.4c0.2-0.4 0.5-0.9 0.5-1.3q-1 0.5-2.1 1.2c-2.1 1.4-3.6 3.7-4.3 6.1 1.2-0.4 2.6-1.4 3.8-2.7 0.8-0.8 1.4-1.8 1.9-2.9zm-2.1-31.4c-0.2-0.3-0.5-0.7-0.7-1v3.3c0.1 3.4 1.4 6.7 3.5 9 0.2-0.3 0.2-0.6 0.2-0.9 0-0.2 0-1 0-1 0.1-1.4 0-3-0.4-4.6-0.3-1.3-0.9-2.5-1.5-3.7-0.3-0.3-0.7-0.7-1-1.1zm2.2 0.4c1.5 1.3 3.2 2.3 5 2.6-0.6-1.4-1.7-2.8-3.1-3.9-1.3-1-2.8-1.7-4.4-2.1 1 1 1.8 2.1 2.5 3.4zm-0.4 13.1c-1.4 1-2.6 2.3-3.5 3.7-0.8 1.4-1.3 3-1.5 4.7 1.2-0.7 2.4-1.9 3.3-3.4 1-1.6 1.6-3.4 1.8-5zm-13 32.8c-1.4-0.8-3.1-1.4-4.7-1.4 0.2 0.3 0.4 0.7 0.7 1-0.1-0.1 1.2 1.4 2 1.9 0.3 0.2 0.6 0.5 1 0.7 1.3 0.8 2.9 1.3 4.4 1.3-0.7-1.3-2-2.5-3.5-3.4zm-3.8-2.3c0.9 0.2 1.8 0.4 2.6 0.6v-0.9c-0.2-0.1-0.2-0.4-0.2-0.4-0.1-0.1-0.3-0.3-0.3-0.3-0.2 0-0.3 0-0.5 0q-0.3 0-0.6 0c-0.4 0.2-0.7 0.4-0.9 0.8 0 0.2 0 0.2 0 0.2zm-6.6-39.7c-1-1.4-2.4-2.5-3.9-3.2 0.1 0.3 0.3 0.5 0.3 0.8q1.1 1.7 1.8 3.6c1 1.4 2.4 2.5 3.9 3.2-0.2-1.5-1-3.1-2.1-4.5zm-1.4 11.5c0.5 1.7 1.4 3.3 2.5 4.6 1 1.2 2.4 2.1 3.8 2.7-0.3-1.5-1.1-3.1-2.3-4.4-1-1.1-2.5-2.3-4-3zm7 17.9c-1-1.3-2.3-2.4-3.8-3.2 0.2 0.8 0.6 1.7 0.9 2.5 1.1 2.4 2.9 4.2 5 5.2-0.2-1.4-0.9-3.1-2-4.5zm-0.1 13.2c0-0.2-0.2-0.2-0.2-0.2v0.6c0.1 0.7 0.3 1.5 0.3 2.2 0.2 0.3 0.2 0.7 0.2 1 0.8 3.3 2.8 6.2 5.4 8 0-2-0.5-4.3-1.6-6.5-0.6-1.1-1.4-2.2-2.3-3.2-0.7-0.6-1.4-1.1-1.9-1.8zm5.6 14c-1 1.1-1.9 2.7-2.4 4.4-0.4 1.5-0.6 3.1-0.4 4.7 1-1 1.8-2.4 2.3-4.1 0.5-1.6 0.7-3.3 0.5-5zm29.1 7.4c21.5 8.8 39.1 4.6 51.3-1.8-1.9-0.5-3.9-1.1-5.9-1.6-23.1-4.5-39.3 0.9-45.3 3.4zm63.1 68h-155.7c3 21.3 8.5 39.8 15.5 55.7h58.9v-1.6l-4.2-8.7 3.9-11.8c-5.4 0.7-9.4 3.1-9.4 3.1l-1.2 0.7 0.2-1.4c0.9-6 1.7-12.7 1.5-14.4-0.1 0.1-0.4 0.1-0.4 0.1-0.6 0.3-1.5 0.6-2.3-0.6-0.4-0.5-0.4-0.8-0.4-2 0-1.2 0.1-2.4 0.3-3.5 0.2-1.3 0.4-2.3 1.3-3.3 0.7-0.8 1.7-1.4 2.6-2.1 1.5-1.1 3.1-2.1 4.8-2.9 2-1 4.2-1.7 6.4-2.1 2.6-0.5 5.2-0.5 7.7 0 11.8 2.2 10.5 16.2 10 20.8v1.1c-0.2 3.2-0.3 9.3 2.9 12.6 2.3 2.4 4.8 4.2 4.8 4.2l0.7 0.6-0.8 0.5c-1.3 0.8-4.2 1.4-7 1.4-1.5 0-2.9-0.2-4.1-0.6-3.3-1.1-5.3-8.3-5.7-10-2.1-1.2-4.2-1.8-6.3-2.1l3.9 11.8-4.1 8.7v1.6h60.9c6.9-15.9 12.4-34.4 15.3-55.7zm-39.7 80.6l0.7-0.5c2.5-1.6 6.3-3.1 10.2 1 4.2-6.5 8.2-13.8 11.9-21.7h-110.2c0.1 0.3 0.4 0.5 0.4 0.8 1.4 3.1 2.8 6 5.4 8.1 0.9 1 1.5 2.1 2.1 3.1 0.5 0.9 1 1.8 1.7 2.6 1 1.1 2.3 2 3.5 2.8 3.5 2.4 7.5 5.2 12 6.1 1.1 0.3 2.2 0.4 3.3 0.5 1.4 0.2 2.8 0.3 4.2 0.7 1 0.3 2 0.6 2.9 1 0.7 0.3 1.4 0.6 2.2 0.8 2.8 0.8 5.8 0.9 8.7 1 4.9 0.2 10 0.4 14.8-0.9l0.7-0.2c2.6-0.8 5.6-1.6 7.9 0.2 0.8 0.6 1.4 1.6 2 2.5 0.8 1.3 1.4 2.5 2.6 2.5 0.6 0 1 0 1.5 0.5 0.5 0.5 0.5 1.2 0.5 1.9v0.7c0 0.5 0.6 0.7 0.8 0.7 0.5 0.1 1.2 0.1 1.6-0.4 0.7-0.9 0.3-2.4-0.6-3.3-0.2-0.3-0.5-0.5-0.7-0.9-0.3-0.9 0.3-1.7 0.5-2 2.1-3 5.6-5 9.3-5.4h0.8c0.6-0.1 1.1-0.1 1.6-0.2-0.6-0.4-1.2-0.9-1.7-1.4zm-44.5-35.2l4.1 8.5v1.9h2.6v-2.1l3.9-8.4-3.9-11.9h-2.8l-3.9 11.9zm17.3-27.2c1.4 3.2 1.7 6.7 2 10.1h-1.3c-0.4-4.4-0.9-9-3.6-12.4-0.9-1.2-2-2.2-3.4-2.7-2.3-0.9-5-0.1-7.3 1-3.2 1.5-5.9 3.7-8.5 6-0.2 0.2-0.5 0.4-0.5 0.6v0.9c-0.2 4.4-0.6 8.8-1.4 13.2 3.4-1.6 6.9-2.6 10.6-2.8 3.6-0.2 7.4 0.5 10.6 2.3 0.2 0.1 0.5 0.3 0.7 0.5 0.3 0.3 0.5 0.7 0.5 1.1 0.5 2.1 1.3 4.1 2.3 6 0.4 0.8 0.9 1.6 1.7 2.1 0.6 0.4 1.5 0.7 2.3 0.7 2.4 0.3 5 0 7.3-0.8-2.6-1.6-4.8-4-6-6.9-1.2-3.2-1.2-6.8-1.2-10.2 0.2-3.5 0.5-7 0-10.4-0.5-3.4-2.1-6.8-5-8.7-2.1-1.4-0.9-1.8-7-1.8-6.1 0-12 2.7-16.6 6.7-0.4 0.4-0.9 0.8-1.1 1.3-0.3 0.3-0.3 0.8-0.3 1.2-0.3 1.4-0.3 2.9-0.3 4.3 0 0.4 0.2 1 0.7 1 0.5 0 1.1-0.5 1.4-0.7 0.9-0.6 1.7-1.4 2.5-2.1 1.8-1.6 3.7-3 5.8-4.1 2.5-1.4 5.3-2.5 8.1-2 3.4 0.6 6.1 3.4 7.5 6.5zm83.5-118.8c-1.3 1.1-2.7 2.4-3.6 3.7 3.7-1.9 8.3-2.1 12.4-0.6q1.5 0.6 3.3 1.5c4 2 8.6 4.2 14.5 2.5 4.3-1.4 6.9-3.4 8.2-4.5l-7.7-0.7 1.9-5.7c-1.4 0.9-3.4 2.2-4.7 2.8h-0.4c-1.9 0.6-4 1.2-9.8-1.1q-4.5-1.9-7.8-1.5c-2.7 0.3-4.7 2-6.5 3.6zm-4.9 5.9c-1.1 4.3 1.6 8.4 2.4 9.5 6.9-0.3 10.2-2.5 11.5-3.7-1.7-1.2-5-4.1-5.8-8.2-2.9-0.1-5.7 0.7-8 2.4zm-85.1 21.4h0.2c0.8 0.4 1.5 0.8 2.2 1.2 0.9 0.5 1.8 1 2.6 1.5 0.2 0.1 0.4 0.4 0.6 0.4 1 0.6 2.1 1 3.1 1.5 5-2.3 22.2-8.8 47.3-4 3 0.8 5.8 1.6 8.5 2.3 11.8 3.3 20.3 5.7 25.8 2.1 6-3.8 8.4-14.6 9.2-19.2-3.4 2.8-13.6 6.5-36.5-0.5-7-2.2-14-3.3-20.7-3.3-22.7 0-37 12.4-42.3 18zm15.9-15.5c-0.6-1.2-1.3-2.4-2.1-3.5-0.6-0.9-1.7-2.2-2.9-1.6-2.1 1 0.4 4.5 1.4 5.4 0.8 0.8 1.9 1.7 2.9 2.1 0.6 0.3 1.5 0 1.5-0.8-0.1-0.4-0.2-0.7-0.4-1-0.2-0.3-0.4-0.5-0.4-0.7zm1.1-69.6c-0.7 1.2-1.8 2.1-3.1 2.7 2 3.6 4.1 9.5 0.2 14.2 0 0 2.8 4.9 1.7 7-0.9 2-1.3 3.8-0.9 4.7 0.3 0.5 1.8 2.8 2.2 4.9l1.5-1.2c0.6 0.8 0.8 1.6 0.8 2.1v0.3c0.3 1.2 0.7 1.2 0.9 1.2 1 0.1 2.6-1.2 3.1-2.5 0.1-0.4 0.3-0.6 0.3-0.9l1.8-5 1.7 4.6c0.2 0.6 0.4 1.2 0.4 1.7 0.2 0.3 0.2 0.6 0.2 0.8 1.3-0.9 2.3-1.6 2.8-2.8 0.2-0.7 0.8-1.1 1.5-1.3 0.6-0.1 1.3 0 1.8 0.4 0.2-0.2 0.3-0.5 0.6-0.9v-0.2c0.3-0.8 0.8-2 2.3-2.7 0.2-0.1 0.5-0.9 0.5-1.3 0.1-0.3 0.4-1.3 1.4-1.8 0.3-0.2 0.8-0.4 1.5-0.2 1.3-0.4 2.6-0.3 3.7 0.4 0.3-0.4 0.9-0.4 1.5-0.4 0.8 0.1 1.4 0.5 1.8 0.9v-0.2c0.3-0.8 1-1.3 1.8-1.3 0.8 0 1.6 0.3 2 1l0.2 0.3c0 0.1 0.2 0.4 0.2 0.4 1.4 0.6 2.2 1.7 2.9 2.6l0.2 0.3c0.3 0.6 0.6 0.6 0.6 0.6 0 0 0.3-0.1 0.6-0.6 0.5-0.8 1.1-1.1 1.6-1.1 1-0.2 1.8 0.5 2.1 0.9 0.5 0.4 0.8 0.4 0.8 0.4 0 0 0.2-0.1 0.4-0.6 0.7-1.5 0.9-2.8 0.9-4 0-0.5 0-1.7 1-2.4 0.6-0.3 1.4-0.3 2.2 0 0.4-0.7 1-1.2 1.7-1.2 1.5-0.3 2.8 0.8 3.7 1.6 0.1 0.1 0.4 0.3 0.4 0.3 1.4 0.9 2.9 1.8 4.4 2.5 0.2 0.1 0.5 0.3 0.7 0.3h0.2c0.7-0.3 1.7-0.5 2.9 0.4 0.1 0.1 0.4 0.4 0.9 0.7 2.7 2 4.2 2.9 5.1 3.2 0-1 0.5-1.6 0.9-1.8 1.2-0.8 2.4 0.1 2.8 0.4l0.6 0.4c2.6 1.9 5.4 3.9 8.4 5 0.1-0.2 0.1-0.5 0.3-0.7l0.9-1.5 1.5 0.9c1.4 0.9 2.7 1.9 4 2.8 2.4 1.7 4.6 3.3 7.2 4.3h0.2c0-0.5 0-1.3 0-1.9 0-0.9 0.4-1.6 1.2-2 0.7-0.4 1.6-0.3 2.3 0.2 0.8 0.6 1.5 1.1 2.1 1.7 1.3 1.2 2.4 2.2 4.1 2.7 0.1-0.2 0.3-0.3 0.3-0.5l1-1.7 1.6 1.2c0.5 0.3 0.9 0.7 1.3 1 1.5 1.3 3 2.5 4.7 3.4 0-0.7 0.3-1.3 0.9-1.7 0.7-0.5 1.6-0.6 2.4-0.2l0.9 0.4c2.2 1 4.5 2.1 6.6 3.6-0.2-0.6-0.4-1.1-0.7-1.6l-3.8-6.8 6.4 4.5c1 0.7 2.1 1.6 3.1 2.4 1.3 1 2.5 2.1 3.8 3 0.4 0.3 0.9 0.6 1.3 0.8-0.2-0.3-0.4-0.6-0.8-1.2-0.6-1-0.5-2.1 0.3-2.8 0.8-0.7 1.9-0.7 2.7 0 1.9 1.8 3 2.5 5.2 3.8 1.1 0.6 2.2 1.4 3.3 2.1 1.5 1 2.9 2 4.4 2.6-0.6-2-2.2-3.7-3.8-5.5-5.7-6.2-12.5-11.9-19-17.4-2.5-2.1-5.1-4.2-7.6-6.4-16.8-14.6-34.1-27.8-53-40.5-16.1-10.8-32.5-16.7-48.5-17.5-6.6-0.3-11.6 0.5-15.5 2.4-7.1 3.7-5.6 11.1-2.8 20.4l0.2 0.6c1 3.4 2.3 8.5 0 12.2zm-35.8 17.3c0.7-1.2 1.2-2.9 1.4-4.7 0.1-1.8-0.2-3.7-0.7-5.2-1.6 3.1-1.9 6.9-0.7 9.9zm16.1 36.9c1 2.4 2.8 4.3 4.9 5.4-0.2-1.5-1-3.1-2-4.6-1-1.3-2.3-2.5-3.8-3.3 0.2 0.8 0.6 1.7 0.9 2.5zm-4.9-63.1c0.1-2.5-0.9-4.2-3-5.4-0.1 0.1-0.4 0.2-0.4 0.2-0.4 0.2-1 0.4-1.6 0.2-0.4-0.1-0.8-0.2-1.1-0.4-0.3-0.2-0.6-0.6-1-0.6-0.5-0.1-0.9 0.2-1.4 0.4-0.7 0.2-1.4 0.2-2.2 0.1-0.3-0.1-0.6-0.1-0.9-0.1-0.3-0.2-0.3-0.2-1.1-0.2-0.8 0-1.5 0.6-2.2 1.2-0.4 0.4-0.8 0.7-1.2 1-0.4 0.2-0.9 0.3-1.2 0.6 0.4 1.3 0.4 2.5 0.2 3.9 2.8 0.5 5.3 1.9 7.6 4 0.4 0.4 0.8 0.4 1.3 0.4 0.3 0 0.9 0 1.1 0 1-0.4 1.9 0 2.5 0.5 3.3 2.4 4.9 5.3 5.1 9 0.2 0.2 0.2 0.3 0.2 0.5v3.5c0 0.3 0 0.8 0.2 1 0.1 0.3 0.3 0.3 0.5 0.3 1.9 0.4 3.9 0.2 5.6-0.7 1.2-0.7 2.5-2 2.2-3.5-0.4-1.7-1.4-3.6-2.3-5.1-1.3-2.2-3-4-5.1-5.5-0.1-0.2-0.3-0.2-0.3-0.2-0.2-0.1-0.4-0.2-0.6-0.4-0.8-0.7-1.5-1.6-1.2-2.9 0.2-0.4 0.2-0.9 0.2-1.4v-0.4zm-10.1-9.1c-1.5-0.7-3.5-3.5-6.6 1.1l-0.5 0.4c-0.3 0.3-0.5 0.3-0.8 0.3-0.3 0-0.5-0.2-0.7-0.3-1.1-0.7-3.5-1.5-4.4-0.3-0.7 0.9-0.9 2.3 0.4 2.8 0.8 0.2 1.7 0.2 2.5 0.2 0.4 0 0.8 0.2 1.2 0.5 0.2 0.2 0.5 0.5 0.8 0.5 0.8 0.1 1.5-0.5 2-1 1.3-1.5 2.7-2.8 4.8-2.5 1.1 0.2 2.2 0.6 3.2 0.2 0.6-0.2 1-0.7 1.7-0.6 0.7 0.1 1.2 0.8 1.8 1.1 0.7 0.4 1.7 0.3 2.4-0.3 0.2-0.2 0.4-0.3 0.4-0.5 0.2-0.5 0-0.9 0-1.1-0.2-0.2-0.4-0.6-0.7-0.9-0.4-0.3-1.1-0.5-1.8-0.5-0.7 0-1.5 0.2-2.5 0.8h-0.2c0 0-1.6 0.6-3.1 0zm-11.7 14.2c-2.2 2.5-3.5 6-3.5 9.3 1.5-1 3.1-2.7 4.2-4.8 0.7-1.3 1.2-2.8 1.5-4.2 0.1-0.9 0.3-1.8 0.3-2.7-0.8 0.7-1.7 1.5-2.5 2.4zm-7.4 31.8v-0.4c0-1.1 0.1-2.4 0.3-3.6-2.3 2.5-3.5 5.9-3.2 9.1 0.1-0.2 0.3-0.2 0.3-0.2 0.9-0.9 1.7-2.2 2.2-3.7 0.1-0.4 0.3-0.8 0.3-1.2zm-0.1-18c0.4-0.4 0.8-0.8 1.1-1.3 0.2-0.5 0.5-1 0.8-1.5-2 0.7-3.8 2.5-4.6 4.5 0.8-0.3 1.8-0.8 2.6-1.6zm1.7 11.7v0.2l0.4-0.6c0.8-1.5 1.3-3.5 1.5-5.6 0.1-1.7-0.1-3.3-0.5-5-0.2-0.5-0.5-1.1-0.5-1.6 0-0.2 0-0.4 0-0.4-0.1 0.2-0.4 0.4-0.4 0.6-0.4 0.9-0.7 1.9-1 2.7-0.9 3.2-0.7 6.7 0.5 9.7zm2.1 14.2l0.8 0.2c0.4-1.8 0.4-3.9 0-6-0.1-0.7-0.4-1.3-0.6-2-0.5-0.6-0.9-1.3-1.2-2-0.3-0.5-0.5-1-0.7-1.6-0.1-0.2-0.4-0.5-0.4-0.5 0.1 1.3-0.1 2.6-0.4 4 0 2.8 1 5.7 2.5 7.9zm-1.1 2.4c-2.5 2.4-3.8 5.9-3.6 9.2 1-0.9 2-2.3 2.7-4 0.2-0.5 0.5-1.1 0.5-1.7 0.1-1.1 0.1-2.3 0.4-3.4zm2.7 20.5c0.4-1.5 0.7-3.5 0.4-5.3-2.2 2.7-3.2 6.3-2.7 9.6 1-1 1.8-2.5 2.3-4.2zm1.6-6.8c0.5-1.9 0.5-4.3 0-6.7-0.5-2.2-1.6-4.4-2.9-6.2 0 1-0.2 2.1-0.4 3.1v0.5c0 3.1 1 6.2 2.8 8.6v0.2l0.3 0.4zm1.5 11.7c0.7 1.6 1.5 2.9 2.4 3.8v-0.6l0.2-0.9v-0.3c0.1-1.6 0-3.2-0.4-4.8-0.6-2.3-1.7-4.4-3.2-6.2-0.5 3.3-0.1 6.5 1 9.1zm-44.9 24.4c0.2-0.2 0.4-0.2 0.6-0.2 2.5-0.7 5-1.4 7.8-2.1 19.5-3.8 34.2-0.7 42.2 2 0.2-0.3 0.2-0.5 0.2-0.7 0.6-2.1 1.7-4 3-5.3-2.1-1.4-3.9-3.6-5-6.2-0.5 2.4-1.6 4.6-3 5.9l-0.7 0.7-0.4-0.9c-1.2-3-1.1-6.4 0.2-9.5-6.2-2.7-13.8-4.6-22.7-4.6-6.7 0-13.7 1.1-20.7 3.3-22.9 6.9-33.1 3.2-36.5 0.5 0.8 4.6 3.3 15.4 9.2 19.2 5.5 3.6 14 1.2 25.8-2.1zm-34-27.1c4.2-1.5 8.7-1.3 12.4 0.6-1-1.4-2.3-2.6-3.6-3.7-1.9-1.6-3.8-3.3-6.5-3.6-2.3-0.2-4.9 0.2-7.9 1.5-5.7 2.3-7.8 1.6-9.7 0.9h-0.4c-1.3-0.5-3.3-1.7-4.7-2.7l1.9 5.7-7.7 0.7c1.3 1.1 3.9 3.1 8.2 4.5 5.9 1.6 10.5-0.6 14.5-2.5q1.6-0.9 3.3-1.5zm5.1 0.2c-0.8 4.1-4 6.9-5.8 8.2 1.3 1.2 4.5 3.4 11.5 3.7 0.9-1.1 3.6-5.2 2.4-9.5-2.2-1.6-5.1-2.4-8-2.4zm75.3 11c-1 2.4-1.2 5.1-0.6 7.5 0.9-1.2 1.5-2.8 1.9-4.6q0-1.6 0-3.3c-0.1-0.6-0.3-1.3-0.3-1.9-0.5 0.6-0.9 1.5-1.2 2.2zm-63.1 39.1l-11.5-7.5c0.5 12.8 1.5 24.3 3.2 35.1l9 5.9c-0.9-10.8-1.1-22-0.7-33.4zm-13 28.8c0.8 19.7 3.5 39.3 9.6 58 3.1 9.6 7.2 19 12.1 27.9 4.9 8.8 10.6 17.2 17.1 25 3.4 4.1 7 8 10.7 11.8 2.6-2.5 4.5-4.7 5.7-6.2-6.5-8.2-12.6-17.3-17.7-27-12.5-23.6-20.3-50.7-23.3-80.2zm-39.6-30.2l27.7 18.1c-1.2-10.4-1.9-21.6-2.1-34.3l-24.3-15.9c-0.8 11.1-1.3 21.9-1.3 32.1zm23.2 159.7c0.5 0.6 1.5 1.7 2.9 3.1 21.9 12.6 40.5 6.6 53-1.7-6.8-6.2-13.3-12.8-19.2-19.9-6.4-7.8-12.2-16.2-17.1-25-5-8.9-9-18.3-12.1-27.9-6.3-19.3-8.9-39.5-9.7-59.8-0.2-3.6-0.3-7.1-0.3-10.6l-29.1-19c-7.7 59.3 1.1 99.7 10 123.2 9.7 25.8 21.5 37.4 21.6 37.5zm6.9 6.5q0.1 0.1 0.3 0.1-0.2-0.1-0.3-0.2zm0.3 0.1c13.6 11.6 44.9 29.7 85.8 2.1-7.2-5.9-14.1-12.8-20.5-20.7-5.1 6.3-21.4 23.5-44.2 23.5-6.5 0-13.6-1.4-21.1-4.9zm71.1 42c12.9-0.2 19.8 2.7 22.2 3.9l4.5-35.1c-2.9-1.7-5.7-3.7-8.5-5.8-4.5 15-15.4 32.5-18.3 37zm27.1 16.3q0 0-0.1-0.1 0 0.1 0 0.1zm-0.1-0.1c1.1-14.9 2.3-30 3.5-45.1-0.3-0.2-0.5-0.4-0.8-0.5-0.5-0.3-1.1-0.6-1.6-0.9-0.3 0-0.3-0.1-0.3 0 0 0.3 0 1.1 0 1.4-0.2 1.2-0.3 2.5-0.5 3.7l-0.9 7.4c-0.3 2.5-0.6 4.9-0.9 7.4l-1.9 14.8c-0.1 0.5-0.2 1.1-0.4 1.6-0.5 1.2-1.7 2-3 2.4-1.2 0.3-2.6 0.4-3.9 0.7-1.3 0.3-2.7 0.8-3.5 1.8-0.8 1-0.9 2.7 0 3.6 0.6 0.5 1.4 0.8 2.2 0.8 2 0.1 4.1-0.4 6.2-0.5 2.1-0.2 4.3 0.1 5.8 1.4zm-0.1 2.4c0 0-0.1-0.8-1-1.5-0.3-0.3-0.8-0.5-1.4-0.7l0.2 5.9c0.2-0.3 0.5-0.7 0.9-1 1.3-1.1 1.3-2.3 1.3-2.7zm-14-9.7c0.9-0.7 2.1-1.3 3.9-1.4 3.5-0.4 4.6-1.2 5-1.7 0.2-0.2 0.2-0.4 0.2-0.5-0.8-0.4-3.3-1.6-7.6-2.6zm35.8 13.4l0.2-5.9c-0.6 0.2-1.1 0.5-1.4 0.7-0.9 0.6-1.1 1.5-1.1 1.5v0.4c0 0.5 0.3 1.4 1.3 2.3 0.4 0.3 0.7 0.6 0.9 1zm8.9-13.2c-2-0.6-4.5-0.3-6.2-1.8-1.4-1.2-1.7-3.2-1.9-5.1-1.3-10.9-2.7-21.7-4-32.6-1 0.3-2.2 0.6-2.6 1.6-0.2 0.6-0.2 1.2-0.2 1.8 1.1 14.4 2.3 28.8 3.4 43.2 1.5-1.3 3.6-1.5 5.6-1.4 2 0.1 3.9 0.5 5.9 0.5 1.1 0 2.2-0.3 2.9-1 0.1-0.1 0.3-0.2 0.3-0.3 1.5-2.3-1.3-4.4-3.2-4.9zm1.2-6.4c-4.3 0.9-6.8 2.2-7.6 2.6 0 0.1 0 0.3 0.2 0.5 0.4 0.5 1.6 1.4 5 1.7 1.8 0.2 3 0.7 3.9 1.4zm14.6-2.6c-2.9-4.5-13.8-22.1-18.3-37.1-2.9 2.2-5.8 4.1-8.5 5.8l4.5 35.1c2.3-1.3 9.3-4.1 22.2-3.9zm-37-31.8c7.1-3.4 15.3-8.9 23.7-16.5-0.4-0.4-0.7-1-0.7-1.7 0-0.2-0.2-0.3-0.2-0.4-0.1-0.2-0.4-0.4-0.4-0.7-0.2-0.5-0.2-0.9-0.2-1.3v-0.5c-0.2-1.2-1.7-1.8-2.3-2-0.4-0.2-1.6-0.5-1.6-1.5v-0.2c0.2-0.9 0.7-1.7 1.2-2.5 0.9-1.2 1.2-2 0.9-2.8-0.1-0.1-0.5-0.2-0.8-0.4h-0.3c-0.8-0.3-1.6-1.1-1.3-2 0.2-0.5 0.6-0.8 0.9-1 0.1-0.1 0.3-0.2 0.3-0.2q0.6-0.7 0-1.5c-0.7-0.9-2.2-1.5-3.2-1.2-0.6 0.2-1.1 0.4-1.6 0.7-0.3 0.2-0.7 0.4-1 0.5-1.3 0.6-2.5 0.6-3.4 0-0.4-0.2-0.7-0.6-0.9-0.9-0.2-0.3-0.4-0.6-0.6-0.7-0.3-0.3-0.8-0.3-1.3-0.3l-7.8-0.5c-0.5-0.1-0.6 0-0.8 0.5-0.6 0.7-1.5 0.7-2.2 0.7h-1c-0.4 0.1-0.8 0.5-1.1 1-0.3 0.4-0.6 0.9-1.1 1.2-1.2 0.9-2.6 0.7-3.9 0.5-0.5-0.1-0.3-0.1-1.4-0.1-1.1 0-2.7 0.5-3.5 1.5-0.3 0.4-0.5 0.9-0.3 1.4 0 0 0.2 0.1 0.2 0.2 0.1 0.1 0.3 0.3 0.3 0.5 0.3 0.9 0.1 2.1-0.7 2.8-0.8 0.8-1.8 0.9-2.8 1-0.8 0.1-1.5 0.2-1.9 0.6-0.1 0.1-0.3 0.3-0.3 0.5-0.2 0.3-0.4 0.7-0.7 1-0.3 0.2-0.7 0.4-1 0.5-0.2 0-0.3 0.1-0.5 0.2-0.9 0.6-0.9 1.9-0.9 3.2 0 0.9 0 1.9-0.3 2.7 8.8 8.2 17.3 14 24.7 17.6zm22.2-8.2q0 0 0.1 0-0.1-0.1-0.1-0.1zm0.1 0c36.6 24.8 65.7 12.7 81.1 1.6-1.4 0.8-4.8 1.2-16.4 1.2-22.9 0-39.2-17.3-44.3-23.5-6.8 8.3-13.8 15.2-20.4 20.7zm86-2.2c-3.2 1.5-3.4 2.6-4.3 3.4q2.4-1.8 4.3-3.4zm28.4-44.3c8.8-23.5 17.7-63.8 10-123.2l-28.9 18.9c-0.1 3.7-0.3 7.3-0.3 10.9-0.8 20.2-3.4 40.5-9.7 59.8-3.1 9.6-7.2 19-12.1 27.9-4.9 8.8-10.6 17.2-17.1 25-5.9 7.1-12.3 13.7-19.1 19.8 12.5 8.3 30.9 14.1 52.7 1.6 1.6-1.4 2.6-2.6 3.1-3.2 0.1-0.1 11.7-11.5 21.4-37.3zm-32.7 47.7q-0.3 0.2-0.6 0.4 0.4-0.2 0.6-0.4zm55.9-174.2l10.2-14.1-17.1 3.7-1.7 8.6 8.6 1.9z"/>
				<path id="Layer" fill-rule="evenodd" class="s0" d="m698.7 170.6c-0.1 1.3-0.3 2.5-0.3 3.7h-1.2c0.2-2.8 0.4-5.7 0.6-8.5 1.4 0.1 2.9 0.3 4.4 0.3 0.8 0 1.3 0.2 1.8 0.4 0.8 0.5 1 1.2 1 2.2 0 0.5-0.2 0.9-0.5 1.2-0.2 0.3-0.6 0.5-1 0.7 0.3 0.2 0.5 0.4 0.7 0.6 0.2 0.2 0.2 0.6 0.2 1.1 0 0.3 0 1.4 0 1.8 0 0.3 0.3 0.6 0.3 0.6v0.2c-0.5-0.2-1-0.2-1.5-0.2v-2.4c0.1-0.6-0.1-1-0.5-1.2-0.2-0.1-0.6-0.3-1.1-0.3-0.9-0.2-1.8-0.2-2.8-0.2m0.2-3.9c0 1-0.2 1.9-0.2 2.9 1 0 1.9 0.2 2.9 0.2 0.6 0 1 0 1.4-0.2 0.4-0.2 0.7-0.5 0.7-1.1 0.1-0.6-0.1-1-0.6-1.3-0.2-0.3 0-0.3-1-0.3-1 0-2.1-0.2-3.1-0.2z"/>
				<path id="Layer" fill-rule="evenodd" class="s0" d="m713.1 174.1c-0.8 1.1-2 1.6-3.5 1.3-1.1-0.2-2.3-0.3-3.5-0.5 0.4-2.8 0.9-5.6 1.3-8.4 1.2 0.2 2.5 0.4 3.8 0.6 1.2 0.2 2.2 0.9 2.7 1.8q0.8 1.4 0.3 3c-0.2 0.9-0.6 1.6-1.1 2.3m-5.8 0.1c0.7 0.1 1.4 0.3 2.1 0.3h1c0.5-0.1 0.9-0.4 1.3-0.7 0.3-0.3 0.6-0.7 0.8-1.2 0.3-0.3 0.3-0.6 0.3-0.9 0.2-1 0.1-1.8-0.2-2.5-0.3-0.6-1-1-2-1.2-0.7-0.1-1.4-0.3-2.2-0.3-0.3 2.1-0.7 4.2-1 6.4z"/>
				<path id="Layer" class="s0" d="m721.5 177.2c-1.7-0.5-3.5-0.9-5.2-1.3 0.2-0.9 0.5-1.9 0.7-2.8 1.6 0.4 3.3 0.8 4.9 1.2 0-0.3 0.2-0.6 0.3-0.9-1.6-0.5-3.2-0.9-4.9-1.3 0.2-0.8 0.4-1.7 0.6-2.5 1.8 0.4 3.6 0.9 5.4 1.4 0-0.3 0.2-0.7 0.3-1-2.2-0.6-4.5-1.2-6.7-1.7-0.7 2.8-1.3 5.5-2 8.3 2.1 0.5 4.2 1 6.3 1.6 0-0.3 0.2-0.7 0.3-1z"/>
				<path id="Layer" class="s0" d="m723.7 178.9c0.7-2.2 1.4-4.4 2.1-6.5 0.8 2.7 1.5 5.3 2.1 8 0.4 0.2 0.8 0.3 1.2 0.5 1-2.7 2-5.3 3.1-7.9-0.4 0-0.8-0.3-1.2-0.4-0.8 2.1-1.6 4.3-2.5 6.4-0.6-2.7-1.3-5.3-2.1-8-0.5-0.2-1-0.3-1.5-0.4-0.9 2.7-1.7 5.4-2.6 8.1 0.3 0 0.7 0.2 1.1 0.3"/>
				<path id="Layer" class="s0" d="m678.6 174.7q0.6 0 1.2 0c0-1.1-0.2-2.3-0.3-3.4 1-1.8 2.1-3.6 3.2-5.4q-0.7 0-1.5 0c-0.8 1.4-1.6 2.9-2.4 4.3-1-1.2-2.1-2.5-3.2-3.7-0.5 0-1 0-1.5 0.2 1.4 1.5 2.8 3 4.2 4.6 0 1.1 0.2 2.3 0.4 3.4"/>
				<path id="Layer" fill-rule="evenodd" class="s0" d="m688 173c-0.7-0.8-1.2-1.9-1.2-3.1q0-1.8 0.9-3c0.8-1 2-1.6 3.7-1.6 1.7 0 2.9 0.5 3.7 1.5 0.6 0.8 0.8 1.7 0.8 2.9-0.1 1.3-0.5 2.3-1.2 3.1-0.8 1-1.9 1.4-3.4 1.4q-2.1 0-3.3-1.2zm0.2-3.1c0 1 0.3 1.7 0.8 2.4 0.5 0.6 1.4 0.9 2.5 0.9 1.1 0 1.9-0.4 2.4-1.1 0.5-0.7 0.8-1.5 0.8-2.5 0-1-0.2-1.8-0.8-2.4-0.6-0.6-1.5-0.9-2.4-0.9-0.9 0-1.8 0.3-2.4 0.9-0.6 0.6-0.9 1.7-0.9 2.7z"/>
				<path id="Layer" class="s0" d="m559.1 181q-1.4-3.6-2.7-7.2c-0.4 0.2-0.8 0.3-1.2 0.4 1.1 2.7 2.2 5.4 3.2 8.2 1.8-0.7 3.7-1.3 5.5-1.8 0-0.3-0.2-0.7-0.3-1-1.5 0.4-2.9 0.9-4.4 1.4"/>
				<path id="Layer" class="s0" d="m562.8 171.9q1.3 4.2 2.7 8.4c0.4 0 0.8-0.2 1.2-0.3-0.8-2.8-1.7-5.6-2.6-8.4-0.4 0-0.8 0.2-1.3 0.4"/>
				<path id="Layer" fill-rule="evenodd" class="s0" d="m573.8 173.7c0.5 0.3 0.8 0.7 1 1.4 0.1 0.5 0.1 1.1-0.2 1.6-0.3 0.8-1.1 1.3-2.3 1.6-1.2 0.3-2.5 0.6-3.7 0.9-0.8-2.8-1.6-5.6-2.5-8.4 1.4-0.3 2.8-0.7 4.1-1 1.1-0.2 2-0.1 2.6 0.4 0.4 0.3 0.6 0.6 0.7 1.1 0.1 0.5 0.1 1-0.2 1.4-0.1 0.3-0.3 0.5-0.6 0.7q0.8 0 1.2 0.3m-5.5 0.3q0 0 0 0-0.1 0-0.1 0zm0 0c0.8-0.2 1.4-0.3 2.2-0.5 0.5-0.2 0.9-0.3 1.2-0.5 0.4-0.3 0.5-0.7 0.4-1.3-0.1-0.6-0.5-1-1-1-0.3 0-0.8 0.2-1.3 0.2-0.8 0.1-1.5 0.3-2.3 0.5 0.3 0.9 0.6 1.7 0.8 2.6zm5.2 2.4v-1c-0.2-0.6-0.5-1.1-1.2-1.1-0.3-0.2-0.8 0-1.3 0-0.8 0.2-1.7 0.4-2.5 0.6 0.3 1 0.5 2 0.8 3 0.8-0.3 1.7-0.5 2.6-0.7q1.2-0.1 1.5-0.9z"/>
				<path id="Layer" class="s0" d="m583.4 174.7c-1.9 0.2-3.7 0.5-5.6 0.8-0.2-1-0.4-1.9-0.6-2.9 1.7-0.3 3.5-0.6 5.2-0.8 0-0.3 0-0.7-0.2-1-1.8 0.2-3.5 0.5-5.2 0.8-0.2-0.9-0.3-1.7-0.5-2.6 1.9-0.3 3.8-0.6 5.8-0.9 0-0.3 0-0.7-0.2-1.1-2.4 0.3-4.8 0.7-7.1 1.1 0.7 2.9 1.3 5.7 1.8 8.6 2.2-0.4 4.5-0.8 6.7-1.1 0-0.3 0-0.7-0.2-1"/>
				<path id="Layer" fill-rule="evenodd" class="s0" d="m586.8 175.3q-0.6 0-1.2 0-0.6-4.3-1.2-8.7c1.5-0.2 3.1-0.5 4.6-0.5 0.7 0 1.4 0 1.9 0.2 1 0.3 1.6 1 1.6 2 0.1 0.5 0 1-0.2 1.3q-0.3 0.6-0.9 0.9c0.4 0.1 0.7 0.3 0.9 0.5 0.2 0.2 0.4 0.6 0.4 1.1 0.2 0.4 0.2 0.9 0.2 1.2 0 0.3 0 0.5 0 0.7 0.1 0.3 0.3 0.5 0.5 0.5v0.2h-1.7c0-0.1 0-0.7 0-1-0.2-0.5-0.2-1-0.2-1.5-0.1-0.6-0.3-0.9-0.8-1.1h-1.2c-0.9 0.1-1.9 0.3-2.9 0.3 0.2 1.2 0.3 2.5 0.5 3.7m2.2-8.2c-1 0.1-2.1 0.3-3.2 0.3 0.1 1 0.4 2 0.4 3 1-0.1 2-0.3 3-0.3 0.6 0 1.1-0.1 1.4-0.4 0.4-0.2 0.4-0.6 0.4-1.2q-0.2-0.9-0.9-1.2h-1.1z"/>
				<path id="Layer" class="s0" d="m596.4 166.7c0 2.6 0.3 5.1 0.3 7.7h1.3c0-2.6-0.2-5.1-0.3-7.7h3.4v-1.1c-2.7 0-5.5 0-8.1 0v1q1.6 0 3.3 0"/>
				<path id="Layer" fill-rule="evenodd" class="s0" d="m600.5 174.3c1.2-2.9 2.4-5.8 3.7-8.7h1.5c1.1 3 2.2 6 3.2 9-0.5 0-0.9 0-1.4 0q-0.5-1.3-0.9-2.7c-1.3-0.2-2.5-0.2-3.8-0.2-0.3 0.9-0.7 1.7-1 2.6zm4.3-7.1c-0.5 1.2-1.1 2.5-1.6 3.8q1.5 0 3 0c-0.4-1.4-0.9-2.7-1.4-4z"/>
				<path id="Layer" fill-rule="evenodd" class="s0" d="m617.7 173.8c-0.8 1.2-2.1 1.7-3.7 1.5-1.2-0.1-2.5-0.4-3.8-0.4 0.2-3 0.5-5.9 0.5-8.8 1.3 0.1 2.7 0.2 4.1 0.4 1.4 0.2 2.4 0.8 3.1 1.7 0.7 0.9 0.9 1.9 0.7 3.1q-0.1 1.3-0.9 2.4m-6.1 0.2c0.8 0.1 1.5 0.3 2.3 0.3h1.1c0.5 0 0.9-0.3 1.3-0.7 0.3-0.3 0.5-0.8 0.7-1.3 0.2-0.3 0.2-0.6 0.2-0.9 0.1-1 0-1.9-0.5-2.6-0.4-0.7-1.2-1.2-2.3-1.2-0.8-0.1-1.6-0.3-2.4-0.3-0.2 2.2-0.3 4.5-0.5 6.7z"/>
				<path id="Layer" fill-rule="evenodd" class="s0" d="m657.4 327.2v-0.2l1.6-2h6.1l-2.8 4-3.4 2.3h-21.2l-3.4-2.2-2.8-4h6.1l1.6 2h0.2v-0.8h1.6v-2.2h-2.4v-5.7h2.4v-1.7c0-0.4 0.2-0.8 0.5-1 0.3-0.2 0.8-0.2 1.2 0 0.4 0.2 0.6 0.5 0.6 1v1.7h4v-1.7c0-0.4 0.2-0.8 0.5-1 0.3-0.2 0.8-0.2 1.2 0 0.4 0.2 0.6 0.5 0.6 1v1.7h4v-1.7c0-0.4 0.2-0.8 0.6-1q0.6-0.3 1.2 0c0.3 0.2 0.5 0.6 0.5 1.1v1.7h2.4v5.7h-2.4v2.2h1.3v0.8zm-4.6-4.3h4.1v-3h-4.1zm-3.4 1.3v2.2h1v0.9h1.5v-0.9h1.6v-2.2zm-3.3-4.3v3h4.1v-3h-0.4c-0.9 0-1.4-0.3-1.6-0.5-0.2 0.2-0.7 0.5-1.6 0.5zm-3.1 4.3v2.2h1.2v0.9h1.5v-0.9h1.4v-2.2zm0.7-1.3v-3h-4v3zm18.7 3.6l-0.1 0.1h0.1zm-0.1 0.1h-2.4l-1.6 2h-2.2v-0.8h-2.5v0.9h-4.2v-1h-2v0.9h-4.2v-0.9h-2.5v0.8h-2.2l-1.6-2h-2.9l1.2 1.8 2.7 1.7h20.6l2.7-1.7z"/>
				<path id="Layer" fill-rule="evenodd" class="s0" d="m657.4 365.1v-0.2l1.6-2h6.1l-2.8 4-3.4 2.3h-21.2l-3.4-2.2-2.8-4h6.1l1.6 2h0.2v-0.8h1.6v-2.2h-2.4v-5.7h2.4v-1.7c0-0.4 0.2-0.8 0.5-1 0.3-0.2 0.8-0.2 1.2 0 0.4 0.2 0.6 0.5 0.6 1v1.7h4v-1.7c0-0.4 0.2-0.8 0.5-1 0.3-0.2 0.8-0.2 1.2 0 0.4 0.2 0.6 0.5 0.6 1v1.7h4v-1.7c0-0.4 0.2-0.8 0.6-1q0.6-0.3 1.2 0c0.3 0.2 0.5 0.6 0.5 1.1v1.7h2.4v5.7h-2.4v2.2h1.3v0.8zm-4.6-4.3h4.1v-3h-4.1zm-3.4 1.3v2.2h1v0.9h1.5v-0.9h1.6v-2.2zm-3.3-4.3v3h4.1v-3h-0.4c-0.9 0-1.4-0.3-1.6-0.5-0.2 0.2-0.7 0.5-1.6 0.5zm-3.1 4.3v2.2h1.2v0.9h1.5v-0.9h1.4v-2.2zm0.7-1.3v-3h-4v3zm18.7 3.6l-0.1 0.1h0.1zm-0.1 0.1h-2.4l-1.6 2h-2.2v-0.8h-2.5v0.9h-4.2v-1h-2v0.9h-4.2v-0.9h-2.5v0.8h-2.2l-1.6-2h-2.9l1.2 1.8 2.7 1.7h20.6l2.7-1.7z"/>
				<path id="Layer" class="s0" d=""/>
			</g>
			<g id="Layer">
				<g id="Layer">
					<path id="Layer" class="s0" d="m54.4 620.5c-8-2.5-14.7-5.9-20.2-10.4l7.2-15.8c5.7 4.4 11.8 7.6 18.1 9.6 6.3 2 13.2 3 20.6 3 7.4 0 14.5-1.4 18.9-4.3q6.6-4.3 6.6-12c0-5.1-2-7.9-6.1-10.3-4.1-2.4-10.9-4.6-20.5-6.7-9.9-2.1-17.9-4.6-24.1-7.4-6.2-2.8-10.8-6.4-14-10.8-3.1-4.4-4.7-9.9-4.7-16.7 0-6.8 1.9-13.2 5.7-18.7q5.7-8.2 16.2-12.9c7-3.1 15-4.6 24.1-4.6 9.1 0 16.2 1.3 23.7 3.8 7.5 2.5 13.7 6 18.5 10.4l-7.2 15.8c-10.5-8.4-22.2-12.6-35-12.6-12.8 0-13.7 1.5-18.1 4.6q-6.6 4.7-6.6 12.9c0 5.5 2 8.1 5.9 10.6 3.9 2.5 10.6 4.8 20 6.9q15 3.3 24.3 7.5c6.2 2.8 11 6.3 14.3 10.5 3.3 4.3 5 9.7 5 16.2 0 6.5-1.9 13.3-5.6 18.6-3.8 5.3-9.2 9.4-16.3 12.3-7.1 2.9-15.5 4.3-25.2 4.3-9.7 0-17.6-1.2-25.6-3.7z"/>
					<path id="Layer" fill-rule="evenodd" class="s0" d="m217.5 585.4h-0.2v-0.1h0.2zm-56.1-0.1c0.7 7.6 3 13.3 6.9 17 3.9 3.7 9.5 5.6 16.8 5.6 7.3 0 17.4-2.9 24.9-8.8l6.1 14.5c-3.8 3.1-8.6 5.7-14.4 7.6-5.8 1.9-11.6 2.9-17.4 2.9-13.5 0-24.1-3.8-31.9-11.4-7.8-7.6-11.7-18.1-11.7-31.3 0-13.2 1.7-15.9 5-22.4 3.4-6.5 8.1-11.6 14.2-15.1 6.1-3.6 13-5.4 20.8-5.4 11.3 0 20.3 3.6 26.8 10.9 6.6 7.3 9.8 17.3 9.8 30.1v5.8zm6.4-26.8c-3.4 3.6-5.5 8.8-6.3 15.5h38c-0.2-6.8-1.9-12-5-15.6-3.1-3.5-7.5-5.3-13.1-5.3q-8.4 0-13.5 5.4z"/>
					<path id="Layer" class="s0" d="m288.9 555.8l-12.3 1.2c-13.9 1.5-20.9 8.5-20.9 21.2v44.4h-21v-82.3h20v14.5q6.4-14.8 26.4-16.2l6.4-0.5 1.3 17.7z"/>
					<path id="Layer" class="s0" d="m382.7 540.5l-36 82.1h-18.3l-35.7-82.1h22.2l23.2 58.1 23.9-58.1z"/>
					<path id="Layer" class="s0" d="m414.8 502.2v20.7h-23.2v-20.7zm-22 38.2h21v82.3h-21z"/>
					<path id="Layer" class="s0" d="m450.6 618.8c-6.3-3.5-11.2-8.4-14.6-14.8-3.4-6.4-5-13.9-5-22.4 0-8.5 1.8-16.1 5.3-22.6 3.5-6.5 8.6-11.6 15.1-15.2 6.5-3.6 14-5.4 22.6-5.4 8.6 0 11.5 0.9 17.1 2.8 5.6 1.9 10 4.3 13.4 7.5l-6.1 14.8c-3.5-2.8-7.2-4.9-11-6.4-3.9-1.5-7.7-2.2-11.5-2.2-7.3 0-13 2.3-17 6.8-4 4.5-6.1 11.1-6.1 19.6 0 8.5 2 14.9 6.1 19.4 4.1 4.5 9.7 6.8 17 6.8 7.3 0 7.7-0.7 11.5-2.2 3.9-1.5 7.5-3.6 11-6.4l6.1 14.6c-3.6 3.3-8.2 5.8-13.8 7.7-5.6 1.9-11.4 2.8-17.5 2.8-6.1 0-16.1-1.7-22.5-5.2z"/>
					<path id="Layer" class="s0" d="m539.7 502.2v20.7h-23.2v-20.7zm-22.1 38.2h21v82.3h-21z"/>
					<path id="Layer" fill-rule="evenodd" class="s0" d="m575.8 618.8c-6.3-3.5-11.3-8.5-14.7-15-3.5-6.5-5.2-14.1-5.2-22.7 0-8.6 1.7-16.2 5.2-22.6 3.5-6.5 8.4-11.4 14.7-14.9 6.3-3.5 13.7-5.2 22.1-5.2 8.4 0 15.8 1.7 22.1 5.2 6.3 3.5 11.2 8.4 14.6 14.9 3.4 6.5 5.1 14 5.1 22.6 0 8.6-1.7 16.2-5.1 22.7-3.4 6.5-8.3 11.5-14.6 15-6.3 3.5-13.7 5.2-22.1 5.2-8.4 0-15.8-1.7-22.1-5.2zm37.6-17.8c3.6-4.5 5.4-11.1 5.4-19.9 0-8.8-1.8-15.2-5.4-19.8-3.6-4.5-8.8-6.8-15.5-6.8-6.7 0-11.9 2.3-15.6 6.8-3.6 4.5-5.5 11.1-5.5 19.8 0 8.7 1.8 15.4 5.4 19.9 3.6 4.5 8.8 6.7 15.5 6.7 6.7 0 12.1-2.2 15.7-6.7z"/>
					<path id="Layer" fill-rule="evenodd" class="s0" d="m704.6 504h51.8c12.7 0 22.6 3.2 29.6 9.5 7.1 6.3 10.6 15.2 10.6 26.7 0 11.5-3.5 20.4-10.6 26.8-7.1 6.4-16.9 9.6-29.6 9.6h-30.1v46.1h-21.7zm49.2 55.9c14.9 0 22.4-6.5 22.4-19.5 0-13-1.9-11.5-5.6-14.7q-5.6-4.8-16.8-4.8h-27.4v39.1h27.4z"/>
					<path id="Layer" class="s0" d="m888.1 540.4v82.3h-20.5v-12.6c-2.6 4.5-6.1 7.9-10.4 10.4-4.4 2.4-9.3 3.6-14.8 3.6-20.2 0-30.3-11.3-30.3-34v-49.7h21v49.8c0 5.8 1.2 10.2 3.5 13q3.6 4.2 11.1 4.2c5 0 10.5-1.9 14.1-5.8 3.5-3.9 5.3-9 5.3-15.4v-45.8zm-44.6-10.8l16.7-34.3h21.4l-24.6 34.3z"/>
					<path id="Layer" fill-rule="evenodd" class="s0" d="m976.3 543.6c5.5 3.5 9.8 8.4 12.9 14.8 3.1 6.4 4.6 13.9 4.6 22.4 0 8.5-1.5 16.1-4.6 22.6-3.1 6.6-7.4 11.6-13 15.2q-8.4 5.4-18.9 5.4c-7 0-11.3-1.3-15.9-3.9-4.7-2.6-8.2-6.2-10.7-10.8v13.3h-20.7v-118.7h21v48.3c2.5-4.5 6-7.9 10.6-10.4 4.6-2.4 9.8-3.6 15.7-3.6 5.9 0 13.5 1.7 19 5.2zm-9.1 57c3.7-4.7 5.6-11.3 5.6-19.9 0-8.6-1.8-14.9-5.5-19.4-3.6-4.5-8.8-6.7-15.6-6.7-6.8 0-11.9 2.3-15.6 6.8-3.6 4.5-5.5 11.1-5.5 19.6 0 8.5 1.8 15.1 5.5 19.7q5.4 6.9 15.6 6.9c6.8 0 11.8-2.4 15.5-7.1z"/>
					<path id="Layer" class="s0" d="m1011.2 504h21v118.7h-21z"/>
					<path id="Layer" class="s0" d="m1076 502.2v20.7h-23.2v-20.7zm-22.1 38.2h21v82.3h-21z"/>
					<path id="Layer" class="s0" d="m1111.7 618.8c-6.3-3.5-11.2-8.4-14.6-14.8-3.4-6.4-5-13.9-5-22.4 0-8.5 1.8-16.1 5.3-22.6 3.5-6.5 8.6-11.6 15.1-15.2 6.5-3.6 14-5.4 22.6-5.4 8.6 0 11.5 0.9 17.1 2.8 5.6 1.9 10 4.3 13.4 7.5l-6.1 14.8c-3.5-2.8-7.2-4.9-11-6.4-3.9-1.5-7.7-2.2-11.5-2.2-7.3 0-13 2.3-17 6.8-4 4.5-6.1 11.1-6.1 19.6 0 8.5 2 14.9 6.1 19.4 4.1 4.5 9.7 6.8 17 6.8 7.3 0 7.7-0.7 11.5-2.2 3.9-1.5 7.5-3.6 11-6.4l6.1 14.6c-3.6 3.3-8.2 5.8-13.8 7.7-5.6 1.9-11.4 2.8-17.5 2.8-6.1 0-16.1-1.7-22.5-5.2z"/>
					<path id="Layer" fill-rule="evenodd" class="s0" d="m1194.2 618.8c-6.3-3.5-11.3-8.5-14.7-15-3.5-6.5-5.2-14.1-5.2-22.7 0-8.6 1.7-16.2 5.2-22.6 3.5-6.5 8.4-11.4 14.7-14.9 6.3-3.5 13.7-5.2 22.1-5.2 8.4 0 15.8 1.7 22.1 5.2 6.3 3.5 11.2 8.4 14.6 14.9 3.4 6.5 5.1 14 5.1 22.6 0 8.6-1.7 16.2-5.1 22.7-3.4 6.5-8.3 11.5-14.6 15-6.3 3.5-13.7 5.2-22.1 5.2-8.4 0-15.8-1.7-22.1-5.2zm37.6-17.8c3.6-4.5 5.4-11.1 5.4-19.9 0-8.8-1.8-15.2-5.4-19.8-3.6-4.5-8.8-6.8-15.5-6.8-6.7 0-11.9 2.3-15.6 6.8-3.6 4.5-5.5 11.1-5.5 19.8 0 8.7 1.8 15.4 5.4 19.9 3.6 4.5 8.8 6.7 15.5 6.7 6.7 0 12.1-2.2 15.7-6.7z"/>
				</g>
			</g>
			<g id="Layer">
				<g id="Layer">
					<path id="Layer" fill-rule="evenodd" class="s0" d="m323.6 791h-20.9v-13.3c-2.5 4.6-6 8.2-10.7 10.8q-7 3.9-15.9 3.9c-5.9 0-13.4-1.8-18.9-5.4-5.6-3.6-9.9-8.7-13-15.2-3.1-6.6-4.6-14.1-4.6-22.6 0-8.5 1.5-16 4.6-22.4 3.1-6.4 7.4-11.3 12.9-14.8 5.5-3.5 11.8-5.2 19-5.2 7.2 0 11.2 1.2 15.8 3.7 4.6 2.5 8.1 5.9 10.6 10.4v-48.5h21.1zm-26.4-21.9c3.6-4.6 5.5-11.2 5.5-19.7 0-8.5-1.8-15.1-5.5-19.6-3.6-4.5-8.8-6.8-15.4-6.8-6.6 0-12 2.2-15.7 6.7-3.7 4.5-5.6 10.9-5.6 19.4 0 8.5 1.9 15.1 5.6 19.9 3.7 4.8 8.9 7.1 15.5 7.1 6.6 0 11.9-2.3 15.6-6.9z"/>
					<path id="Layer" fill-rule="evenodd" class="s0" d="m417.5 753.7h-0.2v-0.1h0.2zm-56.1-0.1c0.7 7.6 3 13.3 6.9 17 3.9 3.7 9.5 5.6 16.8 5.6 7.3 0 17.4-2.9 24.9-8.8l6.1 14.5c-3.8 3.1-8.6 5.7-14.4 7.6-5.8 1.9-11.6 2.9-17.4 2.9-13.5 0-24.1-3.8-31.9-11.4-7.8-7.6-11.7-18.1-11.7-31.3 0-13.2 1.7-15.9 5-22.4 3.4-6.5 8.1-11.6 14.2-15.1 6.1-3.6 13-5.4 20.8-5.4 11.3 0 20.3 3.6 26.8 10.9 6.6 7.3 9.8 17.3 9.8 30.1v5.8zm6.4-26.7c-3.4 3.6-5.5 8.8-6.3 15.5h38c-0.2-6.8-1.9-12-5-15.6-3.1-3.5-7.5-5.3-13.1-5.3q-8.4 0-13.5 5.4z"/>
					<path id="Layer" class="s0" d="m482.1 672.3h79.4v17.2h-58.2v32.7h54.9v17h-54.9v34.7h58.2v17.2h-79.4v-118.7z"/>
					<path id="Layer" class="s0" d="m698.1 715q6.9 8.4 6.9 25.5v50.5h-21v-49.7c0-6.3-1.1-10.9-3.2-13.7-2.1-2.9-5.6-4.3-10.3-4.3-4.7 0-10 1.9-13.1 5.7-3.1 3.8-4.7 9.1-4.7 16v46h-21v-49.7c0-6.3-1-10.9-3.1-13.7-2.1-2.9-5.5-4.3-10.4-4.3-4.9 0-9.8 1.9-13 5.7-3.1 3.8-4.7 9.1-4.7 16v46h-21v-82.3h20.5v11.6c2.5-4.5 5.9-7.9 10.3-10.2 4.4-2.3 9.4-3.5 15-3.5 12.5 0 20.7 5.2 24.7 15.5q3.9-7.2 11.1-11.4c4.8-2.7 10.2-4.1 16.2-4.1 9.3 0 16.3 2.8 20.9 8.3h-0.1z"/>
					<path id="Layer" fill-rule="evenodd" class="s0" d="m792.6 712c5.6 3.6 9.9 8.7 13 15.2 3.1 6.6 4.6 14.1 4.6 22.6 0 8.5-1.5 16-4.6 22.4-3.1 6.4-7.4 11.3-12.9 14.8-5.5 3.5-11.8 5.2-19 5.2-7.2 0-11.1-1.2-15.7-3.7-4.6-2.5-8.1-5.9-10.6-10.3v42.9h-21v-112.6h20.7v12.5c2.5-4.6 6-8.2 10.7-10.7 4.7-2.5 10-3.8 15.9-3.8 5.9 0 13.4 1.8 18.9 5.4zm-9 57.2c3.7-4.5 5.6-11 5.6-19.3 0-8.3-1.9-15.1-5.6-19.9-3.7-4.8-8.9-7.1-15.5-7.1-6.6 0-11.9 2.3-15.6 6.9-3.6 4.6-5.5 11.2-5.5 19.7 0 8.5 1.8 14.9 5.5 19.5q5.4 6.9 15.6 6.9c6.8 0 11.8-2.3 15.5-6.8z"/>
					<path id="Layer" class="s0" d="m827.5 672.3h21v118.7h-21z"/>
					<path id="Layer" fill-rule="evenodd" class="s0" d="m942.5 753.7h-0.2v-0.1h0.2zm-56.1-0.1c0.7 7.6 3 13.3 6.9 17 3.9 3.7 9.5 5.6 16.8 5.6 7.3 0 17.4-2.9 24.9-8.8l6.1 14.5c-3.8 3.1-8.6 5.7-14.4 7.6-5.8 1.9-11.6 2.9-17.4 2.9-13.5 0-24.1-3.8-31.9-11.4-7.8-7.6-11.7-18.1-11.7-31.3 0-13.2 1.7-15.9 5-22.4 3.4-6.5 8.1-11.6 14.2-15.1 6.1-3.6 13-5.4 20.8-5.4 11.3 0 20.3 3.6 26.8 10.9 6.6 7.3 9.8 17.3 9.8 30.1v5.8zm6.3-26.7c-3.4 3.6-5.5 8.8-6.3 15.5h38c-0.2-6.8-1.9-12-5-15.6-3.1-3.5-7.5-5.3-13.1-5.3q-8.4 0-13.5 5.4z"/>
					<path id="Layer" fill-rule="evenodd" class="s0" d="m975.1 787.1c-6.3-3.5-11.3-8.5-14.7-15-3.5-6.5-5.2-14.1-5.2-22.7 0-8.6 1.7-16.2 5.2-22.6 3.5-6.5 8.4-11.4 14.7-14.9 6.3-3.5 13.7-5.2 22.1-5.2 8.4 0 15.8 1.7 22.1 5.2 6.3 3.5 11.2 8.4 14.6 14.9 3.4 6.5 5.1 14 5.1 22.6 0 8.6-1.7 16.2-5.1 22.7-3.4 6.5-8.3 11.5-14.6 15-6.3 3.5-13.7 5.2-22.1 5.2-8.4 0-15.8-1.7-22.1-5.2zm37.6-17.8c3.6-4.5 5.4-11.1 5.4-19.9 0-8.8-1.8-15.2-5.4-19.8-3.6-4.5-8.8-6.8-15.5-6.8-6.7 0-11.9 2.3-15.6 6.8-3.6 4.5-5.5 11.1-5.5 19.8 0 8.7 1.8 15.4 5.4 19.9 3.6 4.5 8.8 6.7 15.5 6.7 6.7 0 12.1-2.2 15.7-6.7z"/>
				</g>
			</g>
			<g id="Layer">
				<path id="Layer" class="s1" d="m465.9 889.5h181.7v31.5h-181.7z"/>
				<path id="Layer" class="s2" d="m647.6 889.5h90.8v31.5h-90.8z"/>
				<path id="Layer" class="s3" d="m738.3 889.5h90.8v31.5h-90.8z"/>
			</g>
		</g>
	</g>
</svg>