<svg width="30" height="30" viewBox="0 0 30 30" fill="none" xmlns="http://www.w3.org/2000/svg">
<path d="M17.845 14.465C17.865 14.205 17.88 13.94 17.88 13.675C17.88 9.13996 14.215 5.45996 9.69 5.45996C5.18 5.45996 1.525 9.11496 1.505 13.635L1.5 13.65L1.56 23.06C1.565 23.655 2.05 24.13 2.64 24.125L5.68 24.095C6.345 24.09 6.875 23.545 6.87 22.875L6.82 18.02V14.56C6.82 12.965 8.11 11.675 9.695 11.675C11.125 11.675 12.305 12.72 12.53 14.09L12.625 23.06C12.63 23.655 13.115 24.13 13.705 24.125L16.745 24.095C17.41 24.09 17.94 23.545 17.935 22.875L17.845 14.465Z" fill="#66C1EA"/>
<path d="M28.9099 14.465C28.9299 14.205 28.9449 13.94 28.9449 13.675C28.9449 9.13996 25.2799 5.45996 20.7549 5.45996C16.2449 5.45996 12.5899 9.11496 12.5699 13.635L12.5649 13.65L12.6249 23.06C12.6299 23.655 13.1149 24.13 13.7049 24.125L16.7449 24.095C17.4099 24.09 17.9399 23.545 17.9349 22.875L17.8849 18.02V14.56C17.8849 12.965 19.1749 11.675 20.7599 11.675C22.1899 11.675 23.3699 12.72 23.5949 14.09L23.6899 23.06C23.6949 23.655 24.1799 24.13 24.7699 24.125L27.8099 24.095C28.4749 24.09 29.0049 23.545 28.9999 22.875L28.9099 14.465Z" fill="#00A7E1"/>
</svg>
