<svg width="16" height="17" viewBox="0 0 16 17" fill="none" xmlns="http://www.w3.org/2000/svg">
<path d="M10.1602 15.3467H10.0735C7.11351 15.3467 5.68684 14.18 5.44017 11.5667C5.41351 11.2933 5.61351 11.0467 5.89351 11.02C6.16017 10.9933 6.41351 11.2 6.44017 11.4733C6.63351 13.5667 7.62017 14.3467 10.0802 14.3467H10.1668C12.8802 14.3467 13.8402 13.3867 13.8402 10.6733V6.32665C13.8402 3.61332 12.8802 2.65332 10.1668 2.65332H10.0802C7.60684 2.65332 6.62017 3.44665 6.44017 5.57999C6.40684 5.85332 6.17351 6.05999 5.89351 6.03332C5.61351 6.01332 5.41351 5.76665 5.43351 5.49332C5.66017 2.83999 7.09351 1.65332 10.0735 1.65332H10.1602C13.4335 1.65332 14.8335 3.05332 14.8335 6.32665V10.6733C14.8335 13.9467 13.4335 15.3467 10.1602 15.3467Z" fill="#14141C"/>
<path d="M9.99924 9H2.4126C2.13926 9 1.9126 8.77333 1.9126 8.5C1.9126 8.22667 2.13926 8 2.4126 8H9.99924C10.2726 8 10.4992 8.22667 10.4992 8.5C10.4992 8.77333 10.2726 9 9.99924 9Z" fill="#14141C"/>
<path d="M3.89964 11.2336C3.77297 11.2336 3.6463 11.1869 3.5463 11.0869L1.31297 8.85356C1.11964 8.66023 1.11964 8.34023 1.31297 8.1469L3.5463 5.91355C3.73964 5.72022 4.05964 5.72022 4.25297 5.91355C4.4463 6.10689 4.4463 6.42689 4.25297 6.62022L2.37297 8.50023L4.25297 10.3802C4.4463 10.5736 4.4463 10.8936 4.25297 11.0869C4.15964 11.1869 4.0263 11.2336 3.89964 11.2336Z" fill="#14141C"/>
</svg>
