<?xml version="1.0" encoding="utf-8"?>
<!-- Generator: Adobe Illustrator 25.4.1, SVG Export Plug-In . SVG Version: 6.00 Build 0)  -->
<svg version="1.1"
	 id="Capa_1" xmlns:cc="http://creativecommons.org/ns#" xmlns:dc="http://purl.org/dc/elements/1.1/" xmlns:rdf="http://www.w3.org/1999/02/22-rdf-syntax-ns#"
	 xmlns="http://www.w3.org/2000/svg" xmlns:xlink="http://www.w3.org/1999/xlink" x="0px" y="0px" viewBox="0 0 122 33"
	 style="enable-background:new 0 0 122 33;" xml:space="preserve">
<style type="text/css">
	.st0{fill:#04004D;}
	.st1{fill:#00FBA3;}
	.st2{fill:#00DF98;}
</style>
<g>
	<path id="Trazado_1_3_" class="st0" d="M50.3,31.9c-0.5-0.1-1-0.2-1.5-0.4c-3.2-1-5-4.3-4.2-7.5c0.1-0.6,0.4-0.9,1-0.8
		c0.8,0.1,1.4,0.3,2.2,0.4c0.7,0.1,0.8,0.4,0.7,1c-0.2,2,0.5,3.1,2,3.4c1.4,0.3,3-0.5,3.5-2c0.6-1.6-0.1-3.4-1.5-4.3
		c-0.3-0.1-0.7-0.1-0.9-0.1c-2.8,0.1-5.3-0.7-6.8-3.2s-1.5-5.8-0.1-8.3c1.6-2.5,4.6-3.8,7.5-3.2c0.8,0.1,1.4,0.3,2.2,0.5
		c0.7-0.7,1.3-1.4,2-2.2c0.2-0.4,0.8-0.6,1.3-0.3C57.9,4.9,57.9,4.9,58,5c2.2,1.8,1.7,1.3,0.4,3.1c-0.4,0.5-0.8,1-1.1,1.4
		c2,4.6,1.7,7.5-1.4,10.8c1.7,1.4,2.5,3.7,2.2,5.9c-0.4,2.8-2.4,4.9-5.2,5.4c-0.2,0.1-0.5,0.1-0.8,0.2L50.3,31.9z M54.6,14.1
		c0.2-1.8-1.1-3.4-2.9-3.5c-0.1,0-0.3,0-0.4,0c-1.8,0-3.2,1.4-3.3,3.2c0,0.1,0,0.2,0,0.3c-0.2,1.8,1.1,3.4,2.9,3.5
		c0.1,0,0.2,0,0.4,0C53.3,17.7,54.6,16.3,54.6,14.1"/>
	<path id="Trazado_2_3_" class="st0" d="M121,14.3c-0.1,0.7-0.2,1.3-0.3,1.9c-0.9,3.8-4.3,5.9-8.3,5.3c-4.5-0.7-6.9-4.2-6.1-9.2
		c0.7-3.9,4.3-6.3,8.5-5.6c3.4,0.3,6,3.1,6.1,6.5c0.1,0.2,0.1,0.4,0.1,0.7V14.3L121,14.3z M116.9,14.2c0.1-1.9-1.2-3.4-3.1-3.5
		c-0.1,0-0.2,0-0.3,0c-1.9,0-3.3,1.4-3.3,3.2c0,0.1,0,0.2,0,0.2c-0.2,1.9,1.1,3.4,3,3.7c0.1,0,0.2,0,0.4,0c1.9,0.1,3.4-1.4,3.4-3.2
		C116.9,14.3,116.9,14.3,116.9,14.2"/>
	<path id="Trazado_4_3_" class="st0" d="M37.8,19.3c-1.2,1.7-3.2,2.5-5.2,2.3c-2.5-0.1-4.6-1.8-5.3-4.1c-1.3-3.4-0.4-7.2,2-9.2
		C31.8,6.4,35,6,37.8,7.4c2.8,1.2,3.8,3.7,3.8,6.5c0.1,2,0,4.1,0,6.1c0,0.9-0.3,1.3-1.1,1.2c-0.2,0-0.4,0-0.7,0
		C37.6,21.2,38.1,21.3,37.8,19.3 M30.8,14.2c0,2.2,1.2,3.5,3.3,3.5c1.9,0,3.5-1.5,3.5-3.5c0-0.1,0-0.1,0-0.2
		c0.1-1.9-1.3-3.4-3.2-3.5c-0.1,0-0.1,0-0.2,0c-1.9,0-3.4,1.6-3.4,3.5C30.8,14.1,30.8,14.2,30.8,14.2"/>
	<path id="Trazado_5_3_" class="st0" d="M81.4,14.8c0.2,2.6,2.7,3.8,5.1,2.7c0.4-0.2,1-0.5,1.3-0.4c0.9,0.4,1.7,0.9,2.4,1.4
		c0.1,0.1,0,0.7-0.2,0.8c-2,2.1-5,2.9-7.8,2c-2.6-0.5-4.6-2.7-5-5.3c-0.2-1.3-0.2-2.7,0.1-4c0.9-4.1,5.2-6.2,9.5-5
		c3.1,0.8,5.1,3.8,4.9,6.9c0,0.8-0.4,0.9-1,0.9c-2.8,0-5.5,0-8.3,0L81.4,14.8 M87.5,12.5c-0.6-1.3-1.9-2-3.2-1.9
		c-1.2-0.1-2.2,0.7-2.5,1.9H87.5z"/>
	<path id="Trazado_6_3_" class="st0" d="M74.8,16.6c0,1.1,0,2.3,0,3.5c0,0.8-0.2,1.1-1,1.1c-3.5-0.1-3,0.5-3.1-2.9
		c0-1.6,0-3.1,0-4.7c0.1-1.4-0.9-2.8-2.4-3c-0.1,0-0.2,0-0.4,0c-1.4-0.2-2.8,0.9-2.9,2.3c0,0.2,0,0.4,0,0.5c-0.1,2.2-0.1,4.4,0,6.6
		c0,0.8-0.3,1.1-1.1,1.1c-3.5-0.1-2.9,0.5-2.9-2.9c0-1.6,0-3.1,0-4.7c0.1-4.6,3.4-7.5,8-6.9c3.4,0.2,6,3.2,5.9,6.5
		C74.8,14.4,74.8,15.5,74.8,16.6L74.8,16.6z"/>
	<path id="Trazado_7_3_" class="st0" d="M101.3,11v8.5c0,1.7,0,1.7-1.7,1.7c-2.7,0-2.4,0.4-2.4-2.3c0-2.5,0-5.1,0-7.8
		c-1.1,0-2.1,0-3.1,0c-0.8,0-1.1-0.3-1.1-1.1c0.1-3.3-0.4-2.8,2.8-2.8c0.4,0,0.9,0,1.5,0c0-1.6,0.1-3.2,0-4.7
		c-0.1-1,0.2-1.3,1.3-1.3c3.2,0.1,2.8-0.4,2.8,2.8c0,1,0,2,0,3.2c1.1,0,2.2,0,3.1,0c0.8,0,1.1,0.3,1.1,1.1c-0.1,3.4,0.4,2.8-2.8,2.9
		C102.3,11,101.9,11,101.3,11"/>
	<path class="st1" d="M14.6,13.8c0-0.2,0-0.4,0-0.7c0-3.8-3.1-6.9-6.8-6.9S1,9.4,1,13.1l0,0L1.1,21c0,0.5,0.4,0.9,0.9,0.9h2.5
		c0.6,0,1-0.4,1-1l-0.1-4.1v-2.9c0-1.3,1.1-2.4,2.4-2.4c1.2,0,2.2,0.9,2.3,2l0.1,7.4c0,0.5,0.4,0.9,0.9,0.9h2.5c0.6,0,1-0.4,1-1
		L14.6,13.8z"/>
	<path class="st2" d="M23.9,13.8c0-0.2,0-0.4,0-0.7c0-3.8-3.1-6.9-6.8-6.9s-6.8,3.1-6.8,6.8l0,0l0.1,7.9c0,0.5,0.4,0.9,0.9,0.9h2.5
		c0.6,0,1-0.4,1-1l-0.1-4.1v-2.9c0-1.3,1.1-2.4,2.4-2.4c1.2,0,2.2,0.9,2.3,2v7.4c0,0.5,0.4,0.9,0.9,0.9h2.5c0.6,0,1-0.4,1-1
		L23.9,13.8z"/>
</g>
</svg>
