<svg width="20" height="20" viewBox="0 0 20 20" fill="none" xmlns="http://www.w3.org/2000/svg">
<path d="M10.0165 17.1083C8.07481 17.1083 6.13314 16.8 4.29148 16.1833C3.59148 15.9416 3.05814 15.45 2.82481 14.8083C2.58314 14.1666 2.66648 13.4583 3.04981 12.825L4.00814 11.2333C4.20814 10.9 4.39148 10.2333 4.39148 9.84162V7.4333C4.39148 4.3333 6.91648 1.8083 10.0165 1.8083C13.1165 1.8083 15.6415 4.3333 15.6415 7.4333V9.84162C15.6415 10.225 15.8248 10.9 16.0248 11.2416L16.9748 12.825C17.3332 13.425 17.3998 14.15 17.1582 14.8083C16.9165 15.4666 16.3915 15.9666 15.7332 16.1833C13.8998 16.8 11.9582 17.1083 10.0165 17.1083ZM10.0165 3.0583C7.60814 3.0583 5.64148 5.01664 5.64148 7.4333V9.84162C5.64148 10.45 5.39148 11.35 5.08314 11.875L4.12481 13.4666C3.94148 13.775 3.89148 14.1 3.99981 14.375C4.09981 14.6583 4.34981 14.875 4.69148 14.9916C8.17481 16.1583 11.8665 16.1583 15.3498 14.9916C15.6498 14.8916 15.8832 14.6666 15.9915 14.3666C16.0998 14.0666 16.0748 13.7416 15.9082 13.4666L14.9498 11.875C14.6332 11.3333 14.3915 10.4416 14.3915 9.83329V7.4333C14.3915 5.01664 12.4332 3.0583 10.0165 3.0583Z" fill="#292F37"/>
<path d="M11.5663 3.28352C11.5079 3.28352 11.4496 3.27519 11.3913 3.25852C11.1496 3.19185 10.9163 3.14185 10.6913 3.10852C9.98292 3.01685 9.29958 3.06685 8.65792 3.25852C8.42458 3.33352 8.17461 3.25852 8.01628 3.08352C7.85794 2.90852 7.80794 2.65852 7.89961 2.43352C8.24128 1.55852 9.07458 0.983521 10.0246 0.983521C10.9746 0.983521 11.8079 1.55019 12.1496 2.43352C12.2329 2.65852 12.1913 2.90852 12.0329 3.08352C11.9079 3.21685 11.7329 3.28352 11.5663 3.28352Z" fill="#292F37"/>
<path d="M10.0162 19.0085C9.19117 19.0085 8.39117 18.6751 7.80786 18.0918C7.22453 17.5085 6.89119 16.7085 6.89119 15.8835H8.14119C8.14119 16.3751 8.34117 16.8585 8.69117 17.2085C9.04117 17.5585 9.5245 17.7585 10.0162 17.7585C11.0495 17.7585 11.8912 16.9168 11.8912 15.8835H13.1412C13.1412 17.6085 11.7412 19.0085 10.0162 19.0085Z" fill="#292F37"/>
</svg>
