<svg width="16" height="16" viewBox="0 0 16 16" fill="none" xmlns="http://www.w3.org/2000/svg">
<g clip-path="url(#clip0_11973_163727)">
<path fill-rule="evenodd" clip-rule="evenodd" d="M9.28951 3.28946C10.2311 2.34785 11.7688 2.34785 12.7104 3.28946C13.652 4.23107 13.652 5.76876 12.7104 6.71038L5.71042 13.7104C5.6104 13.8104 5.47475 13.8666 5.3333 13.8666H2.66663C2.37208 13.8666 2.1333 13.6278 2.1333 13.3333V10.6666C2.1333 10.5251 2.18949 10.3895 2.28951 10.2895L9.28951 3.28946ZM11.9562 4.04371C11.4311 3.51866 10.5688 3.51866 10.0438 4.04371L3.19997 10.8875V12.7999H5.11239L11.9562 5.95613C12.4812 5.43107 12.4812 4.56876 11.9562 4.04371Z" fill="#000"/>
<path fill-rule="evenodd" clip-rule="evenodd" d="M8.62284 3.95613C8.83112 3.74785 9.16881 3.74785 9.37709 3.95613L12.0438 6.62279C12.252 6.83107 12.252 7.16876 12.0438 7.37704C11.8355 7.58532 11.4978 7.58532 11.2895 7.37704L8.62284 4.71038C8.41456 4.5021 8.41456 4.16441 8.62284 3.95613Z" fill="#000"/>
</g>
<defs>
<clipPath id="clip0_11973_163727">
<rect width="16" height="16" fill="white"/>
</clipPath>
</defs>
</svg>
