<svg width="18" height="18" viewBox="0 0 18 18" fill="none" xmlns="http://www.w3.org/2000/svg">
<g clip-path="url(#clip0_3345_6687)">
<path d="M13.5002 5.93282C13.4777 5.93282 13.4627 5.93282 13.4402 5.93282H13.4027C11.9852 5.88782 10.9277 4.79281 10.9277 3.44281C10.9277 2.06281 12.0527 0.945312 13.4252 0.945312C14.7977 0.945312 15.9227 2.07031 15.9227 3.44281C15.9152 4.80031 14.8577 5.89531 13.5077 5.94031C13.5077 5.93281 13.5077 5.93282 13.5002 5.93282ZM13.4252 2.06282C12.6677 2.06282 12.0527 2.67782 12.0527 3.43532C12.0527 4.17782 12.6302 4.77782 13.3727 4.80782C13.3802 4.80032 13.4402 4.80032 13.5077 4.80782C14.2352 4.77032 14.7977 4.17032 14.8052 3.43532C14.8052 2.67782 14.1902 2.06282 13.4252 2.06282Z" fill="white"/>
<path d="M13.5079 11.4604C13.2154 11.4604 12.9229 11.4379 12.6304 11.3854C12.3229 11.3329 12.1204 11.0404 12.1729 10.7329C12.2254 10.4254 12.5179 10.2229 12.8254 10.2754C13.7479 10.4329 14.7229 10.2605 15.3754 9.82552C15.7279 9.59302 15.9154 9.30044 15.9154 9.00794C15.9154 8.71544 15.7204 8.43044 15.3754 8.19794C14.7229 7.76294 13.7329 7.59044 12.8029 7.75544C12.4954 7.81544 12.2029 7.60544 12.1504 7.29798C12.0979 6.99048 12.3004 6.69798 12.6079 6.64548C13.8304 6.42798 15.0979 6.66047 15.9979 7.26047C16.6579 7.70294 17.0404 8.33294 17.0404 9.00794C17.0404 9.67544 16.6654 10.313 15.9979 10.763C15.3154 11.213 14.4304 11.4604 13.5079 11.4604Z" fill="white"/>
<path d="M4.47785 5.9325C4.47035 5.9325 4.46285 5.9325 4.46285 5.9325C3.11285 5.8875 2.05535 4.7925 2.04785 3.4425C2.04785 2.0625 3.17285 0.9375 4.54535 0.9375C5.91785 0.9375 7.04285 2.0625 7.04285 3.435C7.04285 4.7925 5.98535 5.8875 4.63535 5.9325L4.47785 5.37L4.53035 5.9325C4.51535 5.9325 4.49285 5.9325 4.47785 5.9325ZM4.55285 4.8075C4.59785 4.8075 4.63535 4.8075 4.68035 4.815C5.34785 4.785 5.93285 4.185 5.93285 3.4425C5.93285 2.685 5.31785 2.06999 4.56035 2.06999C3.80285 2.06999 3.18785 2.685 3.18785 3.4425C3.18785 4.1775 3.75785 4.77 4.48535 4.815C4.49285 4.8075 4.52285 4.8075 4.55285 4.8075Z" fill="white"/>
<path d="M4.47 11.4604C3.5475 11.4604 2.6625 11.213 1.98 10.763C1.32 10.3205 0.9375 9.68294 0.9375 9.00794C0.9375 8.34044 1.32 7.70294 1.98 7.26047C2.88 6.66047 4.1475 6.42798 5.37 6.64548C5.6775 6.69798 5.88 6.99048 5.8275 7.29798C5.775 7.60544 5.4825 7.81544 5.175 7.75544C4.245 7.59044 3.2625 7.76294 2.6025 8.19794C2.25 8.43044 2.0625 8.71544 2.0625 9.00794C2.0625 9.30044 2.2575 9.59302 2.6025 9.82552C3.255 10.2605 4.23 10.4329 5.1525 10.2754C5.46 10.2229 5.7525 10.4329 5.805 10.7329C5.8575 11.0404 5.655 11.3329 5.3475 11.3854C5.055 11.4379 4.7625 11.4604 4.47 11.4604Z" fill="white"/>
<path d="M9.00023 11.5354C8.97773 11.5354 8.96273 11.5354 8.94023 11.5354H8.90273C7.48523 11.4904 6.42773 10.3954 6.42773 9.04537C6.42773 7.66537 7.55273 6.54785 8.92523 6.54785C10.2977 6.54785 11.4227 7.67287 11.4227 9.04537C11.4152 10.4029 10.3577 11.4979 9.00773 11.5429C9.00773 11.5354 9.00773 11.5354 9.00023 11.5354ZM8.92523 7.66537C8.16773 7.66537 7.55273 8.28037 7.55273 9.03787C7.55273 9.78037 8.13023 10.3804 8.87273 10.4104C8.88023 10.4029 8.94023 10.4029 9.00773 10.4104C9.73523 10.3729 10.2977 9.77287 10.3052 9.03787C10.3052 8.28787 9.69023 7.66537 8.92523 7.66537Z" fill="white"/>
<path d="M8.99947 17.07C8.09947 17.07 7.19947 16.8375 6.50197 16.365C5.84197 15.9225 5.45947 15.2925 5.45947 14.6175C5.45947 13.95 5.83447 13.305 6.50197 12.8625C7.90447 11.9325 10.102 11.9325 11.497 12.8625C12.157 13.305 12.5395 13.935 12.5395 14.61C12.5395 15.2775 12.1645 15.9225 11.497 16.365C10.7995 16.83 9.89947 17.07 8.99947 17.07ZM7.12447 13.8075C6.77197 14.04 6.58447 14.3325 6.58447 14.625C6.58447 14.9175 6.77947 15.2025 7.12447 15.435C8.13697 16.1175 9.85447 16.1175 10.867 15.435C11.2195 15.2025 11.407 14.91 11.407 14.6175C11.407 14.325 11.212 14.04 10.867 13.8075C9.86197 13.125 8.14447 13.1325 7.12447 13.8075Z" fill="white"/>
</g>
<defs>
<clipPath id="clip0_3345_6687">
<rect width="18" height="18" fill="white"/>
</clipPath>
</defs>
</svg>
