<?xml version="1.0" encoding="UTF-8"?>
<svg id="Capa_1" data-name="Capa 1" xmlns="http://www.w3.org/2000/svg" version="1.1" viewBox="0 0 24 24">
  <defs>
    <style>
      .cls-1 {
        fill: #292d32;
        stroke-width: 0px;
      }
    </style>
  </defs>
  <path class="cls-1" d="M11.92,22.75c-5.92,0-10.75-4.82-10.75-10.75S6,1.25,11.92,1.25s10.75,4.82,10.75,10.75-4.82,10.75-10.75,10.75ZM11.92,2.75C6.82,2.75,2.67,6.9,2.67,12s4.15,9.25,9.25,9.25,9.25-4.15,9.25-9.25S17.02,2.75,11.92,2.75Z"/>
  <g>
    <path class="cls-1" d="M12,13.75c-.41,0-.75-.34-.75-.75v-.21c0-1.16.85-1.73,1.17-1.95.37-.25.49-.42.49-.68,0-.5-.41-.91-.91-.91s-.91.41-.91.91c0,.41-.34.75-.75.75s-.75-.34-.75-.75c0-1.33,1.08-2.41,2.41-2.41s2.41,1.08,2.41,2.41c0,1.14-.84,1.71-1.15,1.92-.39.26-.51.43-.51.71v.21c0,.42-.34.75-.75.75Z"/>
    <path class="cls-1" d="M12,16.25c-.42,0-.75-.34-.75-.75s.34-.75.75-.75.75.34.75.75-.33.75-.75.75Z"/>
  </g>
</svg>