<svg width="16" height="17" viewBox="0 0 16 17" fill="none" xmlns="http://www.w3.org/2000/svg">
<g id="search-normal-1">
<path id="Vector" d="M7.66659 15C3.89992 15 0.833252 11.9334 0.833252 8.16671C0.833252 4.40004 3.89992 1.33337 7.66659 1.33337C11.4333 1.33337 14.4999 4.40004 14.4999 8.16671C14.4999 11.9334 11.4333 15 7.66659 15ZM7.66659 2.33337C4.44659 2.33337 1.83325 4.95337 1.83325 8.16671C1.83325 11.38 4.44659 14 7.66659 14C10.8866 14 13.4999 11.38 13.4999 8.16671C13.4999 4.95337 10.8866 2.33337 7.66659 2.33337Z" fill="#A3A3B5"/>
<path id="Vector_2" d="M14.6669 15.6666C14.5402 15.6666 14.4135 15.62 14.3135 15.52L12.9802 14.1866C12.7869 13.9933 12.7869 13.6733 12.9802 13.48C13.1735 13.2866 13.4935 13.2866 13.6869 13.48L15.0202 14.8133C15.2135 15.0066 15.2135 15.3266 15.0202 15.52C14.9202 15.62 14.7935 15.6666 14.6669 15.6666Z" fill="#A3A3B5"/>
</g>
</svg>
