<svg width="21" height="22" viewBox="0 0 21 22" fill="none" xmlns="http://www.w3.org/2000/svg">
<g id="share">
<path id="Vector" d="M17.8825 11.9166C17.5571 11.9166 17.283 11.6683 17.2402 11.3428C17.0346 9.40715 15.9897 7.65136 14.3795 6.53794C14.0883 6.33238 14.0198 5.9384 14.2168 5.6472C14.4223 5.35599 14.8249 5.28747 15.1075 5.48447C17.026 6.81201 18.2594 8.90183 18.5078 11.2058C18.542 11.5569 18.2936 11.8738 17.9339 11.9166C17.9254 11.9166 17.8997 11.9166 17.8825 11.9166Z" fill="#14141C"/>
<path id="Vector_2" d="M3.21126 11.9591C3.18557 11.9591 3.16844 11.9591 3.14274 11.9591C2.79159 11.9163 2.53464 11.5994 2.5689 11.2482C2.80015 8.94432 4.02492 6.86307 5.91775 5.51839C6.20895 5.31284 6.6115 5.38135 6.81705 5.67256C7.02261 5.96376 6.95409 6.36631 6.66288 6.57186C5.06983 7.69385 4.04205 9.44963 3.84506 11.3853C3.81937 11.7107 3.53673 11.9591 3.21126 11.9591Z" fill="#14141C"/>
<path id="Vector_3" d="M10.5514 20.087C9.2838 20.087 8.07613 19.7958 6.94558 19.2305C6.62868 19.0678 6.50021 18.6824 6.66294 18.3655C6.82567 18.0486 7.21109 17.9201 7.52798 18.0828C9.37801 19.0164 11.6049 19.0335 13.472 18.1342C13.7889 17.9801 14.1743 18.1171 14.3285 18.434C14.4826 18.7509 14.3456 19.1363 14.0287 19.2905C12.9324 19.8215 11.7676 20.087 10.5514 20.087Z" fill="#14141C"/>
<path id="Vector_4" d="M10.5508 7.95057C8.88065 7.95057 7.52741 6.59733 7.52741 4.92719C7.52741 3.25705 8.88065 1.90381 10.5508 1.90381C12.2209 1.90381 13.5742 3.25705 13.5742 4.92719C13.5742 6.59733 12.2124 7.95057 10.5508 7.95057ZM10.5508 3.1971C9.59153 3.1971 8.81213 3.97649 8.81213 4.93575C8.81213 5.89501 9.59153 6.67441 10.5508 6.67441C11.51 6.67441 12.2894 5.89501 12.2894 4.93575C12.2894 3.97649 11.5015 3.1971 10.5508 3.1971Z" fill="#14141C"/>
<path id="Vector_5" d="M4.3597 18.4257C2.68956 18.4257 1.33632 17.0724 1.33632 15.4023C1.33632 13.7407 2.68956 12.3789 4.3597 12.3789C6.02983 12.3789 7.38307 13.7321 7.38307 15.4023C7.38307 17.0639 6.02983 18.4257 4.3597 18.4257ZM4.3597 13.6636C3.40044 13.6636 2.62104 14.443 2.62104 15.4023C2.62104 16.3615 3.40044 17.1409 4.3597 17.1409C5.31895 17.1409 6.09835 16.3615 6.09835 15.4023C6.09835 14.443 5.31895 13.6636 4.3597 13.6636Z" fill="#14141C"/>
<path id="Vector_6" d="M16.6415 18.4257C14.9713 18.4257 13.6181 17.0724 13.6181 15.4023C13.6181 13.7407 14.9713 12.3789 16.6415 12.3789C18.3116 12.3789 19.6649 13.7321 19.6649 15.4023C19.6563 17.0639 18.3031 18.4257 16.6415 18.4257ZM16.6415 13.6636C15.6822 13.6636 14.9028 14.443 14.9028 15.4023C14.9028 16.3615 15.6822 17.1409 16.6415 17.1409C17.6007 17.1409 18.3801 16.3615 18.3801 15.4023C18.3716 14.443 17.6007 13.6636 16.6415 13.6636Z" fill="#14141C"/>
</g>
</svg>
