<svg width="36" height="37" viewBox="0 0 36 37" fill="none" xmlns="http://www.w3.org/2000/svg">
<path d="M24.9659 19.2492C24.6576 19.2492 24.3992 19.0159 24.3659 18.7076C24.1659 16.8743 23.1826 15.2243 21.6659 14.1743C21.3909 13.9826 21.3242 13.6076 21.5159 13.3326C21.7076 13.0576 22.0826 12.9909 22.3576 13.1826C24.1659 14.4409 25.3326 16.4076 25.5742 18.5826C25.6076 18.9159 25.3659 19.2159 25.0326 19.2492C25.0076 19.2492 24.9909 19.2492 24.9659 19.2492Z" fill="#090467"/>
<path d="M11.1161 19.2903C11.0994 19.2903 11.0744 19.2903 11.0578 19.2903C10.7244 19.257 10.4828 18.957 10.5161 18.6237C10.7411 16.4486 11.8911 14.482 13.6828 13.2153C13.9494 13.0236 14.3328 13.0903 14.5244 13.357C14.7161 13.632 14.6494 14.007 14.3828 14.1986C12.8828 15.2653 11.9078 16.9153 11.7244 18.7403C11.6911 19.057 11.4244 19.2903 11.1161 19.2903Z" fill="#090467"/>
<path d="M21.3255 26.2236C20.3005 26.7153 19.2005 26.9653 18.0505 26.9653C16.8505 26.9653 15.7088 26.6986 14.6421 26.1569C14.3421 26.0153 14.2255 25.6486 14.3755 25.3486C14.5171 25.0486 14.8838 24.9319 15.1838 25.0736C15.7088 25.3403 16.2671 25.5236 16.8338 25.6319C17.6005 25.7819 18.3838 25.7903 19.1505 25.6569C19.7172 25.5569 20.2755 25.3819 20.7922 25.1319C21.1005 24.9903 21.4672 25.1069 21.6005 25.4153C21.7505 25.7153 21.6338 26.0819 21.3255 26.2236Z" fill="#090467"/>
<path d="M18.0421 10.3164C16.7504 10.3164 15.692 11.3664 15.692 12.6664C15.692 13.9664 16.7421 15.0164 18.0421 15.0164C19.3421 15.0164 20.3921 13.9664 20.3921 12.6664C20.3921 11.3664 19.3421 10.3164 18.0421 10.3164Z" fill="#090467"/>
<path d="M12.2087 20.1992C10.9171 20.1992 9.85873 21.2492 9.85873 22.5492C9.85873 23.8492 10.9087 24.8992 12.2087 24.8992C13.5087 24.8992 14.5587 23.8492 14.5587 22.5492C14.5587 21.2492 13.5004 20.1992 12.2087 20.1992Z" fill="#090467"/>
<path d="M23.7924 20.1992C22.5007 20.1992 21.4424 21.2492 21.4424 22.5492C21.4424 23.8492 22.4924 24.8992 23.7924 24.8992C25.0924 24.8992 26.1424 23.8492 26.1424 22.5492C26.1424 21.2492 25.0924 20.1992 23.7924 20.1992Z" fill="#090467"/>
</svg>
