<svg width="13" height="12" viewBox="0 0 13 12" fill="none" xmlns="http://www.w3.org/2000/svg">
<path d="M9.76492 8.875H4.43992C3.94492 8.875 3.46992 8.665 3.13492 8.3C2.79992 7.935 2.62992 7.445 2.66992 6.95L3.08492 1.97C3.09992 1.815 3.04492 1.665 2.93992 1.55C2.83492 1.435 2.68992 1.375 2.53492 1.375H1.66992C1.46492 1.375 1.29492 1.205 1.29492 1C1.29492 0.795 1.46492 0.625 1.66992 0.625H2.53993C2.90493 0.625 3.24992 0.78 3.49492 1.045C3.62992 1.195 3.72992 1.37 3.78492 1.565H10.0299C10.5349 1.565 10.9999 1.765 11.3399 2.125C11.6749 2.49 11.8449 2.965 11.8049 3.47L11.5349 7.22C11.4799 8.135 10.6799 8.875 9.76492 8.875ZM3.80992 2.31L3.41992 7.01C3.39492 7.3 3.48992 7.575 3.68492 7.79C3.87992 8.005 4.14992 8.12 4.43992 8.12H9.76492C10.2849 8.12 10.7549 7.68 10.7949 7.16L11.0649 3.41001C11.0849 3.11501 10.9899 2.835 10.7949 2.63C10.5999 2.42 10.3299 2.305 10.0349 2.305H3.80992V2.31Z" fill="#001B38"/>
<path d="M8.79492 11.375C8.24492 11.375 7.79492 10.925 7.79492 10.375C7.79492 9.825 8.24492 9.375 8.79492 9.375C9.34492 9.375 9.79492 9.825 9.79492 10.375C9.79492 10.925 9.34492 11.375 8.79492 11.375ZM8.79492 10.125C8.65492 10.125 8.54492 10.235 8.54492 10.375C8.54492 10.515 8.65492 10.625 8.79492 10.625C8.93492 10.625 9.04492 10.515 9.04492 10.375C9.04492 10.235 8.93492 10.125 8.79492 10.125Z" fill="#001B38"/>
<path d="M4.79492 11.375C4.24492 11.375 3.79492 10.925 3.79492 10.375C3.79492 9.825 4.24492 9.375 4.79492 9.375C5.34492 9.375 5.79492 9.825 5.79492 10.375C5.79492 10.925 5.34492 11.375 4.79492 11.375ZM4.79492 10.125C4.65492 10.125 4.54492 10.235 4.54492 10.375C4.54492 10.515 4.65492 10.625 4.79492 10.625C4.93492 10.625 5.04492 10.515 5.04492 10.375C5.04492 10.235 4.93492 10.125 4.79492 10.125Z" fill="#0A0C0E"/>
<path d="M11.1699 4.375H5.16992C4.96492 4.375 4.79492 4.205 4.79492 4C4.79492 3.795 4.96492 3.625 5.16992 3.625H11.1699C11.3749 3.625 11.5449 3.795 11.5449 4C11.5449 4.205 11.3749 4.375 11.1699 4.375Z" fill="#0A0C0E"/>
</svg>
