<svg width="18" height="17" viewBox="0 0 18 17" fill="none" xmlns="http://www.w3.org/2000/svg">
<path d="M13.125 16.6748H4.79167C1.75 16.6748 0 14.9248 0 11.8831V6.04981C0 3.00814 1.75 1.25814 4.79167 1.25814H8.95833C9.3 1.25814 9.58333 1.54148 9.58333 1.88314C9.58333 2.22481 9.3 2.50814 8.95833 2.50814H4.79167C2.40833 2.50814 1.25 3.66648 1.25 6.04981V11.8831C1.25 14.2665 2.40833 15.4248 4.79167 15.4248H13.125C15.5083 15.4248 16.6667 14.2665 16.6667 11.8831V8.54981C16.6667 8.20814 16.95 7.92481 17.2917 7.92481C17.6333 7.92481 17.9167 8.20814 17.9167 8.54981V11.8831C17.9167 14.9248 16.1667 16.6748 13.125 16.6748Z" fill="#292F37"/>
<path d="M8.95733 9.69131C8.25733 9.69131 7.549 9.47464 7.00733 9.03297L4.399 6.94962C4.13233 6.73296 4.08234 6.34129 4.299 6.07463C4.51567 5.80796 4.90732 5.75796 5.17399 5.97462L7.78233 8.05797C8.41567 8.56631 9.49067 8.56631 10.124 8.05797C10.3907 7.84131 10.7823 7.88298 10.999 8.15798C11.2157 8.42464 11.174 8.82464 10.899 9.03297C10.3657 9.47464 9.65733 9.69131 8.95733 9.69131Z" fill="#292F37"/>
<path d="M12.9089 7.09167C12.5672 7.09167 12.3339 6.97499 12.1839 6.86666C11.9089 6.66666 11.4839 6.16668 11.7339 5.06668L11.7756 4.89167C11.7922 4.825 11.7422 4.66667 11.7006 4.61667L11.4089 4.32499C10.9172 3.82499 10.7256 3.24167 10.8922 2.71667C11.0589 2.2 11.5506 1.83333 12.2422 1.71667L12.5589 1.66667C12.6172 1.65 12.7339 1.56667 12.7672 1.50833L13.0006 1.03333C13.3256 0.374992 13.8256 0 14.3756 0C14.9256 0 15.4256 0.374992 15.7506 1.03333L15.9839 1.50833C16.0089 1.55833 16.1339 1.65 16.1922 1.66667L16.5089 1.71667C17.2006 1.83333 17.6922 2.2 17.8589 2.71667C18.0256 3.23333 17.8422 3.81666 17.3422 4.32499L17.0506 4.61667C17.0089 4.66667 16.9589 4.825 16.9756 4.89167L17.0172 5.06668C17.2672 6.16668 16.8422 6.66666 16.5672 6.86666C16.2922 7.06666 15.6922 7.30831 14.7339 6.73334L14.5256 6.60833C14.4672 6.575 14.3006 6.575 14.2422 6.60833L14.0256 6.73334C13.5756 7.00001 13.2006 7.09167 12.9089 7.09167ZM14.3672 1.25833C14.3589 1.26667 14.2423 1.34999 14.1256 1.59166L13.8922 2.06667C13.6922 2.475 13.2172 2.825 12.7756 2.9L12.4589 2.95C12.1923 2.99167 12.1006 3.08334 12.0922 3.10001C12.0922 3.11667 12.1173 3.24999 12.3089 3.44166L12.6006 3.73333C12.9423 4.08333 13.1173 4.68333 13.0089 5.15833L12.9672 5.33333C12.9006 5.63333 12.9256 5.79166 12.9423 5.84999C12.9589 5.83332 13.1089 5.81667 13.3839 5.65L13.6006 5.52499C14.0589 5.24999 14.7172 5.24999 15.1756 5.52499L15.3839 5.65C15.6589 5.81667 15.8006 5.83333 15.8506 5.83333C15.8422 5.80833 15.8756 5.65833 15.8006 5.33333L15.7589 5.15833C15.6506 4.67499 15.8256 4.08333 16.1672 3.73333L16.4589 3.44166C16.6506 3.24999 16.6756 3.11667 16.6756 3.09167C16.6672 3.075 16.5756 2.99167 16.3089 2.94167L15.9923 2.89167C15.5423 2.81668 15.0756 2.46667 14.8756 2.05834L14.6422 1.59166C14.5089 1.34166 14.4006 1.26667 14.3672 1.25833Z" fill="#292F37"/>
</svg>
