<svg width="36" height="37" viewBox="0 0 36 37" fill="none" xmlns="http://www.w3.org/2000/svg">
<path d="M22.1667 11.7793H13.8333C11.3333 11.7793 9.66666 13.0293 9.66666 15.946V21.7793C9.66666 24.696 11.3333 25.946 13.8333 25.946H22.1667C24.6667 25.946 26.3333 24.696 26.3333 21.7793V15.946C26.3333 13.0293 24.6667 11.7793 22.1667 11.7793ZM22.5583 16.8543L19.95 18.9376C19.4 19.3793 18.7 19.596 18 19.596C17.3 19.596 16.5917 19.3793 16.05 18.9376L13.4417 16.8543C13.175 16.6376 13.1333 16.2376 13.3417 15.971C13.5583 15.7043 13.95 15.6543 14.2167 15.871L16.825 17.9543C17.4583 18.4626 18.5333 18.4626 19.1667 17.9543L21.775 15.871C22.0417 15.6543 22.4417 15.696 22.65 15.971C22.8667 16.2376 22.825 16.6376 22.5583 16.8543Z" fill="#090467"/>
</svg>
