<svg width="18" height="15" viewBox="0 0 18 15" fill="none" xmlns="http://www.w3.org/2000/svg">
    <path
        d="M13.167 0.139282H4.83366C2.33366 0.139282 0.666992 1.38928 0.666992 4.30595V10.1393C0.666992 13.0559 2.33366 14.3059 4.83366 14.3059H13.167C15.667 14.3059 17.3337 13.0559 17.3337 10.1393V4.30595C17.3337 1.38928 15.667 0.139282 13.167 0.139282ZM13.5587 5.21428L10.9503 7.29762C10.4003 7.73928 9.70033 7.95595 9.00033 7.95595C8.30033 7.95595 7.59199 7.73928 7.05033 7.29762L4.44199 5.21428C4.17533 4.99762 4.13366 4.59762 4.34199 4.33095C4.55866 4.06428 4.95033 4.01428 5.21699 4.23095L7.82533 6.31428C8.45866 6.82262 9.53366 6.82262 10.167 6.31428L12.7753 4.23095C13.042 4.01428 13.442 4.05595 13.6503 4.33095C13.867 4.59762 13.8253 4.99762 13.5587 5.21428Z"
        fill="#001B38" />
</svg>