<svg width="14" height="14" viewBox="0 0 14 14" fill="none" xmlns="http://www.w3.org/2000/svg">
<path d="M9.91666 12.3962H4.08332C1.95416 12.3962 0.729156 11.1712 0.729156 9.04199V4.95866C0.729156 2.82949 1.95416 1.60449 4.08332 1.60449H9.91666C12.0458 1.60449 13.2708 2.82949 13.2708 4.95866V9.04199C13.2708 11.1712 12.0458 12.3962 9.91666 12.3962ZM4.08332 2.47949C2.41499 2.47949 1.60416 3.29033 1.60416 4.95866V9.04199C1.60416 10.7103 2.41499 11.5212 4.08332 11.5212H9.91666C11.585 11.5212 12.3958 10.7103 12.3958 9.04199V4.95866C12.3958 3.29033 11.585 2.47949 9.91666 2.47949H4.08332Z" fill="#667688"/>
<path d="M6.9993 7.50701C6.5093 7.50701 6.01347 7.35535 5.6343 7.04618L3.80847 5.58783C3.6218 5.43616 3.58681 5.162 3.73847 4.97533C3.89014 4.78866 4.16431 4.75366 4.35097 4.90533L6.1768 6.36368C6.62013 6.71951 7.37263 6.71951 7.81597 6.36368L9.6418 4.90533C9.82847 4.75366 10.1085 4.78283 10.2543 4.97533C10.406 5.162 10.3768 5.442 10.1843 5.58783L8.35847 7.04618C7.98513 7.35535 7.4893 7.50701 6.9993 7.50701Z" fill="#667688"/>
</svg>
