<svg width="16" height="16" viewBox="0 0 16 16" fill="none" xmlns="http://www.w3.org/2000/svg">
<g id="sort descending">
<g id="Vector">
<path d="M8.66667 3.46619L8.77474 3.47791C9.01745 3.52788 9.20052 3.74253 9.20052 4.00004C9.20052 4.25755 9.01745 4.4722 8.77474 4.52218L8.66667 4.53389H2.66667C2.37211 4.53389 2.13281 4.29459 2.13281 4.00004C2.13281 3.70549 2.37211 3.46619 2.66667 3.46619H8.66667Z" fill="#292F37"/>
<path d="M7.33333 7.46619L7.44141 7.4779C7.68412 7.52788 7.86719 7.74253 7.86719 8.00004C7.86719 8.25755 7.68412 8.4722 7.44141 8.52218L7.33333 8.53389H2.66667C2.37211 8.53389 2.13281 8.29459 2.13281 8.00004C2.13281 7.70549 2.37211 7.46619 2.66667 7.46619H7.33333Z" fill="#292F37"/>
<path d="M7.33333 11.4662L7.44141 11.4779C7.68412 11.5279 7.86719 11.7425 7.86719 12C7.86719 12.2575 7.68412 12.4722 7.44141 12.5222L7.33333 12.5339H2.66667C2.37211 12.5339 2.13281 12.2946 2.13281 12C2.13281 11.7055 2.37211 11.4662 2.66667 11.4662H7.33333Z" fill="#292F37"/>
<path d="M13.6224 9.62244C13.8307 9.41416 14.1693 9.41416 14.3776 9.62244C14.5859 9.83072 14.5859 10.1694 14.3776 10.3776L12.3776 12.3776C12.1954 12.5598 11.914 12.5818 11.707 12.4454L11.6224 12.3776L9.6224 10.3776L9.55469 10.293C9.4182 10.086 9.44023 9.8046 9.6224 9.62244C9.80456 9.44027 10.086 9.41824 10.293 9.55473L10.3776 9.62244L12 11.2448L13.6224 9.62244Z" fill="#292F37"/>
<path d="M11.4661 12V4.00004C11.4661 3.70549 11.7054 3.46619 12 3.46619C12.2946 3.46619 12.5339 3.70549 12.5339 4.00004V12C12.5339 12.2946 12.2946 12.5339 12 12.5339C11.7054 12.5339 11.4661 12.2946 11.4661 12Z" fill="#292F37"/>
</g>
</g>
</svg>
