<svg width="12" height="12" viewBox="0 0 12 12" fill="none" xmlns="http://www.w3.org/2000/svg">
<g clip-path="url(#clip0_886_17219)">
<path d="M8.85 11.3499C8.6 11.3499 8.25 11.2499 7.8 10.9999L6.3 10.0999C6.15 9.9999 5.85 9.9999 5.7 10.0999L4.2 10.9999C3.3 11.5499 2.8 11.2999 2.55 11.1499C2.3 10.9999 1.95 10.5499 2.2 9.5499L2.55 7.9999C2.6 7.8499 2.5 7.5499 2.4 7.4499L1.15 6.1999C0.550004 5.5999 0.600004 5.0499 0.650004 4.7999C0.750004 4.5499 1 4.0999 1.85 3.9499L3.5 3.6499C3.65 3.6499 3.85 3.4499 3.95 3.3499L4.85 1.5999C5.25 0.799902 5.75 0.649902 6.05 0.649902C6.35 0.649902 6.85 0.749902 7.25 1.5999L8.15 3.3499C8.15 3.4999 8.35 3.6499 8.5 3.6499L10.1 3.8999C10.95 4.0499 11.25 4.4999 11.3 4.7499C11.4 4.9999 11.45 5.5499 10.8 6.1499L9.55 7.3999C9.45 7.4999 9.35 7.7999 9.4 7.9499L9.75 9.4999C10 10.4999 9.65 10.9499 9.4 11.0999C9.3 11.2499 9.1 11.3499 8.85 11.3499Z" fill="#FAAD14"/>
</g>
<defs>
<clipPath id="clip0_886_17219">
<rect width="12" height="12" fill="white"/>
</clipPath>
</defs>
</svg>
