<svg width="16" height="16" viewBox="0 0 16 16" fill="none" xmlns="http://www.w3.org/2000/svg">
<g id="tag">
<path id="Vector" d="M8.04599 14.6535C7.10599 14.6535 6.15933 14.2935 5.44599 13.5801L2.42599 10.5601C1.69266 9.8268 1.30599 8.81346 1.35266 7.78013L1.51266 4.44678C1.58599 2.85345 2.84599 1.59345 4.44599 1.51345L7.77932 1.35345C8.81265 1.31345 9.82599 1.69345 10.5593 2.42678L13.5793 5.44678C15.0127 6.88013 15.0127 9.22013 13.5793 10.6535L10.6527 13.5801C9.93265 14.2935 8.99265 14.6535 8.04599 14.6535ZM3.13266 9.8468L6.15266 12.8668C6.65933 13.3735 7.33265 13.6535 8.04599 13.6535C8.75932 13.6535 9.43265 13.3735 9.93932 12.8668L12.866 9.94013C13.3727 9.43346 13.6527 8.76013 13.6527 8.0468C13.6527 7.33346 13.3727 6.66012 12.866 6.15345L9.84599 3.13345C9.31265 2.60012 8.57265 2.31345 7.82599 2.35345L4.49266 2.51345C3.40599 2.56012 2.55933 3.40678 2.50599 4.48678L2.34599 7.82013C2.31266 8.57346 2.59933 9.31346 3.13266 9.8468Z" fill="#63637E"/>
<path id="Vector_2" d="M6.33341 8.50033C5.14008 8.50033 4.16675 7.52699 4.16675 6.33366C4.16675 5.14033 5.14008 4.16699 6.33341 4.16699C7.52675 4.16699 8.50008 5.14033 8.50008 6.33366C8.50008 7.52699 7.52675 8.50033 6.33341 8.50033ZM6.33341 5.16699C5.69341 5.16699 5.16675 5.69366 5.16675 6.33366C5.16675 6.97366 5.69341 7.50033 6.33341 7.50033C6.97341 7.50033 7.50008 6.97366 7.50008 6.33366C7.50008 5.69366 6.97341 5.16699 6.33341 5.16699Z" fill="#63637E"/>
</g>
</svg>
