<svg width="15" height="16" viewBox="0 0 15 16" fill="none" xmlns="http://www.w3.org/2000/svg">
<path d="M7.50644 11.1248C6.97519 11.1248 6.43769 10.9873 6.01895 10.7185L2.25645 8.26229C1.55645 7.80604 1.1377 7.03729 1.1377 6.19981C1.1377 5.36231 1.55645 4.59356 2.25645 4.13731L6.0252 1.68731C6.86269 1.14356 8.16894 1.14356 9.00019 1.69356L12.7439 4.14981C13.4377 4.60606 13.8564 5.37481 13.8564 6.20606C13.8564 7.03729 13.4377 7.80604 12.7439 8.26229L9.00019 10.7185C8.58144 10.9935 8.04394 11.1248 7.50644 11.1248ZM7.50644 2.21856C7.15019 2.21856 6.79394 2.29981 6.53769 2.47481L2.7752 4.92481C2.3377 5.21231 2.08145 5.67481 2.08145 6.19981C2.08145 6.72481 2.33145 7.18729 2.7752 7.47479L6.53769 9.93104C7.05644 10.2685 7.96894 10.2685 8.48769 9.93104L12.2314 7.47479C12.6689 7.18729 12.9189 6.72481 12.9189 6.19981C12.9189 5.67481 12.6689 5.21231 12.2314 4.92481L8.48769 2.46856C8.22519 2.30606 7.86894 2.21856 7.50644 2.21856Z" fill="white"/>
<path d="M4.7245 13.944L6.71825 14.6065C6.94325 14.6815 7.2245 14.719 7.4995 14.719C7.7745 14.719 8.05575 14.6815 8.28075 14.6128L4.7245 13.944ZM4.7245 13.944C3.78075 13.6315 3.037 12.6003 3.04325 11.6065L4.7245 13.944Z" fill="white" stroke="white"/>
<path d="M13.3752 10.3438C13.119 10.3438 12.9065 10.1312 12.9065 9.875V6.125C12.9065 5.86875 13.119 5.65625 13.3752 5.65625C13.6315 5.65625 13.844 5.86875 13.844 6.125V9.875C13.844 10.1312 13.6315 10.3438 13.3752 10.3438Z" fill="white"/>
</svg>
