<svg width="20" height="21" viewBox="0 0 20 21" fill="none" xmlns="http://www.w3.org/2000/svg">
<path d="M10.0003 2.20866C5.40866 2.20866 1.66699 5.95033 1.66699 10.542C1.66699 15.1337 5.40866 18.8753 10.0003 18.8753C14.592 18.8753 18.3337 15.1337 18.3337 10.542C18.3337 5.95033 14.592 2.20866 10.0003 2.20866ZM13.9837 8.62533L9.25866 13.3503C9.14199 13.467 8.98366 13.5337 8.81699 13.5337C8.65033 13.5337 8.49199 13.467 8.37533 13.3503L6.01699 10.992C5.77533 10.7503 5.77533 10.3503 6.01699 10.1087C6.25866 9.867 6.65866 9.867 6.90033 10.1087L8.81699 12.0253L13.1003 7.742C13.342 7.50033 13.742 7.50033 13.9837 7.742C14.2253 7.98366 14.2253 8.37533 13.9837 8.62533Z" fill="#0CBB4E"/>
</svg>
