<svg width="36" height="37" viewBox="0 0 36 37" fill="none" xmlns="http://www.w3.org/2000/svg">
<g id="twitter">
<path id="Vector" d="M15.1057 24.3108C21.2075 24.3108 24.5698 19.3297 24.5698 14.8467C24.5698 14.7222 24.5698 14.5976 24.5698 14.4731C25.1925 13.975 25.8151 13.4769 26.1887 12.7297C25.566 12.9788 24.9434 13.2278 24.3208 13.2278C24.9434 12.8542 25.566 12.2316 25.8151 11.3599C25.1925 11.7335 24.4453 11.9825 23.6981 12.1071C23.0755 11.4844 22.2038 11.1108 21.3321 11.1108C19.4642 11.1108 17.9698 12.6052 17.9698 14.4731C17.9698 14.7222 17.9698 14.9712 18.0943 15.2203C15.2302 15.0957 12.7396 13.7259 11.1208 11.7335C10.8717 12.2316 10.7472 12.8542 10.7472 13.4769C10.7472 14.5976 11.3698 15.5939 12.2415 16.2165C11.6189 16.2165 11.1208 15.9674 10.6226 15.7184C10.6226 17.3373 11.7434 18.7071 13.2377 18.9561C12.9887 19.0807 12.6151 19.0807 12.366 19.0807C12.117 19.0807 11.9925 19.0807 11.7434 19.0807C12.117 20.4505 13.3623 21.3222 14.8566 21.3222C13.7358 22.1939 12.2415 22.692 10.7472 22.692C10.4981 22.692 10.2491 22.692 10 22.692C11.4943 23.6882 13.2377 24.3108 15.1057 24.3108Z" fill="#1D99EE"/>
</g>
</svg>
