<svg width="18" height="18" viewBox="0 0 18 18" fill="none" xmlns="http://www.w3.org/2000/svg">
<g id="urgent" clip-path="url(#clip0_4350_20564)">
<path id="Vector" d="M6 12V9C6 8.20435 6.31607 7.44129 6.87868 6.87868C7.44129 6.31607 8.20435 6 9 6C9.79565 6 10.5587 6.31607 11.1213 6.87868C11.6839 7.44129 12 8.20435 12 9V12" stroke="#282835" stroke-linecap="round" stroke-linejoin="round"/>
<path id="Vector_2" d="M2.25 9H3M9 2.25V3M15 9H15.75M4.2 4.2L4.725 4.725M13.8 4.2L13.275 4.725" stroke="#282835" stroke-linecap="round" stroke-linejoin="round"/>
<path id="Vector_3" d="M4.5 12.75C4.5 12.5511 4.57902 12.3603 4.71967 12.2197C4.86032 12.079 5.05109 12 5.25 12H12.75C12.9489 12 13.1397 12.079 13.2803 12.2197C13.421 12.3603 13.5 12.5511 13.5 12.75V14.25C13.5 14.4489 13.421 14.6397 13.2803 14.7803C13.1397 14.921 12.9489 15 12.75 15H5.25C5.05109 15 4.86032 14.921 4.71967 14.7803C4.57902 14.6397 4.5 14.4489 4.5 14.25V12.75Z" stroke="#282835" stroke-linecap="round" stroke-linejoin="round"/>
</g>
<defs>
<clipPath id="clip0_4350_20564">
<rect width="18" height="18" fill="white"/>
</clipPath>
</defs>
</svg>
