<svg width="12" height="12" viewBox="0 0 12 12" fill="none" xmlns="http://www.w3.org/2000/svg">
<path d="M2.2001 2.9C2.4001 3 2.6001 3 2.8001 2.9C3.0001 2.8 3.0001 2.5 2.8001 2.3L2.4001 1.8C2.2001 1.6 2.0001 1.6 1.8001 1.8C1.6001 2 1.6001 2.2 1.8001 2.4L2.2001 2.9Z" fill="#FAAD14"/>
<path d="M0.600098 5.4C0.300098 5.4 0.100098 5.6 0.100098 5.9C0.100098 6.2 0.300098 6.4 0.600098 6.4H1.3001C1.5001 6.4 1.7001 6.2 1.7001 5.9C1.7001 5.6 1.5001 5.5 1.3001 5.4H0.600098Z" fill="#FAAD14"/>
<path d="M5.9001 1.6C6.2001 1.6 6.4001 1.4 6.4001 1.1V0.5C6.4001 0.2 6.2001 0 5.9001 0C5.6001 0 5.4001 0.2 5.4001 0.5V1.1C5.4001 1.4 5.6001 1.6 5.9001 1.6Z" fill="#FAAD14"/>
<path d="M10.8001 5.4C10.5001 5.4 10.3001 5.6 10.3001 5.9C10.3001 6.2 10.5001 6.4 10.8001 6.4H11.5001C11.7001 6.4 11.9001 6.2 11.9001 5.9C11.9001 5.6 11.7001 5.5 11.5001 5.4H10.8001Z" fill="#FAAD14"/>
<path d="M10.1001 1.7C9.9001 1.5 9.7001 1.5 9.5001 1.7L9.1001 2.2C8.9001 2.4 8.9001 2.7 9.1001 2.9C9.3001 3.1 9.5001 3.1 9.7001 2.9L10.1001 2.4C10.3001 2.2 10.3001 1.9 10.1001 1.7Z" fill="#FAAD14"/>
<path d="M8.9001 7.8H2.9001C2.6001 7.8 2.3001 7.9 2.1001 8.1C1.9001 8.3 1.8001 8.6 1.8001 8.9V10.1C1.8001 10.4 1.9001 10.7 2.1001 10.9C2.3001 11.1 2.6001 11.2 2.9001 11.2H8.9001C9.2001 11.2 9.5001 11.1 9.7001 10.9C9.9001 10.7 10.0001 10.4 10.0001 10.1V8.9C10.0001 8.6 9.9001 8.3 9.7001 8.1C9.5001 7.9 9.2001 7.8 8.9001 7.8Z" fill="#FAAD14"/>
<path d="M3.4001 7.4H8.5001C8.7001 7.4 8.9001 7.2 8.9001 7V5.9C8.9001 5.1 8.6001 4.4 8.1001 3.9C7.6001 3.4 7.0001 3.1 6.3001 3.1H6.0001C5.2001 3.1 4.5001 3.4 4.0001 3.9C3.5001 4.4 3.2001 5.2 3.2001 5.9V7C3.2001 7.2 3.4001 7.4 3.6001 7.4H3.4001Z" fill="#FAAD14"/>
</svg>
