<svg width="16" height="16" viewBox="0 0 16 16" fill="none" xmlns="http://www.w3.org/2000/svg">
<path d="M7.99996 8.4987C5.88663 8.4987 4.16663 6.7787 4.16663 4.66536C4.16663 2.55203 5.88663 0.832031 7.99996 0.832031C10.1133 0.832031 11.8333 2.55203 11.8333 4.66536C11.8333 6.7787 10.1133 8.4987 7.99996 8.4987ZM7.99996 1.83203C6.43996 1.83203 5.16663 3.10536 5.16663 4.66536C5.16663 6.22536 6.43996 7.4987 7.99996 7.4987C9.55996 7.4987 10.8333 6.22536 10.8333 4.66536C10.8333 3.10536 9.55996 1.83203 7.99996 1.83203Z" fill="#000000"/>
<mask id="path-2-inside-1_8931_92413" fill="white">
<path d="M2.27344 15.1667C2.0001 15.1667 1.77344 14.94 1.77344 14.6667C1.77344 11.82 4.56676 9.5 8.00013 9.5C8.67346 9.5 9.3334 9.58667 9.9734 9.76667C10.2401 9.84 10.3935 10.1133 10.3201 10.38C10.2468 10.6467 9.9734 10.8 9.7068 10.7267C9.16013 10.5733 8.5868 10.5 8.00013 10.5C5.1201 10.5 2.77344 12.3667 2.77344 14.6667C2.77344 14.94 2.54677 15.1667 2.27344 15.1667Z"/>
</mask>
<path d="M2.27344 15.1667C2.0001 15.1667 1.77344 14.94 1.77344 14.6667C1.77344 11.82 4.56676 9.5 8.00013 9.5C8.67346 9.5 9.3334 9.58667 9.9734 9.76667C10.2401 9.84 10.3935 10.1133 10.3201 10.38C10.2468 10.6467 9.9734 10.8 9.7068 10.7267C9.16013 10.5733 8.5868 10.5 8.00013 10.5C5.1201 10.5 2.77344 12.3667 2.77344 14.6667C2.77344 14.94 2.54677 15.1667 2.27344 15.1667Z" fill="#000000"/>
<path d="M9.9734 9.76667L9.4319 11.692L9.44308 11.6951L9.9734 9.76667ZM9.7068 10.7267L9.16666 12.6524L9.17636 12.655L9.7068 10.7267ZM2.27344 13.1667C3.10467 13.1667 3.77344 13.8354 3.77344 14.6667H-0.226562C-0.226562 16.0446 0.895535 17.1667 2.27344 17.1667V13.1667ZM3.77344 14.6667C3.77344 13.2572 5.30635 11.5 8.00013 11.5V7.5C3.82718 7.5 -0.226562 10.3828 -0.226562 14.6667H3.77344ZM8.00013 11.5C8.50048 11.5 8.97758 11.5642 9.43191 11.692L10.5149 7.84136C9.68921 7.60914 8.84644 7.5 8.00013 7.5V11.5ZM9.44308 11.6951C8.63216 11.4721 8.17563 10.6355 8.39172 9.84969L12.2485 10.9103C12.6113 9.59121 11.848 8.20793 10.5037 7.83826L9.44308 11.6951ZM8.39172 9.84969C8.61485 9.03831 9.45178 8.58224 10.2372 8.79829L9.17636 12.655C10.495 13.0178 11.8787 12.255 12.2485 10.9103L8.39172 9.84969ZM10.2469 8.80098C9.50948 8.59414 8.75316 8.5 8.00013 8.5V12.5C8.42044 12.5 8.81078 12.5525 9.16667 12.6524L10.2469 8.80098ZM8.00013 8.5C4.46358 8.5 0.773438 10.8619 0.773438 14.6667H4.77344C4.77344 13.8714 5.77662 12.5 8.00013 12.5V8.5ZM0.773438 14.6667C0.773438 13.8354 1.4422 13.1667 2.27344 13.1667V17.1667C3.65134 17.1667 4.77344 16.0446 4.77344 14.6667H0.773438Z" fill="#000000" mask="url(#path-2-inside-1_8931_92413)"/>
<path d="M12 15.1654C10.8934 15.1654 9.85337 14.5787 9.29337 13.6254C8.99337 13.1454 8.83337 12.5787 8.83337 11.9987C8.83337 11.0254 9.26671 10.1254 10.02 9.52536C10.58 9.0787 11.2867 8.83203 12 8.83203C13.7467 8.83203 15.1667 10.252 15.1667 11.9987C15.1667 12.5787 15.0067 13.1454 14.7067 13.632C14.54 13.912 14.3267 14.1654 14.0734 14.3787C13.52 14.8854 12.78 15.1654 12 15.1654ZM12 9.83203C11.5067 9.83203 11.04 9.9987 10.6467 10.312C10.1334 10.7187 9.83337 11.3387 9.83337 11.9987C9.83337 12.392 9.94004 12.7787 10.1467 13.112C10.5334 13.7654 11.2467 14.1654 12 14.1654C12.5267 14.1654 13.0334 13.972 13.42 13.6254C13.5934 13.4787 13.74 13.3054 13.8467 13.1187C14.06 12.7787 14.1667 12.392 14.1667 11.9987C14.1667 10.8054 13.1934 9.83203 12 9.83203Z" fill="#000000"/>
<path d="M11.6193 13.1597C11.4926 13.1597 11.3659 13.1131 11.2659 13.0131L10.6059 12.3531C10.4126 12.1597 10.4126 11.8397 10.6059 11.6463C10.7993 11.453 11.1193 11.453 11.3126 11.6463L11.6326 11.9664L12.6993 10.9797C12.8993 10.793 13.2193 10.8064 13.4059 11.0064C13.5926 11.2064 13.5793 11.5264 13.3793 11.7131L11.9593 13.0263C11.8593 13.113 11.7393 13.1597 11.6193 13.1597Z" fill="#000000"/>
</svg>
