<svg width="13" height="14" viewBox="0 0 13 14" fill="none" xmlns="http://www.w3.org/2000/svg">
<path d="M6.5 12.823C6.12083 12.823 5.73625 12.6768 5.44917 12.3897L4.52291 11.4743C4.29541 11.2468 3.98126 11.1222 3.66167 11.1222H3.25C2.12875 11.1222 1.21875 10.2176 1.21875 9.1072V3.1976C1.21875 2.08718 2.12875 1.18262 3.25 1.18262H9.75C10.8713 1.18262 11.7812 2.08718 11.7812 3.1976V9.1072C11.7812 10.2176 10.8713 11.1222 9.75 11.1222H9.33833C9.01875 11.1222 8.70458 11.2522 8.47708 11.4743L7.55083 12.3897C7.26375 12.6768 6.87917 12.823 6.5 12.823ZM3.25 1.9897C2.57833 1.9897 2.03125 2.53135 2.03125 3.19218V9.10178C2.03125 9.76803 2.57833 10.3043 3.25 10.3043H3.66167C4.19792 10.3043 4.7179 10.5209 5.09707 10.8947L6.02333 11.8101C6.28875 12.0701 6.71667 12.0701 6.98208 11.8101L7.90833 10.8947C8.2875 10.5209 8.8075 10.3043 9.34375 10.3043H9.75C10.4217 10.3043 10.9688 9.76261 10.9688 9.10178V3.19218C10.9688 2.52593 10.4217 1.9897 9.75 1.9897H3.25Z" fill="white"/>
<path d="M6.49999 6.323C5.57915 6.323 4.83167 5.57547 4.83167 4.65463C4.83167 3.7338 5.57915 2.98633 6.49999 2.98633C7.42082 2.98633 8.16838 3.7338 8.16838 4.65463C8.16838 5.57547 7.42082 6.323 6.49999 6.323ZM6.49999 3.79883C6.02874 3.79883 5.64415 4.18338 5.64415 4.65463C5.64415 5.12588 6.02874 5.51048 6.49999 5.51048C6.97124 5.51048 7.35588 5.12588 7.35588 4.65463C7.35588 4.18338 6.97124 3.79883 6.49999 3.79883Z" fill="white"/>
<path d="M8.66671 9.38888C8.44462 9.38888 8.26046 9.20471 8.26046 8.98263C8.26046 8.23513 7.46962 7.62305 6.50004 7.62305C5.53046 7.62305 4.73962 8.23513 4.73962 8.98263C4.73962 9.20471 4.55546 9.38888 4.33337 9.38888C4.11129 9.38888 3.92712 9.20471 3.92712 8.98263C3.92712 7.78555 5.08087 6.81055 6.50004 6.81055C7.91921 6.81055 9.07296 7.78555 9.07296 8.98263C9.07296 9.20471 8.88879 9.38888 8.66671 9.38888Z" fill="white"/>
</svg>
