<svg width="13" height="15" viewBox="0 0 13 15" fill="none" xmlns="http://www.w3.org/2000/svg">
<path d="M6.26667 7.73333C4.13333 7.73333 2.4 6 2.4 3.86667C2.4 1.73333 4.13333 0 6.26667 0C8.4 0 10.1333 1.73333 10.1333 3.86667C10.1333 6 8.4 7.73333 6.26667 7.73333ZM6.26667 1.06667C4.73333 1.06667 3.46667 2.33333 3.46667 3.86667C3.46667 5.4 4.73333 6.66667 6.26667 6.66667C7.8 6.66667 9.06667 5.4 9.06667 3.86667C9.06667 2.33333 7.8 1.06667 6.26667 1.06667Z" fill="#292F37"/>
<path d="M0.533333 14.4C0.266667 14.4 0 14.2 0 13.8667C0 11 2.8 8.66667 6.2 8.66667C6.46667 8.66667 6.73333 8.86667 6.73333 9.2C6.73333 9.53333 6.53333 9.73333 6.2 9.73333C3.33333 9.73333 1 11.6 1 13.8667C1.06667 14.1333 0.8 14.4 0.533333 14.4Z" fill="#292F37"/>
<path d="M9.40001 9.20001V13.8667C9.40001 14.1333 9.2 14.4 8.86667 14.4C8.53334 14.4 8.33334 14.2 8.33334 13.8667V9.20001C8.33334 8.93334 8.53334 8.66668 8.86667 8.66668C9.2 8.66668 9.40001 8.93334 9.40001 9.20001Z" fill="#292F37"/>
<path d="M9.26667 8.86667C9.46667 9.06667 9.46667 9.40001 9.26667 9.60001L7.8 11.0667C7.6 11.2667 7.26667 11.2667 7.06667 11.0667C6.86667 10.8667 6.86667 10.5333 7.06667 10.3333L8.53334 8.86667C8.73334 8.66667 9.06667 8.66667 9.26667 8.86667Z" fill="#292F37"/>
<path d="M10 13.8667V9.2C10 8.93333 10.2 8.66667 10.5333 8.66667C10.8667 8.66667 11.0667 8.86667 11.0667 9.2V13.8667C11.0667 14.1333 10.8667 14.4 10.5333 14.4C10.2 14.4 10 14.1333 10 13.8667Z" fill="#292F37"/>
<path d="M10.1333 14.2C9.93333 14 9.93333 13.6667 10.1333 13.4667L11.6 12C11.8 11.8 12.1333 11.8 12.3333 12C12.5333 12.2 12.5333 12.5333 12.3333 12.7333L10.8667 14.2C10.6667 14.4 10.3333 14.4 10.1333 14.2Z" fill="#292F37"/>
</svg>
