<svg width="14" height="14" viewBox="0 0 14 14" fill="none" xmlns="http://www.w3.org/2000/svg">
<path d="M7 8.02081C6.76083 8.02081 6.5625 7.82248 6.5625 7.58331V4.52081C6.5625 4.28165 6.76083 4.08331 7 4.08331C7.23917 4.08331 7.4375 4.28165 7.4375 4.52081V7.58331C7.4375 7.82248 7.23917 8.02081 7 8.02081Z" fill="#0A0C0E"/>
<path d="M7.00002 10.0625C6.84252 10.0625 6.69669 10.0042 6.58585 9.89335C6.53335 9.83501 6.49252 9.77085 6.45752 9.70085C6.42835 9.63085 6.41669 9.55501 6.41669 9.47918C6.41669 9.32751 6.48085 9.17585 6.58585 9.06501C6.80169 8.84918 7.19835 8.84918 7.41419 9.06501C7.51919 9.17585 7.58335 9.32751 7.58335 9.47918C7.58335 9.55501 7.56585 9.63085 7.53669 9.70085C7.50752 9.77085 7.46669 9.83501 7.41419 9.89335C7.30335 10.0042 7.15752 10.0625 7.00002 10.0625Z" fill="#0A0C0E"/>
<path d="M7.00009 13.2709C6.60926 13.2709 6.21259 13.1717 5.86259 12.9676L2.39758 10.9667C1.69758 10.5584 1.26007 9.80589 1.26007 8.99506V5.00506C1.26007 4.19423 1.69758 3.44173 2.39758 3.0334L5.86259 1.03257C6.56259 0.624235 7.43176 0.624235 8.13759 1.03257L11.6026 3.0334C12.3026 3.44173 12.7401 4.19423 12.7401 5.00506V8.99506C12.7401 9.80589 12.3026 10.5584 11.6026 10.9667L8.13759 12.9676C7.78759 13.1717 7.39093 13.2709 7.00009 13.2709ZM7.00009 1.60422C6.76093 1.60422 6.51593 1.66839 6.30009 1.79089L2.83508 3.79172C2.40341 4.04256 2.13507 4.5034 2.13507 5.00506V8.99506C2.13507 9.49089 2.40341 9.95756 2.83508 10.2084L6.30009 12.2092C6.73176 12.4601 7.26843 12.4601 7.69426 12.2092L11.1593 10.2084C11.5909 9.95756 11.8593 9.49672 11.8593 8.99506V5.00506C11.8593 4.50923 11.5909 4.04256 11.1593 3.79172L7.69426 1.79089C7.48426 1.66839 7.23926 1.60422 7.00009 1.60422Z" fill="#0A0C0E"/>
</svg>
