<svg width="20" height="20" viewBox="0 0 20 20" fill="none" xmlns="http://www.w3.org/2000/svg">
    <path
        d="M2.60714 14.1112L2 18.6112L5.64286 17.5398L8.07143 18.1112L11 18.6112H13L15.3571 16.3969L17.1786 15.2541L19 12.3969V9.53978L18.3929 6.11121L17.1786 4.39692L14.1429 2.68263C13.3333 2.49216 11.9857 1.61121 11.5 1.61121C11.0143 1.61121 8.88095 2.11121 8.07143 2.11121L5 2.68263L2.60714 6.11121C2.40476 7.44454 2 10.2255 2 10.6826C2 11.1398 2.40476 13.1588 2.60714 14.1112Z"
        fill="#25D366" />
    <path fill-rule="evenodd" clip-rule="evenodd"
        d="M16.8591 3.09705C15.0462 1.33322 12.6291 0.304321 10.061 0.304321C4.77357 0.304321 0.543647 4.41992 0.543647 9.56443C0.543647 11.1813 0.996853 12.7981 1.7522 14.268L0.392578 19.1185L5.52891 17.7956C6.88853 18.5306 8.55029 18.9715 10.061 18.9715C15.3484 18.9715 19.5783 14.8559 19.5783 9.71141C19.7294 7.21265 18.6719 4.86088 16.8591 3.09705ZM10.061 17.3547C8.70136 17.3547 7.19067 16.9137 5.98212 16.3258L5.67998 16.1788L2.65861 16.9137L3.41395 14.121L3.26288 13.827C2.50754 12.5041 2.2054 11.0343 2.2054 9.56443C2.2054 5.30184 5.67998 1.92116 10.061 1.92116C12.1759 1.92116 14.1398 2.65609 15.6505 4.12595C17.1612 5.59581 17.9165 7.50662 17.9165 9.56443C18.0676 13.974 14.442 17.3547 10.061 17.3547ZM14.442 11.6222C14.1398 11.4752 13.0824 10.8873 12.7802 10.8873C12.6291 10.7403 12.327 10.7403 12.1759 11.0343C12.0249 11.3283 11.5717 11.7692 11.4206 11.9162C11.2695 12.0632 11.1185 12.0632 10.9674 11.9162C10.6653 11.7692 9.90991 11.6222 9.0035 10.7403C8.24815 10.1524 7.79494 9.41744 7.64388 9.12347C7.49281 8.8295 7.64388 8.8295 7.79495 8.68251C7.94601 8.53553 8.09708 8.38854 8.24815 8.24155C8.39922 8.09457 8.39922 7.94758 8.55029 7.8006C8.70136 7.65361 8.55029 7.50662 8.55029 7.35964C8.55029 7.21265 7.94601 6.03677 7.79495 5.59581C7.49281 5.30184 7.34174 5.30184 7.19067 5.30184C7.0396 5.30184 6.88853 5.30184 6.73746 5.30184C6.5864 5.30184 6.28426 5.30184 6.13319 5.59581C5.98212 5.88978 5.22678 6.47772 5.22678 7.50662C5.22678 8.68251 6.13319 9.71141 6.13319 9.8584C6.28426 10.0054 7.79495 12.3572 10.212 13.3861C10.8163 13.68 11.2695 13.827 11.5717 13.827C12.1759 13.974 12.6291 13.974 13.0824 13.974C13.5356 13.974 14.442 13.3861 14.7441 12.7981C14.8952 12.2102 14.8952 11.7692 14.8952 11.6222C14.8952 11.7692 14.7441 11.6222 14.442 11.6222Z"
        fill="white" />
</svg>