<svg width="36" height="37" viewBox="0 0 36 37" fill="none" xmlns="http://www.w3.org/2000/svg">
<g id="whatsapp">
<g id="WA_Logo_2_">
<g id="Group">
<path id="Vector 1" d="M10.6071 22.1108L10 26.6108L13.6429 25.5394L16.0714 26.1108L19 26.6108H21L23.3571 24.3966L25.1786 23.2537L27 20.3966V17.5394L26.3929 14.1108L25.1786 12.3966L22.1429 10.6823C21.3333 10.4918 19.9857 9.61084 19.5 9.61084C19.0143 9.61084 16.881 10.1108 16.0714 10.1108L13 10.6823L10.6071 14.1108C10.4048 15.4442 10 18.2251 10 18.6823C10 19.1394 10.4048 21.1585 10.6071 22.1108Z" fill="#25D366"/>
<path id="Vector" fill-rule="evenodd" clip-rule="evenodd" d="M24.8596 11.0969C23.0467 9.3331 20.6296 8.3042 18.0615 8.3042C12.7741 8.3042 8.54414 12.4198 8.54414 17.5643C8.54414 19.1811 8.99734 20.798 9.75269 22.2678L8.39307 27.1184L13.5294 25.7955C14.889 26.5304 16.5508 26.9714 18.0615 26.9714C23.3489 26.9714 27.5788 22.8558 27.5788 17.7113C27.7299 15.2125 26.6724 12.8608 24.8596 11.0969ZM18.0615 25.3546C16.7018 25.3546 15.1912 24.9136 13.9826 24.3256L13.6805 24.1787L10.6591 24.9136L11.4144 22.1209L11.2634 21.8269C10.508 20.504 10.2059 19.0342 10.2059 17.5643C10.2059 13.3017 13.6805 9.92104 18.0615 9.92104C20.1764 9.92104 22.1403 10.656 23.651 12.1258C25.1617 13.5957 25.917 15.5065 25.917 17.5643C26.0681 21.9739 22.4425 25.3546 18.0615 25.3546ZM22.4425 19.6221C22.1403 19.4751 21.0828 18.8872 20.7807 18.8872C20.6296 18.7402 20.3275 18.7402 20.1764 19.0342C20.0254 19.3281 19.5722 19.7691 19.4211 19.9161C19.27 20.0631 19.1189 20.0631 18.9679 19.9161C18.6657 19.7691 17.9104 19.6221 17.004 18.7402C16.2486 18.1522 15.7954 17.4173 15.6444 17.1233C15.4933 16.8294 15.6444 16.8294 15.7954 16.6824C15.9465 16.5354 16.0976 16.3884 16.2486 16.2414C16.3997 16.0944 16.3997 15.9475 16.5508 15.8005C16.7018 15.6535 16.5508 15.5065 16.5508 15.3595C16.5508 15.2125 15.9465 14.0366 15.7954 13.5957C15.4933 13.3017 15.3422 13.3017 15.1912 13.3017C15.0401 13.3017 14.889 13.3017 14.738 13.3017C14.5869 13.3017 14.2847 13.3017 14.1337 13.5957C13.9826 13.8897 13.2273 14.4776 13.2273 15.5065C13.2273 16.6824 14.1337 17.7113 14.1337 17.8583C14.2847 18.0053 15.7954 20.357 18.2125 21.3859C18.8168 21.6799 19.27 21.8269 19.5722 21.8269C20.1764 21.9739 20.6296 21.9739 21.0828 21.9739C21.536 21.9739 22.4425 21.3859 22.7446 20.798C22.8957 20.21 22.8957 19.7691 22.8957 19.6221C22.8957 19.7691 22.7446 19.6221 22.4425 19.6221Z" fill="white"/>
</g>
</g>
</g>
</svg>
