<svg width="21" height="21" viewBox="0 0 21 21" fill="none" xmlns="http://www.w3.org/2000/svg">
<g id="brand-whatsapp" clip-path="url(#clip0_1803_4159)">
<path id="Vector" d="M2.79163 18.2089L4.20482 14.9542C3.12365 13.4195 2.63974 11.5429 2.84391 9.67668C3.04808 7.81046 3.92628 6.08291 5.31371 4.81821C6.70115 3.55351 8.50243 2.83862 10.3795 2.80769C12.2566 2.77676 14.0805 3.43192 15.5088 4.65021C16.9372 5.86851 17.8718 7.5662 18.1374 9.42467C18.4029 11.2831 17.9811 13.1746 16.9511 14.7442C15.9211 16.3137 14.3536 17.4535 12.543 17.9494C10.7324 18.4454 8.80295 18.2636 7.11686 17.438L2.79163 18.2089" stroke="#14141C" stroke-linecap="round" stroke-linejoin="round"/>
<path id="Vector_2" d="M7.93054 8.78765C7.93054 8.90123 7.97566 9.01015 8.05597 9.09046C8.13628 9.17078 8.24521 9.21589 8.35878 9.21589C8.47236 9.21589 8.58128 9.17078 8.6616 9.09046C8.74191 9.01015 8.78702 8.90123 8.78702 8.78765V7.93117C8.78702 7.81759 8.74191 7.70867 8.6616 7.62836C8.58128 7.54805 8.47236 7.50293 8.35878 7.50293C8.24521 7.50293 8.13628 7.54805 8.05597 7.62836C7.97566 7.70867 7.93054 7.81759 7.93054 7.93117V8.78765ZM7.93054 8.78765C7.93054 9.92342 8.38172 11.0127 9.18483 11.8158C9.98794 12.6189 11.0772 13.0701 12.2129 13.0701H13.0694C13.183 13.0701 13.2919 13.0249 13.3722 12.9446C13.4526 12.8643 13.4977 12.7554 13.4977 12.6418C13.4977 12.5282 13.4526 12.4193 13.3722 12.339C13.2919 12.2587 13.183 12.2136 13.0694 12.2136H12.2129C12.0994 12.2136 11.9904 12.2587 11.9101 12.339C11.8298 12.4193 11.7847 12.5282 11.7847 12.6418C11.7847 12.7554 11.8298 12.8643 11.9101 12.9446C11.9904 13.0249 12.0994 13.0701 12.2129 13.0701" stroke="#14141C" stroke-linecap="round" stroke-linejoin="round"/>
</g>
<defs>
<clipPath id="clip0_1803_4159">
<rect width="20.5556" height="20.5556" fill="white" transform="translate(0.222168 0.222656)"/>
</clipPath>
</defs>
</svg>
