<svg width="18" height="18" viewBox="0 0 18 18" fill="none" xmlns="http://www.w3.org/2000/svg">
<path d="M16.5002 17.0625H1.47021C1.16271 17.0625 0.907715 16.8075 0.907715 16.5C0.907715 16.1925 1.16271 15.9375 1.47021 15.9375H16.5002C16.8077 15.9375 17.0627 16.1925 17.0627 16.5C17.0627 16.8075 16.8077 17.0625 16.5002 17.0625Z" fill="#667688"/>
<path d="M8.21982 7.05H4.50732C4.19982 7.05 3.94482 6.795 3.94482 6.4875C3.94482 6.18 4.19982 5.925 4.50732 5.925H8.21982C8.52732 5.925 8.78232 6.18 8.78232 6.4875C8.78232 6.795 8.52732 7.05 8.21982 7.05Z" fill="#667688"/>
<path d="M8.21982 9.8625H4.50732C4.19982 9.8625 3.94482 9.6075 3.94482 9.3C3.94482 8.9925 4.19982 8.7375 4.50732 8.7375H8.21982C8.52732 8.7375 8.78232 8.9925 8.78232 9.3C8.78232 9.6075 8.52732 9.8625 8.21982 9.8625Z" fill="#667688"/>
<path d="M15.9523 16.5825C15.6448 16.5825 15.3898 16.3275 15.3898 16.02V9.07499C15.3898 8.56499 15.1498 8.09999 14.7523 7.82249L10.7623 4.88999C10.5148 4.70249 10.4548 4.35749 10.6423 4.10249C10.8298 3.85499 11.1748 3.79499 11.4298 3.98249L15.4048 6.90749C16.0948 7.37999 16.5148 8.18999 16.5148 9.07499V16.0125C16.5148 16.3275 16.2598 16.5825 15.9523 16.5825Z" fill="#667688"/>
<path d="M2.07764 16.5825C1.77014 16.5825 1.51514 16.3275 1.51514 16.02V5.625C1.51514 4.545 2.16014 3.555 3.12764 3.165L7.95014 1.215C8.70764 0.907504 9.53264 0.997504 10.2151 1.455C10.9351 1.9425 11.3701 2.7675 11.3701 3.6675V16.005C11.3701 16.3125 11.1151 16.5675 10.8076 16.5675C10.5001 16.5675 10.2451 16.3125 10.2451 16.005V3.6825C10.2451 3.1575 9.99764 2.6775 9.58514 2.4C9.21764 2.1525 8.77514 2.1075 8.37014 2.265L3.54764 4.215C3.00764 4.4325 2.64014 5.0025 2.64014 5.625V16.0125C2.64014 16.3275 2.38514 16.5825 2.07764 16.5825Z" fill="#667688"/>
<path d="M6.3374 16.8525C6.0299 16.8525 5.7749 16.5975 5.7749 16.29V13.4775C5.7749 13.17 6.0299 12.915 6.3374 12.915C6.6449 12.915 6.8999 13.17 6.8999 13.4775V16.29C6.8999 16.5975 6.6449 16.8525 6.3374 16.8525Z" fill="#667688"/>
</svg>
