<svg width="18" height="18" viewBox="0 0 18 18" fill="none" xmlns="http://www.w3.org/2000/svg">
<path d="M9.00067 10.6274C7.40314 10.6274 6.09814 9.32993 6.09814 7.72493C6.09814 6.11996 7.40314 4.82996 9.00067 4.82996C10.5982 4.82996 11.9032 6.12746 11.9032 7.73243C11.9032 9.33743 10.5982 10.6274 9.00067 10.6274ZM9.00067 5.95496C8.02567 5.95496 7.22314 6.74996 7.22314 7.73243C7.22314 8.71493 8.01817 9.50993 9.00067 9.50993C9.98317 9.50993 10.7782 8.71493 10.7782 7.73243C10.7782 6.74996 9.97567 5.95496 9.00067 5.95496Z" fill="#1A324C"/>
<path d="M8.99977 17.07C7.88977 17.07 6.77227 16.65 5.90227 15.8175C3.68977 13.6875 1.24477 10.29 2.16727 6.2475C2.99977 2.58 6.20227 0.9375 8.99977 0.9375C8.99977 0.9375 8.99977 0.9375 9.00727 0.9375C11.8048 0.9375 15.0073 2.58 15.8398 6.255C16.7548 10.2975 14.3098 13.6875 12.0973 15.8175C11.2273 16.65 10.1098 17.07 8.99977 17.07ZM8.99977 2.0625C6.81727 2.0625 4.01227 3.225 3.26977 6.495C2.45977 10.0275 4.67977 13.0725 6.68977 15C7.98727 16.2525 10.0198 16.2525 11.3173 15C13.3198 13.0725 15.5398 10.0275 14.7448 6.495C13.9948 3.225 11.1823 2.0625 8.99977 2.0625Z" fill="#1A324C"/>
</svg>
