<svg width="18" height="18" viewBox="0 0 18 18" fill="none" xmlns="http://www.w3.org/2000/svg">
<path d="M16.4997 17.0625H1.46973C1.16223 17.0625 0.907227 16.8075 0.907227 16.5C0.907227 16.1925 1.16223 15.9375 1.46973 15.9375H16.4997C16.8072 15.9375 17.0622 16.1925 17.0622 16.5C17.0622 16.8075 16.8072 17.0625 16.4997 17.0625Z" fill="#1A324C"/>
<path d="M8.22031 7.05H4.50781C4.20031 7.05 3.94531 6.795 3.94531 6.4875C3.94531 6.18 4.20031 5.925 4.50781 5.925H8.22031C8.52781 5.925 8.78281 6.18 8.78281 6.4875C8.78281 6.795 8.52781 7.05 8.22031 7.05Z" fill="#1A324C"/>
<path d="M8.22031 9.8625H4.50781C4.20031 9.8625 3.94531 9.6075 3.94531 9.3C3.94531 8.9925 4.20031 8.7375 4.50781 8.7375H8.22031C8.52781 8.7375 8.78281 8.9925 8.78281 9.3C8.78281 9.6075 8.52781 9.8625 8.22031 9.8625Z" fill="#1A324C"/>
<path d="M15.9523 16.5825C15.6448 16.5825 15.3898 16.3275 15.3898 16.02V9.07499C15.3898 8.56499 15.1498 8.09999 14.7523 7.82249L10.7623 4.88999C10.5148 4.70249 10.4548 4.35749 10.6423 4.10249C10.8298 3.85499 11.1748 3.79499 11.4298 3.98249L15.4048 6.90749C16.0948 7.37999 16.5148 8.18999 16.5148 9.07499V16.0125C16.5148 16.3275 16.2598 16.5825 15.9523 16.5825Z" fill="#1A324C"/>
<path d="M2.07715 16.5825C1.76965 16.5825 1.51465 16.3275 1.51465 16.02V5.625C1.51465 4.545 2.15965 3.555 3.12715 3.165L7.94965 1.215C8.70715 0.907504 9.53215 0.997504 10.2146 1.455C10.9346 1.9425 11.3696 2.7675 11.3696 3.6675V16.005C11.3696 16.3125 11.1146 16.5675 10.8071 16.5675C10.4996 16.5675 10.2446 16.3125 10.2446 16.005V3.6825C10.2446 3.1575 9.99715 2.6775 9.58465 2.4C9.21715 2.1525 8.77465 2.1075 8.36965 2.265L3.54715 4.215C3.00715 4.4325 2.63965 5.0025 2.63965 5.625V16.0125C2.63965 16.3275 2.38465 16.5825 2.07715 16.5825Z" fill="#1A324C"/>
<path d="M6.33789 16.8525C6.03039 16.8525 5.77539 16.5975 5.77539 16.29V13.4775C5.77539 13.17 6.03039 12.915 6.33789 12.915C6.64539 12.915 6.90039 13.17 6.90039 13.4775V16.29C6.90039 16.5975 6.64539 16.8525 6.33789 16.8525Z" fill="#1A324C"/>
</svg>
