<svg width="18" height="18" viewBox="0 0 18 18" fill="none" xmlns="http://www.w3.org/2000/svg">
<g clip-path="url(#clip0_5802_4284)">
<path d="M16.5 17.0625H1.5C1.1925 17.0625 0.9375 16.8075 0.9375 16.5C0.9375 16.1925 1.1925 15.9375 1.5 15.9375H16.5C16.8075 15.9375 17.0625 16.1925 17.0625 16.5C17.0625 16.8075 16.8075 17.0625 16.5 17.0625Z" fill="#1A324C"/>
<path d="M10.875 4.67245C10.17 4.67245 9.465 4.53746 8.79 4.26746C8.58 4.18496 8.4375 3.97495 8.4375 3.74245V1.49245C8.4375 1.30495 8.5275 1.13246 8.685 1.02746C8.8425 0.922461 9.0375 0.899946 9.21 0.967446C10.2825 1.39495 11.4675 1.39495 12.54 0.967446C12.7125 0.899946 12.9075 0.922461 13.065 1.02746C13.2225 1.13246 13.3125 1.30495 13.3125 1.49245V3.74245C13.3125 3.97495 13.17 4.17746 12.96 4.26746C12.285 4.53746 11.58 4.67245 10.875 4.67245ZM9.5625 3.35244C10.4175 3.61494 11.3325 3.61494 12.1875 3.35244V2.26498C11.325 2.47498 10.425 2.47498 9.5625 2.26498V3.35244Z" fill="#1A324C"/>
<path d="M9 6.5625C8.6925 6.5625 8.4375 6.3075 8.4375 6V3.75C8.4375 3.4425 8.6925 3.1875 9 3.1875C9.3075 3.1875 9.5625 3.4425 9.5625 3.75V6C9.5625 6.3075 9.3075 6.5625 9 6.5625Z" fill="#1A324C"/>
<path d="M15 17.0625H3C2.6925 17.0625 2.4375 16.8075 2.4375 16.5V8.25C2.4375 6.435 3.435 5.4375 5.25 5.4375H12.75C14.565 5.4375 15.5625 6.435 15.5625 8.25V16.5C15.5625 16.8075 15.3075 17.0625 15 17.0625ZM3.5625 15.9375H14.4375V8.25C14.4375 7.065 13.935 6.5625 12.75 6.5625H5.25C4.065 6.5625 3.5625 7.065 3.5625 8.25V15.9375Z" fill="#1A324C"/>
<path d="M14.5651 9.5625H3.43506C3.12756 9.5625 2.87256 9.3075 2.87256 9C2.87256 8.6925 3.12756 8.4375 3.43506 8.4375H14.5651C14.8726 8.4375 15.1276 8.6925 15.1276 9C15.1276 9.3075 14.8726 9.5625 14.5651 9.5625Z" fill="#1A324C"/>
<path d="M6.55518 9H5.43018V16.5H6.55518V9Z" fill="#1A324C"/>
<path d="M9.55518 9H8.43018V16.5H9.55518V9Z" fill="#1A324C"/>
<path d="M12.5552 9H11.4302V16.5H12.5552V9Z" fill="#1A324C"/>
</g>
<defs>
<clipPath id="clip0_5802_4284">
<rect width="18" height="18" fill="white"/>
</clipPath>
</defs>
</svg>
